<?xml version="1.0" encoding="UTF-8" standalone="no"?>
<!DOCTYPE svg PUBLIC "-//W3C//DTD SVG 1.1//EN"
 "http://www.w3.org/Graphics/SVG/1.1/DTD/svg11.dtd">
<!-- Generated by graphviz version 2.44.1 (20200629.0846)
 -->
<!-- Title: G Pages: 1 -->
<svg width="2613pt" height="1248pt"
 viewBox="0.00 0.00 2612.56 1248.20" xmlns="http://www.w3.org/2000/svg" xmlns:xlink="http://www.w3.org/1999/xlink">
<g id="graph0" class="graph" transform="scale(1 1) rotate(0) translate(4 1244.2)">
<title>G</title>
<polygon fill="white" stroke="transparent" points="-4,4 -4,-1244.2 2608.56,-1244.2 2608.56,4 -4,4"/>
<!-- Start DAQ/RA -->
<g id="node1" class="node">
<title>Start DAQ/RA</title>
<ellipse fill="#eff3ff" stroke="#bdd7e7" cx="1471" cy="-1222.2" rx="60.02" ry="18"/>
<text text-anchor="middle" x="1471" y="-1218.8" font-family="Helvetica,sans-Serif" font-size="13.00" fill="#2171b5">Start DAQ/RA</text>
</g>
<!-- Mid Sweep Event -->
<g id="node2" class="node">
<title>Mid Sweep Event</title>
<ellipse fill="#eff3ff" stroke="#bdd7e7" cx="473" cy="-1149.2" rx="71" ry="18"/>
<text text-anchor="middle" x="473" y="-1145.8" font-family="Helvetica,sans-Serif" font-size="13.00" fill="#2171b5">Mid Sweep Event</text>
</g>
<!-- Start DAQ/RA&#45;&gt;Mid Sweep Event -->
<g id="edge1" class="edge">
<title>Start DAQ/RA&#45;&gt;Mid Sweep Event</title>
<path fill="none" stroke="#9ecae1" d="M1412.14,-1218.43C1274.24,-1211.73 919.58,-1193.25 624,-1167.2 598.25,-1164.93 570.08,-1161.91 545.13,-1159.04"/>
<polygon fill="#9ecae1" stroke="#9ecae1" points="545.35,-1155.54 535.01,-1157.87 544.54,-1162.5 545.35,-1155.54"/>
</g>
<!-- Post DAQ Event -->
<g id="node3" class="node">
<title>Post DAQ Event</title>
<ellipse fill="#eff3ff" stroke="#bdd7e7" cx="701" cy="-1149.2" rx="67.68" ry="18"/>
<text text-anchor="middle" x="701" y="-1145.8" font-family="Helvetica,sans-Serif" font-size="13.00" fill="#2171b5">Post DAQ Event</text>
</g>
<!-- Start DAQ/RA&#45;&gt;Post DAQ Event -->
<g id="edge2" class="edge">
<title>Start DAQ/RA&#45;&gt;Post DAQ Event</title>
<path fill="none" stroke="#9ecae1" d="M1414.38,-1215.98C1277.13,-1203.32 926.78,-1171.02 774.04,-1156.94"/>
<polygon fill="#9ecae1" stroke="#9ecae1" points="774.11,-1153.43 763.83,-1155.99 773.47,-1160.4 774.11,-1153.43"/>
</g>
<!-- Post Set Event -->
<g id="node4" class="node">
<title>Post Set Event</title>
<ellipse fill="#eff3ff" stroke="#bdd7e7" cx="999" cy="-1149.2" rx="62.57" ry="18"/>
<text text-anchor="middle" x="999" y="-1145.8" font-family="Helvetica,sans-Serif" font-size="13.00" fill="#2171b5">Post Set Event</text>
</g>
<!-- Start DAQ/RA&#45;&gt;Post Set Event -->
<g id="edge3" class="edge">
<title>Start DAQ/RA&#45;&gt;Post Set Event</title>
<path fill="none" stroke="#9ecae1" d="M1418.68,-1213.33C1331.61,-1200.23 1157.23,-1174 1062.98,-1159.82"/>
<polygon fill="#9ecae1" stroke="#9ecae1" points="1063.41,-1156.35 1053,-1158.32 1062.37,-1163.27 1063.41,-1156.35"/>
</g>
<!-- Post Sweep Event -->
<g id="node5" class="node">
<title>Post Sweep Event</title>
<ellipse fill="#eff3ff" stroke="#bdd7e7" cx="1471" cy="-1149.2" rx="74.58" ry="18"/>
<text text-anchor="middle" x="1471" y="-1145.8" font-family="Helvetica,sans-Serif" font-size="13.00" fill="#2171b5">Post Sweep Event</text>
</g>
<!-- Start DAQ/RA&#45;&gt;Post Sweep Event -->
<g id="edge4" class="edge">
<title>Start DAQ/RA&#45;&gt;Post Sweep Event</title>
<path fill="none" stroke="#9ecae1" d="M1471,-1204.01C1471,-1195.99 1471,-1186.25 1471,-1177.27"/>
<polygon fill="#9ecae1" stroke="#9ecae1" points="1474.5,-1177.23 1471,-1167.23 1467.5,-1177.23 1474.5,-1177.23"/>
</g>
<!-- Prepare DAQ/Pre Set Event -->
<g id="node6" class="node">
<title>Prepare DAQ/Pre Set Event</title>
<ellipse fill="#eff3ff" stroke="#bdd7e7" cx="1850" cy="-1149.2" rx="63.6" ry="18"/>
<text text-anchor="middle" x="1850" y="-1145.8" font-family="Helvetica,sans-Serif" font-size="13.00" fill="#2171b5">Pre DAQ Event</text>
</g>
<!-- Start DAQ/RA&#45;&gt;Prepare DAQ/Pre Set Event -->
<g id="edge5" class="edge">
<title>Start DAQ/RA&#45;&gt;Prepare DAQ/Pre Set Event</title>
<path fill="none" stroke="#9ecae1" d="M1522.15,-1212.7C1582.31,-1202.56 1685.12,-1184.75 1773,-1167.2 1779.17,-1165.97 1785.6,-1164.63 1792.01,-1163.27"/>
<polygon fill="#9ecae1" stroke="#9ecae1" points="1792.97,-1166.64 1802.01,-1161.11 1791.49,-1159.8 1792.97,-1166.64"/>
</g>
<!-- n83 -->
<g id="node7" class="node">
<title>n83</title>
<ellipse fill="#eff3ff" stroke="#bdd7e7" cx="1669" cy="-1149.2" rx="95.27" ry="18"/>
<text text-anchor="middle" x="1669" y="-1145.8" font-family="Helvetica,sans-Serif" font-size="13.00" fill="#2171b5">Pre Sweep Config Event</text>
</g>
<!-- Start DAQ/RA&#45;&gt;n83 -->
<g id="edge6" class="edge">
<title>Start DAQ/RA&#45;&gt;n83</title>
<path fill="none" stroke="#9ecae1" d="M1508.24,-1207.85C1538.93,-1196.84 1582.8,-1181.11 1616.97,-1168.86"/>
<polygon fill="#9ecae1" stroke="#9ecae1" points="1618.54,-1172.01 1626.78,-1165.34 1616.18,-1165.42 1618.54,-1172.01"/>
</g>
<!-- n85 -->
<g id="node8" class="node">
<title>n85</title>
<ellipse fill="#eff3ff" stroke="#bdd7e7" cx="2045" cy="-1149.2" rx="58.99" ry="18"/>
<text text-anchor="middle" x="2045" y="-1145.8" font-family="Helvetica,sans-Serif" font-size="13.00" fill="#2171b5">Pre Set Event</text>
</g>
<!-- Start DAQ/RA&#45;&gt;n85 -->
<g id="edge7" class="edge">
<title>Start DAQ/RA&#45;&gt;n85</title>
<path fill="none" stroke="#9ecae1" d="M1526.01,-1214.98C1611.15,-1205.27 1779.96,-1185.71 1923,-1167.2 1942.51,-1164.68 1963.74,-1161.77 1982.95,-1159.09"/>
<polygon fill="#9ecae1" stroke="#9ecae1" points="1983.67,-1162.52 1993.09,-1157.66 1982.7,-1155.59 1983.67,-1162.52"/>
</g>
<!-- BL QC passed? -->
<g id="node9" class="node">
<title>BL QC passed?</title>
<ellipse fill="#eff3ff" stroke="#bdd7e7" cx="327" cy="-1068.74" rx="65.89" ry="18"/>
<text text-anchor="middle" x="327" y="-1065.34" font-family="Helvetica,sans-Serif" font-size="13.00" fill="#2171b5">BL QC passed?</text>
</g>
<!-- Mid Sweep Event&#45;&gt;BL QC passed? -->
<g id="edge8" class="edge">
<title>Mid Sweep Event&#45;&gt;BL QC passed?</title>
<path fill="none" stroke="#9ecae1" d="M444.16,-1132.7C421.46,-1120.5 389.64,-1103.41 364.89,-1090.11"/>
<polygon fill="#9ecae1" stroke="#9ecae1" points="366.25,-1086.86 355.78,-1085.21 362.94,-1093.03 366.25,-1086.86"/>
</g>
<!-- Update Dashboard -->
<g id="node10" class="node">
<title>Update Dashboard</title>
<ellipse fill="#eff3ff" stroke="#bdd7e7" cx="701" cy="-1068.74" rx="75.34" ry="18"/>
<text text-anchor="middle" x="701" y="-1065.34" font-family="Helvetica,sans-Serif" font-size="13.00" fill="#2171b5">Update Dashboard</text>
</g>
<!-- Post DAQ Event&#45;&gt;Update Dashboard -->
<g id="edge9" class="edge">
<title>Post DAQ Event&#45;&gt;Update Dashboard</title>
<path fill="none" stroke="#9ecae1" d="M701,-1131.18C701,-1121.27 701,-1108.55 701,-1097.26"/>
<polygon fill="#9ecae1" stroke="#9ecae1" points="704.5,-1097.01 701,-1087.01 697.5,-1097.01 704.5,-1097.01"/>
</g>
<!-- n81 -->
<g id="node11" class="node">
<title>n81</title>
<ellipse fill="#eff3ff" stroke="#bdd7e7" cx="519" cy="-1068.74" rx="89.19" ry="25.41"/>
<text text-anchor="middle" x="519" y="-1072.34" font-family="Helvetica,sans-Serif" font-size="13.00" fill="#2171b5">Has passing set QC</text>
<text text-anchor="middle" x="519" y="-1058.34" font-family="Helvetica,sans-Serif" font-size="13.00" fill="#2171b5"> labnotebook entry</text>
</g>
<!-- Post DAQ Event&#45;&gt;n81 -->
<g id="edge10" class="edge">
<title>Post DAQ Event&#45;&gt;n81</title>
<path fill="none" stroke="#9ecae1" d="M666.77,-1133.44C641.31,-1122.47 605.98,-1107.24 576.25,-1094.42"/>
<polygon fill="#9ecae1" stroke="#9ecae1" points="577.38,-1091.1 566.81,-1090.36 574.61,-1097.53 577.38,-1091.1"/>
</g>
<!-- Post Set Event&#45;&gt;Update Dashboard -->
<g id="edge11" class="edge">
<title>Post Set Event&#45;&gt;Update Dashboard</title>
<path fill="none" stroke="#9ecae1" d="M952.54,-1136.99C909.1,-1126.39 842.5,-1109.82 785,-1094.2 775.64,-1091.66 765.73,-1088.86 756.12,-1086.1"/>
<polygon fill="#9ecae1" stroke="#9ecae1" points="756.83,-1082.66 746.25,-1083.24 754.89,-1089.39 756.83,-1082.66"/>
</g>
<!-- Has three passing sweeps in set\n with the same DAScale value? [1] -->
<g id="node12" class="node">
<title>Has three passing sweeps in set\n with the same DAScale value? [1]</title>
<ellipse fill="#eff3ff" stroke="#bdd7e7" cx="1180" cy="-1068.74" rx="96.79" ry="18"/>
<text text-anchor="middle" x="1180" y="-1065.34" font-family="Helvetica,sans-Serif" font-size="13.00" fill="#2171b5">Has one passing sweep?</text>
</g>
<!-- Post Set Event&#45;&gt;Has three passing sweeps in set\n with the same DAScale value? [1] -->
<g id="edge12" class="edge">
<title>Post Set Event&#45;&gt;Has three passing sweeps in set\n with the same DAScale value? [1]</title>
<path fill="none" stroke="#9ecae1" d="M1032.2,-1133.81C1060.78,-1121.42 1102.31,-1103.42 1134.07,-1089.65"/>
<polygon fill="#9ecae1" stroke="#9ecae1" points="1135.81,-1092.71 1143.59,-1085.53 1133.03,-1086.29 1135.81,-1092.71"/>
</g>
<!-- n55 -->
<g id="node13" class="node">
<title>n55</title>
<ellipse fill="#eff3ff" stroke="#bdd7e7" cx="930" cy="-1068.74" rx="135.62" ry="18"/>
<text text-anchor="middle" x="930" y="-1065.34" font-family="Helvetica,sans-Serif" font-size="13.00" fill="#2171b5">Publish results via ZeroMQ message</text>
</g>
<!-- Post Set Event&#45;&gt;n55 -->
<g id="edge13" class="edge">
<title>Post Set Event&#45;&gt;n55</title>
<path fill="none" stroke="#9ecae1" d="M984.37,-1131.56C974.89,-1120.79 962.38,-1106.56 951.75,-1094.48"/>
<polygon fill="#9ecae1" stroke="#9ecae1" points="954.32,-1092.1 945.09,-1086.9 949.06,-1096.72 954.32,-1092.1"/>
</g>
<!-- n87 -->
<g id="node14" class="node">
<title>n87</title>
<ellipse fill="#eff3ff" stroke="#bdd7e7" cx="1471" cy="-1068.74" rx="176.14" ry="25.41"/>
<text text-anchor="middle" x="1471" y="-1072.34" font-family="Helvetica,sans-Serif" font-size="13.00" fill="#2171b5">Check sampling frequency</text>
<text text-anchor="middle" x="1471" y="-1058.34" font-family="Helvetica,sans-Serif" font-size="13.00" fill="#2171b5"> and store the QC state in the labnotebook</text>
</g>
<!-- Post Sweep Event&#45;&gt;n87 -->
<g id="edge14" class="edge">
<title>Post Sweep Event&#45;&gt;n87</title>
<path fill="none" stroke="#9ecae1" d="M1471,-1131.18C1471,-1123.38 1471,-1113.85 1471,-1104.63"/>
<polygon fill="#9ecae1" stroke="#9ecae1" points="1474.5,-1104.48 1471,-1094.48 1467.5,-1104.48 1474.5,-1104.48"/>
</g>
<!-- Enable &quot;TP during ITI&quot; -->
<g id="node15" class="node">
<title>Enable &quot;TP during ITI&quot;</title>
<ellipse fill="#eff3ff" stroke="#bdd7e7" cx="2074" cy="-1068.74" rx="72.02" ry="18"/>
<text text-anchor="middle" x="2074" y="-1065.34" font-family="Helvetica,sans-Serif" font-size="13.00" fill="#2171b5">Disable &quot;Indexing&quot;</text>
</g>
<!-- Prepare DAQ/Pre Set Event&#45;&gt;Enable &quot;TP during ITI&quot; -->
<g id="edge15" class="edge">
<title>Prepare DAQ/Pre Set Event&#45;&gt;Enable &quot;TP during ITI&quot;</title>
<path fill="none" stroke="#9ecae1" d="M1888.51,-1134.71C1926.03,-1121.57 1983.25,-1101.53 2024.21,-1087.18"/>
<polygon fill="#9ecae1" stroke="#9ecae1" points="2025.45,-1090.46 2033.73,-1083.85 2023.14,-1083.85 2025.45,-1090.46"/>
</g>
<!-- Check if no TTL channels are active -->
<g id="node16" class="node">
<title>Check if no TTL channels are active</title>
<ellipse fill="#eff3ff" stroke="#bdd7e7" cx="1850" cy="-1068.74" rx="133.83" ry="18"/>
<text text-anchor="middle" x="1850" y="-1065.34" font-family="Helvetica,sans-Serif" font-size="13.00" fill="#2171b5">Check if no TTL channels are active</text>
</g>
<!-- Prepare DAQ/Pre Set Event&#45;&gt;Check if no TTL channels are active -->
<g id="edge16" class="edge">
<title>Prepare DAQ/Pre Set Event&#45;&gt;Check if no TTL channels are active</title>
<path fill="none" stroke="#9ecae1" d="M1850,-1131.18C1850,-1121.27 1850,-1108.55 1850,-1097.26"/>
<polygon fill="#9ecae1" stroke="#9ecae1" points="1853.5,-1097.01 1850,-1087.01 1846.5,-1097.01 1853.5,-1097.01"/>
</g>
<!-- n84 -->
<g id="node17" class="node">
<title>n84</title>
<ellipse fill="#eff3ff" stroke="#bdd7e7" cx="1674" cy="-989.93" rx="212.26" ry="35.21"/>
<text text-anchor="middle" x="1674" y="-1000.53" font-family="Helvetica,sans-Serif" font-size="13.00" fill="#2171b5">Check that the number of testpulses</text>
<text text-anchor="middle" x="1674" y="-986.53" font-family="Helvetica,sans-Serif" font-size="13.00" fill="#2171b5"> from the analysis parameter &quot;NumberOfTestpulses&quot;</text>
<text text-anchor="middle" x="1674" y="-972.53" font-family="Helvetica,sans-Serif" font-size="13.00" fill="#2171b5"> matches the number of actually present test pulses</text>
</g>
<!-- n83&#45;&gt;n84 -->
<g id="edge17" class="edge">
<title>n83&#45;&gt;n84</title>
<path fill="none" stroke="#9ecae1" d="M1669.54,-1131.07C1670.27,-1108.4 1671.56,-1067.59 1672.57,-1035.83"/>
<polygon fill="#9ecae1" stroke="#9ecae1" points="1676.08,-1035.56 1672.9,-1025.45 1669.09,-1035.33 1676.08,-1035.56"/>
</g>
<!-- n86 -->
<g id="node18" class="node">
<title>n86</title>
<ellipse fill="#eff3ff" stroke="#bdd7e7" cx="2341" cy="-1068.74" rx="120.42" ry="25.41"/>
<text text-anchor="middle" x="2341" y="-1072.34" font-family="Helvetica,sans-Serif" font-size="13.00" fill="#2171b5">Set analysis function version</text>
<text text-anchor="middle" x="2341" y="-1058.34" font-family="Helvetica,sans-Serif" font-size="13.00" fill="#2171b5"> in labnotebook</text>
</g>
<!-- n85&#45;&gt;n86 -->
<g id="edge18" class="edge">
<title>n85&#45;&gt;n86</title>
<path fill="none" stroke="#9ecae1" d="M2088.04,-1136.79C2132.51,-1125 2203.03,-1106.31 2258.33,-1091.66"/>
<polygon fill="#9ecae1" stroke="#9ecae1" points="2259.34,-1095.01 2268.11,-1089.06 2257.55,-1088.24 2259.34,-1095.01"/>
</g>
<!-- Grab next completely acquired chunk\n(500ms) of stimset baseline -->
<g id="node19" class="node">
<title>Grab next completely acquired chunk\n(500ms) of stimset baseline</title>
<ellipse fill="#eff3ff" stroke="#bdd7e7" cx="216" cy="-901.22" rx="154.3" ry="25.41"/>
<text text-anchor="middle" x="216" y="-904.82" font-family="Helvetica,sans-Serif" font-size="13.00" fill="#2171b5">Grab next completely acquired chunk</text>
<text text-anchor="middle" x="216" y="-890.82" font-family="Helvetica,sans-Serif" font-size="13.00" fill="#2171b5">(500ms) of stimset baseline</text>
</g>
<!-- BL QC passed?&#45;&gt;Grab next completely acquired chunk\n(500ms) of stimset baseline -->
<g id="edge19" class="edge">
<title>BL QC passed?&#45;&gt;Grab next completely acquired chunk\n(500ms) of stimset baseline</title>
<path fill="none" stroke="#9ecae1" d="M315.75,-1050.96C297.61,-1023.91 261.57,-970.18 238.15,-935.25"/>
<polygon fill="#9ecae1" stroke="#9ecae1" points="240.96,-933.15 232.48,-926.8 235.14,-937.05 240.96,-933.15"/>
<text text-anchor="middle" x="305" y="-987.43" font-family="Helvetica,sans-Serif" font-size="10.00" fill="#3182bd">No</text>
</g>
<!-- n82 -->
<g id="node20" class="node">
<title>n82</title>
<ellipse fill="#eff3ff" stroke="#bdd7e7" cx="538" cy="-901.22" rx="149.81" ry="25.41"/>
<text text-anchor="middle" x="538" y="-904.82" font-family="Helvetica,sans-Serif" font-size="13.00" fill="#2171b5">Set stimset from analysis parameter</text>
<text text-anchor="middle" x="538" y="-890.82" font-family="Helvetica,sans-Serif" font-size="13.00" fill="#2171b5"> &quot;NextStimSetName&quot;</text>
</g>
<!-- n81&#45;&gt;n82 -->
<g id="edge20" class="edge">
<title>n81&#45;&gt;n82</title>
<path fill="none" stroke="#9ecae1" d="M521.84,-1042.96C525.07,-1014.85 530.36,-968.79 534,-937.06"/>
<polygon fill="#9ecae1" stroke="#9ecae1" points="537.5,-937.24 535.17,-926.9 530.55,-936.44 537.5,-937.24"/>
<text text-anchor="middle" x="541.5" y="-987.43" font-family="Helvetica,sans-Serif" font-size="10.00" fill="#3182bd">Yes</text>
</g>
<!-- Mark set as failed\n in labnotebook -->
<g id="node21" class="node">
<title>Mark set as failed\n in labnotebook</title>
<ellipse fill="#eff3ff" stroke="#bdd7e7" cx="1188" cy="-901.22" rx="79.39" ry="25.41"/>
<text text-anchor="middle" x="1188" y="-904.82" font-family="Helvetica,sans-Serif" font-size="13.00" fill="#2171b5">Mark set as failed</text>
<text text-anchor="middle" x="1188" y="-890.82" font-family="Helvetica,sans-Serif" font-size="13.00" fill="#2171b5"> in labnotebook</text>
</g>
<!-- Has three passing sweeps in set\n with the same DAScale value? [1]&#45;&gt;Mark set as failed\n in labnotebook -->
<g id="edge21" class="edge">
<title>Has three passing sweeps in set\n with the same DAScale value? [1]&#45;&gt;Mark set as failed\n in labnotebook</title>
<path fill="none" stroke="#9ecae1" d="M1180.83,-1050.65C1182.12,-1023.93 1184.64,-971.71 1186.32,-936.89"/>
<polygon fill="#9ecae1" stroke="#9ecae1" points="1189.83,-936.85 1186.82,-926.69 1182.84,-936.51 1189.83,-936.85"/>
<text text-anchor="middle" x="1193" y="-987.43" font-family="Helvetica,sans-Serif" font-size="10.00" fill="#3182bd">No</text>
</g>
<!-- Mark set as passed\n in labnotebook -->
<g id="node22" class="node">
<title>Mark set as passed\n in labnotebook</title>
<ellipse fill="#eff3ff" stroke="#bdd7e7" cx="1005" cy="-901.22" rx="86.03" ry="25.41"/>
<text text-anchor="middle" x="1005" y="-904.82" font-family="Helvetica,sans-Serif" font-size="13.00" fill="#2171b5">Mark set as passed</text>
<text text-anchor="middle" x="1005" y="-890.82" font-family="Helvetica,sans-Serif" font-size="13.00" fill="#2171b5"> in labnotebook</text>
</g>
<!-- Has three passing sweeps in set\n with the same DAScale value? [1]&#45;&gt;Mark set as passed\n in labnotebook -->
<g id="edge22" class="edge">
<title>Has three passing sweeps in set\n with the same DAScale value? [1]&#45;&gt;Mark set as passed\n in labnotebook</title>
<path fill="none" stroke="#9ecae1" d="M1162.26,-1050.96C1132.97,-1023.26 1074.1,-967.58 1037.28,-932.76"/>
<polygon fill="#9ecae1" stroke="#9ecae1" points="1039.45,-929.99 1029.78,-925.66 1034.64,-935.08 1039.45,-929.99"/>
<text text-anchor="middle" x="1143.5" y="-987.43" font-family="Helvetica,sans-Serif" font-size="10.00" fill="#3182bd">Yes</text>
</g>
<!-- n93 -->
<g id="node23" class="node">
<title>n93</title>
<ellipse fill="#eff3ff" stroke="#bdd7e7" cx="1441" cy="-901.22" rx="152.06" ry="35.21"/>
<text text-anchor="middle" x="1441" y="-911.82" font-family="Helvetica,sans-Serif" font-size="13.00" fill="#2171b5">Read the &quot;Steady State Resistance&quot;</text>
<text text-anchor="middle" x="1441" y="-897.82" font-family="Helvetica,sans-Serif" font-size="13.00" fill="#2171b5"> from the SweepFormula results</text>
<text text-anchor="middle" x="1441" y="-883.82" font-family="Helvetica,sans-Serif" font-size="13.00" fill="#2171b5"> labnotebook entry</text>
</g>
<!-- n87&#45;&gt;n93 -->
<g id="edge23" class="edge">
<title>n87&#45;&gt;n93</title>
<path fill="none" stroke="#9ecae1" d="M1463.47,-1043.19C1461.85,-1037.35 1460.25,-1031.13 1459,-1025.29 1453.48,-999.44 1449.13,-970.18 1446.08,-946.68"/>
<polygon fill="#9ecae1" stroke="#9ecae1" points="1449.54,-946.14 1444.82,-936.65 1442.6,-947.01 1449.54,-946.14"/>
</g>
<!-- Enable &quot;Multidevice DAQ&quot; -->
<g id="node24" class="node">
<title>Enable &quot;Multidevice DAQ&quot;</title>
<ellipse fill="#eff3ff" stroke="#bdd7e7" cx="2074" cy="-901.22" rx="99.35" ry="18"/>
<text text-anchor="middle" x="2074" y="-897.82" font-family="Helvetica,sans-Serif" font-size="13.00" fill="#2171b5">Enable &quot;Multidevice DAQ&quot;</text>
</g>
<!-- Enable &quot;TP during ITI&quot;&#45;&gt;Enable &quot;Multidevice DAQ&quot; -->
<g id="edge24" class="edge">
<title>Enable &quot;TP during ITI&quot;&#45;&gt;Enable &quot;Multidevice DAQ&quot;</title>
<path fill="none" stroke="#9ecae1" d="M2074,-1050.65C2074,-1022.03 2074,-964.17 2074,-929.75"/>
<polygon fill="#9ecae1" stroke="#9ecae1" points="2077.5,-929.47 2074,-919.47 2070.5,-929.47 2077.5,-929.47"/>
</g>
<!-- Check if mode is IC -->
<g id="node25" class="node">
<title>Check if mode is IC</title>
<ellipse fill="#eff3ff" stroke="#bdd7e7" cx="1872" cy="-901.22" rx="80.71" ry="18"/>
<text text-anchor="middle" x="1872" y="-897.82" font-family="Helvetica,sans-Serif" font-size="13.00" fill="#2171b5">Check if mode is VC</text>
</g>
<!-- Check if no TTL channels are active&#45;&gt;Check if mode is IC -->
<g id="edge25" class="edge">
<title>Check if no TTL channels are active&#45;&gt;Check if mode is IC</title>
<path fill="none" stroke="#9ecae1" d="M1869.87,-1050.69C1876.66,-1043.6 1883.43,-1034.81 1887,-1025.29 1898.81,-993.76 1890.59,-954.8 1882.4,-929.28"/>
<polygon fill="#9ecae1" stroke="#9ecae1" points="1885.62,-927.87 1879.07,-919.54 1879,-930.14 1885.62,-927.87"/>
</g>
<!-- Abort -->
<g id="node40" class="node">
<title>Abort</title>
<ellipse fill="#eff3ff" stroke="#bdd7e7" cx="1730" cy="-572.9" rx="29.11" ry="18"/>
<text text-anchor="middle" x="1730" y="-569.5" font-family="Helvetica,sans-Serif" font-size="13.00" fill="#2171b5">Abort</text>
</g>
<!-- n84&#45;&gt;Abort -->
<g id="edge48" class="edge">
<title>n84&#45;&gt;Abort</title>
<path fill="none" stroke="#9ecae1" d="M1679.21,-954.32C1683.19,-924.88 1688,-881.45 1688,-843.37 1688,-843.37 1688,-843.37 1688,-682.16 1688,-651.95 1702.39,-620.02 1714.32,-598.73"/>
<polygon fill="#9ecae1" stroke="#9ecae1" points="1717.39,-600.42 1719.4,-590.02 1711.34,-596.89 1717.39,-600.42"/>
<text text-anchor="middle" x="1697.5" y="-781.01" font-family="Helvetica,sans-Serif" font-size="10.00" fill="#3182bd">Yes</text>
</g>
<!-- n89 -->
<g id="node45" class="node">
<title>n89</title>
<ellipse fill="#eff3ff" stroke="#bdd7e7" cx="2398" cy="-901.22" rx="206.62" ry="18"/>
<text text-anchor="middle" x="2398" y="-897.82" font-family="Helvetica,sans-Serif" font-size="13.00" fill="#2171b5">Read &quot;SamplingMultiplier&quot; analysis parameter and apply it</text>
</g>
<!-- n86&#45;&gt;n89 -->
<g id="edge49" class="edge">
<title>n86&#45;&gt;n89</title>
<path fill="none" stroke="#9ecae1" d="M2349.41,-1043.32C2359.92,-1012.81 2377.84,-960.78 2388.73,-929.14"/>
<polygon fill="#9ecae1" stroke="#9ecae1" points="2392.05,-930.24 2392,-919.64 2385.44,-927.96 2392.05,-930.24"/>
</g>
<!-- Chunk already evaluated? -->
<g id="node26" class="node">
<title>Chunk already evaluated?</title>
<ellipse fill="#eff3ff" stroke="#bdd7e7" cx="193" cy="-783.51" rx="99.61" ry="18"/>
<text text-anchor="middle" x="193" y="-780.11" font-family="Helvetica,sans-Serif" font-size="13.00" fill="#2171b5">Chunk already evaluated?</text>
</g>
<!-- Grab next completely acquired chunk\n(500ms) of stimset baseline&#45;&gt;Chunk already evaluated? -->
<g id="edge26" class="edge">
<title>Grab next completely acquired chunk\n(500ms) of stimset baseline&#45;&gt;Chunk already evaluated?</title>
<path fill="none" stroke="#9ecae1" d="M181.62,-876.32C172.92,-868.37 164.72,-858.73 160,-847.87 154.36,-834.87 160.33,-820.85 168.67,-809.31"/>
<polygon fill="#9ecae1" stroke="#9ecae1" points="171.49,-811.39 175.02,-801.4 166.03,-807 171.49,-811.39"/>
<text text-anchor="middle" x="183" y="-839.87" font-family="Helvetica,sans-Serif" font-size="10.00" fill="#3182bd">Have one</text>
</g>
<!-- n94 -->
<g id="node46" class="node">
<title>n94</title>
<ellipse fill="#eff3ff" stroke="#bdd7e7" cx="1441" cy="-783.51" rx="210.94" ry="35.21"/>
<text text-anchor="middle" x="1441" y="-794.11" font-family="Helvetica,sans-Serif" font-size="13.00" fill="#2171b5">Is the value between the</text>
<text text-anchor="middle" x="1441" y="-780.11" font-family="Helvetica,sans-Serif" font-size="13.00" fill="#2171b5"> &quot;MinPipetteResistance&quot; and &quot;MaxPipetteResitance&quot;</text>
<text text-anchor="middle" x="1441" y="-766.11" font-family="Helvetica,sans-Serif" font-size="13.00" fill="#2171b5"> analysis parameters?</text>
</g>
<!-- n93&#45;&gt;n94 -->
<g id="edge50" class="edge">
<title>n93&#45;&gt;n94</title>
<path fill="none" stroke="#9ecae1" d="M1441,-865.82C1441,-854.26 1441,-841.21 1441,-828.99"/>
<polygon fill="#9ecae1" stroke="#9ecae1" points="1444.5,-828.98 1441,-818.98 1437.5,-828.98 1444.5,-828.98"/>
</g>
<!-- n95 -->
<g id="node47" class="node">
<title>n95</title>
<ellipse fill="#eff3ff" stroke="#bdd7e7" cx="1112" cy="-783.51" rx="100.37" ry="18"/>
<text text-anchor="middle" x="1112" y="-780.11" font-family="Helvetica,sans-Serif" font-size="13.00" fill="#2171b5">Store it in the labnotebook</text>
</g>
<!-- n93&#45;&gt;n95 -->
<g id="edge51" class="edge">
<title>n93&#45;&gt;n95</title>
<path fill="none" stroke="#9ecae1" d="M1358.83,-871.32C1298.21,-850 1217.51,-821.62 1165.15,-803.21"/>
<polygon fill="#9ecae1" stroke="#9ecae1" points="1165.99,-799.79 1155.4,-799.78 1163.67,-806.39 1165.99,-799.79"/>
</g>
<!-- Disable &quot;dDAQ&quot;/&quot;oodDAQ&quot; -->
<g id="node28" class="node">
<title>Disable &quot;dDAQ&quot;/&quot;oodDAQ&quot;</title>
<ellipse fill="#eff3ff" stroke="#bdd7e7" cx="2122" cy="-783.51" rx="102.93" ry="18"/>
<text text-anchor="middle" x="2122" y="-780.11" font-family="Helvetica,sans-Serif" font-size="13.00" fill="#2171b5">Disable &quot;dDAQ&quot;/&quot;oodDAQ&quot;</text>
</g>
<!-- Enable &quot;Multidevice DAQ&quot;&#45;&gt;Disable &quot;dDAQ&quot;/&quot;oodDAQ&quot; -->
<g id="edge29" class="edge">
<title>Enable &quot;Multidevice DAQ&quot;&#45;&gt;Disable &quot;dDAQ&quot;/&quot;oodDAQ&quot;</title>
<path fill="none" stroke="#9ecae1" d="M2081.08,-883.15C2088.95,-864.18 2101.76,-833.3 2110.95,-811.15"/>
<polygon fill="#9ecae1" stroke="#9ecae1" points="2114.29,-812.23 2114.89,-801.66 2107.82,-809.55 2114.29,-812.23"/>
</g>
<!-- Check if only one headstage is active -->
<g id="node29" class="node">
<title>Check if only one headstage is active</title>
<ellipse fill="#eff3ff" stroke="#bdd7e7" cx="1863" cy="-783.51" rx="137.91" ry="18"/>
<text text-anchor="middle" x="1863" y="-780.11" font-family="Helvetica,sans-Serif" font-size="13.00" fill="#2171b5">Check if only one headstage is active</text>
</g>
<!-- Check if mode is IC&#45;&gt;Check if only one headstage is active -->
<g id="edge30" class="edge">
<title>Check if mode is IC&#45;&gt;Check if only one headstage is active</title>
<path fill="none" stroke="#9ecae1" d="M1870.67,-883.15C1869.21,-864.35 1866.84,-833.86 1865.12,-811.75"/>
<polygon fill="#9ecae1" stroke="#9ecae1" points="1868.6,-811.35 1864.33,-801.66 1861.62,-811.9 1868.6,-811.35"/>
</g>
<!-- Chunk already evaluated?&#45;&gt;Grab next completely acquired chunk\n(500ms) of stimset baseline -->
<g id="edge27" class="edge">
<title>Chunk already evaluated?&#45;&gt;Grab next completely acquired chunk\n(500ms) of stimset baseline</title>
<path fill="none" stroke="#9ecae1" d="M197.71,-801.88C200.37,-812.03 203.62,-825.12 206,-836.87 207.88,-846.14 209.61,-856.25 211.09,-865.6"/>
<polygon fill="#9ecae1" stroke="#9ecae1" points="207.67,-866.41 212.65,-875.76 214.59,-865.35 207.67,-866.41"/>
<text text-anchor="middle" x="217.5" y="-839.87" font-family="Helvetica,sans-Serif" font-size="10.00" fill="#3182bd">Yes</text>
</g>
<!-- Baseline chunk type -->
<g id="node27" class="node">
<title>Baseline chunk type</title>
<ellipse fill="#eff3ff" stroke="#bdd7e7" cx="193" cy="-683.16" rx="78.92" ry="18"/>
<text text-anchor="middle" x="193" y="-679.76" font-family="Helvetica,sans-Serif" font-size="13.00" fill="#2171b5">Baseline chunk type</text>
</g>
<!-- Chunk already evaluated?&#45;&gt;Baseline chunk type -->
<g id="edge28" class="edge">
<title>Chunk already evaluated?&#45;&gt;Baseline chunk type</title>
<path fill="none" stroke="#9ecae1" d="M193,-765.38C193,-750.52 193,-728.75 193,-711.49"/>
<polygon fill="#9ecae1" stroke="#9ecae1" points="196.5,-711.42 193,-701.42 189.5,-711.42 196.5,-711.42"/>
<text text-anchor="middle" x="200" y="-722.16" font-family="Helvetica,sans-Serif" font-size="10.00" fill="#3182bd">No</text>
</g>
<!-- Check RMS short -->
<g id="node30" class="node">
<title>Check RMS short</title>
<ellipse fill="#eff3ff" stroke="#bdd7e7" cx="193" cy="-572.9" rx="71.26" ry="18"/>
<text text-anchor="middle" x="193" y="-569.5" font-family="Helvetica,sans-Serif" font-size="13.00" fill="#2171b5">Check RMS short</text>
</g>
<!-- Baseline chunk type&#45;&gt;Check RMS short -->
<g id="edge31" class="edge">
<title>Baseline chunk type&#45;&gt;Check RMS short</title>
<path fill="none" stroke="#9ecae1" d="M193,-664.76C193,-647.64 193,-621.23 193,-601.29"/>
<polygon fill="#9ecae1" stroke="#9ecae1" points="196.5,-601.25 193,-591.25 189.5,-601.25 196.5,-601.25"/>
<text text-anchor="middle" x="215" y="-639.16" font-family="Helvetica,sans-Serif" font-size="10.00" fill="#3182bd">pre pulse</text>
</g>
<!-- Enable &quot;Repeated Acquisition&quot; -->
<g id="node31" class="node">
<title>Enable &quot;Repeated Acquisition&quot;</title>
<ellipse fill="#eff3ff" stroke="#bdd7e7" cx="2122" cy="-683.16" rx="114.93" ry="18"/>
<text text-anchor="middle" x="2122" y="-679.76" font-family="Helvetica,sans-Serif" font-size="13.00" fill="#2171b5">Enable &quot;Repeated Acquisition&quot;</text>
</g>
<!-- Disable &quot;dDAQ&quot;/&quot;oodDAQ&quot;&#45;&gt;Enable &quot;Repeated Acquisition&quot; -->
<g id="edge32" class="edge">
<title>Disable &quot;dDAQ&quot;/&quot;oodDAQ&quot;&#45;&gt;Enable &quot;Repeated Acquisition&quot;</title>
<path fill="none" stroke="#9ecae1" d="M2122,-765.38C2122,-750.52 2122,-728.75 2122,-711.49"/>
<polygon fill="#9ecae1" stroke="#9ecae1" points="2125.5,-711.42 2122,-701.42 2118.5,-711.42 2125.5,-711.42"/>
</g>
<!-- All checks passed -->
<g id="node36" class="node">
<title>All checks passed</title>
<ellipse fill="#eff3ff" stroke="#bdd7e7" cx="1843" cy="-683.16" rx="71.26" ry="18"/>
<text text-anchor="middle" x="1843" y="-679.76" font-family="Helvetica,sans-Serif" font-size="13.00" fill="#2171b5">All checks passed</text>
</g>
<!-- Check if only one headstage is active&#45;&gt;All checks passed -->
<g id="edge37" class="edge">
<title>Check if only one headstage is active&#45;&gt;All checks passed</title>
<path fill="none" stroke="#9ecae1" d="M1859.52,-765.38C1856.49,-750.52 1852.07,-728.75 1848.56,-711.49"/>
<polygon fill="#9ecae1" stroke="#9ecae1" points="1851.93,-710.52 1846.51,-701.42 1845.07,-711.92 1851.93,-710.52"/>
</g>
<!-- Check RMS long -->
<g id="node32" class="node">
<title>Check RMS long</title>
<ellipse fill="#eff3ff" stroke="#bdd7e7" cx="206" cy="-462.65" rx="68.44" ry="18"/>
<text text-anchor="middle" x="206" y="-459.25" font-family="Helvetica,sans-Serif" font-size="13.00" fill="#2171b5">Check RMS long</text>
</g>
<!-- Check RMS short&#45;&gt;Check RMS long -->
<g id="edge33" class="edge">
<title>Check RMS short&#45;&gt;Check RMS long</title>
<path fill="none" stroke="#9ecae1" d="M195.09,-554.51C197.16,-537.28 200.35,-510.66 202.75,-490.68"/>
<polygon fill="#9ecae1" stroke="#9ecae1" points="206.24,-490.99 203.96,-480.64 199.29,-490.15 206.24,-490.99"/>
<text text-anchor="middle" x="220" y="-501.65" font-family="Helvetica,sans-Serif" font-size="10.00" fill="#3182bd">Passed</text>
</g>
<!-- Add BL QC failed labnotebook entry -->
<g id="node33" class="node">
<title>Add BL QC failed labnotebook entry</title>
<ellipse fill="#eff3ff" stroke="#bdd7e7" cx="122" cy="-186.37" rx="104.8" ry="25.41"/>
<text text-anchor="middle" x="122" y="-189.97" font-family="Helvetica,sans-Serif" font-size="13.00" fill="#2171b5">Add BL chunk QC failed</text>
<text text-anchor="middle" x="122" y="-175.97" font-family="Helvetica,sans-Serif" font-size="13.00" fill="#2171b5"> labnotebook entry</text>
</g>
<!-- Check RMS short&#45;&gt;Add BL QC failed labnotebook entry -->
<g id="edge34" class="edge">
<title>Check RMS short&#45;&gt;Add BL QC failed labnotebook entry</title>
<path fill="none" stroke="#9ecae1" d="M131.93,-563.58C75.39,-552.04 0,-525.12 0,-463.65 0,-463.65 0,-463.65 0,-273.28 0,-244.54 22.9,-224.58 48.86,-211.18"/>
<polygon fill="#9ecae1" stroke="#9ecae1" points="50.65,-214.21 58.14,-206.72 47.61,-207.9 50.65,-214.21"/>
<text text-anchor="middle" x="14.5" y="-369.69" font-family="Helvetica,sans-Serif" font-size="10.00" fill="#3182bd">Failed</text>
</g>
<!-- n88 -->
<g id="node34" class="node">
<title>n88</title>
<ellipse fill="#eff3ff" stroke="#bdd7e7" cx="1924" cy="-572.9" rx="136.44" ry="25.41"/>
<text text-anchor="middle" x="1924" y="-576.5" font-family="Helvetica,sans-Serif" font-size="13.00" fill="#2171b5">Open Databrowser</text>
<text text-anchor="middle" x="1924" y="-562.5" font-family="Helvetica,sans-Serif" font-size="13.00" fill="#2171b5"> and attach to the current device</text>
</g>
<!-- Enable &quot;Repeated Acquisition&quot;&#45;&gt;n88 -->
<g id="edge35" class="edge">
<title>Enable &quot;Repeated Acquisition&quot;&#45;&gt;n88</title>
<path fill="none" stroke="#9ecae1" d="M2091.93,-665.71C2061.11,-648.87 2012.6,-622.35 1975.63,-602.13"/>
<polygon fill="#9ecae1" stroke="#9ecae1" points="1976.95,-598.86 1966.5,-597.14 1973.59,-605 1976.95,-598.86"/>
</g>
<!-- n91 -->
<g id="node35" class="node">
<title>n91</title>
<ellipse fill="#eff3ff" stroke="#bdd7e7" cx="2173" cy="-572.9" rx="94.24" ry="18"/>
<text text-anchor="middle" x="2173" y="-569.5" font-family="Helvetica,sans-Serif" font-size="13.00" fill="#2171b5">Apply auto pipette offset</text>
</g>
<!-- Enable &quot;Repeated Acquisition&quot;&#45;&gt;n91 -->
<g id="edge36" class="edge">
<title>Enable &quot;Repeated Acquisition&quot;&#45;&gt;n91</title>
<path fill="none" stroke="#9ecae1" d="M2130.19,-664.76C2138.42,-647.3 2151.2,-620.18 2160.65,-600.11"/>
<polygon fill="#9ecae1" stroke="#9ecae1" points="2163.9,-601.43 2164.99,-590.89 2157.57,-598.45 2163.9,-601.43"/>
</g>
<!-- Check RMS long&#45;&gt;Add BL QC failed labnotebook entry -->
<g id="edge38" class="edge">
<title>Check RMS long&#45;&gt;Add BL QC failed labnotebook entry</title>
<path fill="none" stroke="#9ecae1" d="M248.48,-448.5C340.17,-418.03 542.48,-338.33 467,-248.82 435.61,-211.59 298.93,-220.47 251,-211.82 238.4,-209.55 225.11,-207.1 212.05,-204.65"/>
<polygon fill="#9ecae1" stroke="#9ecae1" points="212.6,-201.19 202.13,-202.79 211.31,-208.07 212.6,-201.19"/>
<text text-anchor="middle" x="489.5" y="-320.74" font-family="Helvetica,sans-Serif" font-size="10.00" fill="#3182bd">Failed</text>
</g>
<!-- Check target voltage [1] -->
<g id="node37" class="node">
<title>Check target voltage [1]</title>
<ellipse fill="#eff3ff" stroke="#bdd7e7" cx="206" cy="-372.19" rx="74.58" ry="18"/>
<text text-anchor="middle" x="206" y="-368.79" font-family="Helvetica,sans-Serif" font-size="13.00" fill="#2171b5">Check leak current</text>
</g>
<!-- Check RMS long&#45;&gt;Check target voltage [1] -->
<g id="edge39" class="edge">
<title>Check RMS long&#45;&gt;Check target voltage [1]</title>
<path fill="none" stroke="#9ecae1" d="M206,-444.59C206,-432.11 206,-414.91 206,-400.52"/>
<polygon fill="#9ecae1" stroke="#9ecae1" points="209.5,-400.19 206,-390.19 202.5,-400.19 209.5,-400.19"/>
<text text-anchor="middle" x="224" y="-418.65" font-family="Helvetica,sans-Serif" font-size="10.00" fill="#3182bd">Passed</text>
</g>
<!-- n79 -->
<g id="node38" class="node">
<title>n79</title>
<ellipse fill="#eff3ff" stroke="#bdd7e7" cx="122" cy="-98.46" rx="82.96" ry="25.41"/>
<text text-anchor="middle" x="122" y="-102.06" font-family="Helvetica,sans-Serif" font-size="13.00" fill="#2171b5">Add BL QC failed</text>
<text text-anchor="middle" x="122" y="-88.06" font-family="Helvetica,sans-Serif" font-size="13.00" fill="#2171b5"> labnotebook entry</text>
</g>
<!-- Add BL QC failed labnotebook entry&#45;&gt;n79 -->
<g id="edge40" class="edge">
<title>Add BL QC failed labnotebook entry&#45;&gt;n79</title>
<path fill="none" stroke="#9ecae1" d="M122,-160.52C122,-152.25 122,-142.9 122,-134.03"/>
<polygon fill="#9ecae1" stroke="#9ecae1" points="125.5,-133.95 122,-123.95 118.5,-133.95 125.5,-133.95"/>
</g>
<!-- n90 -->
<g id="node39" class="node">
<title>n90</title>
<ellipse fill="#eff3ff" stroke="#bdd7e7" cx="1924" cy="-462.65" rx="162.18" ry="18"/>
<text text-anchor="middle" x="1924" y="-459.25" font-family="Helvetica,sans-Serif" font-size="13.00" fill="#2171b5">Enable &quot;Sweep Formula&quot; in the databrowser</text>
</g>
<!-- n88&#45;&gt;n90 -->
<g id="edge41" class="edge">
<title>n88&#45;&gt;n90</title>
<path fill="none" stroke="#9ecae1" d="M1924,-547.34C1924,-530.5 1924,-508.15 1924,-490.78"/>
<polygon fill="#9ecae1" stroke="#9ecae1" points="1927.5,-490.7 1924,-480.7 1920.5,-490.7 1927.5,-490.7"/>
</g>
<!-- All checks passed&#45;&gt;Abort -->
<g id="edge42" class="edge">
<title>All checks passed&#45;&gt;Abort</title>
<path fill="none" stroke="#9ecae1" d="M1825.34,-665.24C1805.77,-646.49 1774.15,-616.2 1752.74,-595.69"/>
<polygon fill="#9ecae1" stroke="#9ecae1" points="1755,-593 1745.36,-588.61 1750.16,-598.06 1755,-593"/>
<text text-anchor="middle" x="1814" y="-639.16" font-family="Helvetica,sans-Serif" font-size="10.00" fill="#3182bd">No</text>
</g>
<!-- Mark chunk as passed/failed [1] -->
<g id="node41" class="node">
<title>Mark chunk as passed/failed [1]</title>
<ellipse fill="#eff3ff" stroke="#bdd7e7" cx="346" cy="-274.28" rx="111.95" ry="25.41"/>
<text text-anchor="middle" x="346" y="-277.88" font-family="Helvetica,sans-Serif" font-size="13.00" fill="#2171b5">Add BL chunk QC passed</text>
<text text-anchor="middle" x="346" y="-263.88" font-family="Helvetica,sans-Serif" font-size="13.00" fill="#2171b5"> labnotebook entry</text>
</g>
<!-- Check target voltage [1]&#45;&gt;Mark chunk as passed/failed [1] -->
<g id="edge43" class="edge">
<title>Check target voltage [1]&#45;&gt;Mark chunk as passed/failed [1]</title>
<path fill="none" stroke="#9ecae1" d="M229.75,-354.92C249.92,-341.1 279.36,-320.94 303.56,-304.35"/>
<polygon fill="#9ecae1" stroke="#9ecae1" points="305.61,-307.19 311.88,-298.65 301.65,-301.42 305.61,-307.19"/>
<text text-anchor="middle" x="299" y="-320.74" font-family="Helvetica,sans-Serif" font-size="10.00" fill="#3182bd">Passed</text>
</g>
<!-- n78 -->
<g id="node42" class="node">
<title>n78</title>
<ellipse fill="#eff3ff" stroke="#bdd7e7" cx="122" cy="-274.28" rx="94.24" ry="18"/>
<text text-anchor="middle" x="122" y="-270.88" font-family="Helvetica,sans-Serif" font-size="13.00" fill="#2171b5">Apply auto pipette offset</text>
</g>
<!-- Check target voltage [1]&#45;&gt;n78 -->
<g id="edge44" class="edge">
<title>Check target voltage [1]&#45;&gt;n78</title>
<path fill="none" stroke="#9ecae1" d="M191.37,-354.48C178.2,-339.45 158.67,-317.15 143.69,-300.04"/>
<polygon fill="#9ecae1" stroke="#9ecae1" points="145.97,-297.33 136.75,-292.12 140.7,-301.94 145.97,-297.33"/>
<text text-anchor="middle" x="181.5" y="-320.74" font-family="Helvetica,sans-Serif" font-size="10.00" fill="#3182bd">Failed</text>
</g>
<!-- Early Sweep stop -->
<g id="node43" class="node">
<title>Early Sweep stop</title>
<ellipse fill="#eff3ff" stroke="#bdd7e7" cx="122" cy="-18" rx="71" ry="18"/>
<text text-anchor="middle" x="122" y="-14.6" font-family="Helvetica,sans-Serif" font-size="13.00" fill="#2171b5">Early Sweep stop</text>
</g>
<!-- n79&#45;&gt;Early Sweep stop -->
<g id="edge45" class="edge">
<title>n79&#45;&gt;Early Sweep stop</title>
<path fill="none" stroke="#9ecae1" d="M122,-72.63C122,-64.3 122,-54.96 122,-46.44"/>
<polygon fill="#9ecae1" stroke="#9ecae1" points="125.5,-46.22 122,-36.22 118.5,-46.22 125.5,-46.22"/>
</g>
<!-- n92 -->
<g id="node48" class="node">
<title>n92</title>
<ellipse fill="#eff3ff" stroke="#bdd7e7" cx="1924" cy="-372.19" rx="243.49" ry="25.41"/>
<text text-anchor="middle" x="1924" y="-375.79" font-family="Helvetica,sans-Serif" font-size="13.00" fill="#2171b5">Set SweepFormula code for calculating</text>
<text text-anchor="middle" x="1924" y="-361.79" font-family="Helvetica,sans-Serif" font-size="13.00" fill="#2171b5"> testpulse properties from testpulse like epochs in the sweep</text>
</g>
<!-- n90&#45;&gt;n92 -->
<g id="edge52" class="edge">
<title>n90&#45;&gt;n92</title>
<path fill="none" stroke="#9ecae1" d="M1924,-444.59C1924,-434.24 1924,-420.64 1924,-408.09"/>
<polygon fill="#9ecae1" stroke="#9ecae1" points="1927.5,-407.89 1924,-397.89 1920.5,-407.89 1927.5,-407.89"/>
</g>
<!-- n80 -->
<g id="node44" class="node">
<title>n80</title>
<ellipse fill="#eff3ff" stroke="#bdd7e7" cx="346" cy="-186.37" rx="86.03" ry="25.41"/>
<text text-anchor="middle" x="346" y="-189.97" font-family="Helvetica,sans-Serif" font-size="13.00" fill="#2171b5">Add BL QC passed</text>
<text text-anchor="middle" x="346" y="-175.97" font-family="Helvetica,sans-Serif" font-size="13.00" fill="#2171b5"> labnotebook entry</text>
</g>
<!-- Mark chunk as passed/failed [1]&#45;&gt;n80 -->
<g id="edge46" class="edge">
<title>Mark chunk as passed/failed [1]&#45;&gt;n80</title>
<path fill="none" stroke="#9ecae1" d="M346,-248.43C346,-240.17 346,-230.81 346,-221.95"/>
<polygon fill="#9ecae1" stroke="#9ecae1" points="349.5,-221.86 346,-211.86 342.5,-221.86 349.5,-221.86"/>
</g>
<!-- n78&#45;&gt;Add BL QC failed labnotebook entry -->
<g id="edge47" class="edge">
<title>n78&#45;&gt;Add BL QC failed labnotebook entry</title>
<path fill="none" stroke="#9ecae1" d="M122,-255.89C122,-246.21 122,-233.8 122,-222.2"/>
<polygon fill="#9ecae1" stroke="#9ecae1" points="125.5,-221.89 122,-211.89 118.5,-221.89 125.5,-221.89"/>
</g>
<!-- n96 -->
<g id="node49" class="node">
<title>n96</title>
<ellipse fill="#eff3ff" stroke="#bdd7e7" cx="1441" cy="-683.16" rx="100.37" ry="18"/>
<text text-anchor="middle" x="1441" y="-679.76" font-family="Helvetica,sans-Serif" font-size="13.00" fill="#2171b5">Store it in the labnotebook</text>
</g>
<!-- n94&#45;&gt;n96 -->
<g id="edge53" class="edge">
<title>n94&#45;&gt;n96</title>
<path fill="none" stroke="#9ecae1" d="M1441,-748.11C1441,-736.11 1441,-722.8 1441,-711.45"/>
<polygon fill="#9ecae1" stroke="#9ecae1" points="1444.5,-711.28 1441,-701.28 1437.5,-711.28 1444.5,-711.28"/>
</g>
<!-- n98 -->
<g id="node50" class="node">
<title>n98</title>
<ellipse fill="#eff3ff" stroke="#bdd7e7" cx="1441" cy="-572.9" rx="154.3" ry="45.01"/>
<text text-anchor="middle" x="1441" y="-590.5" font-family="Helvetica,sans-Serif" font-size="13.00" fill="#2171b5">Does the labnotebook has passing</text>
<text text-anchor="middle" x="1441" y="-576.5" font-family="Helvetica,sans-Serif" font-size="13.00" fill="#2171b5"> baseline QC</text>
<text text-anchor="middle" x="1441" y="-562.5" font-family="Helvetica,sans-Serif" font-size="13.00" fill="#2171b5">pipette resistance QC</text>
<text text-anchor="middle" x="1441" y="-548.5" font-family="Helvetica,sans-Serif" font-size="13.00" fill="#2171b5"> and sampling frequency QC entries?</text>
</g>
<!-- n96&#45;&gt;n98 -->
<g id="edge54" class="edge">
<title>n96&#45;&gt;n98</title>
<path fill="none" stroke="#9ecae1" d="M1441,-664.76C1441,-654.76 1441,-641.59 1441,-628.39"/>
<polygon fill="#9ecae1" stroke="#9ecae1" points="1444.5,-628.35 1441,-618.35 1437.5,-628.35 1444.5,-628.35"/>
</g>
<!-- n99 -->
<g id="node51" class="node">
<title>n99</title>
<ellipse fill="#eff3ff" stroke="#bdd7e7" cx="1488" cy="-462.65" rx="89.13" ry="18"/>
<text text-anchor="middle" x="1488" y="-459.25" font-family="Helvetica,sans-Serif" font-size="13.00" fill="#2171b5">Mark sweep as passed</text>
</g>
<!-- n98&#45;&gt;n99 -->
<g id="edge55" class="edge">
<title>n98&#45;&gt;n99</title>
<path fill="none" stroke="#9ecae1" d="M1460.12,-527.87C1465.7,-515.01 1471.62,-501.37 1476.57,-489.97"/>
<polygon fill="#9ecae1" stroke="#9ecae1" points="1479.86,-491.19 1480.63,-480.62 1473.44,-488.4 1479.86,-491.19"/>
<text text-anchor="middle" x="1482.5" y="-501.65" font-family="Helvetica,sans-Serif" font-size="10.00" fill="#3182bd">Yes</text>
</g>
<!-- n100 -->
<g id="node52" class="node">
<title>n100</title>
<ellipse fill="#eff3ff" stroke="#bdd7e7" cx="1205" cy="-462.65" rx="83" ry="18"/>
<text text-anchor="middle" x="1205" y="-459.25" font-family="Helvetica,sans-Serif" font-size="13.00" fill="#2171b5">Mark sweep as failed</text>
</g>
<!-- n98&#45;&gt;n100 -->
<g id="edge56" class="edge">
<title>n98&#45;&gt;n100</title>
<path fill="none" stroke="#9ecae1" d="M1359.45,-534.49C1322.02,-517.33 1279.17,-497.67 1248.11,-483.42"/>
<polygon fill="#9ecae1" stroke="#9ecae1" points="1249.42,-480.17 1238.87,-479.18 1246.5,-486.53 1249.42,-480.17"/>
</g>
<!-- n101 -->
<g id="node53" class="node">
<title>n101</title>
<ellipse fill="#eff3ff" stroke="#bdd7e7" cx="1546" cy="-372.19" rx="72.79" ry="18"/>
<text text-anchor="middle" x="1546" y="-368.79" font-family="Helvetica,sans-Serif" font-size="13.00" fill="#2171b5">Skip to end of Set</text>
</g>
<!-- n99&#45;&gt;n101 -->
<g id="edge57" class="edge">
<title>n99&#45;&gt;n101</title>
<path fill="none" stroke="#9ecae1" d="M1499.18,-444.59C1507.69,-431.62 1519.53,-413.56 1529.18,-398.85"/>
<polygon fill="#9ecae1" stroke="#9ecae1" points="1532.29,-400.48 1534.85,-390.19 1526.44,-396.64 1532.29,-400.48"/>
</g>
<!-- n102 -->
<g id="node54" class="node">
<title>n102</title>
<ellipse fill="#eff3ff" stroke="#bdd7e7" cx="1205" cy="-372.19" rx="250.13" ry="25.41"/>
<text text-anchor="middle" x="1205" y="-375.79" font-family="Helvetica,sans-Serif" font-size="13.00" fill="#2171b5">Is the number of failed sweeps</text>
<text text-anchor="middle" x="1205" y="-361.79" font-family="Helvetica,sans-Serif" font-size="13.00" fill="#2171b5"> larger than the &quot;NumberofFailedSweeps&quot; analysis parameter?</text>
</g>
<!-- n100&#45;&gt;n102 -->
<g id="edge58" class="edge">
<title>n100&#45;&gt;n102</title>
<path fill="none" stroke="#9ecae1" d="M1205,-444.59C1205,-434.24 1205,-420.64 1205,-408.09"/>
<polygon fill="#9ecae1" stroke="#9ecae1" points="1208.5,-407.89 1205,-397.89 1201.5,-407.89 1208.5,-407.89"/>
</g>
<!-- n104 -->
<g id="node55" class="node">
<title>n104</title>
<ellipse fill="#eff3ff" stroke="#bdd7e7" cx="769" cy="-372.19" rx="167.29" ry="18"/>
<text text-anchor="middle" x="769" y="-368.79" font-family="Helvetica,sans-Serif" font-size="13.00" fill="#2171b5">Has the sampling frequency QC check failed?</text>
</g>
<!-- n100&#45;&gt;n104 -->
<g id="edge59" class="edge">
<title>n100&#45;&gt;n104</title>
<path fill="none" stroke="#9ecae1" d="M1146.65,-449.81C1071.43,-434.55 940.07,-407.9 853.82,-390.4"/>
<polygon fill="#9ecae1" stroke="#9ecae1" points="854.29,-386.92 843.79,-388.36 852.9,-393.78 854.29,-386.92"/>
</g>
<!-- n103 -->
<g id="node56" class="node">
<title>n103</title>
<ellipse fill="#eff3ff" stroke="#bdd7e7" cx="986" cy="-274.28" rx="77.89" ry="18"/>
<text text-anchor="middle" x="986" y="-270.88" font-family="Helvetica,sans-Serif" font-size="13.00" fill="#2171b5">Skip to end of DAQ</text>
</g>
<!-- n102&#45;&gt;n103 -->
<g id="edge60" class="edge">
<title>n102&#45;&gt;n103</title>
<path fill="none" stroke="#9ecae1" d="M1150.3,-347.24C1113.13,-330.96 1064.6,-309.7 1029.94,-294.52"/>
<polygon fill="#9ecae1" stroke="#9ecae1" points="1031.12,-291.22 1020.56,-290.41 1028.31,-297.63 1031.12,-291.22"/>
</g>
<!-- n104&#45;&gt;n103 -->
<g id="edge61" class="edge">
<title>n104&#45;&gt;n103</title>
<path fill="none" stroke="#9ecae1" d="M806.8,-354.48C844.57,-337.79 902.59,-312.14 942.31,-294.59"/>
<polygon fill="#9ecae1" stroke="#9ecae1" points="943.76,-297.77 951.5,-290.53 940.93,-291.37 943.76,-297.77"/>
<text text-anchor="middle" x="894.5" y="-320.74" font-family="Helvetica,sans-Serif" font-size="10.00" fill="#3182bd">Yes</text>
</g>
</g>
</svg>
