<?xml version="1.0" encoding="UTF-8" standalone="no"?>
<!DOCTYPE svg PUBLIC "-//W3C//DTD SVG 1.1//EN"
 "http://www.w3.org/Graphics/SVG/1.1/DTD/svg11.dtd">
<!-- Generated by graphviz version 2.44.1 (20200629.0846)
 -->
<!-- Title: G Pages: 1 -->
<svg width="1888pt" height="784pt"
 viewBox="0.00 0.00 1888.48 784.07" xmlns="http://www.w3.org/2000/svg" xmlns:xlink="http://www.w3.org/1999/xlink">
<g id="graph0" class="graph" transform="scale(1 1) rotate(0) translate(4 780.07)">
<title>G</title>
<polygon fill="white" stroke="transparent" points="-4,4 -4,-780.07 1884.48,-780.07 1884.48,4 -4,4"/>
<!-- Start DAQ/RA -->
<g id="node1" class="node">
<title>Start DAQ/RA</title>
<ellipse fill="#eff3ff" stroke="#bdd7e7" cx="1240.97" cy="-758.07" rx="60.02" ry="18"/>
<text text-anchor="middle" x="1240.97" y="-754.67" font-family="Helvetica,sans-Serif" font-size="13.00" fill="#2171b5">Start DAQ/RA</text>
</g>
<!-- Prepare DAQ/Pre Set Event -->
<g id="node2" class="node">
<title>Prepare DAQ/Pre Set Event</title>
<ellipse fill="#eff3ff" stroke="#bdd7e7" cx="380.97" cy="-685.07" rx="107.27" ry="18"/>
<text text-anchor="middle" x="380.97" y="-681.67" font-family="Helvetica,sans-Serif" font-size="13.00" fill="#2171b5">Prepare DAQ/Pre Set Event</text>
</g>
<!-- Start DAQ/RA&#45;&gt;Prepare DAQ/Pre Set Event -->
<g id="edge1" class="edge">
<title>Start DAQ/RA&#45;&gt;Prepare DAQ/Pre Set Event</title>
<path fill="none" stroke="#9ecae1" d="M1183.87,-752.35C1041.29,-740.58 667.96,-709.76 485.03,-694.66"/>
<polygon fill="#9ecae1" stroke="#9ecae1" points="485.11,-691.15 474.86,-693.82 484.54,-698.13 485.11,-691.15"/>
</g>
<!-- Post Sweep Event -->
<g id="node3" class="node">
<title>Post Sweep Event</title>
<ellipse fill="#eff3ff" stroke="#bdd7e7" cx="1161.97" cy="-685.07" rx="74.58" ry="18"/>
<text text-anchor="middle" x="1161.97" y="-681.67" font-family="Helvetica,sans-Serif" font-size="13.00" fill="#2171b5">Post Sweep Event</text>
</g>
<!-- Start DAQ/RA&#45;&gt;Post Sweep Event -->
<g id="edge2" class="edge">
<title>Start DAQ/RA&#45;&gt;Post Sweep Event</title>
<path fill="none" stroke="#9ecae1" d="M1222.64,-740.6C1212.35,-731.35 1199.33,-719.65 1187.99,-709.46"/>
<polygon fill="#9ecae1" stroke="#9ecae1" points="1190.24,-706.77 1180.46,-702.69 1185.56,-711.98 1190.24,-706.77"/>
</g>
<!-- Post DAQ Event -->
<g id="node4" class="node">
<title>Post DAQ Event</title>
<ellipse fill="#eff3ff" stroke="#bdd7e7" cx="1365.97" cy="-685.07" rx="67.68" ry="18"/>
<text text-anchor="middle" x="1365.97" y="-681.67" font-family="Helvetica,sans-Serif" font-size="13.00" fill="#2171b5">Post DAQ Event</text>
</g>
<!-- Start DAQ/RA&#45;&gt;Post DAQ Event -->
<g id="edge3" class="edge">
<title>Start DAQ/RA&#45;&gt;Post DAQ Event</title>
<path fill="none" stroke="#9ecae1" d="M1267.78,-741.84C1285.82,-731.59 1309.83,-717.95 1329.59,-706.73"/>
<polygon fill="#9ecae1" stroke="#9ecae1" points="1331.36,-709.75 1338.33,-701.77 1327.91,-703.66 1331.36,-709.75"/>
</g>
<!-- Post Set Event -->
<g id="node5" class="node">
<title>Post Set Event</title>
<ellipse fill="#eff3ff" stroke="#bdd7e7" cx="1523.97" cy="-685.07" rx="62.57" ry="18"/>
<text text-anchor="middle" x="1523.97" y="-681.67" font-family="Helvetica,sans-Serif" font-size="13.00" fill="#2171b5">Post Set Event</text>
</g>
<!-- Start DAQ/RA&#45;&gt;Post Set Event -->
<g id="edge4" class="edge">
<title>Start DAQ/RA&#45;&gt;Post Set Event</title>
<path fill="none" stroke="#9ecae1" d="M1285.5,-745.9C1334.92,-733.5 1414.76,-713.46 1468.28,-700.04"/>
<polygon fill="#9ecae1" stroke="#9ecae1" points="1469.44,-703.36 1478.29,-697.53 1467.74,-696.57 1469.44,-703.36"/>
</g>
<!-- Enable &quot;Multidevice DAQ&quot; -->
<g id="node6" class="node">
<title>Enable &quot;Multidevice DAQ&quot;</title>
<ellipse fill="#eff3ff" stroke="#bdd7e7" cx="169.97" cy="-584.81" rx="99.35" ry="18"/>
<text text-anchor="middle" x="169.97" y="-581.41" font-family="Helvetica,sans-Serif" font-size="13.00" fill="#2171b5">Enable &quot;Multidevice DAQ&quot;</text>
</g>
<!-- Prepare DAQ/Pre Set Event&#45;&gt;Enable &quot;Multidevice DAQ&quot; -->
<g id="edge5" class="edge">
<title>Prepare DAQ/Pre Set Event&#45;&gt;Enable &quot;Multidevice DAQ&quot;</title>
<path fill="none" stroke="#9ecae1" d="M346.12,-667.84C309.71,-650.89 252.52,-624.26 213.24,-605.97"/>
<polygon fill="#9ecae1" stroke="#9ecae1" points="214.7,-602.78 204.16,-601.74 211.75,-609.13 214.7,-602.78"/>
</g>
<!-- Check if mode is IC -->
<g id="node7" class="node">
<title>Check if mode is IC</title>
<ellipse fill="#eff3ff" stroke="#bdd7e7" cx="380.97" cy="-584.81" rx="77.89" ry="18"/>
<text text-anchor="middle" x="380.97" y="-581.41" font-family="Helvetica,sans-Serif" font-size="13.00" fill="#2171b5">Check if mode is IC</text>
</g>
<!-- Prepare DAQ/Pre Set Event&#45;&gt;Check if mode is IC -->
<g id="edge6" class="edge">
<title>Prepare DAQ/Pre Set Event&#45;&gt;Check if mode is IC</title>
<path fill="none" stroke="#9ecae1" d="M380.97,-666.95C380.97,-652.11 380.97,-630.36 380.97,-613.12"/>
<polygon fill="#9ecae1" stroke="#9ecae1" points="384.47,-613.06 380.97,-603.06 377.47,-613.06 384.47,-613.06"/>
</g>
<!-- Spike detected?\n(x range: pulse onset to end of sweep\ny condition: max above 0.01mV)\nStore result in labnotebook -->
<g id="node8" class="node">
<title>Spike detected?\n(x range: pulse onset to end of sweep\ny condition: max above 0.01mV)\nStore result in labnotebook</title>
<ellipse fill="#eff3ff" stroke="#bdd7e7" cx="794.97" cy="-584.81" rx="156.96" ry="45.01"/>
<text text-anchor="middle" x="794.97" y="-602.41" font-family="Helvetica,sans-Serif" font-size="13.00" fill="#2171b5">Spike detected?</text>
<text text-anchor="middle" x="794.97" y="-588.41" font-family="Helvetica,sans-Serif" font-size="13.00" fill="#2171b5">(x range: pulse onset to end of sweep</text>
<text text-anchor="middle" x="794.97" y="-574.41" font-family="Helvetica,sans-Serif" font-size="13.00" fill="#2171b5">y condition: max above 0.01mV)</text>
<text text-anchor="middle" x="794.97" y="-560.41" font-family="Helvetica,sans-Serif" font-size="13.00" fill="#2171b5">Store result in labnotebook</text>
</g>
<!-- Post Sweep Event&#45;&gt;Spike detected?\n(x range: pulse onset to end of sweep\ny condition: max above 0.01mV)\nStore result in labnotebook -->
<g id="edge7" class="edge">
<title>Post Sweep Event&#45;&gt;Spike detected?\n(x range: pulse onset to end of sweep\ny condition: max above 0.01mV)\nStore result in labnotebook</title>
<path fill="none" stroke="#9ecae1" d="M1113.99,-671.22C1064.54,-657.99 985.43,-636.81 918.37,-618.85"/>
<polygon fill="#9ecae1" stroke="#9ecae1" points="919.13,-615.43 908.56,-616.23 917.32,-622.19 919.13,-615.43"/>
</g>
<!-- n37 -->
<g id="node9" class="node">
<title>n37</title>
<ellipse fill="#eff3ff" stroke="#bdd7e7" cx="1161.97" cy="-584.81" rx="192.17" ry="25.41"/>
<text text-anchor="middle" x="1161.97" y="-588.41" font-family="Helvetica,sans-Serif" font-size="13.00" fill="#2171b5">Read &quot;SamplingFrequency&quot; analysis parameter</text>
<text text-anchor="middle" x="1161.97" y="-574.41" font-family="Helvetica,sans-Serif" font-size="13.00" fill="#2171b5"> (defaulting to 50kHz) if not present</text>
</g>
<!-- Post Sweep Event&#45;&gt;n37 -->
<g id="edge8" class="edge">
<title>Post Sweep Event&#45;&gt;n37</title>
<path fill="none" stroke="#9ecae1" d="M1161.97,-666.95C1161.97,-654.27 1161.97,-636.53 1161.97,-620.88"/>
<polygon fill="#9ecae1" stroke="#9ecae1" points="1165.47,-620.46 1161.97,-610.46 1158.47,-620.46 1165.47,-620.46"/>
</g>
<!-- Update Dashboard -->
<g id="node10" class="node">
<title>Update Dashboard</title>
<ellipse fill="#eff3ff" stroke="#bdd7e7" cx="1465.97" cy="-584.81" rx="75.34" ry="18"/>
<text text-anchor="middle" x="1465.97" y="-581.41" font-family="Helvetica,sans-Serif" font-size="13.00" fill="#2171b5">Update Dashboard</text>
</g>
<!-- Post DAQ Event&#45;&gt;Update Dashboard -->
<g id="edge9" class="edge">
<title>Post DAQ Event&#45;&gt;Update Dashboard</title>
<path fill="none" stroke="#9ecae1" d="M1382.93,-667.4C1399.02,-651.59 1423.37,-627.66 1441.55,-609.8"/>
<polygon fill="#9ecae1" stroke="#9ecae1" points="1444.24,-612.07 1448.92,-602.56 1439.33,-607.07 1444.24,-612.07"/>
</g>
<!-- Mark set as passed if 1 sweep passed,\nas failure otherwise -->
<g id="node11" class="node">
<title>Mark set as passed if 1 sweep passed,\nas failure otherwise</title>
<ellipse fill="#eff3ff" stroke="#bdd7e7" cx="1719.97" cy="-584.81" rx="160.53" ry="25.41"/>
<text text-anchor="middle" x="1719.97" y="-588.41" font-family="Helvetica,sans-Serif" font-size="13.00" fill="#2171b5">Mark set as passed if 1 sweep passed,</text>
<text text-anchor="middle" x="1719.97" y="-574.41" font-family="Helvetica,sans-Serif" font-size="13.00" fill="#2171b5">as failure otherwise</text>
</g>
<!-- Post Set Event&#45;&gt;Mark set as passed if 1 sweep passed,\nas failure otherwise -->
<g id="edge10" class="edge">
<title>Post Set Event&#45;&gt;Mark set as passed if 1 sweep passed,\nas failure otherwise</title>
<path fill="none" stroke="#9ecae1" d="M1553.73,-669.15C1582.83,-654.56 1627.86,-631.98 1663.72,-614.01"/>
<polygon fill="#9ecae1" stroke="#9ecae1" points="1665.72,-616.92 1673.1,-609.31 1662.59,-610.66 1665.72,-616.92"/>
</g>
<!-- Disable &quot;dDAQ&quot;/&quot;oodDAQ&quot; -->
<g id="node12" class="node">
<title>Disable &quot;dDAQ&quot;/&quot;oodDAQ&quot;</title>
<ellipse fill="#eff3ff" stroke="#bdd7e7" cx="120.97" cy="-467.1" rx="102.93" ry="18"/>
<text text-anchor="middle" x="120.97" y="-463.7" font-family="Helvetica,sans-Serif" font-size="13.00" fill="#2171b5">Disable &quot;dDAQ&quot;/&quot;oodDAQ&quot;</text>
</g>
<!-- Enable &quot;Multidevice DAQ&quot;&#45;&gt;Disable &quot;dDAQ&quot;/&quot;oodDAQ&quot; -->
<g id="edge11" class="edge">
<title>Enable &quot;Multidevice DAQ&quot;&#45;&gt;Disable &quot;dDAQ&quot;/&quot;oodDAQ&quot;</title>
<path fill="none" stroke="#9ecae1" d="M162.73,-566.74C154.7,-547.77 141.63,-516.89 132.24,-494.74"/>
<polygon fill="#9ecae1" stroke="#9ecae1" points="135.35,-493.09 128.22,-485.25 128.9,-495.82 135.35,-493.09"/>
</g>
<!-- Check if no TTL channels are active -->
<g id="node13" class="node">
<title>Check if no TTL channels are active</title>
<ellipse fill="#eff3ff" stroke="#bdd7e7" cx="380.97" cy="-467.1" rx="133.83" ry="18"/>
<text text-anchor="middle" x="380.97" y="-463.7" font-family="Helvetica,sans-Serif" font-size="13.00" fill="#2171b5">Check if no TTL channels are active</text>
</g>
<!-- Check if mode is IC&#45;&gt;Check if no TTL channels are active -->
<g id="edge12" class="edge">
<title>Check if mode is IC&#45;&gt;Check if no TTL channels are active</title>
<path fill="none" stroke="#9ecae1" d="M380.97,-566.74C380.97,-547.94 380.97,-517.45 380.97,-495.34"/>
<polygon fill="#9ecae1" stroke="#9ecae1" points="384.47,-495.25 380.97,-485.25 377.47,-495.25 384.47,-495.25"/>
</g>
<!-- DAScale is zero -->
<g id="node14" class="node">
<title>DAScale is zero</title>
<ellipse fill="#eff3ff" stroke="#bdd7e7" cx="1008.97" cy="-467.1" rx="65.13" ry="18"/>
<text text-anchor="middle" x="1008.97" y="-463.7" font-family="Helvetica,sans-Serif" font-size="13.00" fill="#2171b5">DAScale is zero</text>
</g>
<!-- Spike detected?\n(x range: pulse onset to end of sweep\ny condition: max above 0.01mV)\nStore result in labnotebook&#45;&gt;DAScale is zero -->
<g id="edge13" class="edge">
<title>Spike detected?\n(x range: pulse onset to end of sweep\ny condition: max above 0.01mV)\nStore result in labnotebook&#45;&gt;DAScale is zero</title>
<path fill="none" stroke="#9ecae1" d="M867.42,-544.64C902.43,-525.71 942.97,-503.79 971.67,-488.27"/>
<polygon fill="#9ecae1" stroke="#9ecae1" points="973.42,-491.3 980.55,-483.47 970.09,-485.15 973.42,-491.3"/>
<text text-anchor="middle" x="937.47" y="-513.56" font-family="Helvetica,sans-Serif" font-size="10.00" fill="#3182bd">Yes</text>
</g>
<!-- Step Size from labnotebook? -->
<g id="node15" class="node">
<title>Step Size from labnotebook?</title>
<ellipse fill="#eff3ff" stroke="#bdd7e7" cx="667.97" cy="-369.19" rx="109.82" ry="18"/>
<text text-anchor="middle" x="667.97" y="-365.79" font-family="Helvetica,sans-Serif" font-size="13.00" fill="#2171b5">Step Size from labnotebook?</text>
</g>
<!-- Spike detected?\n(x range: pulse onset to end of sweep\ny condition: max above 0.01mV)\nStore result in labnotebook&#45;&gt;Step Size from labnotebook? -->
<g id="edge14" class="edge">
<title>Spike detected?\n(x range: pulse onset to end of sweep\ny condition: max above 0.01mV)\nStore result in labnotebook&#45;&gt;Step Size from labnotebook?</title>
<path fill="none" stroke="#9ecae1" d="M768.96,-540.07C743.18,-496.7 704.55,-431.73 683.32,-396.01"/>
<polygon fill="#9ecae1" stroke="#9ecae1" points="686.18,-393.98 678.06,-387.18 680.16,-397.56 686.18,-393.98"/>
<text text-anchor="middle" x="746.97" y="-464.6" font-family="Helvetica,sans-Serif" font-size="10.00" fill="#3182bd">No</text>
</g>
<!-- n37&#45;&gt;n37 -->
<g id="edge15" class="edge">
<title>n37&#45;&gt;n37</title>
<path fill="none" stroke="#9ecae1" d="M1339.58,-594.63C1359.45,-592.78 1372.3,-589.51 1372.3,-584.81 1372.3,-580.96 1363.65,-578.07 1349.58,-576.13"/>
<polygon fill="#9ecae1" stroke="#9ecae1" points="1349.91,-572.65 1339.58,-575 1349.12,-579.6 1349.91,-572.65"/>
</g>
<!-- n38 -->
<g id="node16" class="node">
<title>n38</title>
<ellipse fill="#eff3ff" stroke="#bdd7e7" cx="1368.97" cy="-467.1" rx="112.36" ry="25.41"/>
<text text-anchor="middle" x="1368.97" y="-470.7" font-family="Helvetica,sans-Serif" font-size="13.00" fill="#2171b5">Check if the acquired data</text>
<text text-anchor="middle" x="1368.97" y="-456.7" font-family="Helvetica,sans-Serif" font-size="13.00" fill="#2171b5"> has that sampling interval</text>
</g>
<!-- n37&#45;&gt;n38 -->
<g id="edge16" class="edge">
<title>n37&#45;&gt;n38</title>
<path fill="none" stroke="#9ecae1" d="M1204.6,-559.98C1237.85,-541.39 1284.09,-515.55 1319.06,-496"/>
<polygon fill="#9ecae1" stroke="#9ecae1" points="1321.12,-498.86 1328.14,-490.92 1317.71,-492.75 1321.12,-498.86"/>
</g>
<!-- Skip to end -->
<g id="node17" class="node">
<title>Skip to end</title>
<ellipse fill="#eff3ff" stroke="#bdd7e7" cx="1719.97" cy="-467.1" rx="49.04" ry="18"/>
<text text-anchor="middle" x="1719.97" y="-463.7" font-family="Helvetica,sans-Serif" font-size="13.00" fill="#2171b5">Skip to end</text>
</g>
<!-- Mark set as passed if 1 sweep passed,\nas failure otherwise&#45;&gt;Skip to end -->
<g id="edge17" class="edge">
<title>Mark set as passed if 1 sweep passed,\nas failure otherwise&#45;&gt;Skip to end</title>
<path fill="none" stroke="#9ecae1" d="M1719.97,-559.27C1719.97,-540.47 1719.97,-514.53 1719.97,-495.13"/>
<polygon fill="#9ecae1" stroke="#9ecae1" points="1723.47,-495.11 1719.97,-485.11 1716.47,-495.11 1723.47,-495.11"/>
<text text-anchor="middle" x="1735.97" y="-513.56" font-family="Helvetica,sans-Serif" font-size="10.00" fill="#3182bd">Failure</text>
</g>
<!-- Set &quot;TP inserting&quot; to disabled -->
<g id="node18" class="node">
<title>Set &quot;TP inserting&quot; to disabled</title>
<ellipse fill="#eff3ff" stroke="#bdd7e7" cx="114.97" cy="-369.19" rx="110.59" ry="18"/>
<text text-anchor="middle" x="114.97" y="-365.79" font-family="Helvetica,sans-Serif" font-size="13.00" fill="#2171b5">Set &quot;TP inserting&quot; to disabled</text>
</g>
<!-- Disable &quot;dDAQ&quot;/&quot;oodDAQ&quot;&#45;&gt;Set &quot;TP inserting&quot; to disabled -->
<g id="edge18" class="edge">
<title>Disable &quot;dDAQ&quot;/&quot;oodDAQ&quot;&#45;&gt;Set &quot;TP inserting&quot; to disabled</title>
<path fill="none" stroke="#9ecae1" d="M119.89,-448.96C119,-434.72 117.72,-414.21 116.69,-397.69"/>
<polygon fill="#9ecae1" stroke="#9ecae1" points="120.17,-397.27 116.05,-387.51 113.18,-397.71 120.17,-397.27"/>
</g>
<!-- Check if only one headstage is active -->
<g id="node19" class="node">
<title>Check if only one headstage is active</title>
<ellipse fill="#eff3ff" stroke="#bdd7e7" cx="380.97" cy="-369.19" rx="137.91" ry="18"/>
<text text-anchor="middle" x="380.97" y="-365.79" font-family="Helvetica,sans-Serif" font-size="13.00" fill="#2171b5">Check if only one headstage is active</text>
</g>
<!-- Check if no TTL channels are active&#45;&gt;Check if only one headstage is active -->
<g id="edge19" class="edge">
<title>Check if no TTL channels are active&#45;&gt;Check if only one headstage is active</title>
<path fill="none" stroke="#9ecae1" d="M380.97,-448.96C380.97,-434.72 380.97,-414.21 380.97,-397.69"/>
<polygon fill="#9ecae1" stroke="#9ecae1" points="384.47,-397.51 380.97,-387.51 377.47,-397.51 384.47,-397.51"/>
</g>
<!-- Step size from labnotebook? -->
<g id="node20" class="node">
<title>Step size from labnotebook?</title>
<ellipse fill="#eff3ff" stroke="#bdd7e7" cx="1008.97" cy="-369.19" rx="108.8" ry="18"/>
<text text-anchor="middle" x="1008.97" y="-365.79" font-family="Helvetica,sans-Serif" font-size="13.00" fill="#2171b5">Step size from labnotebook?</text>
</g>
<!-- DAScale is zero&#45;&gt;Step size from labnotebook? -->
<g id="edge20" class="edge">
<title>DAScale is zero&#45;&gt;Step size from labnotebook?</title>
<path fill="none" stroke="#9ecae1" d="M1008.97,-448.96C1008.97,-434.72 1008.97,-414.21 1008.97,-397.69"/>
<polygon fill="#9ecae1" stroke="#9ecae1" points="1012.47,-397.51 1008.97,-387.51 1005.47,-397.51 1012.47,-397.51"/>
<text text-anchor="middle" x="1015.97" y="-415.65" font-family="Helvetica,sans-Serif" font-size="10.00" fill="#3182bd">No</text>
</g>
<!-- Add labnotebook entry\ndocumenting this case -->
<g id="node21" class="node">
<title>Add labnotebook entry\ndocumenting this case</title>
<ellipse fill="#eff3ff" stroke="#bdd7e7" cx="1269.97" cy="-369.19" rx="98.08" ry="25.41"/>
<text text-anchor="middle" x="1269.97" y="-372.79" font-family="Helvetica,sans-Serif" font-size="13.00" fill="#2171b5">Add labnotebook entry</text>
<text text-anchor="middle" x="1269.97" y="-358.79" font-family="Helvetica,sans-Serif" font-size="13.00" fill="#2171b5">documenting this case</text>
</g>
<!-- DAScale is zero&#45;&gt;Add labnotebook entry\ndocumenting this case -->
<g id="edge21" class="edge">
<title>DAScale is zero&#45;&gt;Add labnotebook entry\ndocumenting this case</title>
<path fill="none" stroke="#9ecae1" d="M1046.36,-452.36C1087.81,-437.13 1155.4,-412.29 1205.44,-393.9"/>
<polygon fill="#9ecae1" stroke="#9ecae1" points="1206.7,-397.17 1214.88,-390.43 1204.29,-390.6 1206.7,-397.17"/>
<text text-anchor="middle" x="1157.47" y="-415.65" font-family="Helvetica,sans-Serif" font-size="10.00" fill="#3182bd">Yes</text>
</g>
<!-- Write step size of\n+10pA to labnotebook -->
<g id="node22" class="node">
<title>Write step size of\n+10pA to labnotebook</title>
<ellipse fill="#eff3ff" stroke="#bdd7e7" cx="601.97" cy="-246.28" rx="96.75" ry="25.41"/>
<text text-anchor="middle" x="601.97" y="-249.88" font-family="Helvetica,sans-Serif" font-size="13.00" fill="#2171b5">Write step size of</text>
<text text-anchor="middle" x="601.97" y="-235.88" font-family="Helvetica,sans-Serif" font-size="13.00" fill="#2171b5">+10pA to labnotebook</text>
</g>
<!-- Step Size from labnotebook?&#45;&gt;Write step size of\n+10pA to labnotebook -->
<g id="edge22" class="edge">
<title>Step Size from labnotebook?&#45;&gt;Write step size of\n+10pA to labnotebook</title>
<path fill="none" stroke="#9ecae1" d="M658.65,-351.12C648.72,-332.93 632.74,-303.65 620.27,-280.82"/>
<polygon fill="#9ecae1" stroke="#9ecae1" points="623.21,-278.89 615.35,-271.79 617.06,-282.25 623.21,-278.89"/>
<text text-anchor="middle" x="658.97" y="-305.24" font-family="Helvetica,sans-Serif" font-size="10.00" fill="#3182bd">&#45;50pA</text>
</g>
<!-- Offset DAScale\nby +10pA -->
<g id="node23" class="node">
<title>Offset DAScale\nby +10pA</title>
<ellipse fill="#eff3ff" stroke="#bdd7e7" cx="707.97" cy="-108.46" rx="71.34" ry="25.41"/>
<text text-anchor="middle" x="707.97" y="-112.06" font-family="Helvetica,sans-Serif" font-size="13.00" fill="#2171b5">Offset DAScale</text>
<text text-anchor="middle" x="707.97" y="-98.06" font-family="Helvetica,sans-Serif" font-size="13.00" fill="#2171b5">by +10pA</text>
</g>
<!-- Step Size from labnotebook?&#45;&gt;Offset DAScale\nby +10pA -->
<g id="edge23" class="edge">
<title>Step Size from labnotebook?&#45;&gt;Offset DAScale\nby +10pA</title>
<path fill="none" stroke="#9ecae1" d="M677.5,-351.07C687.38,-332.28 702.16,-300.89 707.97,-271.74 716.6,-228.35 714.65,-177.14 711.84,-144.02"/>
<polygon fill="#9ecae1" stroke="#9ecae1" points="715.31,-143.58 710.91,-133.94 708.34,-144.22 715.31,-143.58"/>
<text text-anchor="middle" x="729.97" y="-243.78" font-family="Helvetica,sans-Serif" font-size="10.00" fill="#3182bd">+10pA</text>
</g>
<!-- Offset DAScale\nby +100pA -->
<g id="node24" class="node">
<title>Offset DAScale\nby +100pA</title>
<ellipse fill="#eff3ff" stroke="#bdd7e7" cx="522.97" cy="-177.37" rx="71.34" ry="25.41"/>
<text text-anchor="middle" x="522.97" y="-180.97" font-family="Helvetica,sans-Serif" font-size="13.00" fill="#2171b5">Offset DAScale</text>
<text text-anchor="middle" x="522.97" y="-166.97" font-family="Helvetica,sans-Serif" font-size="13.00" fill="#2171b5">by +100pA</text>
</g>
<!-- Step Size from labnotebook?&#45;&gt;Offset DAScale\nby +100pA -->
<g id="edge24" class="edge">
<title>Step Size from labnotebook?&#45;&gt;Offset DAScale\nby +100pA</title>
<path fill="none" stroke="#9ecae1" d="M611.83,-353.66C571.45,-339.9 520.04,-314.76 495.97,-271.74 484.91,-251.99 489.64,-242.55 495.97,-220.82 496.89,-217.64 498.14,-214.46 499.59,-211.36"/>
<polygon fill="#9ecae1" stroke="#9ecae1" points="502.78,-212.83 504.44,-202.37 496.62,-209.51 502.78,-212.83"/>
<text text-anchor="middle" x="567.97" y="-305.24" font-family="Helvetica,sans-Serif" font-size="10.00" fill="#3182bd">+100pA</text>
</g>
<!-- n39 -->
<g id="node25" class="node">
<title>n39</title>
<ellipse fill="#eff3ff" stroke="#bdd7e7" cx="1427.97" cy="-307.74" rx="86.58" ry="18"/>
<text text-anchor="middle" x="1427.97" y="-304.34" font-family="Helvetica,sans-Serif" font-size="13.00" fill="#2171b5">Mark Sweep as failure</text>
</g>
<!-- n38&#45;&gt;n39 -->
<g id="edge25" class="edge">
<title>n38&#45;&gt;n39</title>
<path fill="none" stroke="#9ecae1" d="M1378.18,-441.51C1388.97,-412.75 1406.76,-365.29 1417.9,-335.58"/>
<polygon fill="#9ecae1" stroke="#9ecae1" points="1421.31,-336.47 1421.54,-325.88 1414.75,-334.01 1421.31,-336.47"/>
<text text-anchor="middle" x="1395.97" y="-415.65" font-family="Helvetica,sans-Serif" font-size="10.00" fill="#3182bd">No</text>
</g>
<!-- Set &quot;TP during ITI&quot; to disabled -->
<g id="node26" class="node">
<title>Set &quot;TP during ITI&quot; to disabled</title>
<ellipse fill="#eff3ff" stroke="#bdd7e7" cx="114.97" cy="-246.28" rx="113.9" ry="18"/>
<text text-anchor="middle" x="114.97" y="-242.88" font-family="Helvetica,sans-Serif" font-size="13.00" fill="#2171b5">Set &quot;TP during ITI&quot; to disabled</text>
</g>
<!-- Set &quot;TP inserting&quot; to disabled&#45;&gt;Set &quot;TP during ITI&quot; to disabled -->
<g id="edge26" class="edge">
<title>Set &quot;TP inserting&quot; to disabled&#45;&gt;Set &quot;TP during ITI&quot; to disabled</title>
<path fill="none" stroke="#9ecae1" d="M114.97,-351.12C114.97,-331.25 114.97,-298.16 114.97,-274.68"/>
<polygon fill="#9ecae1" stroke="#9ecae1" points="118.47,-274.65 114.97,-264.65 111.47,-274.65 118.47,-274.65"/>
</g>
<!-- All checks passed -->
<g id="node27" class="node">
<title>All checks passed</title>
<ellipse fill="#eff3ff" stroke="#bdd7e7" cx="377.97" cy="-246.28" rx="71.26" ry="18"/>
<text text-anchor="middle" x="377.97" y="-242.88" font-family="Helvetica,sans-Serif" font-size="13.00" fill="#2171b5">All checks passed</text>
</g>
<!-- Check if only one headstage is active&#45;&gt;All checks passed -->
<g id="edge27" class="edge">
<title>Check if only one headstage is active&#45;&gt;All checks passed</title>
<path fill="none" stroke="#9ecae1" d="M380.54,-351.12C380.05,-331.25 379.23,-298.16 378.64,-274.68"/>
<polygon fill="#9ecae1" stroke="#9ecae1" points="382.14,-274.56 378.4,-264.65 375.15,-274.73 382.14,-274.56"/>
</g>
<!-- Store DAScale\nin labnotebook -->
<g id="node28" class="node">
<title>Store DAScale\nin labnotebook</title>
<ellipse fill="#eff3ff" stroke="#bdd7e7" cx="1123.97" cy="-246.28" rx="68.68" ry="25.41"/>
<text text-anchor="middle" x="1123.97" y="-249.88" font-family="Helvetica,sans-Serif" font-size="13.00" fill="#2171b5">Store DAScale</text>
<text text-anchor="middle" x="1123.97" y="-235.88" font-family="Helvetica,sans-Serif" font-size="13.00" fill="#2171b5">in labnotebook</text>
</g>
<!-- Step size from labnotebook?&#45;&gt;Store DAScale\nin labnotebook -->
<g id="edge28" class="edge">
<title>Step size from labnotebook?&#45;&gt;Store DAScale\nin labnotebook</title>
<path fill="none" stroke="#9ecae1" d="M1024.96,-351.38C1043,-332.41 1072.72,-301.16 1094.9,-277.84"/>
<polygon fill="#9ecae1" stroke="#9ecae1" points="1097.45,-280.23 1101.81,-270.57 1092.38,-275.41 1097.45,-280.23"/>
<text text-anchor="middle" x="1099.97" y="-305.24" font-family="Helvetica,sans-Serif" font-size="10.00" fill="#3182bd">+10pA</text>
</g>
<!-- Offset DAScale\nby &#45;50pA -->
<g id="node29" class="node">
<title>Offset DAScale\nby &#45;50pA</title>
<ellipse fill="#eff3ff" stroke="#bdd7e7" cx="878.97" cy="-108.46" rx="71.34" ry="25.41"/>
<text text-anchor="middle" x="878.97" y="-112.06" font-family="Helvetica,sans-Serif" font-size="13.00" fill="#2171b5">Offset DAScale</text>
<text text-anchor="middle" x="878.97" y="-98.06" font-family="Helvetica,sans-Serif" font-size="13.00" fill="#2171b5">by &#45;50pA</text>
</g>
<!-- Step size from labnotebook?&#45;&gt;Offset DAScale\nby &#45;50pA -->
<g id="edge29" class="edge">
<title>Step size from labnotebook?&#45;&gt;Offset DAScale\nby &#45;50pA</title>
<path fill="none" stroke="#9ecae1" d="M1008.89,-350.85C1008.12,-322.25 1003.72,-264.04 981.97,-220.82 965.79,-188.7 937.56,-159.16 914.74,-138.58"/>
<polygon fill="#9ecae1" stroke="#9ecae1" points="917.05,-135.95 907.24,-131.96 912.42,-141.2 917.05,-135.95"/>
<text text-anchor="middle" x="1013.97" y="-243.78" font-family="Helvetica,sans-Serif" font-size="10.00" fill="#3182bd">&#45;50pA</text>
</g>
<!-- Write step size of\n&#45;50pA to labnotebook -->
<g id="node30" class="node">
<title>Write step size of\n&#45;50pA to labnotebook</title>
<ellipse fill="#eff3ff" stroke="#bdd7e7" cx="878.97" cy="-246.28" rx="94.09" ry="25.41"/>
<text text-anchor="middle" x="878.97" y="-249.88" font-family="Helvetica,sans-Serif" font-size="13.00" fill="#2171b5">Write step size of</text>
<text text-anchor="middle" x="878.97" y="-235.88" font-family="Helvetica,sans-Serif" font-size="13.00" fill="#2171b5">&#45;50pA to labnotebook</text>
</g>
<!-- Step size from labnotebook?&#45;&gt;Write step size of\n&#45;50pA to labnotebook -->
<g id="edge30" class="edge">
<title>Step size from labnotebook?&#45;&gt;Write step size of\n&#45;50pA to labnotebook</title>
<path fill="none" stroke="#9ecae1" d="M987.55,-351.53C978,-343.89 966.72,-334.58 956.97,-325.74 940.49,-310.79 922.95,-293.31 908.69,-278.65"/>
<polygon fill="#9ecae1" stroke="#9ecae1" points="911.02,-276.03 901.56,-271.27 905.99,-280.89 911.02,-276.03"/>
<text text-anchor="middle" x="975.97" y="-305.24" font-family="Helvetica,sans-Serif" font-size="10.00" fill="#3182bd">+100pA</text>
</g>
<!-- Mark sweep as failure [2] -->
<g id="node31" class="node">
<title>Mark sweep as failure [2]</title>
<ellipse fill="#eff3ff" stroke="#bdd7e7" cx="1306.97" cy="-246.28" rx="96.03" ry="18"/>
<text text-anchor="middle" x="1306.97" y="-242.88" font-family="Helvetica,sans-Serif" font-size="13.00" fill="#2171b5">Mark sweep as failure [2]</text>
</g>
<!-- Add labnotebook entry\ndocumenting this case&#45;&gt;Mark sweep as failure [2] -->
<g id="edge31" class="edge">
<title>Add labnotebook entry\ndocumenting this case&#45;&gt;Mark sweep as failure [2]</title>
<path fill="none" stroke="#9ecae1" d="M1277.45,-343.72C1283.63,-323.53 1292.38,-294.93 1298.75,-274.11"/>
<polygon fill="#9ecae1" stroke="#9ecae1" points="1302.17,-274.9 1301.75,-264.31 1295.48,-272.85 1302.17,-274.9"/>
</g>
<!-- Write step size of\n+10pA to labnotebook&#45;&gt;Offset DAScale\nby +10pA -->
<g id="edge32" class="edge">
<title>Write step size of\n+10pA to labnotebook&#45;&gt;Offset DAScale\nby +10pA</title>
<path fill="none" stroke="#9ecae1" d="M620.92,-221C638.36,-198.65 664.33,-165.37 683.37,-140.98"/>
<polygon fill="#9ecae1" stroke="#9ecae1" points="686.14,-143.11 689.53,-133.07 680.62,-138.8 686.14,-143.11"/>
</g>
<!-- Mark sweep as failed [1] -->
<g id="node32" class="node">
<title>Mark sweep as failed [1]</title>
<ellipse fill="#eff3ff" stroke="#bdd7e7" cx="707.97" cy="-18" rx="94.24" ry="18"/>
<text text-anchor="middle" x="707.97" y="-14.6" font-family="Helvetica,sans-Serif" font-size="13.00" fill="#2171b5">Mark sweep as failed [1]</text>
</g>
<!-- Offset DAScale\nby +10pA&#45;&gt;Mark sweep as failed [1] -->
<g id="edge33" class="edge">
<title>Offset DAScale\nby +10pA&#45;&gt;Mark sweep as failed [1]</title>
<path fill="none" stroke="#9ecae1" d="M707.97,-82.82C707.97,-71.47 707.97,-57.96 707.97,-46.3"/>
<polygon fill="#9ecae1" stroke="#9ecae1" points="711.47,-46.23 707.97,-36.23 704.47,-46.23 711.47,-46.23"/>
</g>
<!-- Offset DAScale\nby +100pA&#45;&gt;Mark sweep as failed [1] -->
<g id="edge34" class="edge">
<title>Offset DAScale\nby +100pA&#45;&gt;Mark sweep as failed [1]</title>
<path fill="none" stroke="#9ecae1" d="M548.1,-153.35C569.17,-134.22 600.18,-106.44 627.97,-83 644.48,-69.07 663.34,-53.94 678.6,-41.9"/>
<polygon fill="#9ecae1" stroke="#9ecae1" points="680.97,-44.48 686.67,-35.55 676.64,-38.98 680.97,-44.48"/>
</g>
<!-- Skip to end of active set -->
<g id="node33" class="node">
<title>Skip to end of active set</title>
<ellipse fill="#eff3ff" stroke="#bdd7e7" cx="1306.97" cy="-18" rx="93.48" ry="18"/>
<text text-anchor="middle" x="1306.97" y="-14.6" font-family="Helvetica,sans-Serif" font-size="13.00" fill="#2171b5">Skip to end of active set</text>
</g>
<!-- n39&#45;&gt;Skip to end of active set -->
<g id="edge35" class="edge">
<title>n39&#45;&gt;Skip to end of active set</title>
<path fill="none" stroke="#9ecae1" d="M1432.56,-289.73C1442.23,-250.12 1460.61,-149.95 1419.97,-83 1407.38,-62.27 1385.41,-47.66 1364.18,-37.69"/>
<polygon fill="#9ecae1" stroke="#9ecae1" points="1365.39,-34.4 1354.83,-33.56 1362.57,-40.8 1365.39,-34.4"/>
</g>
<!-- Set &quot;ITI&quot; to 100ms -->
<g id="node34" class="node">
<title>Set &quot;ITI&quot; to 100ms</title>
<ellipse fill="#eff3ff" stroke="#bdd7e7" cx="114.97" cy="-108.46" rx="73.05" ry="18"/>
<text text-anchor="middle" x="114.97" y="-105.06" font-family="Helvetica,sans-Serif" font-size="13.00" fill="#2171b5">Set &quot;ITI&quot; to 100ms</text>
</g>
<!-- Set &quot;TP during ITI&quot; to disabled&#45;&gt;Set &quot;ITI&quot; to 100ms -->
<g id="edge36" class="edge">
<title>Set &quot;TP during ITI&quot; to disabled&#45;&gt;Set &quot;ITI&quot; to 100ms</title>
<path fill="none" stroke="#9ecae1" d="M114.97,-228.08C114.97,-205.01 114.97,-163.82 114.97,-136.56"/>
<polygon fill="#9ecae1" stroke="#9ecae1" points="118.47,-136.52 114.97,-126.52 111.47,-136.52 118.47,-136.52"/>
</g>
<!-- Set DAScale to 100pA -->
<g id="node35" class="node">
<title>Set DAScale to 100pA</title>
<ellipse fill="#eff3ff" stroke="#bdd7e7" cx="422.97" cy="-108.46" rx="88.37" ry="18"/>
<text text-anchor="middle" x="422.97" y="-105.06" font-family="Helvetica,sans-Serif" font-size="13.00" fill="#2171b5">Set DAScale to 100pA</text>
</g>
<!-- All checks passed&#45;&gt;Set DAScale to 100pA -->
<g id="edge37" class="edge">
<title>All checks passed&#45;&gt;Set DAScale to 100pA</title>
<path fill="none" stroke="#9ecae1" d="M383.66,-228.08C391.34,-204.91 405.08,-163.45 414.1,-136.2"/>
<polygon fill="#9ecae1" stroke="#9ecae1" points="417.49,-137.11 417.31,-126.52 410.84,-134.91 417.49,-137.11"/>
<text text-anchor="middle" x="418.47" y="-174.87" font-family="Helvetica,sans-Serif" font-size="10.00" fill="#3182bd">Yes</text>
</g>
<!-- Abort -->
<g id="node36" class="node">
<title>Abort</title>
<ellipse fill="#eff3ff" stroke="#bdd7e7" cx="287.97" cy="-108.46" rx="29.11" ry="18"/>
<text text-anchor="middle" x="287.97" y="-105.06" font-family="Helvetica,sans-Serif" font-size="13.00" fill="#2171b5">Abort</text>
</g>
<!-- All checks passed&#45;&gt;Abort -->
<g id="edge38" class="edge">
<title>All checks passed&#45;&gt;Abort</title>
<path fill="none" stroke="#9ecae1" d="M366.75,-228.35C351,-204.58 322.24,-161.18 304.17,-133.91"/>
<polygon fill="#9ecae1" stroke="#9ecae1" points="306.92,-131.73 298.48,-125.33 301.09,-135.6 306.92,-131.73"/>
<text text-anchor="middle" x="355.97" y="-174.87" font-family="Helvetica,sans-Serif" font-size="10.00" fill="#3182bd">No</text>
</g>
<!-- Mark sweep as passed -->
<g id="node37" class="node">
<title>Mark sweep as passed</title>
<ellipse fill="#eff3ff" stroke="#bdd7e7" cx="1095.97" cy="-108.46" rx="89.13" ry="18"/>
<text text-anchor="middle" x="1095.97" y="-105.06" font-family="Helvetica,sans-Serif" font-size="13.00" fill="#2171b5">Mark sweep as passed</text>
</g>
<!-- Store DAScale\nin labnotebook&#45;&gt;Mark sweep as passed -->
<g id="edge39" class="edge">
<title>Store DAScale\nin labnotebook&#45;&gt;Mark sweep as passed</title>
<path fill="none" stroke="#9ecae1" d="M1118.89,-220.68C1114.01,-196.98 1106.63,-161.18 1101.57,-136.64"/>
<polygon fill="#9ecae1" stroke="#9ecae1" points="1104.94,-135.65 1099.49,-126.56 1098.08,-137.06 1104.94,-135.65"/>
</g>
<!-- Offset DAScale\nby &#45;50pA&#45;&gt;Mark sweep as failed [1] -->
<g id="edge40" class="edge">
<title>Offset DAScale\nby &#45;50pA&#45;&gt;Mark sweep as failed [1]</title>
<path fill="none" stroke="#9ecae1" d="M839.73,-87.16C812.27,-72.96 775.7,-54.04 748.05,-39.73"/>
<polygon fill="#9ecae1" stroke="#9ecae1" points="749.53,-36.56 739.04,-35.07 746.31,-42.78 749.53,-36.56"/>
</g>
<!-- Write step size of\n&#45;50pA to labnotebook&#45;&gt;Offset DAScale\nby &#45;50pA -->
<g id="edge41" class="edge">
<title>Write step size of\n&#45;50pA to labnotebook&#45;&gt;Offset DAScale\nby &#45;50pA</title>
<path fill="none" stroke="#9ecae1" d="M878.97,-220.68C878.97,-199.37 878.97,-168.3 878.97,-144.41"/>
<polygon fill="#9ecae1" stroke="#9ecae1" points="882.47,-144.33 878.97,-134.33 875.47,-144.33 882.47,-144.33"/>
</g>
<!-- Three sweeps exist with\nthis labnotebook entry? -->
<g id="node38" class="node">
<title>Three sweeps exist with\nthis labnotebook entry?</title>
<ellipse fill="#eff3ff" stroke="#bdd7e7" cx="1306.97" cy="-108.46" rx="103.89" ry="25.41"/>
<text text-anchor="middle" x="1306.97" y="-112.06" font-family="Helvetica,sans-Serif" font-size="13.00" fill="#2171b5">Three sweeps exist with</text>
<text text-anchor="middle" x="1306.97" y="-98.06" font-family="Helvetica,sans-Serif" font-size="13.00" fill="#2171b5">this labnotebook entry?</text>
</g>
<!-- Mark sweep as failure [2]&#45;&gt;Three sweeps exist with\nthis labnotebook entry? -->
<g id="edge42" class="edge">
<title>Mark sweep as failure [2]&#45;&gt;Three sweeps exist with\nthis labnotebook entry?</title>
<path fill="none" stroke="#9ecae1" d="M1306.97,-228.08C1306.97,-207.16 1306.97,-171.31 1306.97,-144.49"/>
<polygon fill="#9ecae1" stroke="#9ecae1" points="1310.47,-144.34 1306.97,-134.34 1303.47,-144.34 1310.47,-144.34"/>
</g>
<!-- Enable &quot;Repeated Acquisition&quot; -->
<g id="node39" class="node">
<title>Enable &quot;Repeated Acquisition&quot;</title>
<ellipse fill="#eff3ff" stroke="#bdd7e7" cx="114.97" cy="-18" rx="114.93" ry="18"/>
<text text-anchor="middle" x="114.97" y="-14.6" font-family="Helvetica,sans-Serif" font-size="13.00" fill="#2171b5">Enable &quot;Repeated Acquisition&quot;</text>
</g>
<!-- Set &quot;ITI&quot; to 100ms&#45;&gt;Enable &quot;Repeated Acquisition&quot; -->
<g id="edge43" class="edge">
<title>Set &quot;ITI&quot; to 100ms&#45;&gt;Enable &quot;Repeated Acquisition&quot;</title>
<path fill="none" stroke="#9ecae1" d="M114.97,-90.4C114.97,-77.92 114.97,-60.72 114.97,-46.33"/>
<polygon fill="#9ecae1" stroke="#9ecae1" points="118.47,-46 114.97,-36 111.47,-46 118.47,-46"/>
</g>
<!-- Write initial stepsize of 100pA into labnotebook -->
<g id="node40" class="node">
<title>Write initial stepsize of 100pA into labnotebook</title>
<ellipse fill="#eff3ff" stroke="#bdd7e7" cx="422.97" cy="-18" rx="169.84" ry="18"/>
<text text-anchor="middle" x="422.97" y="-14.6" font-family="Helvetica,sans-Serif" font-size="13.00" fill="#2171b5">Write initial stepsize of 100pA into labnotebook</text>
</g>
<!-- Set DAScale to 100pA&#45;&gt;Write initial stepsize of 100pA into labnotebook -->
<g id="edge44" class="edge">
<title>Set DAScale to 100pA&#45;&gt;Write initial stepsize of 100pA into labnotebook</title>
<path fill="none" stroke="#9ecae1" d="M422.97,-90.4C422.97,-77.92 422.97,-60.72 422.97,-46.33"/>
<polygon fill="#9ecae1" stroke="#9ecae1" points="426.47,-46 422.97,-36 419.47,-46 426.47,-46"/>
</g>
<!-- Mark sweep as passed&#45;&gt;Skip to end of active set -->
<g id="edge45" class="edge">
<title>Mark sweep as passed&#45;&gt;Skip to end of active set</title>
<path fill="none" stroke="#9ecae1" d="M1132.72,-92.05C1168.2,-77.17 1222.07,-54.59 1260.5,-38.48"/>
<polygon fill="#9ecae1" stroke="#9ecae1" points="1262.06,-41.62 1269.92,-34.53 1259.35,-35.17 1262.06,-41.62"/>
</g>
<!-- Three sweeps exist with\nthis labnotebook entry?&#45;&gt;Skip to end of active set -->
<g id="edge46" class="edge">
<title>Three sweeps exist with\nthis labnotebook entry?&#45;&gt;Skip to end of active set</title>
<path fill="none" stroke="#9ecae1" d="M1306.97,-82.82C1306.97,-71.47 1306.97,-57.96 1306.97,-46.3"/>
<polygon fill="#9ecae1" stroke="#9ecae1" points="1310.47,-46.23 1306.97,-36.23 1303.47,-46.23 1310.47,-46.23"/>
<text text-anchor="middle" x="1316.47" y="-57" font-family="Helvetica,sans-Serif" font-size="10.00" fill="#3182bd">Yes</text>
</g>
</g>
</svg>
