<?xml version="1.0" encoding="UTF-8" standalone="no"?>
<!DOCTYPE svg PUBLIC "-//W3C//DTD SVG 1.1//EN"
 "http://www.w3.org/Graphics/SVG/1.1/DTD/svg11.dtd">
<!-- Generated by graphviz version 2.44.1 (20200629.0846)
 -->
<!-- Title: G Pages: 1 -->
<svg width="266pt" height="620pt"
 viewBox="0.00 0.00 266.00 620.00" xmlns="http://www.w3.org/2000/svg" xmlns:xlink="http://www.w3.org/1999/xlink">
<g id="graph0" class="graph" transform="scale(1 1) rotate(0) translate(4 616)">
<title>G</title>
<polygon fill="white" stroke="transparent" points="-4,4 -4,-616 262,-616 262,4 -4,4"/>
<!-- INACTIVE -->
<g id="node1" class="node">
<title>INACTIVE</title>
<ellipse fill="#eff3ff" stroke="#bdd7e7" cx="173" cy="-594" rx="46.22" ry="18"/>
<text text-anchor="middle" x="173" y="-590.6" font-family="Helvetica,sans-Serif" font-size="13.00" fill="#2171b5">INACTIVE</text>
</g>
<!-- EARLY CHECK -->
<g id="node2" class="node">
<title>EARLY CHECK</title>
<ellipse fill="#eff3ff" stroke="#bdd7e7" cx="126" cy="-522" rx="65.89" ry="18"/>
<text text-anchor="middle" x="126" y="-518.6" font-family="Helvetica,sans-Serif" font-size="13.00" fill="#2171b5">EARLY CHECK</text>
</g>
<!-- INACTIVE&#45;&gt;EARLY CHECK -->
<g id="edge1" class="edge">
<title>INACTIVE&#45;&gt;EARLY CHECK</title>
<path fill="none" stroke="#9ecae1" d="M156.57,-577.12C150.03,-568.8 142.79,-558.41 136.89,-548.96"/>
<polygon fill="#9ecae1" stroke="#9ecae1" points="139.84,-547.07 131.7,-540.29 133.83,-550.67 139.84,-547.07"/>
</g>
<!-- EARLY CHECK&#45;&gt;INACTIVE -->
<g id="edge2" class="edge">
<title>EARLY CHECK&#45;&gt;INACTIVE</title>
<path fill="none" stroke="#9ecae1" d="M143.13,-539.79C149.54,-548.02 156.55,-558.11 162.27,-567.29"/>
<polygon fill="#9ecae1" stroke="#9ecae1" points="159.37,-569.26 167.5,-576.05 165.38,-565.67 159.37,-569.26"/>
</g>
<!-- PRE DAQ -->
<g id="node3" class="node">
<title>PRE DAQ</title>
<ellipse fill="#eff3ff" stroke="#bdd7e7" cx="155" cy="-450" rx="46.22" ry="18"/>
<text text-anchor="middle" x="155" y="-446.6" font-family="Helvetica,sans-Serif" font-size="13.00" fill="#2171b5">PRE DAQ</text>
</g>
<!-- EARLY CHECK&#45;&gt;PRE DAQ -->
<g id="edge3" class="edge">
<title>EARLY CHECK&#45;&gt;PRE DAQ</title>
<path fill="none" stroke="#9ecae1" d="M133.02,-504.05C136.28,-496.18 140.24,-486.62 143.9,-477.79"/>
<polygon fill="#9ecae1" stroke="#9ecae1" points="147.25,-478.85 147.84,-468.28 140.78,-476.17 147.25,-478.85"/>
</g>
<!-- PRE DAQ&#45;&gt;INACTIVE -->
<g id="edge5" class="edge">
<title>PRE DAQ&#45;&gt;INACTIVE</title>
<path fill="none" stroke="#9ecae1" d="M173.91,-466.54C184.04,-476.14 195.54,-489.39 201,-504 208.91,-525.19 199.86,-549.75 190,-567.69"/>
<polygon fill="#9ecae1" stroke="#9ecae1" points="186.91,-566.03 184.85,-576.42 192.94,-569.58 186.91,-566.03"/>
</g>
<!-- PRE SWEEP CONFIG -->
<g id="node4" class="node">
<title>PRE SWEEP CONFIG</title>
<ellipse fill="#eff3ff" stroke="#bdd7e7" cx="97" cy="-378" rx="89.9" ry="18"/>
<text text-anchor="middle" x="97" y="-374.6" font-family="Helvetica,sans-Serif" font-size="13.00" fill="#2171b5">PRE SWEEP CONFIG</text>
</g>
<!-- PRE DAQ&#45;&gt;PRE SWEEP CONFIG -->
<g id="edge4" class="edge">
<title>PRE DAQ&#45;&gt;PRE SWEEP CONFIG</title>
<path fill="none" stroke="#9ecae1" d="M141.55,-432.76C134.44,-424.18 125.55,-413.46 117.6,-403.86"/>
<polygon fill="#9ecae1" stroke="#9ecae1" points="120.26,-401.59 111.19,-396.12 114.87,-406.06 120.26,-401.59"/>
</g>
<!-- POST DAQ -->
<g id="node5" class="node">
<title>POST DAQ</title>
<ellipse fill="#eff3ff" stroke="#bdd7e7" cx="160" cy="-18" rx="51.33" ry="18"/>
<text text-anchor="middle" x="160" y="-14.6" font-family="Helvetica,sans-Serif" font-size="13.00" fill="#2171b5">POST DAQ</text>
</g>
<!-- PRE DAQ&#45;&gt;POST DAQ -->
<g id="edge6" class="edge">
<title>PRE DAQ&#45;&gt;POST DAQ</title>
<path fill="none" stroke="#9ecae1" d="M170.13,-432.96C178.81,-423 189.27,-409.55 196,-396 214.22,-359.31 220,-347.97 220,-307 220,-307 220,-307 220,-161 220,-120.03 213.08,-109.24 196,-72 191.59,-62.39 185.5,-52.62 179.58,-44.12"/>
<polygon fill="#9ecae1" stroke="#9ecae1" points="182.25,-41.84 173.55,-35.79 176.58,-45.95 182.25,-41.84"/>
</g>
<!-- PRE SWEEP CONFIG&#45;&gt;POST DAQ -->
<g id="edge8" class="edge">
<title>PRE SWEEP CONFIG&#45;&gt;POST DAQ</title>
<path fill="none" stroke="#9ecae1" d="M66.6,-360.99C52.08,-351.92 35.59,-339.32 25,-324 1.63,-290.21 0,-276.09 0,-235 0,-235 0,-235 0,-161 0,-98.63 68.85,-56.98 116.22,-35.71"/>
<polygon fill="#9ecae1" stroke="#9ecae1" points="117.9,-38.8 125.68,-31.6 115.11,-32.38 117.9,-38.8"/>
</g>
<!-- PRE SWEEP -->
<g id="node6" class="node">
<title>PRE SWEEP</title>
<ellipse fill="#eff3ff" stroke="#bdd7e7" cx="91" cy="-306" rx="56.7" ry="18"/>
<text text-anchor="middle" x="91" y="-302.6" font-family="Helvetica,sans-Serif" font-size="13.00" fill="#2171b5">PRE SWEEP</text>
</g>
<!-- PRE SWEEP CONFIG&#45;&gt;PRE SWEEP -->
<g id="edge7" class="edge">
<title>PRE SWEEP CONFIG&#45;&gt;PRE SWEEP</title>
<path fill="none" stroke="#9ecae1" d="M95.52,-359.7C94.86,-351.98 94.06,-342.71 93.32,-334.11"/>
<polygon fill="#9ecae1" stroke="#9ecae1" points="96.81,-333.77 92.47,-324.1 89.83,-334.37 96.81,-333.77"/>
</g>
<!-- POST DAQ&#45;&gt;INACTIVE -->
<g id="edge16" class="edge">
<title>POST DAQ&#45;&gt;INACTIVE</title>
<path fill="none" stroke="#9ecae1" d="M180.78,-34.86C209.55,-58.78 258,-107.08 258,-161 258,-451 258,-451 258,-451 258,-498.33 222.8,-543.55 197.71,-569.77"/>
<polygon fill="#9ecae1" stroke="#9ecae1" points="195.14,-567.39 190.61,-576.97 200.13,-572.3 195.14,-567.39"/>
</g>
<!-- MID SWEEP -->
<g id="node7" class="node">
<title>MID SWEEP</title>
<ellipse fill="#eff3ff" stroke="#bdd7e7" cx="82" cy="-234" rx="54.15" ry="18"/>
<text text-anchor="middle" x="82" y="-230.6" font-family="Helvetica,sans-Serif" font-size="13.00" fill="#2171b5">MID SWEEP</text>
</g>
<!-- PRE SWEEP&#45;&gt;MID SWEEP -->
<g id="edge9" class="edge">
<title>PRE SWEEP&#45;&gt;MID SWEEP</title>
<path fill="none" stroke="#9ecae1" d="M88.78,-287.7C87.78,-279.98 86.59,-270.71 85.49,-262.11"/>
<polygon fill="#9ecae1" stroke="#9ecae1" points="88.95,-261.58 84.2,-252.1 82,-262.47 88.95,-261.58"/>
</g>
<!-- MID SWEEP&#45;&gt;MID SWEEP -->
<g id="edge10" class="edge">
<title>MID SWEEP&#45;&gt;MID SWEEP</title>
<path fill="none" stroke="#9ecae1" d="M119.58,-247.14C137.99,-248.86 154.32,-244.48 154.32,-234 154.32,-225.49 143.54,-221 129.62,-220.54"/>
<polygon fill="#9ecae1" stroke="#9ecae1" points="129.47,-217.04 119.58,-220.86 129.69,-224.04 129.47,-217.04"/>
</g>
<!-- POST SWEEP -->
<g id="node8" class="node">
<title>POST SWEEP</title>
<ellipse fill="#eff3ff" stroke="#bdd7e7" cx="92" cy="-162" rx="61.81" ry="18"/>
<text text-anchor="middle" x="92" y="-158.6" font-family="Helvetica,sans-Serif" font-size="13.00" fill="#2171b5">POST SWEEP</text>
</g>
<!-- MID SWEEP&#45;&gt;POST SWEEP -->
<g id="edge11" class="edge">
<title>MID SWEEP&#45;&gt;POST SWEEP</title>
<path fill="none" stroke="#9ecae1" d="M84.47,-215.7C85.57,-207.98 86.9,-198.71 88.13,-190.11"/>
<polygon fill="#9ecae1" stroke="#9ecae1" points="91.61,-190.5 89.56,-180.1 84.68,-189.51 91.61,-190.5"/>
</g>
<!-- POST SWEEP&#45;&gt;POST DAQ -->
<g id="edge13" class="edge">
<title>POST SWEEP&#45;&gt;POST DAQ</title>
<path fill="none" stroke="#9ecae1" d="M96.79,-143.74C102.2,-125.41 111.86,-95.85 124,-72 128.92,-62.34 135.31,-52.34 141.35,-43.68"/>
<polygon fill="#9ecae1" stroke="#9ecae1" points="144.22,-45.68 147.19,-35.51 138.52,-41.61 144.22,-45.68"/>
</g>
<!-- ITI -->
<g id="node9" class="node">
<title>ITI</title>
<ellipse fill="#eff3ff" stroke="#bdd7e7" cx="160" cy="-90" rx="27" ry="18"/>
<text text-anchor="middle" x="160" y="-86.6" font-family="Helvetica,sans-Serif" font-size="13.00" fill="#2171b5">ITI</text>
</g>
<!-- POST SWEEP&#45;&gt;ITI -->
<g id="edge12" class="edge">
<title>POST SWEEP&#45;&gt;ITI</title>
<path fill="none" stroke="#9ecae1" d="M108.12,-144.41C117.25,-135 128.8,-123.12 138.68,-112.94"/>
<polygon fill="#9ecae1" stroke="#9ecae1" points="141.39,-115.18 145.85,-105.57 136.37,-110.3 141.39,-115.18"/>
</g>
<!-- ITI&#45;&gt;PRE SWEEP CONFIG -->
<g id="edge14" class="edge">
<title>ITI&#45;&gt;PRE SWEEP CONFIG</title>
<path fill="none" stroke="#9ecae1" d="M164.55,-107.98C174.33,-148.12 193.66,-250.97 157,-324 151.1,-335.76 141.35,-346.07 131.41,-354.4"/>
<polygon fill="#9ecae1" stroke="#9ecae1" points="129.17,-351.71 123.47,-360.64 133.5,-357.21 129.17,-351.71"/>
</g>
<!-- ITI&#45;&gt;POST DAQ -->
<g id="edge15" class="edge">
<title>ITI&#45;&gt;POST DAQ</title>
<path fill="none" stroke="#9ecae1" d="M160,-71.7C160,-63.98 160,-54.71 160,-46.11"/>
<polygon fill="#9ecae1" stroke="#9ecae1" points="163.5,-46.1 160,-36.1 156.5,-46.1 163.5,-46.1"/>
</g>
</g>
</svg>
