<?xml version="1.0" encoding="UTF-8" standalone="no"?>
<!DOCTYPE svg PUBLIC "-//W3C//DTD SVG 1.1//EN"
 "http://www.w3.org/Graphics/SVG/1.1/DTD/svg11.dtd">
<!-- Generated by graphviz version 2.44.1 (20200629.0846)
 -->
<!-- Title: G Pages: 1 -->
<svg width="1646pt" height="1878pt"
 viewBox="0.00 0.00 1646.31 1877.51" xmlns="http://www.w3.org/2000/svg" xmlns:xlink="http://www.w3.org/1999/xlink">
<g id="graph0" class="graph" transform="scale(1 1) rotate(0) translate(4 1873.51)">
<title>G</title>
<polygon fill="white" stroke="transparent" points="-4,4 -4,-1873.51 1642.31,-1873.51 1642.31,4 -4,4"/>
<!-- n0 -->
<g id="node1" class="node">
<title>n0</title>
<ellipse fill="#eff3ff" stroke="#bdd7e7" cx="1114.23" cy="-1851.51" rx="150.94" ry="18"/>
<text text-anchor="middle" x="1114.23" y="-1848.11" font-family="Helvetica,sans-Serif" font-size="13.00" fill="#2171b5">Evaluate TP properties and fill TPResults</text>
</g>
<!-- n6 -->
<g id="node2" class="node">
<title>n6</title>
<ellipse fill="#eff3ff" stroke="#bdd7e7" cx="1016.23" cy="-1778.51" rx="67.68" ry="18"/>
<text text-anchor="middle" x="1016.23" y="-1775.11" font-family="Helvetica,sans-Serif" font-size="13.00" fill="#2171b5">Is DAQ running?</text>
</g>
<!-- n0&#45;&gt;n6 -->
<g id="edge1" class="edge">
<title>n0&#45;&gt;n6</title>
<path fill="none" stroke="#9ecae1" d="M1091,-1833.69C1077.88,-1824.18 1061.3,-1812.17 1047.1,-1801.88"/>
<polygon fill="#9ecae1" stroke="#9ecae1" points="1048.76,-1798.76 1038.61,-1795.73 1044.65,-1804.43 1048.76,-1798.76"/>
</g>
<!-- n36 -->
<g id="node3" class="node">
<title>n36</title>
<ellipse fill="#eff3ff" stroke="#bdd7e7" cx="1217.23" cy="-1778.51" rx="111.35" ry="18"/>
<text text-anchor="middle" x="1217.23" y="-1775.11" font-family="Helvetica,sans-Serif" font-size="13.00" fill="#2171b5">Iterate over all IC headstages</text>
</g>
<!-- n0&#45;&gt;n36 -->
<g id="edge2" class="edge">
<title>n0&#45;&gt;n36</title>
<path fill="none" stroke="#9ecae1" d="M1138.64,-1833.69C1152.36,-1824.23 1169.68,-1812.29 1184.56,-1802.03"/>
<polygon fill="#9ecae1" stroke="#9ecae1" points="1186.75,-1804.78 1192.99,-1796.22 1182.77,-1799.01 1186.75,-1804.78"/>
</g>
<!-- n2 -->
<g id="node6" class="node">
<title>n2</title>
<ellipse fill="#eff3ff" stroke="#bdd7e7" cx="989.23" cy="-1688.06" rx="142.26" ry="25.41"/>
<text text-anchor="middle" x="989.23" y="-1691.66" font-family="Helvetica,sans-Serif" font-size="13.00" fill="#2171b5">Has &quot;Auto TP interval [s]&quot; elapsed</text>
<text text-anchor="middle" x="989.23" y="-1677.66" font-family="Helvetica,sans-Serif" font-size="13.00" fill="#2171b5">since the last call</text>
</g>
<!-- n6&#45;&gt;n2 -->
<g id="edge8" class="edge">
<title>n6&#45;&gt;n2</title>
<path fill="none" stroke="#9ecae1" d="M1011.02,-1760.46C1007.83,-1750 1003.63,-1736.23 999.76,-1723.58"/>
<polygon fill="#9ecae1" stroke="#9ecae1" points="1003.03,-1722.3 996.77,-1713.76 996.34,-1724.34 1003.03,-1722.3"/>
<text text-anchor="middle" x="1012.23" y="-1734.51" font-family="Helvetica,sans-Serif" font-size="10.00" fill="#3182bd">No</text>
</g>
<!-- n37 -->
<g id="node33" class="node">
<title>n37</title>
<ellipse fill="#eff3ff" stroke="#bdd7e7" cx="1230.23" cy="-1688.06" rx="72.79" ry="18"/>
<text text-anchor="middle" x="1230.23" y="-1684.66" font-family="Helvetica,sans-Serif" font-size="13.00" fill="#2171b5">Auto TP enabled?</text>
</g>
<!-- n36&#45;&gt;n37 -->
<g id="edge38" class="edge">
<title>n36&#45;&gt;n37</title>
<path fill="none" stroke="#9ecae1" d="M1219.73,-1760.46C1221.59,-1747.85 1224.14,-1730.44 1226.27,-1715.97"/>
<polygon fill="#9ecae1" stroke="#9ecae1" points="1229.74,-1716.46 1227.73,-1706.06 1222.81,-1715.45 1229.74,-1716.46"/>
</g>
<!-- n1 -->
<g id="node4" class="node">
<title>n1</title>
<ellipse fill="#eff3ff" stroke="#bdd7e7" cx="942.23" cy="-1590.15" rx="111.35" ry="18"/>
<text text-anchor="middle" x="942.23" y="-1586.75" font-family="Helvetica,sans-Serif" font-size="13.00" fill="#2171b5">Iterate over all IC headstages</text>
</g>
<!-- n3 -->
<g id="node5" class="node">
<title>n3</title>
<ellipse fill="#eff3ff" stroke="#bdd7e7" cx="942.23" cy="-1499.69" rx="72.79" ry="18"/>
<text text-anchor="middle" x="942.23" y="-1496.29" font-family="Helvetica,sans-Serif" font-size="13.00" fill="#2171b5">Auto TP enabled?</text>
</g>
<!-- n1&#45;&gt;n3 -->
<g id="edge3" class="edge">
<title>n1&#45;&gt;n3</title>
<path fill="none" stroke="#9ecae1" d="M942.23,-1572.09C942.23,-1559.61 942.23,-1542.41 942.23,-1528.02"/>
<polygon fill="#9ecae1" stroke="#9ecae1" points="945.73,-1527.69 942.23,-1517.69 938.73,-1527.69 945.73,-1527.69"/>
</g>
<!-- n4 -->
<g id="node7" class="node">
<title>n4</title>
<ellipse fill="#eff3ff" stroke="#bdd7e7" cx="942.23" cy="-1409.23" rx="153.38" ry="25.41"/>
<text text-anchor="middle" x="942.23" y="-1412.83" font-family="Helvetica,sans-Serif" font-size="13.00" fill="#2171b5">Are two testpulse waveforms</text>
<text text-anchor="middle" x="942.23" y="-1398.83" font-family="Helvetica,sans-Serif" font-size="13.00" fill="#2171b5"> present from the same TP cycle ID?</text>
</g>
<!-- n3&#45;&gt;n4 -->
<g id="edge5" class="edge">
<title>n3&#45;&gt;n4</title>
<path fill="none" stroke="#9ecae1" d="M942.23,-1481.64C942.23,-1471.28 942.23,-1457.68 942.23,-1445.13"/>
<polygon fill="#9ecae1" stroke="#9ecae1" points="945.73,-1444.93 942.23,-1434.93 938.73,-1444.93 945.73,-1444.93"/>
<text text-anchor="middle" x="951.73" y="-1455.69" font-family="Helvetica,sans-Serif" font-size="10.00" fill="#3182bd">Yes</text>
</g>
<!-- n2&#45;&gt;n1 -->
<g id="edge4" class="edge">
<title>n2&#45;&gt;n1</title>
<path fill="none" stroke="#9ecae1" d="M977.24,-1662.61C970.48,-1648.81 962.03,-1631.56 955.12,-1617.47"/>
<polygon fill="#9ecae1" stroke="#9ecae1" points="958.17,-1615.73 950.63,-1608.29 951.89,-1618.81 958.17,-1615.73"/>
<text text-anchor="middle" x="976.73" y="-1636.6" font-family="Helvetica,sans-Serif" font-size="10.00" fill="#3182bd">Yes</text>
</g>
<!-- n5 -->
<g id="node8" class="node">
<title>n5</title>
<ellipse fill="#eff3ff" stroke="#bdd7e7" cx="942.23" cy="-1311.32" rx="179.71" ry="25.41"/>
<text text-anchor="middle" x="942.23" y="-1314.92" font-family="Helvetica,sans-Serif" font-size="13.00" fill="#2171b5">Calculate delta V using</text>
<text text-anchor="middle" x="942.23" y="-1300.92" font-family="Helvetica,sans-Serif" font-size="13.00" fill="#2171b5">elevated and baseline steady state voltages</text>
</g>
<!-- n4&#45;&gt;n5 -->
<g id="edge6" class="edge">
<title>n4&#45;&gt;n5</title>
<path fill="none" stroke="#9ecae1" d="M942.23,-1383.53C942.23,-1372.46 942.23,-1359.2 942.23,-1347.14"/>
<polygon fill="#9ecae1" stroke="#9ecae1" points="945.73,-1346.94 942.23,-1336.94 938.73,-1346.94 945.73,-1346.94"/>
<text text-anchor="middle" x="951.73" y="-1357.78" font-family="Helvetica,sans-Serif" font-size="10.00" fill="#3182bd">Yes</text>
</g>
<!-- n14 -->
<g id="node9" class="node">
<title>n14</title>
<ellipse fill="#eff3ff" stroke="#bdd7e7" cx="942.23" cy="-1223.41" rx="144.91" ry="25.41"/>
<text text-anchor="middle" x="942.23" y="-1227.01" font-family="Helvetica,sans-Serif" font-size="13.00" fill="#2171b5">Does the sign of the target voltage</text>
<text text-anchor="middle" x="942.23" y="-1213.01" font-family="Helvetica,sans-Serif" font-size="13.00" fill="#2171b5"> and the IC amplitude differ?</text>
</g>
<!-- n5&#45;&gt;n14 -->
<g id="edge7" class="edge">
<title>n5&#45;&gt;n14</title>
<path fill="none" stroke="#9ecae1" d="M942.23,-1285.47C942.23,-1277.21 942.23,-1267.85 942.23,-1258.99"/>
<polygon fill="#9ecae1" stroke="#9ecae1" points="945.73,-1258.91 942.23,-1248.91 938.73,-1258.91 945.73,-1258.91"/>
</g>
<!-- n7 -->
<g id="node10" class="node">
<title>n7</title>
<ellipse fill="#eff3ff" stroke="#bdd7e7" cx="926.23" cy="-1059.96" rx="139.7" ry="18"/>
<text text-anchor="middle" x="926.23" y="-1056.56" font-family="Helvetica,sans-Serif" font-size="13.00" fill="#2171b5">Is the IC amplitude smaller than 5pA?</text>
</g>
<!-- n14&#45;&gt;n7 -->
<g id="edge15" class="edge">
<title>n14&#45;&gt;n7</title>
<path fill="none" stroke="#9ecae1" d="M939.8,-1197.89C936.87,-1168.38 931.98,-1118.97 928.93,-1088.26"/>
<polygon fill="#9ecae1" stroke="#9ecae1" points="932.41,-1087.85 927.94,-1078.25 925.44,-1088.54 932.41,-1087.85"/>
<text text-anchor="middle" x="942.23" y="-1130.46" font-family="Helvetica,sans-Serif" font-size="10.00" fill="#3182bd">No</text>
</g>
<!-- n13 -->
<g id="node15" class="node">
<title>n13</title>
<ellipse fill="#eff3ff" stroke="#bdd7e7" cx="1063.23" cy="-1132.96" rx="105.48" ry="18"/>
<text text-anchor="middle" x="1063.23" y="-1129.56" font-family="Helvetica,sans-Serif" font-size="13.00" fill="#2171b5">Adapt the IC amplitude sign</text>
</g>
<!-- n14&#45;&gt;n13 -->
<g id="edge16" class="edge">
<title>n14&#45;&gt;n13</title>
<path fill="none" stroke="#9ecae1" d="M974.97,-1198.47C992.77,-1185.46 1014.67,-1169.45 1032.2,-1156.64"/>
<polygon fill="#9ecae1" stroke="#9ecae1" points="1034.41,-1159.36 1040.42,-1150.63 1030.28,-1153.71 1034.41,-1159.36"/>
<text text-anchor="middle" x="1023.73" y="-1171.96" font-family="Helvetica,sans-Serif" font-size="10.00" fill="#3182bd">Yes</text>
</g>
<!-- n8 -->
<g id="node11" class="node">
<title>n8</title>
<ellipse fill="#eff3ff" stroke="#bdd7e7" cx="941.23" cy="-890.69" rx="137.77" ry="35.21"/>
<text text-anchor="middle" x="941.23" y="-901.29" font-family="Helvetica,sans-Serif" font-size="13.00" fill="#2171b5">Generate a random IC amplitude</text>
<text text-anchor="middle" x="941.23" y="-887.29" font-family="Helvetica,sans-Serif" font-size="13.00" fill="#2171b5"> in the range [5, 10)</text>
<text text-anchor="middle" x="941.23" y="-873.29" font-family="Helvetica,sans-Serif" font-size="13.00" fill="#2171b5"> using the target voltage sign</text>
</g>
<!-- n7&#45;&gt;n8 -->
<g id="edge9" class="edge">
<title>n7&#45;&gt;n8</title>
<path fill="none" stroke="#9ecae1" d="M927.78,-1041.68C929.98,-1017.1 934.1,-971.16 937.2,-936.58"/>
<polygon fill="#9ecae1" stroke="#9ecae1" points="940.72,-936.52 938.13,-926.24 933.75,-935.89 940.72,-936.52"/>
<text text-anchor="middle" x="940.73" y="-1015.96" font-family="Helvetica,sans-Serif" font-size="10.00" fill="#3182bd">Yes</text>
</g>
<!-- n15 -->
<g id="node12" class="node">
<title>n15</title>
<ellipse fill="#eff3ff" stroke="#bdd7e7" cx="779.23" cy="-969.5" rx="133.79" ry="25.41"/>
<text text-anchor="middle" x="779.23" y="-973.1" font-family="Helvetica,sans-Serif" font-size="13.00" fill="#2171b5">Concatenate the two testpulses</text>
<text text-anchor="middle" x="779.23" y="-959.1" font-family="Helvetica,sans-Serif" font-size="13.00" fill="#2171b5"> and perform an exponential fit</text>
</g>
<!-- n7&#45;&gt;n15 -->
<g id="edge10" class="edge">
<title>n7&#45;&gt;n15</title>
<path fill="none" stroke="#9ecae1" d="M898.23,-1042.11C878.14,-1030.02 850.57,-1013.43 827.02,-999.26"/>
<polygon fill="#9ecae1" stroke="#9ecae1" points="828.59,-996.12 818.22,-993.96 824.99,-1002.12 828.59,-996.12"/>
<text text-anchor="middle" x="873.23" y="-1015.96" font-family="Helvetica,sans-Serif" font-size="10.00" fill="#3182bd">No</text>
</g>
<!-- n11 -->
<g id="node13" class="node">
<title>n11</title>
<ellipse fill="#eff3ff" stroke="#bdd7e7" cx="950.23" cy="-91" rx="124.38" ry="18"/>
<text text-anchor="middle" x="950.23" y="-87.6" font-family="Helvetica,sans-Serif" font-size="13.00" fill="#2171b5">Mark Auto TP amplitude as failed</text>
</g>
<!-- n8&#45;&gt;n11 -->
<g id="edge11" class="edge">
<title>n8&#45;&gt;n11</title>
<path fill="none" stroke="#9ecae1" d="M945.62,-855.26C947.91,-834.47 950.23,-807.42 950.23,-783.33 950.23,-783.33 950.23,-783.33 950.23,-173 950.23,-155.06 950.23,-134.89 950.23,-119.16"/>
<polygon fill="#9ecae1" stroke="#9ecae1" points="953.73,-119.07 950.23,-109.07 946.73,-119.07 953.73,-119.07"/>
</g>
<!-- n18 -->
<g id="node16" class="node">
<title>n18</title>
<ellipse fill="#eff3ff" stroke="#bdd7e7" cx="779.23" cy="-819.33" rx="108.03" ry="18"/>
<text text-anchor="middle" x="779.23" y="-815.93" font-family="Helvetica,sans-Serif" font-size="13.00" fill="#2171b5">Store Fit result in TPStorage</text>
</g>
<!-- n15&#45;&gt;n18 -->
<g id="edge17" class="edge">
<title>n15&#45;&gt;n18</title>
<path fill="none" stroke="#9ecae1" d="M779.23,-944.03C779.23,-917.48 779.23,-875.17 779.23,-847.58"/>
<polygon fill="#9ecae1" stroke="#9ecae1" points="782.73,-847.43 779.23,-837.43 775.73,-847.43 782.73,-847.43"/>
</g>
<!-- n12 -->
<g id="node14" class="node">
<title>n12</title>
<ellipse fill="#eff3ff" stroke="#bdd7e7" cx="950.23" cy="-18" rx="97.82" ry="18"/>
<text text-anchor="middle" x="950.23" y="-14.6" font-family="Helvetica,sans-Serif" font-size="13.00" fill="#2171b5">Set the new IC amplitude</text>
</g>
<!-- n11&#45;&gt;n12 -->
<g id="edge12" class="edge">
<title>n11&#45;&gt;n12</title>
<path fill="none" stroke="#9ecae1" d="M950.23,-72.81C950.23,-64.79 950.23,-55.05 950.23,-46.07"/>
<polygon fill="#9ecae1" stroke="#9ecae1" points="953.73,-46.03 950.23,-36.03 946.73,-46.03 953.73,-46.03"/>
</g>
<!-- n13&#45;&gt;n7 -->
<g id="edge13" class="edge">
<title>n13&#45;&gt;n7</title>
<path fill="none" stroke="#9ecae1" d="M1031.8,-1115.67C1012.67,-1105.75 988.01,-1092.98 967.35,-1082.27"/>
<polygon fill="#9ecae1" stroke="#9ecae1" points="968.95,-1079.16 958.46,-1077.66 965.73,-1085.37 968.95,-1079.16"/>
</g>
<!-- n13&#45;&gt;n11 -->
<g id="edge14" class="edge">
<title>n13&#45;&gt;n11</title>
<path fill="none" stroke="#9ecae1" d="M1075.3,-1115.05C1084.01,-1101.2 1094.23,-1080.73 1094.23,-1060.96 1094.23,-1060.96 1094.23,-1060.96 1094.23,-173 1094.23,-140.24 1065.56,-120.58 1033.8,-108.87"/>
<polygon fill="#9ecae1" stroke="#9ecae1" points="1034.93,-105.55 1024.34,-105.62 1032.66,-112.17 1034.93,-105.55"/>
</g>
<!-- n16 -->
<g id="node17" class="node">
<title>n16</title>
<ellipse fill="#eff3ff" stroke="#bdd7e7" cx="779.23" cy="-746.33" rx="58.99" ry="18"/>
<text text-anchor="middle" x="779.23" y="-742.93" font-family="Helvetica,sans-Serif" font-size="13.00" fill="#2171b5">Fit suceeded?</text>
</g>
<!-- n18&#45;&gt;n16 -->
<g id="edge20" class="edge">
<title>n18&#45;&gt;n16</title>
<path fill="none" stroke="#9ecae1" d="M779.23,-801.15C779.23,-793.12 779.23,-783.38 779.23,-774.4"/>
<polygon fill="#9ecae1" stroke="#9ecae1" points="782.73,-774.36 779.23,-764.36 775.73,-774.36 782.73,-774.36"/>
</g>
<!-- n17 -->
<g id="node18" class="node">
<title>n17</title>
<ellipse fill="#eff3ff" stroke="#bdd7e7" cx="803.23" cy="-174" rx="118.51" ry="18"/>
<text text-anchor="middle" x="803.23" y="-170.6" font-family="Helvetica,sans-Serif" font-size="13.00" fill="#2171b5">Mark Auto TP baseline as failed</text>
</g>
<!-- n16&#45;&gt;n17 -->
<g id="edge18" class="edge">
<title>n16&#45;&gt;n17</title>
<path fill="none" stroke="#9ecae1" d="M821.25,-733.57C853.03,-721.81 891.23,-700.21 891.23,-664.33 891.23,-664.33 891.23,-664.33 891.23,-263.36 891.23,-234.66 867.63,-211.99 844.87,-196.8"/>
<polygon fill="#9ecae1" stroke="#9ecae1" points="846.57,-193.73 836.24,-191.35 842.83,-199.65 846.57,-193.73"/>
<text text-anchor="middle" x="898.23" y="-487.38" font-family="Helvetica,sans-Serif" font-size="10.00" fill="#3182bd">No</text>
</g>
<!-- n19 -->
<g id="node19" class="node">
<title>n19</title>
<ellipse fill="#eff3ff" stroke="#bdd7e7" cx="769.23" cy="-663.33" rx="94.24" ry="18"/>
<text text-anchor="middle" x="769.23" y="-659.93" font-family="Helvetica,sans-Serif" font-size="13.00" fill="#2171b5">Residuals are too noisy?</text>
</g>
<!-- n16&#45;&gt;n19 -->
<g id="edge19" class="edge">
<title>n16&#45;&gt;n19</title>
<path fill="none" stroke="#9ecae1" d="M777.11,-728.16C775.79,-717.52 774.08,-703.64 772.59,-691.54"/>
<polygon fill="#9ecae1" stroke="#9ecae1" points="776.04,-690.98 771.34,-681.49 769.1,-691.84 776.04,-690.98"/>
<text text-anchor="middle" x="784.73" y="-702.33" font-family="Helvetica,sans-Serif" font-size="10.00" fill="#3182bd">Yes</text>
</g>
<!-- n19&#45;&gt;n17 -->
<g id="edge21" class="edge">
<title>n19&#45;&gt;n17</title>
<path fill="none" stroke="#9ecae1" d="M798.83,-646.2C820.17,-632.18 845.23,-609.68 845.23,-581.33 845.23,-581.33 845.23,-581.33 845.23,-263.36 845.23,-240.71 833.84,-217.69 822.92,-200.83"/>
<polygon fill="#9ecae1" stroke="#9ecae1" points="825.51,-198.42 816.98,-192.13 819.73,-202.36 825.51,-198.42"/>
<text text-anchor="middle" x="854.73" y="-438.42" font-family="Helvetica,sans-Serif" font-size="10.00" fill="#3182bd">Yes</text>
</g>
<!-- n20 -->
<g id="node20" class="node">
<title>n20</title>
<ellipse fill="#eff3ff" stroke="#bdd7e7" cx="601.23" cy="-580.33" rx="133.83" ry="18"/>
<text text-anchor="middle" x="601.23" y="-576.93" font-family="Helvetica,sans-Serif" font-size="13.00" fill="#2171b5">Is tau/baseline in the desired range?</text>
</g>
<!-- n19&#45;&gt;n20 -->
<g id="edge22" class="edge">
<title>n19&#45;&gt;n20</title>
<path fill="none" stroke="#9ecae1" d="M736.04,-646.33C709.92,-633.74 673.3,-616.08 644.82,-602.35"/>
<polygon fill="#9ecae1" stroke="#9ecae1" points="646.03,-599.05 635.5,-597.86 642.99,-605.35 646.03,-599.05"/>
<text text-anchor="middle" x="703.23" y="-619.33" font-family="Helvetica,sans-Serif" font-size="10.00" fill="#3182bd">No</text>
</g>
<!-- n22 -->
<g id="node21" class="node">
<title>n22</title>
<ellipse fill="#eff3ff" stroke="#bdd7e7" cx="307.23" cy="-489.88" rx="125.91" ry="18"/>
<text text-anchor="middle" x="307.23" y="-486.48" font-family="Helvetica,sans-Serif" font-size="13.00" fill="#2171b5">Mark Auto TP baseline as passed</text>
</g>
<!-- n20&#45;&gt;n22 -->
<g id="edge23" class="edge">
<title>n20&#45;&gt;n22</title>
<path fill="none" stroke="#9ecae1" d="M549.34,-563.72C498.75,-548.5 421.82,-525.35 368.3,-509.25"/>
<polygon fill="#9ecae1" stroke="#9ecae1" points="369.18,-505.86 358.59,-506.33 367.16,-512.56 369.18,-505.86"/>
<text text-anchor="middle" x="490.73" y="-536.33" font-family="Helvetica,sans-Serif" font-size="10.00" fill="#3182bd">Yes</text>
</g>
<!-- n23 -->
<g id="node22" class="node">
<title>n23</title>
<ellipse fill="#eff3ff" stroke="#bdd7e7" cx="601.23" cy="-489.88" rx="137.77" ry="25.41"/>
<text text-anchor="middle" x="601.23" y="-493.48" font-family="Helvetica,sans-Serif" font-size="13.00" fill="#2171b5">Calculate a new baseline fraction</text>
<text text-anchor="middle" x="601.23" y="-479.48" font-family="Helvetica,sans-Serif" font-size="13.00" fill="#2171b5"> Is that in the allowed range?</text>
</g>
<!-- n20&#45;&gt;n23 -->
<g id="edge24" class="edge">
<title>n20&#45;&gt;n23</title>
<path fill="none" stroke="#9ecae1" d="M601.23,-562.28C601.23,-551.92 601.23,-538.32 601.23,-525.78"/>
<polygon fill="#9ecae1" stroke="#9ecae1" points="604.73,-525.58 601.23,-515.58 597.73,-525.58 604.73,-525.58"/>
<text text-anchor="middle" x="608.23" y="-536.33" font-family="Helvetica,sans-Serif" font-size="10.00" fill="#3182bd">No</text>
</g>
<!-- n26 -->
<g id="node23" class="node">
<title>n26</title>
<ellipse fill="#eff3ff" stroke="#bdd7e7" cx="250.23" cy="-382.07" rx="124.4" ry="25.41"/>
<text text-anchor="middle" x="250.23" y="-385.67" font-family="Helvetica,sans-Serif" font-size="13.00" fill="#2171b5">Is the target voltage for</text>
<text text-anchor="middle" x="250.23" y="-371.67" font-family="Helvetica,sans-Serif" font-size="13.00" fill="#2171b5"> Auto TP amplitude in range?</text>
</g>
<!-- n22&#45;&gt;n26 -->
<g id="edge25" class="edge">
<title>n22&#45;&gt;n26</title>
<path fill="none" stroke="#9ecae1" d="M298.07,-471.88C290.05,-456.98 278.15,-434.9 268.23,-416.49"/>
<polygon fill="#9ecae1" stroke="#9ecae1" points="271.22,-414.66 263.4,-407.52 265.06,-417.98 271.22,-414.66"/>
</g>
<!-- n24 -->
<g id="node24" class="node">
<title>n24</title>
<ellipse fill="#eff3ff" stroke="#bdd7e7" cx="632.23" cy="-382.07" rx="184.61" ry="35.21"/>
<text text-anchor="middle" x="632.23" y="-392.67" font-family="Helvetica,sans-Serif" font-size="13.00" fill="#2171b5">Clip it to the allowed range</text>
<text text-anchor="middle" x="632.23" y="-378.67" font-family="Helvetica,sans-Serif" font-size="13.00" fill="#2171b5"> and add a Auto TP</text>
<text text-anchor="middle" x="632.23" y="-364.67" font-family="Helvetica,sans-Serif" font-size="13.00" fill="#2171b5"> baseline range exceeded entry in TPStorage</text>
</g>
<!-- n23&#45;&gt;n24 -->
<g id="edge26" class="edge">
<title>n23&#45;&gt;n24</title>
<path fill="none" stroke="#9ecae1" d="M608.42,-464.34C611.63,-453.35 615.53,-440.05 619.23,-427.42"/>
<polygon fill="#9ecae1" stroke="#9ecae1" points="622.69,-428.07 622.14,-417.49 615.97,-426.11 622.69,-428.07"/>
<text text-anchor="middle" x="624.23" y="-438.42" font-family="Helvetica,sans-Serif" font-size="10.00" fill="#3182bd">No</text>
</g>
<!-- n25 -->
<g id="node25" class="node">
<title>n25</title>
<ellipse fill="#eff3ff" stroke="#bdd7e7" cx="652.23" cy="-264.36" rx="146.24" ry="35.21"/>
<text text-anchor="middle" x="652.23" y="-274.96" font-family="Helvetica,sans-Serif" font-size="13.00" fill="#2171b5">Set the new baseline fraction</text>
<text text-anchor="middle" x="652.23" y="-260.96" font-family="Helvetica,sans-Serif" font-size="13.00" fill="#2171b5"> as maximum of the per headstage</text>
<text text-anchor="middle" x="652.23" y="-246.96" font-family="Helvetica,sans-Serif" font-size="13.00" fill="#2171b5"> calculated &#160;ones</text>
</g>
<!-- n23&#45;&gt;n25 -->
<g id="edge27" class="edge">
<title>n23&#45;&gt;n25</title>
<path fill="none" stroke="#9ecae1" d="M500.71,-472.39C469.34,-461.99 438.06,-445.05 419.23,-417.42 401.52,-391.45 401.03,-372.34 419.23,-346.71 434.17,-325.66 486.66,-306.41 538.04,-291.92"/>
<polygon fill="#9ecae1" stroke="#9ecae1" points="539.25,-295.22 547.95,-289.18 537.38,-288.47 539.25,-295.22"/>
<text text-anchor="middle" x="428.73" y="-379.57" font-family="Helvetica,sans-Serif" font-size="10.00" fill="#3182bd">Yes</text>
</g>
<!-- n27 -->
<g id="node26" class="node">
<title>n27</title>
<ellipse fill="#eff3ff" stroke="#bdd7e7" cx="357.23" cy="-264.36" rx="130.51" ry="18"/>
<text text-anchor="middle" x="357.23" y="-260.96" font-family="Helvetica,sans-Serif" font-size="13.00" fill="#2171b5">Mark Auto TP amplitude as passed</text>
</g>
<!-- n26&#45;&gt;n27 -->
<g id="edge30" class="edge">
<title>n26&#45;&gt;n27</title>
<path fill="none" stroke="#9ecae1" d="M272.66,-356.81C290.83,-337.15 316.34,-309.58 334.57,-289.85"/>
<polygon fill="#9ecae1" stroke="#9ecae1" points="337.2,-292.17 341.42,-282.45 332.06,-287.42 337.2,-292.17"/>
<text text-anchor="middle" x="316.73" y="-320.71" font-family="Helvetica,sans-Serif" font-size="10.00" fill="#3182bd">Yes</text>
</g>
<!-- n28 -->
<g id="node27" class="node">
<title>n28</title>
<ellipse fill="#eff3ff" stroke="#bdd7e7" cx="104.23" cy="-264.36" rx="104.45" ry="18"/>
<text text-anchor="middle" x="104.23" y="-260.96" font-family="Helvetica,sans-Serif" font-size="13.00" fill="#2171b5">Calculate new IC amplitude</text>
</g>
<!-- n26&#45;&gt;n28 -->
<g id="edge31" class="edge">
<title>n26&#45;&gt;n28</title>
<path fill="none" stroke="#9ecae1" d="M219.98,-357.09C194.61,-336.99 158.62,-308.46 133.52,-288.57"/>
<polygon fill="#9ecae1" stroke="#9ecae1" points="135.47,-285.65 125.46,-282.19 131.13,-291.14 135.47,-285.65"/>
<text text-anchor="middle" x="189.23" y="-320.71" font-family="Helvetica,sans-Serif" font-size="10.00" fill="#3182bd">No</text>
</g>
<!-- n24&#45;&gt;n25 -->
<g id="edge28" class="edge">
<title>n24&#45;&gt;n25</title>
<path fill="none" stroke="#9ecae1" d="M638.17,-346.66C640.17,-335.11 642.43,-322.05 644.54,-309.84"/>
<polygon fill="#9ecae1" stroke="#9ecae1" points="648.01,-310.28 646.27,-299.83 641.12,-309.08 648.01,-310.28"/>
</g>
<!-- n25&#45;&gt;n17 -->
<g id="edge29" class="edge">
<title>n25&#45;&gt;n17</title>
<path fill="none" stroke="#9ecae1" d="M706.74,-231.46C726.31,-220.01 747.92,-207.36 765.72,-196.95"/>
<polygon fill="#9ecae1" stroke="#9ecae1" points="767.78,-199.79 774.65,-191.72 764.25,-193.75 767.78,-199.79"/>
</g>
<!-- n29 -->
<g id="node28" class="node">
<title>n29</title>
<ellipse fill="#eff3ff" stroke="#bdd7e7" cx="453.23" cy="-174" rx="109.06" ry="18"/>
<text text-anchor="middle" x="453.23" y="-170.6" font-family="Helvetica,sans-Serif" font-size="13.00" fill="#2171b5">Is the IC amplitude in range?</text>
</g>
<!-- n28&#45;&gt;n29 -->
<g id="edge32" class="edge">
<title>n28&#45;&gt;n29</title>
<path fill="none" stroke="#9ecae1" d="M151.3,-248.24C171.5,-241.96 195.43,-234.8 217.23,-229 270.87,-214.73 331.97,-200.81 378.56,-190.68"/>
<polygon fill="#9ecae1" stroke="#9ecae1" points="379.54,-194.05 388.57,-188.51 378.06,-187.21 379.54,-194.05"/>
</g>
<!-- n29&#45;&gt;n11 -->
<g id="edge33" class="edge">
<title>n29&#45;&gt;n11</title>
<path fill="none" stroke="#9ecae1" d="M527.9,-160.83C617.02,-146.31 765.89,-122.04 860.99,-106.54"/>
<polygon fill="#9ecae1" stroke="#9ecae1" points="861.57,-110 870.88,-104.93 860.44,-103.09 861.57,-110"/>
<text text-anchor="middle" x="741.73" y="-130" font-family="Helvetica,sans-Serif" font-size="10.00" fill="#3182bd">Yes</text>
</g>
<!-- n30 -->
<g id="node29" class="node">
<title>n30</title>
<ellipse fill="#eff3ff" stroke="#bdd7e7" cx="1238.23" cy="-1590.15" rx="166.75" ry="25.41"/>
<text text-anchor="middle" x="1238.23" y="-1593.75" font-family="Helvetica,sans-Serif" font-size="13.00" fill="#2171b5">Check if auto TP amplitude and baseline</text>
<text text-anchor="middle" x="1238.23" y="-1579.75" font-family="Helvetica,sans-Serif" font-size="13.00" fill="#2171b5"> passed three times in a row?</text>
</g>
<!-- n32 -->
<g id="node30" class="node">
<title>n32</title>
<ellipse fill="#eff3ff" stroke="#bdd7e7" cx="1429.23" cy="-1499.69" rx="209.17" ry="18"/>
<text text-anchor="middle" x="1429.23" y="-1496.29" font-family="Helvetica,sans-Serif" font-size="13.00" fill="#2171b5">Do we have 10 baseline range exceeded entries in a row?</text>
</g>
<!-- n30&#45;&gt;n32 -->
<g id="edge34" class="edge">
<title>n30&#45;&gt;n32</title>
<path fill="none" stroke="#9ecae1" d="M1288.66,-1565.79C1318.15,-1552.13 1355.08,-1535.03 1383.69,-1521.78"/>
<polygon fill="#9ecae1" stroke="#9ecae1" points="1385.44,-1524.82 1393.05,-1517.45 1382.5,-1518.47 1385.44,-1524.82"/>
<text text-anchor="middle" x="1357.23" y="-1538.69" font-family="Helvetica,sans-Serif" font-size="10.00" fill="#3182bd">No</text>
</g>
<!-- n33 -->
<g id="node31" class="node">
<title>n33</title>
<ellipse fill="#eff3ff" stroke="#bdd7e7" cx="1323.23" cy="-1409.23" rx="133.07" ry="18"/>
<text text-anchor="middle" x="1323.23" y="-1405.83" font-family="Helvetica,sans-Serif" font-size="13.00" fill="#2171b5">Turn off Auto TP on that headstage</text>
</g>
<!-- n30&#45;&gt;n33 -->
<g id="edge35" class="edge">
<title>n30&#45;&gt;n33</title>
<path fill="none" stroke="#9ecae1" d="M1214.9,-1564.8C1196.42,-1542.43 1176.17,-1508.74 1192.23,-1481.69 1206.77,-1457.2 1232.98,-1440.56 1258.16,-1429.55"/>
<polygon fill="#9ecae1" stroke="#9ecae1" points="1259.83,-1432.65 1267.74,-1425.6 1257.16,-1426.18 1259.83,-1432.65"/>
<text text-anchor="middle" x="1201.73" y="-1497.19" font-family="Helvetica,sans-Serif" font-size="10.00" fill="#3182bd">Yes</text>
</g>
<!-- n32&#45;&gt;n33 -->
<g id="edge36" class="edge">
<title>n32&#45;&gt;n33</title>
<path fill="none" stroke="#9ecae1" d="M1408.79,-1481.64C1392.51,-1468.05 1369.54,-1448.89 1351.5,-1433.83"/>
<polygon fill="#9ecae1" stroke="#9ecae1" points="1353.52,-1430.96 1343.6,-1427.24 1349.04,-1436.33 1353.52,-1430.96"/>
<text text-anchor="middle" x="1394.73" y="-1455.69" font-family="Helvetica,sans-Serif" font-size="10.00" fill="#3182bd">Yes</text>
</g>
<!-- n31 -->
<g id="node32" class="node">
<title>n31</title>
<ellipse fill="#eff3ff" stroke="#bdd7e7" cx="1323.23" cy="-1311.32" rx="133.79" ry="25.41"/>
<text text-anchor="middle" x="1323.23" y="-1314.92" font-family="Helvetica,sans-Serif" font-size="13.00" fill="#2171b5">Store result in the labnotebook</text>
<text text-anchor="middle" x="1323.23" y="-1300.92" font-family="Helvetica,sans-Serif" font-size="13.00" fill="#2171b5"> and send out zeromq message</text>
</g>
<!-- n33&#45;&gt;n31 -->
<g id="edge37" class="edge">
<title>n33&#45;&gt;n31</title>
<path fill="none" stroke="#9ecae1" d="M1323.23,-1391.09C1323.23,-1378.83 1323.23,-1361.91 1323.23,-1346.9"/>
<polygon fill="#9ecae1" stroke="#9ecae1" points="1326.73,-1346.89 1323.23,-1336.89 1319.73,-1346.89 1326.73,-1346.89"/>
</g>
<!-- n37&#45;&gt;n30 -->
<g id="edge39" class="edge">
<title>n37&#45;&gt;n30</title>
<path fill="none" stroke="#9ecae1" d="M1231.66,-1669.91C1232.68,-1657.65 1234.09,-1640.74 1235.34,-1625.72"/>
<polygon fill="#9ecae1" stroke="#9ecae1" points="1238.83,-1625.97 1236.18,-1615.71 1231.86,-1625.39 1238.83,-1625.97"/>
<text text-anchor="middle" x="1243.73" y="-1636.6" font-family="Helvetica,sans-Serif" font-size="10.00" fill="#3182bd">Yes</text>
</g>
</g>
</svg>
