<?xml version="1.0" encoding="UTF-8" standalone="no"?>
<!DOCTYPE svg PUBLIC "-//W3C//DTD SVG 1.1//EN"
 "http://www.w3.org/Graphics/SVG/1.1/DTD/svg11.dtd">
<!-- Generated by graphviz version 2.44.1 (20200629.0846)
 -->
<!-- Title: G Pages: 1 -->
<svg width="1571pt" height="923pt"
 viewBox="0.00 0.00 1571.12 923.33" xmlns="http://www.w3.org/2000/svg" xmlns:xlink="http://www.w3.org/1999/xlink">
<g id="graph0" class="graph" transform="scale(1 1) rotate(0) translate(4 919.33)">
<title>G</title>
<polygon fill="white" stroke="transparent" points="-4,4 -4,-919.33 1567.12,-919.33 1567.12,4 -4,4"/>
<!-- Start DAQ/RA (only call for last active headstage) -->
<g id="node1" class="node">
<title>Start DAQ/RA (only call for last active headstage)</title>
<ellipse fill="#eff3ff" stroke="#bdd7e7" cx="541.17" cy="-897.33" rx="181.08" ry="18"/>
<text text-anchor="middle" x="541.17" y="-893.93" font-family="Helvetica,sans-Serif" font-size="13.00" fill="#2171b5">Start DAQ/RA (only call for last active headstage)</text>
</g>
<!-- Post DAQ Event -->
<g id="node2" class="node">
<title>Post DAQ Event</title>
<ellipse fill="#eff3ff" stroke="#bdd7e7" cx="187.17" cy="-824.33" rx="67.68" ry="18"/>
<text text-anchor="middle" x="187.17" y="-820.93" font-family="Helvetica,sans-Serif" font-size="13.00" fill="#2171b5">Post DAQ Event</text>
</g>
<!-- Start DAQ/RA (only call for last active headstage)&#45;&gt;Post DAQ Event -->
<g id="edge1" class="edge">
<title>Start DAQ/RA (only call for last active headstage)&#45;&gt;Post DAQ Event</title>
<path fill="none" stroke="#9ecae1" d="M464.36,-880.93C400.06,-868.03 309.45,-849.86 249.56,-837.85"/>
<polygon fill="#9ecae1" stroke="#9ecae1" points="249.98,-834.36 239.49,-835.83 248.6,-841.22 249.98,-834.36"/>
</g>
<!-- Prepare DAQ -->
<g id="node3" class="node">
<title>Prepare DAQ</title>
<ellipse fill="#eff3ff" stroke="#bdd7e7" cx="381.17" cy="-824.33" rx="56.7" ry="18"/>
<text text-anchor="middle" x="381.17" y="-820.93" font-family="Helvetica,sans-Serif" font-size="13.00" fill="#2171b5">Prepare DAQ</text>
</g>
<!-- Start DAQ/RA (only call for last active headstage)&#45;&gt;Prepare DAQ -->
<g id="edge2" class="edge">
<title>Start DAQ/RA (only call for last active headstage)&#45;&gt;Prepare DAQ</title>
<path fill="none" stroke="#9ecae1" d="M503.66,-879.69C479.17,-868.82 447.2,-854.63 422.06,-843.48"/>
<polygon fill="#9ecae1" stroke="#9ecae1" points="423.35,-840.22 412.79,-839.36 420.51,-846.62 423.35,-840.22"/>
</g>
<!-- Pre Set Event -->
<g id="node4" class="node">
<title>Pre Set Event</title>
<ellipse fill="#eff3ff" stroke="#bdd7e7" cx="541.17" cy="-824.33" rx="58.99" ry="18"/>
<text text-anchor="middle" x="541.17" y="-820.93" font-family="Helvetica,sans-Serif" font-size="13.00" fill="#2171b5">Pre Set Event</text>
</g>
<!-- Start DAQ/RA (only call for last active headstage)&#45;&gt;Pre Set Event -->
<g id="edge3" class="edge">
<title>Start DAQ/RA (only call for last active headstage)&#45;&gt;Pre Set Event</title>
<path fill="none" stroke="#9ecae1" d="M541.17,-879.15C541.17,-871.12 541.17,-861.38 541.17,-852.4"/>
<polygon fill="#9ecae1" stroke="#9ecae1" points="544.67,-852.36 541.17,-842.36 537.67,-852.36 544.67,-852.36"/>
</g>
<!-- Post Sweep Event -->
<g id="node5" class="node">
<title>Post Sweep Event</title>
<ellipse fill="#eff3ff" stroke="#bdd7e7" cx="724.17" cy="-824.33" rx="74.58" ry="18"/>
<text text-anchor="middle" x="724.17" y="-820.93" font-family="Helvetica,sans-Serif" font-size="13.00" fill="#2171b5">Post Sweep Event</text>
</g>
<!-- Start DAQ/RA (only call for last active headstage)&#45;&gt;Post Sweep Event -->
<g id="edge4" class="edge">
<title>Start DAQ/RA (only call for last active headstage)&#45;&gt;Post Sweep Event</title>
<path fill="none" stroke="#9ecae1" d="M584.07,-879.69C611.98,-868.86 648.38,-854.74 677.08,-843.6"/>
<polygon fill="#9ecae1" stroke="#9ecae1" points="678.44,-846.83 686.5,-839.95 675.91,-840.3 678.44,-846.83"/>
</g>
<!-- Post Set Event -->
<g id="node6" class="node">
<title>Post Set Event</title>
<ellipse fill="#eff3ff" stroke="#bdd7e7" cx="981.17" cy="-824.33" rx="62.57" ry="18"/>
<text text-anchor="middle" x="981.17" y="-820.93" font-family="Helvetica,sans-Serif" font-size="13.00" fill="#2171b5">Post Set Event</text>
</g>
<!-- Start DAQ/RA (only call for last active headstage)&#45;&gt;Post Set Event -->
<g id="edge5" class="edge">
<title>Start DAQ/RA (only call for last active headstage)&#45;&gt;Post Set Event</title>
<path fill="none" stroke="#9ecae1" d="M631.8,-881.71C717.1,-867.94 842.63,-847.69 917.71,-835.57"/>
<polygon fill="#9ecae1" stroke="#9ecae1" points="918.64,-838.97 927.96,-833.92 917.53,-832.06 918.64,-838.97"/>
</g>
<!-- n38 -->
<g id="node7" class="node">
<title>n38</title>
<ellipse fill="#eff3ff" stroke="#bdd7e7" cx="75.17" cy="-733.98" rx="75.34" ry="18"/>
<text text-anchor="middle" x="75.17" y="-730.58" font-family="Helvetica,sans-Serif" font-size="13.00" fill="#2171b5">Update Dashboard</text>
</g>
<!-- Post DAQ Event&#45;&gt;n38 -->
<g id="edge6" class="edge">
<title>Post DAQ Event&#45;&gt;n38</title>
<path fill="none" stroke="#9ecae1" d="M166.63,-807.13C149.06,-793.27 123.57,-773.16 103.96,-757.69"/>
<polygon fill="#9ecae1" stroke="#9ecae1" points="105.98,-754.83 95.96,-751.38 101.64,-760.32 105.98,-754.83"/>
</g>
<!-- Enable &quot;Multidevice DAQ&quot; -->
<g id="node8" class="node">
<title>Enable &quot;Multidevice DAQ&quot;</title>
<ellipse fill="#eff3ff" stroke="#bdd7e7" cx="267.17" cy="-733.98" rx="99.35" ry="18"/>
<text text-anchor="middle" x="267.17" y="-730.58" font-family="Helvetica,sans-Serif" font-size="13.00" fill="#2171b5">Enable &quot;Multidevice DAQ&quot;</text>
</g>
<!-- Prepare DAQ&#45;&gt;Enable &quot;Multidevice DAQ&quot; -->
<g id="edge7" class="edge">
<title>Prepare DAQ&#45;&gt;Enable &quot;Multidevice DAQ&quot;</title>
<path fill="none" stroke="#9ecae1" d="M360.52,-807.33C342.78,-793.58 316.98,-773.58 296.99,-758.09"/>
<polygon fill="#9ecae1" stroke="#9ecae1" points="298.87,-755.12 288.82,-751.76 294.58,-760.65 298.87,-755.12"/>
</g>
<!-- Enable &quot;Autobias&quot; -->
<g id="node9" class="node">
<title>Enable &quot;Autobias&quot;</title>
<ellipse fill="#eff3ff" stroke="#bdd7e7" cx="456.17" cy="-733.98" rx="72.02" ry="18"/>
<text text-anchor="middle" x="456.17" y="-730.58" font-family="Helvetica,sans-Serif" font-size="13.00" fill="#2171b5">Enable &quot;Autobias&quot;</text>
</g>
<!-- Pre Set Event&#45;&gt;Enable &quot;Autobias&quot; -->
<g id="edge8" class="edge">
<title>Pre Set Event&#45;&gt;Enable &quot;Autobias&quot;</title>
<path fill="none" stroke="#9ecae1" d="M525.18,-806.71C512.32,-793.35 494.07,-774.38 479.57,-759.3"/>
<polygon fill="#9ecae1" stroke="#9ecae1" points="481.83,-756.6 472.37,-751.82 476.79,-761.46 481.83,-756.6"/>
</g>
<!-- Set next DAScale value,\nuse the analysis parameter values as offset\nonto the earlier FastRheoEstimate guess -->
<g id="node10" class="node">
<title>Set next DAScale value,\nuse the analysis parameter values as offset\nonto the earlier FastRheoEstimate guess</title>
<ellipse fill="#eff3ff" stroke="#bdd7e7" cx="724.17" cy="-733.98" rx="178.38" ry="35.21"/>
<text text-anchor="middle" x="724.17" y="-744.58" font-family="Helvetica,sans-Serif" font-size="13.00" fill="#2171b5">Set next DAScale value,</text>
<text text-anchor="middle" x="724.17" y="-730.58" font-family="Helvetica,sans-Serif" font-size="13.00" fill="#2171b5">use the analysis parameter values as offset</text>
<text text-anchor="middle" x="724.17" y="-716.58" font-family="Helvetica,sans-Serif" font-size="13.00" fill="#2171b5">onto the earlier FastRheoEstimate guess</text>
</g>
<!-- Pre Set Event&#45;&gt;Set next DAScale value,\nuse the analysis parameter values as offset\nonto the earlier FastRheoEstimate guess -->
<g id="edge9" class="edge">
<title>Pre Set Event&#45;&gt;Set next DAScale value,\nuse the analysis parameter values as offset\nonto the earlier FastRheoEstimate guess</title>
<path fill="none" stroke="#9ecae1" d="M571.39,-808.74C592.55,-798.53 621.8,-784.4 649.05,-771.25"/>
<polygon fill="#9ecae1" stroke="#9ecae1" points="650.72,-774.33 658.2,-766.83 647.67,-768.03 650.72,-774.33"/>
</g>
<!-- Post Sweep Event&#45;&gt;Set next DAScale value,\nuse the analysis parameter values as offset\nonto the earlier FastRheoEstimate guess -->
<g id="edge10" class="edge">
<title>Post Sweep Event&#45;&gt;Set next DAScale value,\nuse the analysis parameter values as offset\nonto the earlier FastRheoEstimate guess</title>
<path fill="none" stroke="#9ecae1" d="M724.17,-806.3C724.17,-798.64 724.17,-789.2 724.17,-779.73"/>
<polygon fill="#9ecae1" stroke="#9ecae1" points="727.67,-779.52 724.17,-769.52 720.67,-779.52 727.67,-779.52"/>
</g>
<!-- Mark all active headstages as passed -->
<g id="node11" class="node">
<title>Mark all active headstages as passed</title>
<ellipse fill="#eff3ff" stroke="#bdd7e7" cx="1059.17" cy="-733.98" rx="138.17" ry="18"/>
<text text-anchor="middle" x="1059.17" y="-730.58" font-family="Helvetica,sans-Serif" font-size="13.00" fill="#2171b5">Mark all active headstages as passed</text>
</g>
<!-- Post Sweep Event&#45;&gt;Mark all active headstages as passed -->
<g id="edge11" class="edge">
<title>Post Sweep Event&#45;&gt;Mark all active headstages as passed</title>
<path fill="none" stroke="#9ecae1" d="M772.52,-810.58C830,-795.42 926.29,-770.02 991.23,-752.9"/>
<polygon fill="#9ecae1" stroke="#9ecae1" points="992.2,-756.26 1000.98,-750.33 990.41,-749.49 992.2,-756.26"/>
</g>
<!-- Read active headstages from labnotebook\nand turn them all on again -->
<g id="node12" class="node">
<title>Read active headstages from labnotebook\nand turn them all on again</title>
<ellipse fill="#eff3ff" stroke="#bdd7e7" cx="1389.17" cy="-733.98" rx="173.9" ry="25.41"/>
<text text-anchor="middle" x="1389.17" y="-737.58" font-family="Helvetica,sans-Serif" font-size="13.00" fill="#2171b5">Read active headstages from labnotebook</text>
<text text-anchor="middle" x="1389.17" y="-723.58" font-family="Helvetica,sans-Serif" font-size="13.00" fill="#2171b5">and turn them all on again</text>
</g>
<!-- Post Set Event&#45;&gt;Read active headstages from labnotebook\nand turn them all on again -->
<g id="edge12" class="edge">
<title>Post Set Event&#45;&gt;Read active headstages from labnotebook\nand turn them all on again</title>
<path fill="none" stroke="#9ecae1" d="M1029.57,-812.85C1092.15,-799.3 1202.81,-775.33 1284.9,-757.56"/>
<polygon fill="#9ecae1" stroke="#9ecae1" points="1285.73,-760.96 1294.77,-755.42 1284.25,-754.12 1285.73,-760.96"/>
</g>
<!-- Enable &quot;Repeated Acquisition&quot; -->
<g id="node13" class="node">
<title>Enable &quot;Repeated Acquisition&quot;</title>
<ellipse fill="#eff3ff" stroke="#bdd7e7" cx="251.17" cy="-643.62" rx="114.93" ry="18"/>
<text text-anchor="middle" x="251.17" y="-640.22" font-family="Helvetica,sans-Serif" font-size="13.00" fill="#2171b5">Enable &quot;Repeated Acquisition&quot;</text>
</g>
<!-- Enable &quot;Multidevice DAQ&quot;&#45;&gt;Enable &quot;Repeated Acquisition&quot; -->
<g id="edge13" class="edge">
<title>Enable &quot;Multidevice DAQ&quot;&#45;&gt;Enable &quot;Repeated Acquisition&quot;</title>
<path fill="none" stroke="#9ecae1" d="M264.08,-715.94C261.82,-703.43 258.7,-686.18 256.09,-671.78"/>
<polygon fill="#9ecae1" stroke="#9ecae1" points="259.53,-671.12 254.3,-661.91 252.64,-672.37 259.53,-671.12"/>
</g>
<!-- Enable &quot;Insert TP&quot; -->
<g id="node14" class="node">
<title>Enable &quot;Insert TP&quot;</title>
<ellipse fill="#eff3ff" stroke="#bdd7e7" cx="466.17" cy="-643.62" rx="73.05" ry="18"/>
<text text-anchor="middle" x="466.17" y="-640.22" font-family="Helvetica,sans-Serif" font-size="13.00" fill="#2171b5">Enable &quot;Insert TP&quot;</text>
</g>
<!-- Enable &quot;Autobias&quot;&#45;&gt;Enable &quot;Insert TP&quot; -->
<g id="edge14" class="edge">
<title>Enable &quot;Autobias&quot;&#45;&gt;Enable &quot;Insert TP&quot;</title>
<path fill="none" stroke="#9ecae1" d="M458.1,-715.94C459.5,-703.55 461.43,-686.52 463.05,-672.2"/>
<polygon fill="#9ecae1" stroke="#9ecae1" points="466.57,-672.24 464.21,-661.91 459.61,-671.45 466.57,-672.24"/>
</g>
<!-- Mark Sweep as passed -->
<g id="node15" class="node">
<title>Mark Sweep as passed</title>
<ellipse fill="#eff3ff" stroke="#bdd7e7" cx="1059.17" cy="-643.62" rx="90.16" ry="18"/>
<text text-anchor="middle" x="1059.17" y="-640.22" font-family="Helvetica,sans-Serif" font-size="13.00" fill="#2171b5">Mark Sweep as passed</text>
</g>
<!-- Mark all active headstages as passed&#45;&gt;Mark Sweep as passed -->
<g id="edge15" class="edge">
<title>Mark all active headstages as passed&#45;&gt;Mark Sweep as passed</title>
<path fill="none" stroke="#9ecae1" d="M1059.17,-715.94C1059.17,-703.55 1059.17,-686.52 1059.17,-672.2"/>
<polygon fill="#9ecae1" stroke="#9ecae1" points="1062.67,-671.91 1059.17,-661.91 1055.67,-671.91 1062.67,-671.91"/>
</g>
<!-- Mark set as passed -->
<g id="node16" class="node">
<title>Mark set as passed</title>
<ellipse fill="#eff3ff" stroke="#bdd7e7" cx="1389.17" cy="-643.62" rx="77.13" ry="18"/>
<text text-anchor="middle" x="1389.17" y="-640.22" font-family="Helvetica,sans-Serif" font-size="13.00" fill="#2171b5">Mark set as passed</text>
</g>
<!-- Read active headstages from labnotebook\nand turn them all on again&#45;&gt;Mark set as passed -->
<g id="edge16" class="edge">
<title>Read active headstages from labnotebook\nand turn them all on again&#45;&gt;Mark set as passed</title>
<path fill="none" stroke="#9ecae1" d="M1389.17,-708.37C1389.17,-697.03 1389.17,-683.54 1389.17,-671.89"/>
<polygon fill="#9ecae1" stroke="#9ecae1" points="1392.67,-671.83 1389.17,-661.83 1385.67,-671.83 1392.67,-671.83"/>
</g>
<!-- n29 -->
<g id="node17" class="node">
<title>n29</title>
<ellipse fill="#eff3ff" stroke="#bdd7e7" cx="226.17" cy="-516.62" rx="108.8" ry="18"/>
<text text-anchor="middle" x="226.17" y="-513.22" font-family="Helvetica,sans-Serif" font-size="13.00" fill="#2171b5">&quot;Unlocked Indexing&quot; is active</text>
</g>
<!-- Enable &quot;Repeated Acquisition&quot;&#45;&gt;n29 -->
<g id="edge17" class="edge">
<title>Enable &quot;Repeated Acquisition&quot;&#45;&gt;n29</title>
<path fill="none" stroke="#9ecae1" d="M247.75,-625.5C243.6,-604.77 236.56,-569.57 231.65,-545.04"/>
<polygon fill="#9ecae1" stroke="#9ecae1" points="235.03,-544.05 229.63,-534.94 228.16,-545.43 235.03,-544.05"/>
</g>
<!-- Enable &quot;TP during ITI&quot; -->
<g id="node18" class="node">
<title>Enable &quot;TP during ITI&quot;</title>
<ellipse fill="#eff3ff" stroke="#bdd7e7" cx="466.17" cy="-570.62" rx="86.58" ry="18"/>
<text text-anchor="middle" x="466.17" y="-567.22" font-family="Helvetica,sans-Serif" font-size="13.00" fill="#2171b5">Enable &quot;TP during ITI&quot;</text>
</g>
<!-- Enable &quot;Insert TP&quot;&#45;&gt;Enable &quot;TP during ITI&quot; -->
<g id="edge18" class="edge">
<title>Enable &quot;Insert TP&quot;&#45;&gt;Enable &quot;TP during ITI&quot;</title>
<path fill="none" stroke="#9ecae1" d="M466.17,-625.44C466.17,-617.41 466.17,-607.67 466.17,-598.69"/>
<polygon fill="#9ecae1" stroke="#9ecae1" points="469.67,-598.65 466.17,-588.65 462.67,-598.65 469.67,-598.65"/>
</g>
<!-- Force Sampling Multiplier to 1 -->
<g id="node19" class="node">
<title>Force Sampling Multiplier to 1</title>
<ellipse fill="#eff3ff" stroke="#bdd7e7" cx="750.17" cy="-570.62" rx="111.35" ry="18"/>
<text text-anchor="middle" x="750.17" y="-567.22" font-family="Helvetica,sans-Serif" font-size="13.00" fill="#2171b5">Force Sampling Multiplier to 1</text>
</g>
<!-- Enable &quot;Insert TP&quot;&#45;&gt;Force Sampling Multiplier to 1 -->
<g id="edge19" class="edge">
<title>Enable &quot;Insert TP&quot;&#45;&gt;Force Sampling Multiplier to 1</title>
<path fill="none" stroke="#9ecae1" d="M515.64,-630.26C561.83,-618.71 631.14,-601.38 682.45,-588.55"/>
<polygon fill="#9ecae1" stroke="#9ecae1" points="683.61,-591.87 692.46,-586.05 681.91,-585.08 683.61,-591.87"/>
</g>
<!-- Update Dashboard -->
<g id="node20" class="node">
<title>Update Dashboard</title>
<ellipse fill="#eff3ff" stroke="#bdd7e7" cx="1389.17" cy="-570.62" rx="75.34" ry="18"/>
<text text-anchor="middle" x="1389.17" y="-567.22" font-family="Helvetica,sans-Serif" font-size="13.00" fill="#2171b5">Update Dashboard</text>
</g>
<!-- Mark set as passed&#45;&gt;Update Dashboard -->
<g id="edge20" class="edge">
<title>Mark set as passed&#45;&gt;Update Dashboard</title>
<path fill="none" stroke="#9ecae1" d="M1389.17,-625.44C1389.17,-617.41 1389.17,-607.67 1389.17,-598.69"/>
<polygon fill="#9ecae1" stroke="#9ecae1" points="1392.67,-598.65 1389.17,-588.65 1385.67,-598.65 1392.67,-598.65"/>
</g>
<!-- Abort -->
<g id="node21" class="node">
<title>Abort</title>
<ellipse fill="#eff3ff" stroke="#bdd7e7" cx="265.17" cy="-18" rx="29.11" ry="18"/>
<text text-anchor="middle" x="265.17" y="-14.6" font-family="Helvetica,sans-Serif" font-size="13.00" fill="#2171b5">Abort</text>
</g>
<!-- n29&#45;&gt;Abort -->
<g id="edge21" class="edge">
<title>n29&#45;&gt;Abort</title>
<path fill="none" stroke="#9ecae1" d="M215.41,-498.63C205.45,-481.24 192.17,-453.09 192.17,-426.62 192.17,-426.62 192.17,-426.62 192.17,-100 192.17,-72.67 215.39,-50.4 235.64,-36.18"/>
<polygon fill="#9ecae1" stroke="#9ecae1" points="237.66,-39.04 244.05,-30.59 233.79,-33.21 237.66,-39.04"/>
<text text-anchor="middle" x="201.67" y="-296.77" font-family="Helvetica,sans-Serif" font-size="10.00" fill="#3182bd">Yes</text>
</g>
<!-- Valid Autobias voltage (finite and non&#45;zero) -->
<g id="node22" class="node">
<title>Valid Autobias voltage (finite and non&#45;zero)</title>
<ellipse fill="#eff3ff" stroke="#bdd7e7" cx="466.17" cy="-462.62" rx="157.84" ry="18"/>
<text text-anchor="middle" x="466.17" y="-459.22" font-family="Helvetica,sans-Serif" font-size="13.00" fill="#2171b5">Valid Autobias voltage (finite and non&#45;zero)</text>
</g>
<!-- Enable &quot;TP during ITI&quot;&#45;&gt;Valid Autobias voltage (finite and non&#45;zero) -->
<g id="edge22" class="edge">
<title>Enable &quot;TP during ITI&quot;&#45;&gt;Valid Autobias voltage (finite and non&#45;zero)</title>
<path fill="none" stroke="#9ecae1" d="M466.17,-552.59C466.17,-536 466.17,-510.51 466.17,-491.05"/>
<polygon fill="#9ecae1" stroke="#9ecae1" points="469.67,-490.96 466.17,-480.96 462.67,-490.96 469.67,-490.96"/>
</g>
<!-- Check if no TTL channels are active -->
<g id="node23" class="node">
<title>Check if no TTL channels are active</title>
<ellipse fill="#eff3ff" stroke="#bdd7e7" cx="864.17" cy="-462.62" rx="133.83" ry="18"/>
<text text-anchor="middle" x="864.17" y="-459.22" font-family="Helvetica,sans-Serif" font-size="13.00" fill="#2171b5">Check if no TTL channels are active</text>
</g>
<!-- Force Sampling Multiplier to 1&#45;&gt;Check if no TTL channels are active -->
<g id="edge23" class="edge">
<title>Force Sampling Multiplier to 1&#45;&gt;Check if no TTL channels are active</title>
<path fill="none" stroke="#9ecae1" d="M768.23,-552.83C787.13,-535.25 816.97,-507.51 838.35,-487.63"/>
<polygon fill="#9ecae1" stroke="#9ecae1" points="840.87,-490.06 845.81,-480.69 836.11,-484.94 840.87,-490.06"/>
</g>
<!-- Enable &quot;dDAQ&quot; -->
<g id="node24" class="node">
<title>Enable &quot;dDAQ&quot;</title>
<ellipse fill="#eff3ff" stroke="#bdd7e7" cx="466.17" cy="-389.62" rx="72.02" ry="18"/>
<text text-anchor="middle" x="466.17" y="-386.22" font-family="Helvetica,sans-Serif" font-size="13.00" fill="#2171b5">Enable &quot;oodDAQ&quot;</text>
</g>
<!-- Valid Autobias voltage (finite and non&#45;zero)&#45;&gt;Enable &quot;dDAQ&quot; -->
<g id="edge24" class="edge">
<title>Valid Autobias voltage (finite and non&#45;zero)&#45;&gt;Enable &quot;dDAQ&quot;</title>
<path fill="none" stroke="#9ecae1" d="M466.17,-444.44C466.17,-436.41 466.17,-426.67 466.17,-417.69"/>
<polygon fill="#9ecae1" stroke="#9ecae1" points="469.67,-417.65 466.17,-407.65 462.67,-417.65 469.67,-417.65"/>
</g>
<!-- Store active headstages in labnotebook -->
<g id="node25" class="node">
<title>Store active headstages in labnotebook</title>
<ellipse fill="#eff3ff" stroke="#bdd7e7" cx="930.17" cy="-389.62" rx="145.07" ry="18"/>
<text text-anchor="middle" x="930.17" y="-386.22" font-family="Helvetica,sans-Serif" font-size="13.00" fill="#2171b5">Store active headstages in labnotebook</text>
</g>
<!-- Check if no TTL channels are active&#45;&gt;Store active headstages in labnotebook -->
<g id="edge25" class="edge">
<title>Check if no TTL channels are active&#45;&gt;Store active headstages in labnotebook</title>
<path fill="none" stroke="#9ecae1" d="M880.15,-444.44C888.33,-435.63 898.45,-424.75 907.43,-415.08"/>
<polygon fill="#9ecae1" stroke="#9ecae1" points="910.09,-417.36 914.34,-407.65 904.97,-412.59 910.09,-417.36"/>
</g>
<!-- Look for an existing and passing FastRheoEstimate sweep\n within a passing set and\n a pulse duration of more than 500ms -->
<g id="node26" class="node">
<title>Look for an existing and passing FastRheoEstimate sweep\n within a passing set and\n a pulse duration of more than 500ms</title>
<ellipse fill="#eff3ff" stroke="#bdd7e7" cx="466.17" cy="-299.27" rx="236.76" ry="35.21"/>
<text text-anchor="middle" x="466.17" y="-309.87" font-family="Helvetica,sans-Serif" font-size="13.00" fill="#2171b5">Look for an existing and passing FastRheoEstimate sweep</text>
<text text-anchor="middle" x="466.17" y="-295.87" font-family="Helvetica,sans-Serif" font-size="13.00" fill="#2171b5"> within a passing set and</text>
<text text-anchor="middle" x="466.17" y="-281.87" font-family="Helvetica,sans-Serif" font-size="13.00" fill="#2171b5"> a pulse duration of more than 500ms</text>
</g>
<!-- Enable &quot;dDAQ&quot;&#45;&gt;Look for an existing and passing FastRheoEstimate sweep\n within a passing set and\n a pulse duration of more than 500ms -->
<g id="edge26" class="edge">
<title>Enable &quot;dDAQ&quot;&#45;&gt;Look for an existing and passing FastRheoEstimate sweep\n within a passing set and\n a pulse duration of more than 500ms</title>
<path fill="none" stroke="#9ecae1" d="M466.17,-371.59C466.17,-363.93 466.17,-354.49 466.17,-345.02"/>
<polygon fill="#9ecae1" stroke="#9ecae1" points="469.67,-344.81 466.17,-334.81 462.67,-344.81 469.67,-344.81"/>
</g>
<!-- Turn off active non&#45;IC headstages\nor headstages which have not passed FastRheoEstimate -->
<g id="node27" class="node">
<title>Turn off active non&#45;IC headstages\nor headstages which have not passed FastRheoEstimate</title>
<ellipse fill="#eff3ff" stroke="#bdd7e7" cx="952.17" cy="-299.27" rx="231.45" ry="25.41"/>
<text text-anchor="middle" x="952.17" y="-302.87" font-family="Helvetica,sans-Serif" font-size="13.00" fill="#2171b5">Turn off active non&#45;IC headstages</text>
<text text-anchor="middle" x="952.17" y="-288.87" font-family="Helvetica,sans-Serif" font-size="13.00" fill="#2171b5">or headstages which have not passed FastRheoEstimate</text>
</g>
<!-- Store active headstages in labnotebook&#45;&gt;Turn off active non&#45;IC headstages\nor headstages which have not passed FastRheoEstimate -->
<g id="edge27" class="edge">
<title>Store active headstages in labnotebook&#45;&gt;Turn off active non&#45;IC headstages\nor headstages which have not passed FastRheoEstimate</title>
<path fill="none" stroke="#9ecae1" d="M934.41,-371.59C937.01,-361.14 940.44,-347.39 943.58,-334.75"/>
<polygon fill="#9ecae1" stroke="#9ecae1" points="947.01,-335.49 946.03,-324.94 940.21,-333.8 947.01,-335.49"/>
</g>
<!-- Look for an existing and passing FastRheoEstimate sweep\n within a passing set and\n a pulse duration of more than 500ms&#45;&gt;Abort -->
<g id="edge28" class="edge">
<title>Look for an existing and passing FastRheoEstimate sweep\n within a passing set and\n a pulse duration of more than 500ms&#45;&gt;Abort</title>
<path fill="none" stroke="#9ecae1" d="M350.71,-268.33C325.06,-256.39 300.63,-239.82 284.17,-216.91 247.47,-165.83 253.39,-87.2 259.85,-46.12"/>
<polygon fill="#9ecae1" stroke="#9ecae1" points="263.33,-46.49 261.56,-36.05 256.43,-45.32 263.33,-46.49"/>
<text text-anchor="middle" x="281.17" y="-140" font-family="Helvetica,sans-Serif" font-size="10.00" fill="#3182bd">Not found</text>
</g>
<!-- Use the DAScale value of that sweep\n as offset to the DAScale values from the analysis parameters -->
<g id="node28" class="node">
<title>Use the DAScale value of that sweep\n as offset to the DAScale values from the analysis parameters</title>
<ellipse fill="#eff3ff" stroke="#bdd7e7" cx="543.17" cy="-191.46" rx="249.72" ry="25.41"/>
<text text-anchor="middle" x="543.17" y="-195.06" font-family="Helvetica,sans-Serif" font-size="13.00" fill="#2171b5">Use the DAScale value of that sweep</text>
<text text-anchor="middle" x="543.17" y="-181.06" font-family="Helvetica,sans-Serif" font-size="13.00" fill="#2171b5"> as offset to the DAScale values from the analysis parameters</text>
</g>
<!-- Look for an existing and passing FastRheoEstimate sweep\n within a passing set and\n a pulse duration of more than 500ms&#45;&gt;Use the DAScale value of that sweep\n as offset to the DAScale values from the analysis parameters -->
<g id="edge29" class="edge">
<title>Look for an existing and passing FastRheoEstimate sweep\n within a passing set and\n a pulse duration of more than 500ms&#45;&gt;Use the DAScale value of that sweep\n as offset to the DAScale values from the analysis parameters</title>
<path fill="none" stroke="#9ecae1" d="M491.17,-263.91C500.23,-251.46 510.44,-237.44 519.39,-225.13"/>
<polygon fill="#9ecae1" stroke="#9ecae1" points="522.31,-227.07 525.36,-216.93 516.65,-222.95 522.31,-227.07"/>
<text text-anchor="middle" x="527.17" y="-237.91" font-family="Helvetica,sans-Serif" font-size="10.00" fill="#3182bd">Found</text>
</g>
<!-- Check if there is at least\none active IC headstage -->
<g id="node29" class="node">
<title>Check if there is at least\none active IC headstage</title>
<ellipse fill="#eff3ff" stroke="#bdd7e7" cx="934.17" cy="-191.46" rx="105.22" ry="25.41"/>
<text text-anchor="middle" x="934.17" y="-195.06" font-family="Helvetica,sans-Serif" font-size="13.00" fill="#2171b5">Check if there is at least</text>
<text text-anchor="middle" x="934.17" y="-181.06" font-family="Helvetica,sans-Serif" font-size="13.00" fill="#2171b5">one active IC headstage</text>
</g>
<!-- Turn off active non&#45;IC headstages\nor headstages which have not passed FastRheoEstimate&#45;&gt;Check if there is at least\none active IC headstage -->
<g id="edge30" class="edge">
<title>Turn off active non&#45;IC headstages\nor headstages which have not passed FastRheoEstimate&#45;&gt;Check if there is at least\none active IC headstage</title>
<path fill="none" stroke="#9ecae1" d="M947.99,-273.73C945.65,-259.94 942.68,-242.5 940.1,-227.31"/>
<polygon fill="#9ecae1" stroke="#9ecae1" points="943.51,-226.5 938.38,-217.23 936.61,-227.68 943.51,-226.5"/>
</g>
<!-- All checks passed -->
<g id="node30" class="node">
<title>All checks passed</title>
<ellipse fill="#eff3ff" stroke="#bdd7e7" cx="649.17" cy="-101" rx="71.26" ry="18"/>
<text text-anchor="middle" x="649.17" y="-97.6" font-family="Helvetica,sans-Serif" font-size="13.00" fill="#2171b5">All checks passed</text>
</g>
<!-- Check if there is at least\none active IC headstage&#45;&gt;All checks passed -->
<g id="edge31" class="edge">
<title>Check if there is at least\none active IC headstage&#45;&gt;All checks passed</title>
<path fill="none" stroke="#9ecae1" d="M871.27,-170.93C820.51,-155.18 749.91,-133.27 702.03,-118.41"/>
<polygon fill="#9ecae1" stroke="#9ecae1" points="703.06,-115.06 692.47,-115.44 700.99,-121.75 703.06,-115.06"/>
</g>
<!-- All checks passed&#45;&gt;Abort -->
<g id="edge32" class="edge">
<title>All checks passed&#45;&gt;Abort</title>
<path fill="none" stroke="#9ecae1" d="M596.18,-88.82C517.31,-72.19 371,-41.32 302.44,-26.86"/>
<polygon fill="#9ecae1" stroke="#9ecae1" points="303.02,-23.41 292.51,-24.77 301.58,-30.26 303.02,-23.41"/>
<text text-anchor="middle" x="487.17" y="-57" font-family="Helvetica,sans-Serif" font-size="10.00" fill="#3182bd">No</text>
</g>
</g>
</svg>
