<?xml version="1.0" encoding="UTF-8" standalone="no"?>
<!DOCTYPE svg PUBLIC "-//W3C//DTD SVG 1.1//EN"
 "http://www.w3.org/Graphics/SVG/1.1/DTD/svg11.dtd">
<!-- Generated by graphviz version 2.43.0 (0)
 -->
<!-- Title: G Pages: 1 -->
<svg width="272pt" height="620pt"
 viewBox="0.00 0.00 272.00 620.00" xmlns="http://www.w3.org/2000/svg" xmlns:xlink="http://www.w3.org/1999/xlink">
<g id="graph0" class="graph" transform="scale(1 1) rotate(0) translate(4 616)">
<title>G</title>
<polygon fill="white" stroke="transparent" points="-4,4 -4,-616 268,-616 268,4 -4,4"/>
<!-- INACTIVE -->
<g id="node1" class="node">
<title>INACTIVE</title>
<ellipse fill="#eff3ff" stroke="#bdd7e7" cx="179" cy="-594" rx="48.78" ry="18"/>
<text text-anchor="middle" x="179" y="-590.6" font-family="Helvetica,sans-Serif" font-size="13.00" fill="#2171b5">INACTIVE</text>
</g>
<!-- EARLY CHECK -->
<g id="node2" class="node">
<title>EARLY CHECK</title>
<ellipse fill="#eff3ff" stroke="#bdd7e7" cx="132" cy="-522" rx="66.15" ry="18"/>
<text text-anchor="middle" x="132" y="-518.6" font-family="Helvetica,sans-Serif" font-size="13.00" fill="#2171b5">EARLY CHECK</text>
</g>
<!-- INACTIVE&#45;&gt;EARLY CHECK -->
<g id="edge1" class="edge">
<title>INACTIVE&#45;&gt;EARLY CHECK</title>
<path fill="none" stroke="#9ecae1" d="M162.3,-576.76C155.77,-568.44 148.59,-558.1 142.74,-548.73"/>
<polygon fill="#9ecae1" stroke="#9ecae1" points="145.73,-546.91 137.6,-540.12 139.72,-550.5 145.73,-546.91"/>
</g>
<!-- EARLY CHECK&#45;&gt;INACTIVE -->
<g id="edge2" class="edge">
<title>EARLY CHECK&#45;&gt;INACTIVE</title>
<path fill="none" stroke="#9ecae1" d="M149.13,-539.79C155.54,-548.02 162.55,-558.11 168.27,-567.29"/>
<polygon fill="#9ecae1" stroke="#9ecae1" points="165.37,-569.26 173.5,-576.05 171.38,-565.67 165.37,-569.26"/>
</g>
<!-- PRE DAQ -->
<g id="node3" class="node">
<title>PRE DAQ</title>
<ellipse fill="#eff3ff" stroke="#bdd7e7" cx="160" cy="-450" rx="47.25" ry="18"/>
<text text-anchor="middle" x="160" y="-446.6" font-family="Helvetica,sans-Serif" font-size="13.00" fill="#2171b5">PRE DAQ</text>
</g>
<!-- EARLY CHECK&#45;&gt;PRE DAQ -->
<g id="edge3" class="edge">
<title>EARLY CHECK&#45;&gt;PRE DAQ</title>
<path fill="none" stroke="#9ecae1" d="M138.78,-504.05C141.93,-496.18 145.75,-486.62 149.28,-477.79"/>
<polygon fill="#9ecae1" stroke="#9ecae1" points="152.63,-478.86 153.09,-468.28 146.13,-476.26 152.63,-478.86"/>
</g>
<!-- PRE DAQ&#45;&gt;INACTIVE -->
<g id="edge5" class="edge">
<title>PRE DAQ&#45;&gt;INACTIVE</title>
<path fill="none" stroke="#9ecae1" d="M179.31,-466.46C189.66,-476.03 201.41,-489.28 207,-504 215.03,-525.15 205.96,-549.71 196.07,-567.67"/>
<polygon fill="#9ecae1" stroke="#9ecae1" points="192.98,-566.01 190.9,-576.4 199,-569.57 192.98,-566.01"/>
</g>
<!-- PRE SWEEP CONFIG -->
<g id="node4" class="node">
<title>PRE SWEEP CONFIG</title>
<ellipse fill="#eff3ff" stroke="#bdd7e7" cx="100" cy="-378" rx="92.45" ry="18"/>
<text text-anchor="middle" x="100" y="-374.6" font-family="Helvetica,sans-Serif" font-size="13.00" fill="#2171b5">PRE SWEEP CONFIG</text>
</g>
<!-- PRE DAQ&#45;&gt;PRE SWEEP CONFIG -->
<g id="edge4" class="edge">
<title>PRE DAQ&#45;&gt;PRE SWEEP CONFIG</title>
<path fill="none" stroke="#9ecae1" d="M146.08,-432.76C138.73,-424.18 129.54,-413.46 121.31,-403.86"/>
<polygon fill="#9ecae1" stroke="#9ecae1" points="123.84,-401.44 114.68,-396.12 118.53,-405.99 123.84,-401.44"/>
</g>
<!-- POST DAQ -->
<g id="node5" class="node">
<title>POST DAQ</title>
<ellipse fill="#eff3ff" stroke="#bdd7e7" cx="166" cy="-18" rx="53.89" ry="18"/>
<text text-anchor="middle" x="166" y="-14.6" font-family="Helvetica,sans-Serif" font-size="13.00" fill="#2171b5">POST DAQ</text>
</g>
<!-- PRE DAQ&#45;&gt;POST DAQ -->
<g id="edge6" class="edge">
<title>PRE DAQ&#45;&gt;POST DAQ</title>
<path fill="none" stroke="#9ecae1" d="M175.48,-432.48C184.06,-422.55 194.31,-409.3 201,-396 219.47,-359.3 226,-348.09 226,-307 226,-307 226,-307 226,-161 226,-120.03 219.08,-109.24 202,-72 197.59,-62.39 191.5,-52.62 185.58,-44.12"/>
<polygon fill="#9ecae1" stroke="#9ecae1" points="188.25,-41.84 179.55,-35.79 182.58,-45.95 188.25,-41.84"/>
</g>
<!-- PRE SWEEP CONFIG&#45;&gt;POST DAQ -->
<g id="edge8" class="edge">
<title>PRE SWEEP CONFIG&#45;&gt;POST DAQ</title>
<path fill="none" stroke="#9ecae1" d="M69.8,-360.85C55.33,-351.75 38.83,-339.15 28,-324 3.89,-290.26 0,-276.47 0,-235 0,-235 0,-235 0,-161 0,-97.36 71.33,-56.13 120.48,-35.29"/>
<polygon fill="#9ecae1" stroke="#9ecae1" points="122.06,-38.42 129.98,-31.39 119.4,-31.94 122.06,-38.42"/>
</g>
<!-- PRE SWEEP -->
<g id="node6" class="node">
<title>PRE SWEEP</title>
<ellipse fill="#eff3ff" stroke="#bdd7e7" cx="94" cy="-306" rx="57.47" ry="18"/>
<text text-anchor="middle" x="94" y="-302.6" font-family="Helvetica,sans-Serif" font-size="13.00" fill="#2171b5">PRE SWEEP</text>
</g>
<!-- PRE SWEEP CONFIG&#45;&gt;PRE SWEEP -->
<g id="edge7" class="edge">
<title>PRE SWEEP CONFIG&#45;&gt;PRE SWEEP</title>
<path fill="none" stroke="#9ecae1" d="M98.52,-359.7C97.86,-351.98 97.06,-342.71 96.32,-334.11"/>
<polygon fill="#9ecae1" stroke="#9ecae1" points="99.81,-333.77 95.47,-324.1 92.83,-334.37 99.81,-333.77"/>
</g>
<!-- POST DAQ&#45;&gt;INACTIVE -->
<g id="edge16" class="edge">
<title>POST DAQ&#45;&gt;INACTIVE</title>
<path fill="none" stroke="#9ecae1" d="M186.78,-34.86C215.55,-58.78 264,-107.08 264,-161 264,-451 264,-451 264,-451 264,-498.33 228.8,-543.55 203.71,-569.77"/>
<polygon fill="#9ecae1" stroke="#9ecae1" points="201.14,-567.39 196.61,-576.97 206.13,-572.3 201.14,-567.39"/>
</g>
<!-- MID SWEEP -->
<g id="node7" class="node">
<title>MID SWEEP</title>
<ellipse fill="#eff3ff" stroke="#bdd7e7" cx="85" cy="-234" rx="57.47" ry="18"/>
<text text-anchor="middle" x="85" y="-230.6" font-family="Helvetica,sans-Serif" font-size="13.00" fill="#2171b5">MID SWEEP</text>
</g>
<!-- PRE SWEEP&#45;&gt;MID SWEEP -->
<g id="edge9" class="edge">
<title>PRE SWEEP&#45;&gt;MID SWEEP</title>
<path fill="none" stroke="#9ecae1" d="M91.78,-287.7C90.78,-279.98 89.59,-270.71 88.49,-262.11"/>
<polygon fill="#9ecae1" stroke="#9ecae1" points="91.95,-261.58 87.2,-252.1 85,-262.47 91.95,-261.58"/>
</g>
<!-- MID SWEEP&#45;&gt;MID SWEEP -->
<g id="edge10" class="edge">
<title>MID SWEEP&#45;&gt;MID SWEEP</title>
<path fill="none" stroke="#9ecae1" d="M124.61,-247.17C143.66,-248.8 160.48,-244.41 160.48,-234 160.48,-225.54 149.38,-221.06 135,-220.55"/>
<polygon fill="#9ecae1" stroke="#9ecae1" points="134.51,-217.06 124.61,-220.83 134.7,-224.06 134.51,-217.06"/>
</g>
<!-- POST SWEEP -->
<g id="node8" class="node">
<title>POST SWEEP</title>
<ellipse fill="#eff3ff" stroke="#bdd7e7" cx="96" cy="-162" rx="63.6" ry="18"/>
<text text-anchor="middle" x="96" y="-158.6" font-family="Helvetica,sans-Serif" font-size="13.00" fill="#2171b5">POST SWEEP</text>
</g>
<!-- MID SWEEP&#45;&gt;POST SWEEP -->
<g id="edge11" class="edge">
<title>MID SWEEP&#45;&gt;POST SWEEP</title>
<path fill="none" stroke="#9ecae1" d="M87.72,-215.7C88.93,-207.98 90.39,-198.71 91.74,-190.11"/>
<polygon fill="#9ecae1" stroke="#9ecae1" points="95.22,-190.53 93.31,-180.1 88.3,-189.44 95.22,-190.53"/>
</g>
<!-- POST SWEEP&#45;&gt;POST DAQ -->
<g id="edge13" class="edge">
<title>POST SWEEP&#45;&gt;POST DAQ</title>
<path fill="none" stroke="#9ecae1" d="M101.26,-143.76C107.16,-125.45 117.53,-95.9 130,-72 135.02,-62.38 141.43,-52.41 147.46,-43.73"/>
<polygon fill="#9ecae1" stroke="#9ecae1" points="150.33,-45.74 153.28,-35.56 144.63,-41.67 150.33,-45.74"/>
</g>
<!-- ITI -->
<g id="node9" class="node">
<title>ITI</title>
<ellipse fill="#eff3ff" stroke="#bdd7e7" cx="166" cy="-90" rx="27" ry="18"/>
<text text-anchor="middle" x="166" y="-86.6" font-family="Helvetica,sans-Serif" font-size="13.00" fill="#2171b5">ITI</text>
</g>
<!-- POST SWEEP&#45;&gt;ITI -->
<g id="edge12" class="edge">
<title>POST SWEEP&#45;&gt;ITI</title>
<path fill="none" stroke="#9ecae1" d="M112.59,-144.41C122.09,-134.91 134.12,-122.88 144.35,-112.65"/>
<polygon fill="#9ecae1" stroke="#9ecae1" points="146.83,-115.12 151.43,-105.57 141.88,-110.17 146.83,-115.12"/>
</g>
<!-- ITI&#45;&gt;PRE SWEEP CONFIG -->
<g id="edge14" class="edge">
<title>ITI&#45;&gt;PRE SWEEP CONFIG</title>
<path fill="none" stroke="#9ecae1" d="M170.34,-107.78C179.75,-147.92 198.26,-251.54 160,-324 153.86,-335.64 144.05,-345.92 134.13,-354.25"/>
<polygon fill="#9ecae1" stroke="#9ecae1" points="131.89,-351.56 126.22,-360.51 136.23,-357.05 131.89,-351.56"/>
</g>
<!-- ITI&#45;&gt;POST DAQ -->
<g id="edge15" class="edge">
<title>ITI&#45;&gt;POST DAQ</title>
<path fill="none" stroke="#9ecae1" d="M166,-71.7C166,-63.98 166,-54.71 166,-46.11"/>
<polygon fill="#9ecae1" stroke="#9ecae1" points="169.5,-46.1 166,-36.1 162.5,-46.1 169.5,-46.1"/>
</g>
</g>
</svg>
