<?xml version="1.0" encoding="UTF-8" standalone="no"?>
<!DOCTYPE svg PUBLIC "-//W3C//DTD SVG 1.1//EN"
 "http://www.w3.org/Graphics/SVG/1.1/DTD/svg11.dtd">
<!-- Generated by graphviz version 2.43.0 (0)
 -->
<!-- Title: G Pages: 1 -->
<svg width="1319pt" height="1878pt"
 viewBox="0.00 0.00 1319.30 1877.51" xmlns="http://www.w3.org/2000/svg" xmlns:xlink="http://www.w3.org/1999/xlink">
<g id="graph0" class="graph" transform="scale(1 1) rotate(0) translate(4 1873.51)">
<title>G</title>
<polygon fill="white" stroke="transparent" points="-4,4 -4,-1873.51 1315.3,-1873.51 1315.3,4 -4,4"/>
<!-- n0 -->
<g id="node1" class="node">
<title>n0</title>
<ellipse fill="#eff3ff" stroke="#bdd7e7" cx="703" cy="-1851.51" rx="179.29" ry="18"/>
<text text-anchor="middle" x="703" y="-1848.11" font-family="Helvetica,sans-Serif" font-size="13.00" fill="#2171b5">Evaluate TP properties and fill TPResults</text>
</g>
<!-- n6 -->
<g id="node2" class="node">
<title>n6</title>
<ellipse fill="#eff3ff" stroke="#bdd7e7" cx="589" cy="-1778.51" rx="77.13" ry="18"/>
<text text-anchor="middle" x="589" y="-1775.11" font-family="Helvetica,sans-Serif" font-size="13.00" fill="#2171b5">Is DAQ running?</text>
</g>
<!-- n0&#45;&gt;n6 -->
<g id="edge1" class="edge">
<title>n0&#45;&gt;n6</title>
<path fill="none" stroke="#9ecae1" d="M675.98,-1833.69C660.17,-1823.84 640.06,-1811.31 623.15,-1800.79"/>
<polygon fill="#9ecae1" stroke="#9ecae1" points="624.99,-1797.8 614.65,-1795.49 621.29,-1803.75 624.99,-1797.8"/>
</g>
<!-- n36 -->
<g id="node3" class="node">
<title>n36</title>
<ellipse fill="#eff3ff" stroke="#bdd7e7" cx="824" cy="-1778.51" rx="134.59" ry="18"/>
<text text-anchor="middle" x="824" y="-1775.11" font-family="Helvetica,sans-Serif" font-size="13.00" fill="#2171b5">Iterate over all IC headstages</text>
</g>
<!-- n0&#45;&gt;n36 -->
<g id="edge2" class="edge">
<title>n0&#45;&gt;n36</title>
<path fill="none" stroke="#9ecae1" d="M731.68,-1833.69C748.1,-1824.05 768.9,-1811.84 786.6,-1801.46"/>
<polygon fill="#9ecae1" stroke="#9ecae1" points="788.68,-1804.3 795.53,-1796.22 785.13,-1798.26 788.68,-1804.3"/>
</g>
<!-- n2 -->
<g id="node4" class="node">
<title>n2</title>
<ellipse fill="#eff3ff" stroke="#bdd7e7" cx="557" cy="-1688.06" rx="171.24" ry="25.41"/>
<text text-anchor="middle" x="557" y="-1691.66" font-family="Helvetica,sans-Serif" font-size="13.00" fill="#2171b5">Has &quot;Auto TP interval [s]&quot; elapsed</text>
<text text-anchor="middle" x="557" y="-1677.66" font-family="Helvetica,sans-Serif" font-size="13.00" fill="#2171b5">since the last call</text>
</g>
<!-- n6&#45;&gt;n2 -->
<g id="edge3" class="edge">
<title>n6&#45;&gt;n2</title>
<path fill="none" stroke="#9ecae1" d="M582.83,-1760.46C579.01,-1749.9 573.97,-1735.96 569.35,-1723.2"/>
<polygon fill="#9ecae1" stroke="#9ecae1" points="572.63,-1721.97 565.94,-1713.76 566.05,-1724.35 572.63,-1721.97"/>
<text text-anchor="middle" x="583" y="-1734.51" font-family="Helvetica,sans-Serif" font-size="10.00" fill="#3182bd">No</text>
</g>
<!-- n37 -->
<g id="node5" class="node">
<title>n37</title>
<ellipse fill="#eff3ff" stroke="#bdd7e7" cx="840" cy="-1688.06" rx="83.26" ry="18"/>
<text text-anchor="middle" x="840" y="-1684.66" font-family="Helvetica,sans-Serif" font-size="13.00" fill="#2171b5">Auto TP enabled?</text>
</g>
<!-- n36&#45;&gt;n37 -->
<g id="edge4" class="edge">
<title>n36&#45;&gt;n37</title>
<path fill="none" stroke="#9ecae1" d="M827.08,-1760.46C829.36,-1747.85 832.51,-1730.44 835.13,-1715.97"/>
<polygon fill="#9ecae1" stroke="#9ecae1" points="838.59,-1716.52 836.92,-1706.06 831.7,-1715.28 838.59,-1716.52"/>
</g>
<!-- n1 -->
<g id="node6" class="node">
<title>n1</title>
<ellipse fill="#eff3ff" stroke="#bdd7e7" cx="497" cy="-1590.15" rx="134.59" ry="18"/>
<text text-anchor="middle" x="497" y="-1586.75" font-family="Helvetica,sans-Serif" font-size="13.00" fill="#2171b5">Iterate over all IC headstages</text>
</g>
<!-- n2&#45;&gt;n1 -->
<g id="edge5" class="edge">
<title>n2&#45;&gt;n1</title>
<path fill="none" stroke="#9ecae1" d="M541.7,-1662.61C532.99,-1648.68 522.07,-1631.23 513.21,-1617.06"/>
<polygon fill="#9ecae1" stroke="#9ecae1" points="516,-1614.92 507.73,-1608.29 510.06,-1618.63 516,-1614.92"/>
<text text-anchor="middle" x="537" y="-1636.6" font-family="Helvetica,sans-Serif" font-size="10.00" fill="#3182bd">Yes</text>
</g>
<!-- n30 -->
<g id="node7" class="node">
<title>n30</title>
<ellipse fill="#eff3ff" stroke="#bdd7e7" cx="851" cy="-1590.15" rx="201.55" ry="25.41"/>
<text text-anchor="middle" x="851" y="-1593.75" font-family="Helvetica,sans-Serif" font-size="13.00" fill="#2171b5">Check if auto TP amplitude and baseline</text>
<text text-anchor="middle" x="851" y="-1579.75" font-family="Helvetica,sans-Serif" font-size="13.00" fill="#2171b5"> passed three times in a row?</text>
</g>
<!-- n37&#45;&gt;n30 -->
<g id="edge6" class="edge">
<title>n37&#45;&gt;n30</title>
<path fill="none" stroke="#9ecae1" d="M841.97,-1669.91C843.37,-1657.65 845.31,-1640.74 847.03,-1625.72"/>
<polygon fill="#9ecae1" stroke="#9ecae1" points="850.52,-1626.05 848.18,-1615.71 843.57,-1625.25 850.52,-1626.05"/>
<text text-anchor="middle" x="853" y="-1636.6" font-family="Helvetica,sans-Serif" font-size="10.00" fill="#3182bd">Yes</text>
</g>
<!-- n3 -->
<g id="node8" class="node">
<title>n3</title>
<ellipse fill="#eff3ff" stroke="#bdd7e7" cx="497" cy="-1499.69" rx="83.26" ry="18"/>
<text text-anchor="middle" x="497" y="-1496.29" font-family="Helvetica,sans-Serif" font-size="13.00" fill="#2171b5">Auto TP enabled?</text>
</g>
<!-- n1&#45;&gt;n3 -->
<g id="edge7" class="edge">
<title>n1&#45;&gt;n3</title>
<path fill="none" stroke="#9ecae1" d="M497,-1572.09C497,-1559.61 497,-1542.41 497,-1528.02"/>
<polygon fill="#9ecae1" stroke="#9ecae1" points="500.5,-1527.69 497,-1517.69 493.5,-1527.69 500.5,-1527.69"/>
</g>
<!-- n32 -->
<g id="node31" class="node">
<title>n32</title>
<ellipse fill="#eff3ff" stroke="#bdd7e7" cx="1058" cy="-1499.69" rx="253.1" ry="18"/>
<text text-anchor="middle" x="1058" y="-1496.29" font-family="Helvetica,sans-Serif" font-size="13.00" fill="#2171b5">Do we have 10 baseline range exceeded entries in a row?</text>
</g>
<!-- n30&#45;&gt;n32 -->
<g id="edge36" class="edge">
<title>n30&#45;&gt;n32</title>
<path fill="none" stroke="#9ecae1" d="M906.2,-1565.56C938.33,-1551.83 978.46,-1534.68 1009.39,-1521.46"/>
<polygon fill="#9ecae1" stroke="#9ecae1" points="1010.85,-1524.64 1018.67,-1517.5 1008.1,-1518.21 1010.85,-1524.64"/>
<text text-anchor="middle" x="980" y="-1538.69" font-family="Helvetica,sans-Serif" font-size="10.00" fill="#3182bd">No</text>
</g>
<!-- n33 -->
<g id="node32" class="node">
<title>n33</title>
<ellipse fill="#eff3ff" stroke="#bdd7e7" cx="976" cy="-1409.23" rx="156.81" ry="18"/>
<text text-anchor="middle" x="976" y="-1405.83" font-family="Helvetica,sans-Serif" font-size="13.00" fill="#2171b5">Turn off Auto TP on that headstage</text>
</g>
<!-- n30&#45;&gt;n33 -->
<g id="edge37" class="edge">
<title>n30&#45;&gt;n33</title>
<path fill="none" stroke="#9ecae1" d="M816.76,-1565C789.96,-1543.06 760.26,-1509.9 780,-1481.69 799.85,-1453.33 832.19,-1436.19 864.93,-1425.84"/>
<polygon fill="#9ecae1" stroke="#9ecae1" points="866.03,-1429.16 874.63,-1422.97 864.05,-1422.45 866.03,-1429.16"/>
<text text-anchor="middle" x="788" y="-1497.19" font-family="Helvetica,sans-Serif" font-size="10.00" fill="#3182bd">Yes</text>
</g>
<!-- n4 -->
<g id="node9" class="node">
<title>n4</title>
<ellipse fill="#eff3ff" stroke="#bdd7e7" cx="497" cy="-1409.23" rx="181.95" ry="25.41"/>
<text text-anchor="middle" x="497" y="-1412.83" font-family="Helvetica,sans-Serif" font-size="13.00" fill="#2171b5">Are two testpulse waveforms</text>
<text text-anchor="middle" x="497" y="-1398.83" font-family="Helvetica,sans-Serif" font-size="13.00" fill="#2171b5"> present from the same TP cycle ID?</text>
</g>
<!-- n3&#45;&gt;n4 -->
<g id="edge8" class="edge">
<title>n3&#45;&gt;n4</title>
<path fill="none" stroke="#9ecae1" d="M497,-1481.64C497,-1471.28 497,-1457.68 497,-1445.13"/>
<polygon fill="#9ecae1" stroke="#9ecae1" points="500.5,-1444.93 497,-1434.93 493.5,-1444.93 500.5,-1444.93"/>
<text text-anchor="middle" x="505" y="-1455.69" font-family="Helvetica,sans-Serif" font-size="10.00" fill="#3182bd">Yes</text>
</g>
<!-- n5 -->
<g id="node10" class="node">
<title>n5</title>
<ellipse fill="#eff3ff" stroke="#bdd7e7" cx="497" cy="-1311.32" rx="219.82" ry="25.41"/>
<text text-anchor="middle" x="497" y="-1314.92" font-family="Helvetica,sans-Serif" font-size="13.00" fill="#2171b5">Calculate delta V using</text>
<text text-anchor="middle" x="497" y="-1300.92" font-family="Helvetica,sans-Serif" font-size="13.00" fill="#2171b5">elevated and baseline steady state voltages</text>
</g>
<!-- n4&#45;&gt;n5 -->
<g id="edge9" class="edge">
<title>n4&#45;&gt;n5</title>
<path fill="none" stroke="#9ecae1" d="M497,-1383.53C497,-1372.46 497,-1359.2 497,-1347.14"/>
<polygon fill="#9ecae1" stroke="#9ecae1" points="500.5,-1346.94 497,-1336.94 493.5,-1346.94 500.5,-1346.94"/>
<text text-anchor="middle" x="505" y="-1357.78" font-family="Helvetica,sans-Serif" font-size="10.00" fill="#3182bd">Yes</text>
</g>
<!-- n14 -->
<g id="node11" class="node">
<title>n14</title>
<ellipse fill="#eff3ff" stroke="#bdd7e7" cx="497" cy="-1223.41" rx="176.55" ry="25.41"/>
<text text-anchor="middle" x="497" y="-1227.01" font-family="Helvetica,sans-Serif" font-size="13.00" fill="#2171b5">Does the sign of the target voltage</text>
<text text-anchor="middle" x="497" y="-1213.01" font-family="Helvetica,sans-Serif" font-size="13.00" fill="#2171b5"> and the IC amplitude differ?</text>
</g>
<!-- n5&#45;&gt;n14 -->
<g id="edge10" class="edge">
<title>n5&#45;&gt;n14</title>
<path fill="none" stroke="#9ecae1" d="M497,-1285.47C497,-1277.21 497,-1267.85 497,-1258.99"/>
<polygon fill="#9ecae1" stroke="#9ecae1" points="500.5,-1258.91 497,-1248.91 493.5,-1258.91 500.5,-1258.91"/>
</g>
<!-- n7 -->
<g id="node12" class="node">
<title>n7</title>
<ellipse fill="#eff3ff" stroke="#bdd7e7" cx="579" cy="-1059.96" rx="168.05" ry="18"/>
<text text-anchor="middle" x="579" y="-1056.56" font-family="Helvetica,sans-Serif" font-size="13.00" fill="#2171b5">Is the IC amplitude smaller than 5pA?</text>
</g>
<!-- n14&#45;&gt;n7 -->
<g id="edge11" class="edge">
<title>n14&#45;&gt;n7</title>
<path fill="none" stroke="#9ecae1" d="M519.27,-1198.14C530.39,-1184.98 543.29,-1167.95 552,-1150.96 562.25,-1130.96 569.29,-1106.43 573.6,-1088.03"/>
<polygon fill="#9ecae1" stroke="#9ecae1" points="577.02,-1088.77 575.77,-1078.25 570.19,-1087.25 577.02,-1088.77"/>
<text text-anchor="middle" x="574" y="-1130.46" font-family="Helvetica,sans-Serif" font-size="10.00" fill="#3182bd">No</text>
</g>
<!-- n13 -->
<g id="node13" class="node">
<title>n13</title>
<ellipse fill="#eff3ff" stroke="#bdd7e7" cx="415" cy="-1132.96" rx="127.7" ry="18"/>
<text text-anchor="middle" x="415" y="-1129.56" font-family="Helvetica,sans-Serif" font-size="13.00" fill="#2171b5">Adapt the IC amplitude sign</text>
</g>
<!-- n14&#45;&gt;n13 -->
<g id="edge12" class="edge">
<title>n14&#45;&gt;n13</title>
<path fill="none" stroke="#9ecae1" d="M474.16,-1197.77C462.81,-1185.53 449.13,-1170.77 437.79,-1158.53"/>
<polygon fill="#9ecae1" stroke="#9ecae1" points="440.08,-1155.86 430.72,-1150.91 434.95,-1160.62 440.08,-1155.86"/>
<text text-anchor="middle" x="464" y="-1171.96" font-family="Helvetica,sans-Serif" font-size="10.00" fill="#3182bd">Yes</text>
</g>
<!-- n8 -->
<g id="node14" class="node">
<title>n8</title>
<ellipse fill="#eff3ff" stroke="#bdd7e7" cx="1084" cy="-890.69" rx="166.34" ry="35.21"/>
<text text-anchor="middle" x="1084" y="-901.29" font-family="Helvetica,sans-Serif" font-size="13.00" fill="#2171b5">Generate a random IC amplitude</text>
<text text-anchor="middle" x="1084" y="-887.29" font-family="Helvetica,sans-Serif" font-size="13.00" fill="#2171b5"> in the range [5, 10)</text>
<text text-anchor="middle" x="1084" y="-873.29" font-family="Helvetica,sans-Serif" font-size="13.00" fill="#2171b5"> using the target voltage sign</text>
</g>
<!-- n7&#45;&gt;n8 -->
<g id="edge13" class="edge">
<title>n7&#45;&gt;n8</title>
<path fill="none" stroke="#9ecae1" d="M628.34,-1042.61C711.1,-1015.2 879.32,-959.48 986.59,-923.95"/>
<polygon fill="#9ecae1" stroke="#9ecae1" points="987.74,-927.26 996.13,-920.79 985.54,-920.61 987.74,-927.26"/>
<text text-anchor="middle" x="725" y="-1015.96" font-family="Helvetica,sans-Serif" font-size="10.00" fill="#3182bd">Yes</text>
</g>
<!-- n15 -->
<g id="node15" class="node">
<title>n15</title>
<ellipse fill="#eff3ff" stroke="#bdd7e7" cx="579" cy="-969.5" rx="161.44" ry="25.41"/>
<text text-anchor="middle" x="579" y="-973.1" font-family="Helvetica,sans-Serif" font-size="13.00" fill="#2171b5">Concatenate the two testpulses</text>
<text text-anchor="middle" x="579" y="-959.1" font-family="Helvetica,sans-Serif" font-size="13.00" fill="#2171b5"> and perform an exponential fit</text>
</g>
<!-- n7&#45;&gt;n15 -->
<g id="edge14" class="edge">
<title>n7&#45;&gt;n15</title>
<path fill="none" stroke="#9ecae1" d="M579,-1041.9C579,-1031.55 579,-1017.95 579,-1005.4"/>
<polygon fill="#9ecae1" stroke="#9ecae1" points="582.5,-1005.2 579,-995.2 575.5,-1005.2 582.5,-1005.2"/>
<text text-anchor="middle" x="586" y="-1015.96" font-family="Helvetica,sans-Serif" font-size="10.00" fill="#3182bd">No</text>
</g>
<!-- n13&#45;&gt;n7 -->
<g id="edge15" class="edge">
<title>n13&#45;&gt;n7</title>
<path fill="none" stroke="#9ecae1" d="M452.62,-1115.67C476.02,-1105.54 506.31,-1092.42 531.37,-1081.57"/>
<polygon fill="#9ecae1" stroke="#9ecae1" points="532.91,-1084.72 540.7,-1077.54 530.13,-1078.3 532.91,-1084.72"/>
</g>
<!-- n11 -->
<g id="node16" class="node">
<title>n11</title>
<ellipse fill="#eff3ff" stroke="#bdd7e7" cx="893" cy="-91" rx="149.15" ry="18"/>
<text text-anchor="middle" x="893" y="-87.6" font-family="Helvetica,sans-Serif" font-size="13.00" fill="#2171b5">Mark Auto TP amplitude as failed</text>
</g>
<!-- n13&#45;&gt;n11 -->
<g id="edge16" class="edge">
<title>n13&#45;&gt;n11</title>
<path fill="none" stroke="#9ecae1" d="M305.15,-1123.75C182.2,-1113.04 0,-1091.95 0,-1060.96 0,-1060.96 0,-1060.96 0,-173 0,-136.11 489.79,-109.43 743.9,-98.08"/>
<polygon fill="#9ecae1" stroke="#9ecae1" points="744.12,-101.57 753.96,-97.63 743.81,-94.58 744.12,-101.57"/>
</g>
<!-- n8&#45;&gt;n11 -->
<g id="edge17" class="edge">
<title>n8&#45;&gt;n11</title>
<path fill="none" stroke="#9ecae1" d="M1086.44,-855.22C1087.71,-834.41 1089,-807.36 1089,-783.33 1089,-783.33 1089,-783.33 1089,-173 1089,-136.16 1059.06,-115.74 1022.58,-104.54"/>
<polygon fill="#9ecae1" stroke="#9ecae1" points="1023.23,-101.09 1012.66,-101.75 1021.34,-107.83 1023.23,-101.09"/>
</g>
<!-- n18 -->
<g id="node17" class="node">
<title>n18</title>
<ellipse fill="#eff3ff" stroke="#bdd7e7" cx="579" cy="-819.33" rx="128.46" ry="18"/>
<text text-anchor="middle" x="579" y="-815.93" font-family="Helvetica,sans-Serif" font-size="13.00" fill="#2171b5">Store Fit result in TPStorage</text>
</g>
<!-- n15&#45;&gt;n18 -->
<g id="edge18" class="edge">
<title>n15&#45;&gt;n18</title>
<path fill="none" stroke="#9ecae1" d="M579,-944.03C579,-917.48 579,-875.17 579,-847.58"/>
<polygon fill="#9ecae1" stroke="#9ecae1" points="582.5,-847.43 579,-837.43 575.5,-847.43 582.5,-847.43"/>
</g>
<!-- n12 -->
<g id="node18" class="node">
<title>n12</title>
<ellipse fill="#eff3ff" stroke="#bdd7e7" cx="893" cy="-18" rx="116.72" ry="18"/>
<text text-anchor="middle" x="893" y="-14.6" font-family="Helvetica,sans-Serif" font-size="13.00" fill="#2171b5">Set the new IC amplitude</text>
</g>
<!-- n11&#45;&gt;n12 -->
<g id="edge19" class="edge">
<title>n11&#45;&gt;n12</title>
<path fill="none" stroke="#9ecae1" d="M893,-72.81C893,-64.79 893,-55.05 893,-46.07"/>
<polygon fill="#9ecae1" stroke="#9ecae1" points="896.5,-46.03 893,-36.03 889.5,-46.03 896.5,-46.03"/>
</g>
<!-- n16 -->
<g id="node19" class="node">
<title>n16</title>
<ellipse fill="#eff3ff" stroke="#bdd7e7" cx="579" cy="-746.33" rx="67.68" ry="18"/>
<text text-anchor="middle" x="579" y="-742.93" font-family="Helvetica,sans-Serif" font-size="13.00" fill="#2171b5">Fit suceeded?</text>
</g>
<!-- n18&#45;&gt;n16 -->
<g id="edge20" class="edge">
<title>n18&#45;&gt;n16</title>
<path fill="none" stroke="#9ecae1" d="M579,-801.15C579,-793.12 579,-783.38 579,-774.4"/>
<polygon fill="#9ecae1" stroke="#9ecae1" points="582.5,-774.36 579,-764.36 575.5,-774.36 582.5,-774.36"/>
</g>
<!-- n17 -->
<g id="node20" class="node">
<title>n17</title>
<ellipse fill="#eff3ff" stroke="#bdd7e7" cx="243" cy="-174" rx="142.25" ry="18"/>
<text text-anchor="middle" x="243" y="-170.6" font-family="Helvetica,sans-Serif" font-size="13.00" fill="#2171b5">Mark Auto TP baseline as failed</text>
</g>
<!-- n16&#45;&gt;n17 -->
<g id="edge21" class="edge">
<title>n16&#45;&gt;n17</title>
<path fill="none" stroke="#9ecae1" d="M643.58,-740.77C771.97,-730.82 1047,-704.79 1047,-664.33 1047,-664.33 1047,-664.33 1047,-263.36 1047,-245.91 1042.72,-238.37 1028,-229 1001.38,-212.05 604.06,-191.43 385.16,-181.27"/>
<polygon fill="#9ecae1" stroke="#9ecae1" points="385.02,-177.76 374.87,-180.8 384.7,-184.75 385.02,-177.76"/>
<text text-anchor="middle" x="1054" y="-487.38" font-family="Helvetica,sans-Serif" font-size="10.00" fill="#3182bd">No</text>
</g>
<!-- n19 -->
<g id="node21" class="node">
<title>n19</title>
<ellipse fill="#eff3ff" stroke="#bdd7e7" cx="434" cy="-663.33" rx="111.61" ry="18"/>
<text text-anchor="middle" x="434" y="-659.93" font-family="Helvetica,sans-Serif" font-size="13.00" fill="#2171b5">Residuals are too noisy?</text>
</g>
<!-- n16&#45;&gt;n19 -->
<g id="edge22" class="edge">
<title>n16&#45;&gt;n19</title>
<path fill="none" stroke="#9ecae1" d="M551.04,-729.72C528.61,-717.19 496.9,-699.47 472.14,-685.64"/>
<polygon fill="#9ecae1" stroke="#9ecae1" points="473.8,-682.56 463.36,-680.74 470.39,-688.67 473.8,-682.56"/>
<text text-anchor="middle" x="524" y="-702.33" font-family="Helvetica,sans-Serif" font-size="10.00" fill="#3182bd">Yes</text>
</g>
<!-- n19&#45;&gt;n17 -->
<g id="edge23" class="edge">
<title>n19&#45;&gt;n17</title>
<path fill="none" stroke="#9ecae1" d="M322.9,-660.99C205.76,-656.47 38,-639.8 38,-581.33 38,-581.33 38,-581.33 38,-263.36 38,-221.02 75.33,-198.73 118.13,-187.08"/>
<polygon fill="#9ecae1" stroke="#9ecae1" points="119.07,-190.45 127.92,-184.62 117.36,-183.66 119.07,-190.45"/>
<text text-anchor="middle" x="46" y="-438.42" font-family="Helvetica,sans-Serif" font-size="10.00" fill="#3182bd">Yes</text>
</g>
<!-- n20 -->
<g id="node22" class="node">
<title>n20</title>
<ellipse fill="#eff3ff" stroke="#bdd7e7" cx="434" cy="-580.33" rx="163.71" ry="18"/>
<text text-anchor="middle" x="434" y="-576.93" font-family="Helvetica,sans-Serif" font-size="13.00" fill="#2171b5">Is tau/baseline in the desired range?</text>
</g>
<!-- n19&#45;&gt;n20 -->
<g id="edge24" class="edge">
<title>n19&#45;&gt;n20</title>
<path fill="none" stroke="#9ecae1" d="M434,-645.16C434,-634.52 434,-620.64 434,-608.54"/>
<polygon fill="#9ecae1" stroke="#9ecae1" points="437.5,-608.49 434,-598.49 430.5,-608.49 437.5,-608.49"/>
<text text-anchor="middle" x="441" y="-619.33" font-family="Helvetica,sans-Serif" font-size="10.00" fill="#3182bd">No</text>
</g>
<!-- n22 -->
<g id="node23" class="node">
<title>n22</title>
<ellipse fill="#eff3ff" stroke="#bdd7e7" cx="756" cy="-489.88" rx="148.39" ry="18"/>
<text text-anchor="middle" x="756" y="-486.48" font-family="Helvetica,sans-Serif" font-size="13.00" fill="#2171b5">Mark Auto TP baseline as passed</text>
</g>
<!-- n20&#45;&gt;n22 -->
<g id="edge25" class="edge">
<title>n20&#45;&gt;n22</title>
<path fill="none" stroke="#9ecae1" d="M491.94,-563.42C547.4,-548.18 631,-525.22 689.23,-509.22"/>
<polygon fill="#9ecae1" stroke="#9ecae1" points="690.35,-512.54 699.07,-506.52 688.5,-505.79 690.35,-512.54"/>
<text text-anchor="middle" x="603" y="-536.33" font-family="Helvetica,sans-Serif" font-size="10.00" fill="#3182bd">Yes</text>
</g>
<!-- n23 -->
<g id="node24" class="node">
<title>n23</title>
<ellipse fill="#eff3ff" stroke="#bdd7e7" cx="407" cy="-489.88" rx="169" ry="25.41"/>
<text text-anchor="middle" x="407" y="-493.48" font-family="Helvetica,sans-Serif" font-size="13.00" fill="#2171b5">Calculate a new baseline fraction</text>
<text text-anchor="middle" x="407" y="-479.48" font-family="Helvetica,sans-Serif" font-size="13.00" fill="#2171b5"> Is that in the allowed range?</text>
</g>
<!-- n20&#45;&gt;n23 -->
<g id="edge26" class="edge">
<title>n20&#45;&gt;n23</title>
<path fill="none" stroke="#9ecae1" d="M428.79,-562.28C425.6,-551.82 421.4,-538.05 417.54,-525.4"/>
<polygon fill="#9ecae1" stroke="#9ecae1" points="420.81,-524.12 414.54,-515.58 414.11,-526.16 420.81,-524.12"/>
<text text-anchor="middle" x="430" y="-536.33" font-family="Helvetica,sans-Serif" font-size="10.00" fill="#3182bd">No</text>
</g>
<!-- n26 -->
<g id="node25" class="node">
<title>n26</title>
<ellipse fill="#eff3ff" stroke="#bdd7e7" cx="796" cy="-382.07" rx="147.57" ry="25.41"/>
<text text-anchor="middle" x="796" y="-385.67" font-family="Helvetica,sans-Serif" font-size="13.00" fill="#2171b5">Is the target voltage for</text>
<text text-anchor="middle" x="796" y="-371.67" font-family="Helvetica,sans-Serif" font-size="13.00" fill="#2171b5"> Auto TP amplitude in range?</text>
</g>
<!-- n22&#45;&gt;n26 -->
<g id="edge27" class="edge">
<title>n22&#45;&gt;n26</title>
<path fill="none" stroke="#9ecae1" d="M762.43,-471.88C768.01,-457.12 776.25,-435.31 783.17,-416.99"/>
<polygon fill="#9ecae1" stroke="#9ecae1" points="786.49,-418.11 786.76,-407.52 779.95,-415.63 786.49,-418.11"/>
</g>
<!-- n24 -->
<g id="node26" class="node">
<title>n24</title>
<ellipse fill="#eff3ff" stroke="#bdd7e7" cx="407" cy="-382.07" rx="222.98" ry="35.21"/>
<text text-anchor="middle" x="407" y="-392.67" font-family="Helvetica,sans-Serif" font-size="13.00" fill="#2171b5">Clip it to the allowed range</text>
<text text-anchor="middle" x="407" y="-378.67" font-family="Helvetica,sans-Serif" font-size="13.00" fill="#2171b5"> and add a Auto TP</text>
<text text-anchor="middle" x="407" y="-364.67" font-family="Helvetica,sans-Serif" font-size="13.00" fill="#2171b5"> baseline range exceeded entry in TPStorage</text>
</g>
<!-- n23&#45;&gt;n24 -->
<g id="edge28" class="edge">
<title>n23&#45;&gt;n24</title>
<path fill="none" stroke="#9ecae1" d="M407,-464.34C407,-453.46 407,-440.32 407,-427.8"/>
<polygon fill="#9ecae1" stroke="#9ecae1" points="410.5,-427.49 407,-417.49 403.5,-427.49 410.5,-427.49"/>
<text text-anchor="middle" x="414" y="-438.42" font-family="Helvetica,sans-Serif" font-size="10.00" fill="#3182bd">No</text>
</g>
<!-- n25 -->
<g id="node27" class="node">
<title>n25</title>
<ellipse fill="#eff3ff" stroke="#bdd7e7" cx="243" cy="-264.36" rx="177.47" ry="35.21"/>
<text text-anchor="middle" x="243" y="-274.96" font-family="Helvetica,sans-Serif" font-size="13.00" fill="#2171b5">Set the new baseline fraction</text>
<text text-anchor="middle" x="243" y="-260.96" font-family="Helvetica,sans-Serif" font-size="13.00" fill="#2171b5"> as maximum of the per headstage</text>
<text text-anchor="middle" x="243" y="-246.96" font-family="Helvetica,sans-Serif" font-size="13.00" fill="#2171b5"> calculated &#160;ones</text>
</g>
<!-- n23&#45;&gt;n25 -->
<g id="edge29" class="edge">
<title>n23&#45;&gt;n25</title>
<path fill="none" stroke="#9ecae1" d="M296.95,-470.55C238.97,-458.41 176.34,-440.47 159,-417.42 140.1,-392.31 146.74,-375.65 159,-346.71 165.49,-331.38 176.44,-317.53 188.33,-305.78"/>
<polygon fill="#9ecae1" stroke="#9ecae1" points="190.93,-308.14 195.82,-298.74 186.13,-303.04 190.93,-308.14"/>
<text text-anchor="middle" x="167" y="-379.57" font-family="Helvetica,sans-Serif" font-size="10.00" fill="#3182bd">Yes</text>
</g>
<!-- n27 -->
<g id="node28" class="node">
<title>n27</title>
<ellipse fill="#eff3ff" stroke="#bdd7e7" cx="594" cy="-264.36" rx="155.28" ry="18"/>
<text text-anchor="middle" x="594" y="-260.96" font-family="Helvetica,sans-Serif" font-size="13.00" fill="#2171b5">Mark Auto TP amplitude as passed</text>
</g>
<!-- n26&#45;&gt;n27 -->
<g id="edge30" class="edge">
<title>n26&#45;&gt;n27</title>
<path fill="none" stroke="#9ecae1" d="M754.63,-357.37C718.72,-336.8 667.12,-307.24 632.17,-287.22"/>
<polygon fill="#9ecae1" stroke="#9ecae1" points="633.64,-284.03 623.22,-282.1 630.16,-290.1 633.64,-284.03"/>
<text text-anchor="middle" x="710" y="-320.71" font-family="Helvetica,sans-Serif" font-size="10.00" fill="#3182bd">Yes</text>
</g>
<!-- n28 -->
<g id="node29" class="node">
<title>n28</title>
<ellipse fill="#eff3ff" stroke="#bdd7e7" cx="893" cy="-264.36" rx="125.91" ry="18"/>
<text text-anchor="middle" x="893" y="-260.96" font-family="Helvetica,sans-Serif" font-size="13.00" fill="#2171b5">Calculate new IC amplitude</text>
</g>
<!-- n26&#45;&gt;n28 -->
<g id="edge31" class="edge">
<title>n26&#45;&gt;n28</title>
<path fill="none" stroke="#9ecae1" d="M816.33,-356.81C832.74,-337.24 855.73,-309.82 872.24,-290.12"/>
<polygon fill="#9ecae1" stroke="#9ecae1" points="874.93,-292.36 878.67,-282.45 869.56,-287.87 874.93,-292.36"/>
<text text-anchor="middle" x="854" y="-320.71" font-family="Helvetica,sans-Serif" font-size="10.00" fill="#3182bd">No</text>
</g>
<!-- n24&#45;&gt;n25 -->
<g id="edge32" class="edge">
<title>n24&#45;&gt;n25</title>
<path fill="none" stroke="#9ecae1" d="M359.12,-347.29C340.1,-333.86 318.09,-318.33 298.38,-304.43"/>
<polygon fill="#9ecae1" stroke="#9ecae1" points="300.28,-301.48 290.09,-298.58 296.24,-307.2 300.28,-301.48"/>
</g>
<!-- n25&#45;&gt;n17 -->
<g id="edge33" class="edge">
<title>n25&#45;&gt;n17</title>
<path fill="none" stroke="#9ecae1" d="M243,-228.94C243,-220.08 243,-210.67 243,-202.24"/>
<polygon fill="#9ecae1" stroke="#9ecae1" points="246.5,-202.18 243,-192.18 239.5,-202.18 246.5,-202.18"/>
</g>
<!-- n29 -->
<g id="node30" class="node">
<title>n29</title>
<ellipse fill="#eff3ff" stroke="#bdd7e7" cx="893" cy="-174" rx="131.28" ry="18"/>
<text text-anchor="middle" x="893" y="-170.6" font-family="Helvetica,sans-Serif" font-size="13.00" fill="#2171b5">Is the IC amplitude in range?</text>
</g>
<!-- n28&#45;&gt;n29 -->
<g id="edge34" class="edge">
<title>n28&#45;&gt;n29</title>
<path fill="none" stroke="#9ecae1" d="M893,-246.32C893,-233.93 893,-216.9 893,-202.58"/>
<polygon fill="#9ecae1" stroke="#9ecae1" points="896.5,-202.28 893,-192.28 889.5,-202.29 896.5,-202.28"/>
</g>
<!-- n29&#45;&gt;n11 -->
<g id="edge35" class="edge">
<title>n29&#45;&gt;n11</title>
<path fill="none" stroke="#9ecae1" d="M893,-155.82C893,-145.19 893,-131.31 893,-119.2"/>
<polygon fill="#9ecae1" stroke="#9ecae1" points="896.5,-119.15 893,-109.15 889.5,-119.15 896.5,-119.15"/>
<text text-anchor="middle" x="901" y="-130" font-family="Helvetica,sans-Serif" font-size="10.00" fill="#3182bd">Yes</text>
</g>
<!-- n32&#45;&gt;n33 -->
<g id="edge38" class="edge">
<title>n32&#45;&gt;n33</title>
<path fill="none" stroke="#9ecae1" d="M1042.19,-1481.64C1029.82,-1468.3 1012.47,-1449.57 998.63,-1434.65"/>
<polygon fill="#9ecae1" stroke="#9ecae1" points="1001.13,-1432.19 991.76,-1427.24 995.99,-1436.95 1001.13,-1432.19"/>
<text text-anchor="middle" x="1032" y="-1455.69" font-family="Helvetica,sans-Serif" font-size="10.00" fill="#3182bd">Yes</text>
</g>
<!-- n31 -->
<g id="node33" class="node">
<title>n31</title>
<ellipse fill="#eff3ff" stroke="#bdd7e7" cx="976" cy="-1311.32" rx="159.61" ry="25.41"/>
<text text-anchor="middle" x="976" y="-1314.92" font-family="Helvetica,sans-Serif" font-size="13.00" fill="#2171b5">Store result in the labnotebook</text>
<text text-anchor="middle" x="976" y="-1300.92" font-family="Helvetica,sans-Serif" font-size="13.00" fill="#2171b5"> and send out zeromq message</text>
</g>
<!-- n33&#45;&gt;n31 -->
<g id="edge39" class="edge">
<title>n33&#45;&gt;n31</title>
<path fill="none" stroke="#9ecae1" d="M976,-1391.09C976,-1378.83 976,-1361.91 976,-1346.9"/>
<polygon fill="#9ecae1" stroke="#9ecae1" points="979.5,-1346.89 976,-1336.89 972.5,-1346.89 979.5,-1346.89"/>
</g>
</g>
</svg>
