<?xml version="1.0" encoding="UTF-8" standalone="no"?>
<!DOCTYPE svg PUBLIC "-//W3C//DTD SVG 1.1//EN"
 "http://www.w3.org/Graphics/SVG/1.1/DTD/svg11.dtd">
<!-- Generated by graphviz version 2.43.0 (0)
 -->
<!-- Title: G Pages: 1 -->
<svg width="2083pt" height="943pt"
 viewBox="0.00 0.00 2082.87 943.33" xmlns="http://www.w3.org/2000/svg" xmlns:xlink="http://www.w3.org/1999/xlink">
<g id="graph0" class="graph" transform="scale(1 1) rotate(0) translate(4 939.33)">
<title>G</title>
<polygon fill="white" stroke="transparent" points="-4,4 -4,-939.33 2078.87,-939.33 2078.87,4 -4,4"/>
<!-- Start DAQ/RA (only call for last active headstage) -->
<g id="node1" class="node">
<title>Start DAQ/RA (only call for last active headstage)</title>
<ellipse fill="#eff3ff" stroke="#bdd7e7" cx="694.43" cy="-917.33" rx="217.86" ry="18"/>
<text text-anchor="middle" x="694.43" y="-913.93" font-family="Helvetica,sans-Serif" font-size="13.00" fill="#2171b5">Start DAQ/RA (only call for last active headstage)</text>
</g>
<!-- Post DAQ Event -->
<g id="node2" class="node">
<title>Post DAQ Event</title>
<ellipse fill="#eff3ff" stroke="#bdd7e7" cx="261.43" cy="-844.33" rx="75.6" ry="18"/>
<text text-anchor="middle" x="261.43" y="-840.93" font-family="Helvetica,sans-Serif" font-size="13.00" fill="#2171b5">Post DAQ Event</text>
</g>
<!-- Start DAQ/RA (only call for last active headstage)&#45;&gt;Post DAQ Event -->
<g id="edge1" class="edge">
<title>Start DAQ/RA (only call for last active headstage)&#45;&gt;Post DAQ Event</title>
<path fill="none" stroke="#9ecae1" d="M601.28,-901.06C520.45,-887.8 405.19,-868.91 331.86,-856.88"/>
<polygon fill="#9ecae1" stroke="#9ecae1" points="332.23,-853.39 321.79,-855.23 331.1,-860.3 332.23,-853.39"/>
</g>
<!-- Prepare DAQ -->
<g id="node3" class="node">
<title>Prepare DAQ</title>
<ellipse fill="#eff3ff" stroke="#bdd7e7" cx="503.43" cy="-844.33" rx="63.6" ry="18"/>
<text text-anchor="middle" x="503.43" y="-840.93" font-family="Helvetica,sans-Serif" font-size="13.00" fill="#2171b5">Prepare DAQ</text>
</g>
<!-- Start DAQ/RA (only call for last active headstage)&#45;&gt;Prepare DAQ -->
<g id="edge2" class="edge">
<title>Start DAQ/RA (only call for last active headstage)&#45;&gt;Prepare DAQ</title>
<path fill="none" stroke="#9ecae1" d="M649.65,-899.69C619.71,-888.55 580.38,-873.94 550.06,-862.67"/>
<polygon fill="#9ecae1" stroke="#9ecae1" points="551.15,-859.34 540.56,-859.13 548.71,-865.9 551.15,-859.34"/>
</g>
<!-- Pre Set Event -->
<g id="node4" class="node">
<title>Pre Set Event</title>
<ellipse fill="#eff3ff" stroke="#bdd7e7" cx="694.43" cy="-844.33" rx="66.92" ry="18"/>
<text text-anchor="middle" x="694.43" y="-840.93" font-family="Helvetica,sans-Serif" font-size="13.00" fill="#2171b5">Pre Set Event</text>
</g>
<!-- Start DAQ/RA (only call for last active headstage)&#45;&gt;Pre Set Event -->
<g id="edge3" class="edge">
<title>Start DAQ/RA (only call for last active headstage)&#45;&gt;Pre Set Event</title>
<path fill="none" stroke="#9ecae1" d="M694.43,-899.15C694.43,-891.12 694.43,-881.38 694.43,-872.4"/>
<polygon fill="#9ecae1" stroke="#9ecae1" points="697.93,-872.36 694.43,-862.36 690.93,-872.36 697.93,-872.36"/>
</g>
<!-- Post Sweep Event -->
<g id="node5" class="node">
<title>Post Sweep Event</title>
<ellipse fill="#eff3ff" stroke="#bdd7e7" cx="877.43" cy="-844.33" rx="84.79" ry="18"/>
<text text-anchor="middle" x="877.43" y="-840.93" font-family="Helvetica,sans-Serif" font-size="13.00" fill="#2171b5">Post Sweep Event</text>
</g>
<!-- Start DAQ/RA (only call for last active headstage)&#45;&gt;Post Sweep Event -->
<g id="edge4" class="edge">
<title>Start DAQ/RA (only call for last active headstage)&#45;&gt;Post Sweep Event</title>
<path fill="none" stroke="#9ecae1" d="M737.8,-899.51C765.34,-888.82 801.01,-874.98 829.41,-863.97"/>
<polygon fill="#9ecae1" stroke="#9ecae1" points="830.68,-867.23 838.73,-860.35 828.14,-860.7 830.68,-867.23"/>
</g>
<!-- Post Set Event -->
<g id="node6" class="node">
<title>Post Set Event</title>
<ellipse fill="#eff3ff" stroke="#bdd7e7" cx="1058.43" cy="-844.33" rx="71.26" ry="18"/>
<text text-anchor="middle" x="1058.43" y="-840.93" font-family="Helvetica,sans-Serif" font-size="13.00" fill="#2171b5">Post Set Event</text>
</g>
<!-- Start DAQ/RA (only call for last active headstage)&#45;&gt;Post Set Event -->
<g id="edge5" class="edge">
<title>Start DAQ/RA (only call for last active headstage)&#45;&gt;Post Set Event</title>
<path fill="none" stroke="#9ecae1" d="M775.34,-900.57C830.58,-889.81 905.43,-875.21 971.43,-862.33 978.68,-860.92 986.27,-859.44 993.81,-857.96"/>
<polygon fill="#9ecae1" stroke="#9ecae1" points="994.53,-861.39 1003.67,-856.04 993.19,-854.52 994.53,-861.39"/>
</g>
<!-- n38 -->
<g id="node7" class="node">
<title>n38</title>
<ellipse fill="#eff3ff" stroke="#bdd7e7" cx="88.43" cy="-753.98" rx="88.37" ry="18"/>
<text text-anchor="middle" x="88.43" y="-750.58" font-family="Helvetica,sans-Serif" font-size="13.00" fill="#2171b5">Update Dashboard</text>
</g>
<!-- Post DAQ Event&#45;&gt;n38 -->
<g id="edge6" class="edge">
<title>Post DAQ Event&#45;&gt;n38</title>
<path fill="none" stroke="#9ecae1" d="M230.9,-827.74C202.51,-813.24 160.01,-791.54 128.82,-775.61"/>
<polygon fill="#9ecae1" stroke="#9ecae1" points="130.03,-772.29 119.53,-770.86 126.85,-778.53 130.03,-772.29"/>
</g>
<!-- Enable &quot;Multidevice DAQ&quot; -->
<g id="node8" class="node">
<title>Enable &quot;Multidevice DAQ&quot;</title>
<ellipse fill="#eff3ff" stroke="#bdd7e7" cx="313.43" cy="-753.98" rx="118.51" ry="18"/>
<text text-anchor="middle" x="313.43" y="-750.58" font-family="Helvetica,sans-Serif" font-size="13.00" fill="#2171b5">Enable &quot;Multidevice DAQ&quot;</text>
</g>
<!-- Prepare DAQ&#45;&gt;Enable &quot;Multidevice DAQ&quot; -->
<g id="edge7" class="edge">
<title>Prepare DAQ&#45;&gt;Enable &quot;Multidevice DAQ&quot;</title>
<path fill="none" stroke="#9ecae1" d="M471.63,-828.54C440.54,-814.09 392.92,-791.94 358.04,-775.72"/>
<polygon fill="#9ecae1" stroke="#9ecae1" points="359.11,-772.36 348.57,-771.32 356.16,-778.71 359.11,-772.36"/>
</g>
<!-- Enable &quot;Autobias&quot; -->
<g id="node9" class="node">
<title>Enable &quot;Autobias&quot;</title>
<ellipse fill="#eff3ff" stroke="#bdd7e7" cx="536.43" cy="-753.98" rx="85.82" ry="18"/>
<text text-anchor="middle" x="536.43" y="-750.58" font-family="Helvetica,sans-Serif" font-size="13.00" fill="#2171b5">Enable &quot;Autobias&quot;</text>
</g>
<!-- Pre Set Event&#45;&gt;Enable &quot;Autobias&quot; -->
<g id="edge8" class="edge">
<title>Pre Set Event&#45;&gt;Enable &quot;Autobias&quot;</title>
<path fill="none" stroke="#9ecae1" d="M666.55,-827.74C640.81,-813.35 602.38,-791.86 573.96,-775.96"/>
<polygon fill="#9ecae1" stroke="#9ecae1" points="575.54,-772.84 565.11,-771.01 572.13,-778.95 575.54,-772.84"/>
</g>
<!-- Set next DAScale value,\nuse the analysis parameter values as offset\nonto the earlier FastRheoEstimate guess -->
<g id="node10" class="node">
<title>Set next DAScale value,\nuse the analysis parameter values as offset\nonto the earlier FastRheoEstimate guess</title>
<ellipse fill="#eff3ff" stroke="#bdd7e7" cx="857.43" cy="-753.98" rx="217.16" ry="35.21"/>
<text text-anchor="middle" x="857.43" y="-764.58" font-family="Helvetica,sans-Serif" font-size="13.00" fill="#2171b5">Set next DAScale value,</text>
<text text-anchor="middle" x="857.43" y="-750.58" font-family="Helvetica,sans-Serif" font-size="13.00" fill="#2171b5">use the analysis parameter values as offset</text>
<text text-anchor="middle" x="857.43" y="-736.58" font-family="Helvetica,sans-Serif" font-size="13.00" fill="#2171b5">onto the earlier FastRheoEstimate guess</text>
</g>
<!-- Pre Set Event&#45;&gt;Set next DAScale value,\nuse the analysis parameter values as offset\nonto the earlier FastRheoEstimate guess -->
<g id="edge9" class="edge">
<title>Pre Set Event&#45;&gt;Set next DAScale value,\nuse the analysis parameter values as offset\nonto the earlier FastRheoEstimate guess</title>
<path fill="none" stroke="#9ecae1" d="M722.83,-827.94C740.78,-818.21 764.83,-805.17 787.63,-792.81"/>
<polygon fill="#9ecae1" stroke="#9ecae1" points="789.51,-795.78 796.63,-787.94 786.17,-789.63 789.51,-795.78"/>
</g>
<!-- n32 -->
<g id="node11" class="node">
<title>n32</title>
<ellipse fill="#eff3ff" stroke="#bdd7e7" cx="1266.43" cy="-753.98" rx="173.9" ry="35.21"/>
<text text-anchor="middle" x="1266.43" y="-764.58" font-family="Helvetica,sans-Serif" font-size="13.00" fill="#2171b5">Check if setting the DAScale value</text>
<text text-anchor="middle" x="1266.43" y="-750.58" font-family="Helvetica,sans-Serif" font-size="13.00" fill="#2171b5"> for the next sweep</text>
<text text-anchor="middle" x="1266.43" y="-736.58" font-family="Helvetica,sans-Serif" font-size="13.00" fill="#2171b5"> would be out of range</text>
</g>
<!-- Post Sweep Event&#45;&gt;n32 -->
<g id="edge10" class="edge">
<title>Post Sweep Event&#45;&gt;n32</title>
<path fill="none" stroke="#9ecae1" d="M933.17,-830.67C987.64,-818.3 1072.42,-799.04 1142.84,-783.05"/>
<polygon fill="#9ecae1" stroke="#9ecae1" points="1143.7,-786.45 1152.67,-780.82 1142.14,-779.62 1143.7,-786.45"/>
</g>
<!-- Read active headstages from labnotebook\nand turn them all on again -->
<g id="node12" class="node">
<title>Read active headstages from labnotebook\nand turn them all on again</title>
<ellipse fill="#eff3ff" stroke="#bdd7e7" cx="1770.43" cy="-753.98" rx="210.94" ry="25.41"/>
<text text-anchor="middle" x="1770.43" y="-757.58" font-family="Helvetica,sans-Serif" font-size="13.00" fill="#2171b5">Read active headstages from labnotebook</text>
<text text-anchor="middle" x="1770.43" y="-743.58" font-family="Helvetica,sans-Serif" font-size="13.00" fill="#2171b5">and turn them all on again</text>
</g>
<!-- Post Set Event&#45;&gt;Read active headstages from labnotebook\nand turn them all on again -->
<g id="edge11" class="edge">
<title>Post Set Event&#45;&gt;Read active headstages from labnotebook\nand turn them all on again</title>
<path fill="none" stroke="#9ecae1" d="M1121,-835.57C1231.15,-821.9 1462.69,-793.17 1617.41,-773.97"/>
<polygon fill="#9ecae1" stroke="#9ecae1" points="1618,-777.42 1627.49,-772.72 1617.14,-770.47 1618,-777.42"/>
</g>
<!-- Enable &quot;Repeated Acquisition&quot; -->
<g id="node13" class="node">
<title>Enable &quot;Repeated Acquisition&quot;</title>
<ellipse fill="#eff3ff" stroke="#bdd7e7" cx="285.43" cy="-653.62" rx="137.91" ry="18"/>
<text text-anchor="middle" x="285.43" y="-650.22" font-family="Helvetica,sans-Serif" font-size="13.00" fill="#2171b5">Enable &quot;Repeated Acquisition&quot;</text>
</g>
<!-- Enable &quot;Multidevice DAQ&quot;&#45;&gt;Enable &quot;Repeated Acquisition&quot; -->
<g id="edge12" class="edge">
<title>Enable &quot;Multidevice DAQ&quot;&#45;&gt;Enable &quot;Repeated Acquisition&quot;</title>
<path fill="none" stroke="#9ecae1" d="M308.56,-735.85C304.33,-720.99 298.13,-699.22 293.22,-681.95"/>
<polygon fill="#9ecae1" stroke="#9ecae1" points="296.45,-680.55 290.35,-671.89 289.72,-682.46 296.45,-680.55"/>
</g>
<!-- Enable &quot;Insert TP&quot; -->
<g id="node14" class="node">
<title>Enable &quot;Insert TP&quot;</title>
<ellipse fill="#eff3ff" stroke="#bdd7e7" cx="536.43" cy="-653.62" rx="85.82" ry="18"/>
<text text-anchor="middle" x="536.43" y="-650.22" font-family="Helvetica,sans-Serif" font-size="13.00" fill="#2171b5">Enable &quot;Insert TP&quot;</text>
</g>
<!-- Enable &quot;Autobias&quot;&#45;&gt;Enable &quot;Insert TP&quot; -->
<g id="edge13" class="edge">
<title>Enable &quot;Autobias&quot;&#45;&gt;Enable &quot;Insert TP&quot;</title>
<path fill="none" stroke="#9ecae1" d="M536.43,-735.85C536.43,-720.99 536.43,-699.22 536.43,-681.95"/>
<polygon fill="#9ecae1" stroke="#9ecae1" points="539.93,-681.89 536.43,-671.89 532.93,-681.89 539.93,-681.89"/>
</g>
<!-- n33 -->
<g id="node34" class="node">
<title>n33</title>
<ellipse fill="#eff3ff" stroke="#bdd7e7" cx="1108.43" cy="-653.62" rx="61.81" ry="18"/>
<text text-anchor="middle" x="1108.43" y="-650.22" font-family="Helvetica,sans-Serif" font-size="13.00" fill="#2171b5">Set DAScale</text>
</g>
<!-- n32&#45;&gt;n33 -->
<g id="edge34" class="edge">
<title>n32&#45;&gt;n33</title>
<path fill="none" stroke="#9ecae1" d="M1213.82,-720.23C1190.1,-705.46 1162.79,-688.46 1141.92,-675.47"/>
<polygon fill="#9ecae1" stroke="#9ecae1" points="1143.74,-672.47 1133.4,-670.16 1140.04,-678.42 1143.74,-672.47"/>
<text text-anchor="middle" x="1185.43" y="-692.62" font-family="Helvetica,sans-Serif" font-size="10.00" fill="#3182bd">No</text>
</g>
<!-- n35 -->
<g id="node35" class="node">
<title>n35</title>
<ellipse fill="#eff3ff" stroke="#bdd7e7" cx="1398.43" cy="-653.62" rx="195.38" ry="18"/>
<text text-anchor="middle" x="1398.43" y="-650.22" font-family="Helvetica,sans-Serif" font-size="13.00" fill="#2171b5">Mark headstage as failed, others as passing</text>
</g>
<!-- n32&#45;&gt;n35 -->
<g id="edge35" class="edge">
<title>n32&#45;&gt;n35</title>
<path fill="none" stroke="#9ecae1" d="M1311.12,-719.68C1329.59,-705.92 1350.56,-690.3 1367.32,-677.81"/>
<polygon fill="#9ecae1" stroke="#9ecae1" points="1369.73,-680.37 1375.66,-671.59 1365.55,-674.76 1369.73,-680.37"/>
<text text-anchor="middle" x="1356.43" y="-692.62" font-family="Helvetica,sans-Serif" font-size="10.00" fill="#3182bd">Yes</text>
</g>
<!-- Mark set as passed -->
<g id="node17" class="node">
<title>Mark set as passed</title>
<ellipse fill="#eff3ff" stroke="#bdd7e7" cx="1770.43" cy="-653.62" rx="109.82" ry="18"/>
<text text-anchor="middle" x="1770.43" y="-650.22" font-family="Helvetica,sans-Serif" font-size="13.00" fill="#2171b5">Are all sweeps passing?</text>
</g>
<!-- Read active headstages from labnotebook\nand turn them all on again&#45;&gt;Mark set as passed -->
<g id="edge15" class="edge">
<title>Read active headstages from labnotebook\nand turn them all on again&#45;&gt;Mark set as passed</title>
<path fill="none" stroke="#9ecae1" d="M1770.43,-728.41C1770.43,-714.36 1770.43,-696.69 1770.43,-682.16"/>
<polygon fill="#9ecae1" stroke="#9ecae1" points="1773.93,-681.78 1770.43,-671.78 1766.93,-681.78 1773.93,-681.78"/>
</g>
<!-- Update Dashboard -->
<g id="node18" class="node">
<title>Update Dashboard</title>
<ellipse fill="#eff3ff" stroke="#bdd7e7" cx="1986.43" cy="-653.62" rx="88.37" ry="18"/>
<text text-anchor="middle" x="1986.43" y="-650.22" font-family="Helvetica,sans-Serif" font-size="13.00" fill="#2171b5">Update Dashboard</text>
</g>
<!-- Read active headstages from labnotebook\nand turn them all on again&#45;&gt;Update Dashboard -->
<g id="edge16" class="edge">
<title>Read active headstages from labnotebook\nand turn them all on again&#45;&gt;Update Dashboard</title>
<path fill="none" stroke="#9ecae1" d="M1822.45,-729.29C1859.19,-712.56 1907.88,-690.39 1942.64,-674.56"/>
<polygon fill="#9ecae1" stroke="#9ecae1" points="1944.4,-677.61 1952.05,-670.28 1941.5,-671.24 1944.4,-677.61"/>
</g>
<!-- n29 -->
<g id="node19" class="node">
<title>n29</title>
<ellipse fill="#eff3ff" stroke="#bdd7e7" cx="229.43" cy="-516.62" rx="132.04" ry="18"/>
<text text-anchor="middle" x="229.43" y="-513.22" font-family="Helvetica,sans-Serif" font-size="13.00" fill="#2171b5">&quot;Unlocked Indexing&quot; is active</text>
</g>
<!-- Enable &quot;Repeated Acquisition&quot;&#45;&gt;n29 -->
<g id="edge17" class="edge">
<title>Enable &quot;Repeated Acquisition&quot;&#45;&gt;n29</title>
<path fill="none" stroke="#9ecae1" d="M278.34,-635.52C268.8,-612.52 251.73,-571.38 240.5,-544.29"/>
<polygon fill="#9ecae1" stroke="#9ecae1" points="243.71,-542.9 236.65,-535.01 237.25,-545.59 243.71,-542.9"/>
</g>
<!-- Enable &quot;TP during ITI&quot; -->
<g id="node20" class="node">
<title>Enable &quot;TP during ITI&quot;</title>
<ellipse fill="#eff3ff" stroke="#bdd7e7" cx="455.43" cy="-570.62" rx="101.9" ry="18"/>
<text text-anchor="middle" x="455.43" y="-567.22" font-family="Helvetica,sans-Serif" font-size="13.00" fill="#2171b5">Enable &quot;TP during ITI&quot;</text>
</g>
<!-- Enable &quot;Insert TP&quot;&#45;&gt;Enable &quot;TP during ITI&quot; -->
<g id="edge18" class="edge">
<title>Enable &quot;Insert TP&quot;&#45;&gt;Enable &quot;TP during ITI&quot;</title>
<path fill="none" stroke="#9ecae1" d="M519.65,-635.84C508.03,-624.22 492.39,-608.58 479.45,-595.64"/>
<polygon fill="#9ecae1" stroke="#9ecae1" points="481.74,-592.98 472.2,-588.38 476.79,-597.93 481.74,-592.98"/>
</g>
<!-- Force Sampling Multiplier to 1 -->
<g id="node21" class="node">
<title>Force Sampling Multiplier to 1</title>
<ellipse fill="#eff3ff" stroke="#bdd7e7" cx="718.43" cy="-570.62" rx="135.62" ry="18"/>
<text text-anchor="middle" x="718.43" y="-567.22" font-family="Helvetica,sans-Serif" font-size="13.00" fill="#2171b5">Force Sampling Multiplier to 1</text>
</g>
<!-- Enable &quot;Insert TP&quot;&#45;&gt;Force Sampling Multiplier to 1 -->
<g id="edge19" class="edge">
<title>Enable &quot;Insert TP&quot;&#45;&gt;Force Sampling Multiplier to 1</title>
<path fill="none" stroke="#9ecae1" d="M571.53,-637C600.17,-624.26 640.88,-606.14 672.19,-592.2"/>
<polygon fill="#9ecae1" stroke="#9ecae1" points="673.86,-595.29 681.58,-588.03 671.02,-588.89 673.86,-595.29"/>
</g>
<!-- Mark all active headstages as passed -->
<g id="node15" class="node">
<title>Mark all active headstages as passed</title>
<ellipse fill="#eff3ff" stroke="#bdd7e7" cx="1063.43" cy="-570.62" rx="168.05" ry="18"/>
<text text-anchor="middle" x="1063.43" y="-567.22" font-family="Helvetica,sans-Serif" font-size="13.00" fill="#2171b5">Mark all active headstages as passed</text>
</g>
<!-- Mark Sweep as passed -->
<g id="node16" class="node">
<title>Mark Sweep as passed</title>
<ellipse fill="#eff3ff" stroke="#bdd7e7" cx="1070.43" cy="-462.62" rx="105.48" ry="18"/>
<text text-anchor="middle" x="1070.43" y="-459.22" font-family="Helvetica,sans-Serif" font-size="13.00" fill="#2171b5">Mark Sweep as passed</text>
</g>
<!-- Mark all active headstages as passed&#45;&gt;Mark Sweep as passed -->
<g id="edge14" class="edge">
<title>Mark all active headstages as passed&#45;&gt;Mark Sweep as passed</title>
<path fill="none" stroke="#9ecae1" d="M1064.56,-552.59C1065.65,-536 1067.34,-510.51 1068.62,-491.05"/>
<polygon fill="#9ecae1" stroke="#9ecae1" points="1072.12,-491.17 1069.29,-480.96 1065.14,-490.71 1072.12,-491.17"/>
</g>
<!-- n39 -->
<g id="node22" class="node">
<title>n39</title>
<ellipse fill="#eff3ff" stroke="#bdd7e7" cx="1770.43" cy="-570.62" rx="90.92" ry="18"/>
<text text-anchor="middle" x="1770.43" y="-567.22" font-family="Helvetica,sans-Serif" font-size="13.00" fill="#2171b5">Mark set as passed</text>
</g>
<!-- Mark set as passed&#45;&gt;n39 -->
<g id="edge20" class="edge">
<title>Mark set as passed&#45;&gt;n39</title>
<path fill="none" stroke="#9ecae1" d="M1770.43,-635.44C1770.43,-624.81 1770.43,-610.93 1770.43,-598.83"/>
<polygon fill="#9ecae1" stroke="#9ecae1" points="1773.93,-598.78 1770.43,-588.78 1766.93,-598.78 1773.93,-598.78"/>
<text text-anchor="middle" x="1778.43" y="-609.62" font-family="Helvetica,sans-Serif" font-size="10.00" fill="#3182bd">Yes</text>
</g>
<!-- n40 -->
<g id="node23" class="node">
<title>n40</title>
<ellipse fill="#eff3ff" stroke="#bdd7e7" cx="1964.43" cy="-570.62" rx="84.79" ry="18"/>
<text text-anchor="middle" x="1964.43" y="-567.22" font-family="Helvetica,sans-Serif" font-size="13.00" fill="#2171b5">Mark set as failed</text>
</g>
<!-- Mark set as passed&#45;&gt;n40 -->
<g id="edge21" class="edge">
<title>Mark set as passed&#45;&gt;n40</title>
<path fill="none" stroke="#9ecae1" d="M1808.76,-636.62C1840.22,-623.48 1884.87,-604.84 1918.28,-590.89"/>
<polygon fill="#9ecae1" stroke="#9ecae1" points="1919.95,-593.99 1927.83,-586.91 1917.25,-587.53 1919.95,-593.99"/>
<text text-anchor="middle" x="1886.43" y="-609.62" font-family="Helvetica,sans-Serif" font-size="10.00" fill="#3182bd">No</text>
</g>
<!-- Abort -->
<g id="node24" class="node">
<title>Abort</title>
<ellipse fill="#eff3ff" stroke="#bdd7e7" cx="174.43" cy="-18" rx="33.46" ry="18"/>
<text text-anchor="middle" x="174.43" y="-14.6" font-family="Helvetica,sans-Serif" font-size="13.00" fill="#2171b5">Abort</text>
</g>
<!-- n29&#45;&gt;Abort -->
<g id="edge22" class="edge">
<title>n29&#45;&gt;Abort</title>
<path fill="none" stroke="#9ecae1" d="M171.21,-500.37C136.23,-487.3 98.43,-464.43 98.43,-426.62 98.43,-426.62 98.43,-426.62 98.43,-100 98.43,-72.67 121.74,-50.77 142.53,-36.67"/>
<polygon fill="#9ecae1" stroke="#9ecae1" points="144.68,-39.45 151.22,-31.11 140.91,-33.55 144.68,-39.45"/>
<text text-anchor="middle" x="106.43" y="-296.77" font-family="Helvetica,sans-Serif" font-size="10.00" fill="#3182bd">Yes</text>
</g>
<!-- Valid Autobias voltage (finite and non&#45;zero) -->
<g id="node25" class="node">
<title>Valid Autobias voltage (finite and non&#45;zero)</title>
<ellipse fill="#eff3ff" stroke="#bdd7e7" cx="415.43" cy="-462.62" rx="192.82" ry="18"/>
<text text-anchor="middle" x="415.43" y="-459.22" font-family="Helvetica,sans-Serif" font-size="13.00" fill="#2171b5">Valid Autobias voltage (finite and non&#45;zero)</text>
</g>
<!-- Enable &quot;TP during ITI&quot;&#45;&gt;Valid Autobias voltage (finite and non&#45;zero) -->
<g id="edge23" class="edge">
<title>Enable &quot;TP during ITI&quot;&#45;&gt;Valid Autobias voltage (finite and non&#45;zero)</title>
<path fill="none" stroke="#9ecae1" d="M449.01,-552.59C442.69,-535.85 432.95,-510.03 425.58,-490.51"/>
<polygon fill="#9ecae1" stroke="#9ecae1" points="428.78,-489.08 421.98,-480.96 422.23,-491.55 428.78,-489.08"/>
</g>
<!-- Check if no TTL channels are active -->
<g id="node26" class="node">
<title>Check if no TTL channels are active</title>
<ellipse fill="#eff3ff" stroke="#bdd7e7" cx="786.43" cy="-462.62" rx="160.39" ry="18"/>
<text text-anchor="middle" x="786.43" y="-459.22" font-family="Helvetica,sans-Serif" font-size="13.00" fill="#2171b5">Check if no TTL channels are active</text>
</g>
<!-- Force Sampling Multiplier to 1&#45;&gt;Check if no TTL channels are active -->
<g id="edge24" class="edge">
<title>Force Sampling Multiplier to 1&#45;&gt;Check if no TTL channels are active</title>
<path fill="none" stroke="#9ecae1" d="M729.36,-552.59C740.36,-535.44 757.47,-508.77 770.09,-489.1"/>
<polygon fill="#9ecae1" stroke="#9ecae1" points="773.08,-490.92 775.54,-480.61 767.19,-487.14 773.08,-490.92"/>
</g>
<!-- Enable &quot;dDAQ&quot; -->
<g id="node27" class="node">
<title>Enable &quot;dDAQ&quot;</title>
<ellipse fill="#eff3ff" stroke="#bdd7e7" cx="415.43" cy="-389.62" rx="83.26" ry="18"/>
<text text-anchor="middle" x="415.43" y="-386.22" font-family="Helvetica,sans-Serif" font-size="13.00" fill="#2171b5">Enable &quot;oodDAQ&quot;</text>
</g>
<!-- Valid Autobias voltage (finite and non&#45;zero)&#45;&gt;Enable &quot;dDAQ&quot; -->
<g id="edge25" class="edge">
<title>Valid Autobias voltage (finite and non&#45;zero)&#45;&gt;Enable &quot;dDAQ&quot;</title>
<path fill="none" stroke="#9ecae1" d="M415.43,-444.44C415.43,-436.41 415.43,-426.67 415.43,-417.69"/>
<polygon fill="#9ecae1" stroke="#9ecae1" points="418.93,-417.65 415.43,-407.65 411.93,-417.65 418.93,-417.65"/>
</g>
<!-- Store active headstages in labnotebook -->
<g id="node28" class="node">
<title>Store active headstages in labnotebook</title>
<ellipse fill="#eff3ff" stroke="#bdd7e7" cx="940.43" cy="-389.62" rx="177.5" ry="18"/>
<text text-anchor="middle" x="940.43" y="-386.22" font-family="Helvetica,sans-Serif" font-size="13.00" fill="#2171b5">Store active headstages in labnotebook</text>
</g>
<!-- Check if no TTL channels are active&#45;&gt;Store active headstages in labnotebook -->
<g id="edge26" class="edge">
<title>Check if no TTL channels are active&#45;&gt;Store active headstages in labnotebook</title>
<path fill="none" stroke="#9ecae1" d="M822.54,-444.98C844.18,-435 871.9,-422.22 895.02,-411.56"/>
<polygon fill="#9ecae1" stroke="#9ecae1" points="896.67,-414.65 904.29,-407.29 893.74,-408.3 896.67,-414.65"/>
</g>
<!-- Look for an existing and passing FastRheoEstimate sweep\n within a passing set and\n a pulse duration of more than 500ms -->
<g id="node29" class="node">
<title>Look for an existing and passing FastRheoEstimate sweep\n within a passing set and\n a pulse duration of more than 500ms</title>
<ellipse fill="#eff3ff" stroke="#bdd7e7" cx="415.43" cy="-299.27" rx="282.69" ry="35.21"/>
<text text-anchor="middle" x="415.43" y="-309.87" font-family="Helvetica,sans-Serif" font-size="13.00" fill="#2171b5">Look for an existing and passing FastRheoEstimate sweep</text>
<text text-anchor="middle" x="415.43" y="-295.87" font-family="Helvetica,sans-Serif" font-size="13.00" fill="#2171b5"> within a passing set and</text>
<text text-anchor="middle" x="415.43" y="-281.87" font-family="Helvetica,sans-Serif" font-size="13.00" fill="#2171b5"> a pulse duration of more than 500ms</text>
</g>
<!-- Enable &quot;dDAQ&quot;&#45;&gt;Look for an existing and passing FastRheoEstimate sweep\n within a passing set and\n a pulse duration of more than 500ms -->
<g id="edge27" class="edge">
<title>Enable &quot;dDAQ&quot;&#45;&gt;Look for an existing and passing FastRheoEstimate sweep\n within a passing set and\n a pulse duration of more than 500ms</title>
<path fill="none" stroke="#9ecae1" d="M415.43,-371.59C415.43,-363.93 415.43,-354.49 415.43,-345.02"/>
<polygon fill="#9ecae1" stroke="#9ecae1" points="418.93,-344.81 415.43,-334.81 411.93,-344.81 418.93,-344.81"/>
</g>
<!-- Turn off active non&#45;IC headstages\nor headstages which have not passed FastRheoEstimate -->
<g id="node30" class="node">
<title>Turn off active non&#45;IC headstages\nor headstages which have not passed FastRheoEstimate</title>
<ellipse fill="#eff3ff" stroke="#bdd7e7" cx="992.43" cy="-299.27" rx="276.46" ry="25.41"/>
<text text-anchor="middle" x="992.43" y="-302.87" font-family="Helvetica,sans-Serif" font-size="13.00" fill="#2171b5">Turn off active non&#45;IC headstages</text>
<text text-anchor="middle" x="992.43" y="-288.87" font-family="Helvetica,sans-Serif" font-size="13.00" fill="#2171b5">or headstages which have not passed FastRheoEstimate</text>
</g>
<!-- Store active headstages in labnotebook&#45;&gt;Turn off active non&#45;IC headstages\nor headstages which have not passed FastRheoEstimate -->
<g id="edge28" class="edge">
<title>Store active headstages in labnotebook&#45;&gt;Turn off active non&#45;IC headstages\nor headstages which have not passed FastRheoEstimate</title>
<path fill="none" stroke="#9ecae1" d="M950.46,-371.59C956.79,-360.83 965.18,-346.57 972.8,-333.63"/>
<polygon fill="#9ecae1" stroke="#9ecae1" points="975.86,-335.33 977.92,-324.94 969.83,-331.78 975.86,-335.33"/>
</g>
<!-- Look for an existing and passing FastRheoEstimate sweep\n within a passing set and\n a pulse duration of more than 500ms&#45;&gt;Abort -->
<g id="edge29" class="edge">
<title>Look for an existing and passing FastRheoEstimate sweep\n within a passing set and\n a pulse duration of more than 500ms&#45;&gt;Abort</title>
<path fill="none" stroke="#9ecae1" d="M265.09,-269.22C237.49,-257.32 211.69,-240.55 193.43,-216.91 154.81,-166.9 161.71,-87.21 168.78,-45.86"/>
<polygon fill="#9ecae1" stroke="#9ecae1" points="172.23,-46.45 170.6,-35.98 165.34,-45.18 172.23,-46.45"/>
<text text-anchor="middle" x="190.93" y="-140" font-family="Helvetica,sans-Serif" font-size="10.00" fill="#3182bd">Not found</text>
</g>
<!-- Use the DAScale value of that sweep\n as offset to the DAScale values from the analysis parameters -->
<g id="node31" class="node">
<title>Use the DAScale value of that sweep\n as offset to the DAScale values from the analysis parameters</title>
<ellipse fill="#eff3ff" stroke="#bdd7e7" cx="505.43" cy="-191.46" rx="303.2" ry="25.41"/>
<text text-anchor="middle" x="505.43" y="-195.06" font-family="Helvetica,sans-Serif" font-size="13.00" fill="#2171b5">Use the DAScale value of that sweep</text>
<text text-anchor="middle" x="505.43" y="-181.06" font-family="Helvetica,sans-Serif" font-size="13.00" fill="#2171b5"> as offset to the DAScale values from the analysis parameters</text>
</g>
<!-- Look for an existing and passing FastRheoEstimate sweep\n within a passing set and\n a pulse duration of more than 500ms&#45;&gt;Use the DAScale value of that sweep\n as offset to the DAScale values from the analysis parameters -->
<g id="edge30" class="edge">
<title>Look for an existing and passing FastRheoEstimate sweep\n within a passing set and\n a pulse duration of more than 500ms&#45;&gt;Use the DAScale value of that sweep\n as offset to the DAScale values from the analysis parameters</title>
<path fill="none" stroke="#9ecae1" d="M444.66,-263.91C455.35,-251.34 467.41,-237.17 477.94,-224.78"/>
<polygon fill="#9ecae1" stroke="#9ecae1" points="480.81,-226.81 484.62,-216.93 475.47,-222.28 480.81,-226.81"/>
<text text-anchor="middle" x="484.43" y="-237.91" font-family="Helvetica,sans-Serif" font-size="10.00" fill="#3182bd">Found</text>
</g>
<!-- Check if there is at least\none active IC headstage -->
<g id="node32" class="node">
<title>Check if there is at least\none active IC headstage</title>
<ellipse fill="#eff3ff" stroke="#bdd7e7" cx="972.43" cy="-191.46" rx="126.64" ry="25.41"/>
<text text-anchor="middle" x="972.43" y="-195.06" font-family="Helvetica,sans-Serif" font-size="13.00" fill="#2171b5">Check if there is at least</text>
<text text-anchor="middle" x="972.43" y="-181.06" font-family="Helvetica,sans-Serif" font-size="13.00" fill="#2171b5">one active IC headstage</text>
</g>
<!-- Turn off active non&#45;IC headstages\nor headstages which have not passed FastRheoEstimate&#45;&gt;Check if there is at least\none active IC headstage -->
<g id="edge31" class="edge">
<title>Turn off active non&#45;IC headstages\nor headstages which have not passed FastRheoEstimate&#45;&gt;Check if there is at least\none active IC headstage</title>
<path fill="none" stroke="#9ecae1" d="M987.8,-273.73C985.19,-259.94 981.89,-242.5 979.02,-227.31"/>
<polygon fill="#9ecae1" stroke="#9ecae1" points="982.41,-226.41 977.12,-217.23 975.54,-227.71 982.41,-226.41"/>
</g>
<!-- All checks passed -->
<g id="node33" class="node">
<title>All checks passed</title>
<ellipse fill="#eff3ff" stroke="#bdd7e7" cx="629.43" cy="-101" rx="84.79" ry="18"/>
<text text-anchor="middle" x="629.43" y="-97.6" font-family="Helvetica,sans-Serif" font-size="13.00" fill="#2171b5">All checks passed</text>
</g>
<!-- Check if there is at least\none active IC headstage&#45;&gt;All checks passed -->
<g id="edge32" class="edge">
<title>Check if there is at least\none active IC headstage&#45;&gt;All checks passed</title>
<path fill="none" stroke="#9ecae1" d="M896.74,-170.93C834.82,-154.97 748.37,-132.67 690.74,-117.81"/>
<polygon fill="#9ecae1" stroke="#9ecae1" points="691.59,-114.41 681.03,-115.31 689.84,-121.19 691.59,-114.41"/>
</g>
<!-- All checks passed&#45;&gt;Abort -->
<g id="edge33" class="edge">
<title>All checks passed&#45;&gt;Abort</title>
<path fill="none" stroke="#9ecae1" d="M566.65,-88.82C472.16,-72 295.96,-40.63 215.91,-26.38"/>
<polygon fill="#9ecae1" stroke="#9ecae1" points="216.19,-22.88 205.73,-24.57 214.96,-29.77 216.19,-22.88"/>
<text text-anchor="middle" x="436.43" y="-57" font-family="Helvetica,sans-Serif" font-size="10.00" fill="#3182bd">No</text>
</g>
<!-- n33&#45;&gt;Mark all active headstages as passed -->
<g id="edge36" class="edge">
<title>n33&#45;&gt;Mark all active headstages as passed</title>
<path fill="none" stroke="#9ecae1" d="M1098.89,-635.44C1092.81,-624.49 1084.8,-610.08 1077.94,-597.73"/>
<polygon fill="#9ecae1" stroke="#9ecae1" points="1080.88,-595.82 1072.96,-588.78 1074.76,-599.22 1080.88,-595.82"/>
</g>
<!-- n36 -->
<g id="node36" class="node">
<title>n36</title>
<ellipse fill="#eff3ff" stroke="#bdd7e7" cx="1455.43" cy="-570.62" rx="205.85" ry="18"/>
<text text-anchor="middle" x="1455.43" y="-567.22" font-family="Helvetica,sans-Serif" font-size="13.00" fill="#2171b5">Add &quot;DAScale out of range&quot; labnotebook entry</text>
</g>
<!-- n35&#45;&gt;n36 -->
<g id="edge37" class="edge">
<title>n35&#45;&gt;n36</title>
<path fill="none" stroke="#9ecae1" d="M1410.52,-635.44C1418.38,-624.28 1428.77,-609.52 1437.57,-597.01"/>
<polygon fill="#9ecae1" stroke="#9ecae1" points="1440.47,-598.97 1443.36,-588.78 1434.75,-594.94 1440.47,-598.97"/>
</g>
<!-- n37 -->
<g id="node37" class="node">
<title>n37</title>
<ellipse fill="#eff3ff" stroke="#bdd7e7" cx="1455.43" cy="-462.62" rx="99.61" ry="18"/>
<text text-anchor="middle" x="1455.43" y="-459.22" font-family="Helvetica,sans-Serif" font-size="13.00" fill="#2171b5">Mark Sweep as failed</text>
</g>
<!-- n36&#45;&gt;n37 -->
<g id="edge38" class="edge">
<title>n36&#45;&gt;n37</title>
<path fill="none" stroke="#9ecae1" d="M1455.43,-552.59C1455.43,-536 1455.43,-510.51 1455.43,-491.05"/>
<polygon fill="#9ecae1" stroke="#9ecae1" points="1458.93,-490.96 1455.43,-480.96 1451.93,-490.96 1458.93,-490.96"/>
</g>
</g>
</svg>
