<?xml version="1.0" encoding="UTF-8" standalone="no"?>
<!DOCTYPE svg PUBLIC "-//W3C//DTD SVG 1.1//EN"
 "http://www.w3.org/Graphics/SVG/1.1/DTD/svg11.dtd">
<!-- Generated by graphviz version 2.43.0 (0)
 -->
<!-- Title: G Pages: 1 -->
<svg width="1876pt" height="923pt"
 viewBox="0.00 0.00 1876.15 923.33" xmlns="http://www.w3.org/2000/svg" xmlns:xlink="http://www.w3.org/1999/xlink">
<g id="graph0" class="graph" transform="scale(1 1) rotate(0) translate(4 919.33)">
<title>G</title>
<polygon fill="white" stroke="transparent" points="-4,4 -4,-919.33 1872.15,-919.33 1872.15,4 -4,4"/>
<!-- Start DAQ/RA (only call for last active headstage) -->
<g id="node1" class="node">
<title>Start DAQ/RA (only call for last active headstage)</title>
<ellipse fill="#eff3ff" stroke="#bdd7e7" cx="644.43" cy="-897.33" rx="217.86" ry="18"/>
<text text-anchor="middle" x="644.43" y="-893.93" font-family="Helvetica,sans-Serif" font-size="13.00" fill="#2171b5">Start DAQ/RA (only call for last active headstage)</text>
</g>
<!-- Post DAQ Event -->
<g id="node2" class="node">
<title>Post DAQ Event</title>
<ellipse fill="#eff3ff" stroke="#bdd7e7" cx="232.43" cy="-824.33" rx="75.6" ry="18"/>
<text text-anchor="middle" x="232.43" y="-820.93" font-family="Helvetica,sans-Serif" font-size="13.00" fill="#2171b5">Post DAQ Event</text>
</g>
<!-- Start DAQ/RA (only call for last active headstage)&#45;&gt;Post DAQ Event -->
<g id="edge1" class="edge">
<title>Start DAQ/RA (only call for last active headstage)&#45;&gt;Post DAQ Event</title>
<path fill="none" stroke="#9ecae1" d="M554.78,-880.88C478.86,-867.8 371.57,-849.31 302,-837.32"/>
<polygon fill="#9ecae1" stroke="#9ecae1" points="302.46,-833.85 292.01,-835.6 301.28,-840.75 302.46,-833.85"/>
</g>
<!-- Prepare DAQ -->
<g id="node3" class="node">
<title>Prepare DAQ</title>
<ellipse fill="#eff3ff" stroke="#bdd7e7" cx="460.43" cy="-824.33" rx="63.6" ry="18"/>
<text text-anchor="middle" x="460.43" y="-820.93" font-family="Helvetica,sans-Serif" font-size="13.00" fill="#2171b5">Prepare DAQ</text>
</g>
<!-- Start DAQ/RA (only call for last active headstage)&#45;&gt;Prepare DAQ -->
<g id="edge2" class="edge">
<title>Start DAQ/RA (only call for last active headstage)&#45;&gt;Prepare DAQ</title>
<path fill="none" stroke="#9ecae1" d="M601.29,-879.69C572.67,-868.64 535.14,-854.16 506.02,-842.92"/>
<polygon fill="#9ecae1" stroke="#9ecae1" points="507.09,-839.58 496.5,-839.25 504.57,-846.11 507.09,-839.58"/>
</g>
<!-- Pre Set Event -->
<g id="node4" class="node">
<title>Pre Set Event</title>
<ellipse fill="#eff3ff" stroke="#bdd7e7" cx="644.43" cy="-824.33" rx="66.92" ry="18"/>
<text text-anchor="middle" x="644.43" y="-820.93" font-family="Helvetica,sans-Serif" font-size="13.00" fill="#2171b5">Pre Set Event</text>
</g>
<!-- Start DAQ/RA (only call for last active headstage)&#45;&gt;Pre Set Event -->
<g id="edge3" class="edge">
<title>Start DAQ/RA (only call for last active headstage)&#45;&gt;Pre Set Event</title>
<path fill="none" stroke="#9ecae1" d="M644.43,-879.15C644.43,-871.12 644.43,-861.38 644.43,-852.4"/>
<polygon fill="#9ecae1" stroke="#9ecae1" points="647.93,-852.36 644.43,-842.36 640.93,-852.36 647.93,-852.36"/>
</g>
<!-- Post Sweep Event -->
<g id="node5" class="node">
<title>Post Sweep Event</title>
<ellipse fill="#eff3ff" stroke="#bdd7e7" cx="857.43" cy="-824.33" rx="84.79" ry="18"/>
<text text-anchor="middle" x="857.43" y="-820.93" font-family="Helvetica,sans-Serif" font-size="13.00" fill="#2171b5">Post Sweep Event</text>
</g>
<!-- Start DAQ/RA (only call for last active headstage)&#45;&gt;Post Sweep Event -->
<g id="edge4" class="edge">
<title>Start DAQ/RA (only call for last active headstage)&#45;&gt;Post Sweep Event</title>
<path fill="none" stroke="#9ecae1" d="M694.1,-879.78C727.11,-868.77 770.42,-854.34 804.14,-843.1"/>
<polygon fill="#9ecae1" stroke="#9ecae1" points="805.45,-846.35 813.83,-839.87 803.24,-839.71 805.45,-846.35"/>
</g>
<!-- Post Set Event -->
<g id="node6" class="node">
<title>Post Set Event</title>
<ellipse fill="#eff3ff" stroke="#bdd7e7" cx="1158.43" cy="-824.33" rx="71.26" ry="18"/>
<text text-anchor="middle" x="1158.43" y="-820.93" font-family="Helvetica,sans-Serif" font-size="13.00" fill="#2171b5">Post Set Event</text>
</g>
<!-- Start DAQ/RA (only call for last active headstage)&#45;&gt;Post Set Event -->
<g id="edge5" class="edge">
<title>Start DAQ/RA (only call for last active headstage)&#45;&gt;Post Set Event</title>
<path fill="none" stroke="#9ecae1" d="M750.94,-881.62C851.77,-867.69 1000.33,-847.17 1087.46,-835.14"/>
<polygon fill="#9ecae1" stroke="#9ecae1" points="1088.08,-838.58 1097.51,-833.75 1087.13,-831.65 1088.08,-838.58"/>
</g>
<!-- n38 -->
<g id="node7" class="node">
<title>n38</title>
<ellipse fill="#eff3ff" stroke="#bdd7e7" cx="88.43" cy="-733.98" rx="88.37" ry="18"/>
<text text-anchor="middle" x="88.43" y="-730.58" font-family="Helvetica,sans-Serif" font-size="13.00" fill="#2171b5">Update Dashboard</text>
</g>
<!-- Post DAQ Event&#45;&gt;n38 -->
<g id="edge6" class="edge">
<title>Post DAQ Event&#45;&gt;n38</title>
<path fill="none" stroke="#9ecae1" d="M206.36,-807.33C183.3,-793.19 149.47,-772.42 123.94,-756.77"/>
<polygon fill="#9ecae1" stroke="#9ecae1" points="125.65,-753.7 115.29,-751.46 121.99,-759.67 125.65,-753.7"/>
</g>
<!-- Enable &quot;Multidevice DAQ&quot; -->
<g id="node8" class="node">
<title>Enable &quot;Multidevice DAQ&quot;</title>
<ellipse fill="#eff3ff" stroke="#bdd7e7" cx="313.43" cy="-733.98" rx="118.51" ry="18"/>
<text text-anchor="middle" x="313.43" y="-730.58" font-family="Helvetica,sans-Serif" font-size="13.00" fill="#2171b5">Enable &quot;Multidevice DAQ&quot;</text>
</g>
<!-- Prepare DAQ&#45;&gt;Enable &quot;Multidevice DAQ&quot; -->
<g id="edge7" class="edge">
<title>Prepare DAQ&#45;&gt;Enable &quot;Multidevice DAQ&quot;</title>
<path fill="none" stroke="#9ecae1" d="M434.49,-807.74C411.05,-793.65 376.28,-772.75 350.02,-756.97"/>
<polygon fill="#9ecae1" stroke="#9ecae1" points="351.49,-753.77 341.12,-751.62 347.88,-759.77 351.49,-753.77"/>
</g>
<!-- Enable &quot;Autobias&quot; -->
<g id="node9" class="node">
<title>Enable &quot;Autobias&quot;</title>
<ellipse fill="#eff3ff" stroke="#bdd7e7" cx="536.43" cy="-733.98" rx="85.82" ry="18"/>
<text text-anchor="middle" x="536.43" y="-730.58" font-family="Helvetica,sans-Serif" font-size="13.00" fill="#2171b5">Enable &quot;Autobias&quot;</text>
</g>
<!-- Pre Set Event&#45;&gt;Enable &quot;Autobias&quot; -->
<g id="edge8" class="edge">
<title>Pre Set Event&#45;&gt;Enable &quot;Autobias&quot;</title>
<path fill="none" stroke="#9ecae1" d="M624.63,-807.13C607.86,-793.41 583.63,-773.59 564.81,-758.19"/>
<polygon fill="#9ecae1" stroke="#9ecae1" points="566.81,-755.3 556.85,-751.68 562.38,-760.72 566.81,-755.3"/>
</g>
<!-- Set next DAScale value,\nuse the analysis parameter values as offset\nonto the earlier FastRheoEstimate guess -->
<g id="node10" class="node">
<title>Set next DAScale value,\nuse the analysis parameter values as offset\nonto the earlier FastRheoEstimate guess</title>
<ellipse fill="#eff3ff" stroke="#bdd7e7" cx="857.43" cy="-733.98" rx="217.16" ry="35.21"/>
<text text-anchor="middle" x="857.43" y="-744.58" font-family="Helvetica,sans-Serif" font-size="13.00" fill="#2171b5">Set next DAScale value,</text>
<text text-anchor="middle" x="857.43" y="-730.58" font-family="Helvetica,sans-Serif" font-size="13.00" fill="#2171b5">use the analysis parameter values as offset</text>
<text text-anchor="middle" x="857.43" y="-716.58" font-family="Helvetica,sans-Serif" font-size="13.00" fill="#2171b5">onto the earlier FastRheoEstimate guess</text>
</g>
<!-- Pre Set Event&#45;&gt;Set next DAScale value,\nuse the analysis parameter values as offset\nonto the earlier FastRheoEstimate guess -->
<g id="edge9" class="edge">
<title>Pre Set Event&#45;&gt;Set next DAScale value,\nuse the analysis parameter values as offset\nonto the earlier FastRheoEstimate guess</title>
<path fill="none" stroke="#9ecae1" d="M679.61,-808.74C704.34,-798.48 738.58,-784.28 770.41,-771.08"/>
<polygon fill="#9ecae1" stroke="#9ecae1" points="771.86,-774.26 779.76,-767.2 769.18,-767.8 771.86,-774.26"/>
</g>
<!-- Post Sweep Event&#45;&gt;Set next DAScale value,\nuse the analysis parameter values as offset\nonto the earlier FastRheoEstimate guess -->
<g id="edge10" class="edge">
<title>Post Sweep Event&#45;&gt;Set next DAScale value,\nuse the analysis parameter values as offset\nonto the earlier FastRheoEstimate guess</title>
<path fill="none" stroke="#9ecae1" d="M857.43,-806.3C857.43,-798.64 857.43,-789.2 857.43,-779.73"/>
<polygon fill="#9ecae1" stroke="#9ecae1" points="860.93,-779.52 857.43,-769.52 853.93,-779.52 860.93,-779.52"/>
</g>
<!-- Mark all active headstages as passed -->
<g id="node11" class="node">
<title>Mark all active headstages as passed</title>
<ellipse fill="#eff3ff" stroke="#bdd7e7" cx="1260.43" cy="-733.98" rx="168.05" ry="18"/>
<text text-anchor="middle" x="1260.43" y="-730.58" font-family="Helvetica,sans-Serif" font-size="13.00" fill="#2171b5">Mark all active headstages as passed</text>
</g>
<!-- Post Sweep Event&#45;&gt;Mark all active headstages as passed -->
<g id="edge11" class="edge">
<title>Post Sweep Event&#45;&gt;Mark all active headstages as passed</title>
<path fill="none" stroke="#9ecae1" d="M914.32,-810.86C983.81,-795.62 1101.81,-769.75 1180.43,-752.52"/>
<polygon fill="#9ecae1" stroke="#9ecae1" points="1181.28,-755.92 1190.3,-750.35 1179.78,-749.08 1181.28,-755.92"/>
</g>
<!-- Read active headstages from labnotebook\nand turn them all on again -->
<g id="node12" class="node">
<title>Read active headstages from labnotebook\nand turn them all on again</title>
<ellipse fill="#eff3ff" stroke="#bdd7e7" cx="1657.43" cy="-733.98" rx="210.94" ry="25.41"/>
<text text-anchor="middle" x="1657.43" y="-737.58" font-family="Helvetica,sans-Serif" font-size="13.00" fill="#2171b5">Read active headstages from labnotebook</text>
<text text-anchor="middle" x="1657.43" y="-723.58" font-family="Helvetica,sans-Serif" font-size="13.00" fill="#2171b5">and turn them all on again</text>
</g>
<!-- Post Set Event&#45;&gt;Read active headstages from labnotebook\nand turn them all on again -->
<g id="edge12" class="edge">
<title>Post Set Event&#45;&gt;Read active headstages from labnotebook\nand turn them all on again</title>
<path fill="none" stroke="#9ecae1" d="M1215.19,-813.28C1291.83,-799.71 1430.49,-775.16 1532.19,-757.16"/>
<polygon fill="#9ecae1" stroke="#9ecae1" points="1532.98,-760.57 1542.22,-755.38 1531.76,-753.68 1532.98,-760.57"/>
</g>
<!-- Enable &quot;Repeated Acquisition&quot; -->
<g id="node13" class="node">
<title>Enable &quot;Repeated Acquisition&quot;</title>
<ellipse fill="#eff3ff" stroke="#bdd7e7" cx="295.43" cy="-643.62" rx="137.91" ry="18"/>
<text text-anchor="middle" x="295.43" y="-640.22" font-family="Helvetica,sans-Serif" font-size="13.00" fill="#2171b5">Enable &quot;Repeated Acquisition&quot;</text>
</g>
<!-- Enable &quot;Multidevice DAQ&quot;&#45;&gt;Enable &quot;Repeated Acquisition&quot; -->
<g id="edge13" class="edge">
<title>Enable &quot;Multidevice DAQ&quot;&#45;&gt;Enable &quot;Repeated Acquisition&quot;</title>
<path fill="none" stroke="#9ecae1" d="M309.96,-715.94C307.42,-703.43 303.9,-686.18 300.97,-671.78"/>
<polygon fill="#9ecae1" stroke="#9ecae1" points="304.38,-671.01 298.96,-661.91 297.52,-672.4 304.38,-671.01"/>
</g>
<!-- Enable &quot;Insert TP&quot; -->
<g id="node14" class="node">
<title>Enable &quot;Insert TP&quot;</title>
<ellipse fill="#eff3ff" stroke="#bdd7e7" cx="547.43" cy="-643.62" rx="85.82" ry="18"/>
<text text-anchor="middle" x="547.43" y="-640.22" font-family="Helvetica,sans-Serif" font-size="13.00" fill="#2171b5">Enable &quot;Insert TP&quot;</text>
</g>
<!-- Enable &quot;Autobias&quot;&#45;&gt;Enable &quot;Insert TP&quot; -->
<g id="edge14" class="edge">
<title>Enable &quot;Autobias&quot;&#45;&gt;Enable &quot;Insert TP&quot;</title>
<path fill="none" stroke="#9ecae1" d="M538.56,-715.94C540.1,-703.55 542.22,-686.52 544,-672.2"/>
<polygon fill="#9ecae1" stroke="#9ecae1" points="547.52,-672.26 545.28,-661.91 540.57,-671.4 547.52,-672.26"/>
</g>
<!-- Mark Sweep as passed -->
<g id="node15" class="node">
<title>Mark Sweep as passed</title>
<ellipse fill="#eff3ff" stroke="#bdd7e7" cx="1260.43" cy="-643.62" rx="105.48" ry="18"/>
<text text-anchor="middle" x="1260.43" y="-640.22" font-family="Helvetica,sans-Serif" font-size="13.00" fill="#2171b5">Mark Sweep as passed</text>
</g>
<!-- Mark all active headstages as passed&#45;&gt;Mark Sweep as passed -->
<g id="edge15" class="edge">
<title>Mark all active headstages as passed&#45;&gt;Mark Sweep as passed</title>
<path fill="none" stroke="#9ecae1" d="M1260.43,-715.94C1260.43,-703.55 1260.43,-686.52 1260.43,-672.2"/>
<polygon fill="#9ecae1" stroke="#9ecae1" points="1263.93,-671.91 1260.43,-661.91 1256.93,-671.91 1263.93,-671.91"/>
</g>
<!-- Mark set as passed -->
<g id="node16" class="node">
<title>Mark set as passed</title>
<ellipse fill="#eff3ff" stroke="#bdd7e7" cx="1657.43" cy="-643.62" rx="90.92" ry="18"/>
<text text-anchor="middle" x="1657.43" y="-640.22" font-family="Helvetica,sans-Serif" font-size="13.00" fill="#2171b5">Mark set as passed</text>
</g>
<!-- Read active headstages from labnotebook\nand turn them all on again&#45;&gt;Mark set as passed -->
<g id="edge16" class="edge">
<title>Read active headstages from labnotebook\nand turn them all on again&#45;&gt;Mark set as passed</title>
<path fill="none" stroke="#9ecae1" d="M1657.43,-708.37C1657.43,-697.03 1657.43,-683.54 1657.43,-671.89"/>
<polygon fill="#9ecae1" stroke="#9ecae1" points="1660.93,-671.83 1657.43,-661.83 1653.93,-671.83 1660.93,-671.83"/>
</g>
<!-- n29 -->
<g id="node17" class="node">
<title>n29</title>
<ellipse fill="#eff3ff" stroke="#bdd7e7" cx="267.43" cy="-516.62" rx="132.04" ry="18"/>
<text text-anchor="middle" x="267.43" y="-513.22" font-family="Helvetica,sans-Serif" font-size="13.00" fill="#2171b5">&quot;Unlocked Indexing&quot; is active</text>
</g>
<!-- Enable &quot;Repeated Acquisition&quot;&#45;&gt;n29 -->
<g id="edge17" class="edge">
<title>Enable &quot;Repeated Acquisition&quot;&#45;&gt;n29</title>
<path fill="none" stroke="#9ecae1" d="M291.6,-625.5C286.93,-604.68 279,-569.26 273.5,-544.71"/>
<polygon fill="#9ecae1" stroke="#9ecae1" points="276.91,-543.93 271.31,-534.94 270.08,-545.46 276.91,-543.93"/>
</g>
<!-- Enable &quot;TP during ITI&quot; -->
<g id="node18" class="node">
<title>Enable &quot;TP during ITI&quot;</title>
<ellipse fill="#eff3ff" stroke="#bdd7e7" cx="547.43" cy="-570.62" rx="101.9" ry="18"/>
<text text-anchor="middle" x="547.43" y="-567.22" font-family="Helvetica,sans-Serif" font-size="13.00" fill="#2171b5">Enable &quot;TP during ITI&quot;</text>
</g>
<!-- Enable &quot;Insert TP&quot;&#45;&gt;Enable &quot;TP during ITI&quot; -->
<g id="edge18" class="edge">
<title>Enable &quot;Insert TP&quot;&#45;&gt;Enable &quot;TP during ITI&quot;</title>
<path fill="none" stroke="#9ecae1" d="M547.43,-625.44C547.43,-617.41 547.43,-607.67 547.43,-598.69"/>
<polygon fill="#9ecae1" stroke="#9ecae1" points="550.93,-598.65 547.43,-588.65 543.93,-598.65 550.93,-598.65"/>
</g>
<!-- Force Sampling Multiplier to 1 -->
<g id="node19" class="node">
<title>Force Sampling Multiplier to 1</title>
<ellipse fill="#eff3ff" stroke="#bdd7e7" cx="884.43" cy="-570.62" rx="135.62" ry="18"/>
<text text-anchor="middle" x="884.43" y="-567.22" font-family="Helvetica,sans-Serif" font-size="13.00" fill="#2171b5">Force Sampling Multiplier to 1</text>
</g>
<!-- Enable &quot;Insert TP&quot;&#45;&gt;Force Sampling Multiplier to 1 -->
<g id="edge19" class="edge">
<title>Enable &quot;Insert TP&quot;&#45;&gt;Force Sampling Multiplier to 1</title>
<path fill="none" stroke="#9ecae1" d="M605.75,-630.34C660.98,-618.7 744.34,-601.14 805.5,-588.25"/>
<polygon fill="#9ecae1" stroke="#9ecae1" points="806.44,-591.63 815.5,-586.15 804.99,-584.78 806.44,-591.63"/>
</g>
<!-- Update Dashboard -->
<g id="node20" class="node">
<title>Update Dashboard</title>
<ellipse fill="#eff3ff" stroke="#bdd7e7" cx="1657.43" cy="-570.62" rx="88.37" ry="18"/>
<text text-anchor="middle" x="1657.43" y="-567.22" font-family="Helvetica,sans-Serif" font-size="13.00" fill="#2171b5">Update Dashboard</text>
</g>
<!-- Mark set as passed&#45;&gt;Update Dashboard -->
<g id="edge20" class="edge">
<title>Mark set as passed&#45;&gt;Update Dashboard</title>
<path fill="none" stroke="#9ecae1" d="M1657.43,-625.44C1657.43,-617.41 1657.43,-607.67 1657.43,-598.69"/>
<polygon fill="#9ecae1" stroke="#9ecae1" points="1660.93,-598.65 1657.43,-588.65 1653.93,-598.65 1660.93,-598.65"/>
</g>
<!-- Abort -->
<g id="node21" class="node">
<title>Abort</title>
<ellipse fill="#eff3ff" stroke="#bdd7e7" cx="306.43" cy="-18" rx="33.46" ry="18"/>
<text text-anchor="middle" x="306.43" y="-14.6" font-family="Helvetica,sans-Serif" font-size="13.00" fill="#2171b5">Abort</text>
</g>
<!-- n29&#45;&gt;Abort -->
<g id="edge21" class="edge">
<title>n29&#45;&gt;Abort</title>
<path fill="none" stroke="#9ecae1" d="M255.52,-498.43C244.71,-481.12 230.43,-453.23 230.43,-426.62 230.43,-426.62 230.43,-426.62 230.43,-100 230.43,-72.67 253.74,-50.77 274.53,-36.67"/>
<polygon fill="#9ecae1" stroke="#9ecae1" points="276.68,-39.45 283.22,-31.11 272.91,-33.55 276.68,-39.45"/>
<text text-anchor="middle" x="238.43" y="-296.77" font-family="Helvetica,sans-Serif" font-size="10.00" fill="#3182bd">Yes</text>
</g>
<!-- Valid Autobias voltage (finite and non&#45;zero) -->
<g id="node22" class="node">
<title>Valid Autobias voltage (finite and non&#45;zero)</title>
<ellipse fill="#eff3ff" stroke="#bdd7e7" cx="547.43" cy="-462.62" rx="192.82" ry="18"/>
<text text-anchor="middle" x="547.43" y="-459.22" font-family="Helvetica,sans-Serif" font-size="13.00" fill="#2171b5">Valid Autobias voltage (finite and non&#45;zero)</text>
</g>
<!-- Enable &quot;TP during ITI&quot;&#45;&gt;Valid Autobias voltage (finite and non&#45;zero) -->
<g id="edge22" class="edge">
<title>Enable &quot;TP during ITI&quot;&#45;&gt;Valid Autobias voltage (finite and non&#45;zero)</title>
<path fill="none" stroke="#9ecae1" d="M547.43,-552.59C547.43,-536 547.43,-510.51 547.43,-491.05"/>
<polygon fill="#9ecae1" stroke="#9ecae1" points="550.93,-490.96 547.43,-480.96 543.93,-490.96 550.93,-490.96"/>
</g>
<!-- Check if no TTL channels are active -->
<g id="node23" class="node">
<title>Check if no TTL channels are active</title>
<ellipse fill="#eff3ff" stroke="#bdd7e7" cx="1021.43" cy="-462.62" rx="160.39" ry="18"/>
<text text-anchor="middle" x="1021.43" y="-459.22" font-family="Helvetica,sans-Serif" font-size="13.00" fill="#2171b5">Check if no TTL channels are active</text>
</g>
<!-- Force Sampling Multiplier to 1&#45;&gt;Check if no TTL channels are active -->
<g id="edge23" class="edge">
<title>Force Sampling Multiplier to 1&#45;&gt;Check if no TTL channels are active</title>
<path fill="none" stroke="#9ecae1" d="M906.14,-552.83C929.15,-535.02 965.66,-506.78 991.42,-486.85"/>
<polygon fill="#9ecae1" stroke="#9ecae1" points="993.61,-489.58 999.37,-480.69 989.32,-484.04 993.61,-489.58"/>
</g>
<!-- Enable &quot;dDAQ&quot; -->
<g id="node24" class="node">
<title>Enable &quot;dDAQ&quot;</title>
<ellipse fill="#eff3ff" stroke="#bdd7e7" cx="547.43" cy="-389.62" rx="83.26" ry="18"/>
<text text-anchor="middle" x="547.43" y="-386.22" font-family="Helvetica,sans-Serif" font-size="13.00" fill="#2171b5">Enable &quot;oodDAQ&quot;</text>
</g>
<!-- Valid Autobias voltage (finite and non&#45;zero)&#45;&gt;Enable &quot;dDAQ&quot; -->
<g id="edge24" class="edge">
<title>Valid Autobias voltage (finite and non&#45;zero)&#45;&gt;Enable &quot;dDAQ&quot;</title>
<path fill="none" stroke="#9ecae1" d="M547.43,-444.44C547.43,-436.41 547.43,-426.67 547.43,-417.69"/>
<polygon fill="#9ecae1" stroke="#9ecae1" points="550.93,-417.65 547.43,-407.65 543.93,-417.65 550.93,-417.65"/>
</g>
<!-- Store active headstages in labnotebook -->
<g id="node25" class="node">
<title>Store active headstages in labnotebook</title>
<ellipse fill="#eff3ff" stroke="#bdd7e7" cx="1098.43" cy="-389.62" rx="177.5" ry="18"/>
<text text-anchor="middle" x="1098.43" y="-386.22" font-family="Helvetica,sans-Serif" font-size="13.00" fill="#2171b5">Store active headstages in labnotebook</text>
</g>
<!-- Check if no TTL channels are active&#45;&gt;Store active headstages in labnotebook -->
<g id="edge25" class="edge">
<title>Check if no TTL channels are active&#45;&gt;Store active headstages in labnotebook</title>
<path fill="none" stroke="#9ecae1" d="M1040.07,-444.44C1049.82,-435.45 1061.89,-424.32 1072.53,-414.51"/>
<polygon fill="#9ecae1" stroke="#9ecae1" points="1074.99,-417 1079.97,-407.65 1070.24,-411.86 1074.99,-417"/>
</g>
<!-- Look for an existing and passing FastRheoEstimate sweep\n within a passing set and\n a pulse duration of more than 500ms -->
<g id="node26" class="node">
<title>Look for an existing and passing FastRheoEstimate sweep\n within a passing set and\n a pulse duration of more than 500ms</title>
<ellipse fill="#eff3ff" stroke="#bdd7e7" cx="547.43" cy="-299.27" rx="282.69" ry="35.21"/>
<text text-anchor="middle" x="547.43" y="-309.87" font-family="Helvetica,sans-Serif" font-size="13.00" fill="#2171b5">Look for an existing and passing FastRheoEstimate sweep</text>
<text text-anchor="middle" x="547.43" y="-295.87" font-family="Helvetica,sans-Serif" font-size="13.00" fill="#2171b5"> within a passing set and</text>
<text text-anchor="middle" x="547.43" y="-281.87" font-family="Helvetica,sans-Serif" font-size="13.00" fill="#2171b5"> a pulse duration of more than 500ms</text>
</g>
<!-- Enable &quot;dDAQ&quot;&#45;&gt;Look for an existing and passing FastRheoEstimate sweep\n within a passing set and\n a pulse duration of more than 500ms -->
<g id="edge26" class="edge">
<title>Enable &quot;dDAQ&quot;&#45;&gt;Look for an existing and passing FastRheoEstimate sweep\n within a passing set and\n a pulse duration of more than 500ms</title>
<path fill="none" stroke="#9ecae1" d="M547.43,-371.59C547.43,-363.93 547.43,-354.49 547.43,-345.02"/>
<polygon fill="#9ecae1" stroke="#9ecae1" points="550.93,-344.81 547.43,-334.81 543.93,-344.81 550.93,-344.81"/>
</g>
<!-- Turn off active non&#45;IC headstages\nor headstages which have not passed FastRheoEstimate -->
<g id="node27" class="node">
<title>Turn off active non&#45;IC headstages\nor headstages which have not passed FastRheoEstimate</title>
<ellipse fill="#eff3ff" stroke="#bdd7e7" cx="1124.43" cy="-299.27" rx="276.46" ry="25.41"/>
<text text-anchor="middle" x="1124.43" y="-302.87" font-family="Helvetica,sans-Serif" font-size="13.00" fill="#2171b5">Turn off active non&#45;IC headstages</text>
<text text-anchor="middle" x="1124.43" y="-288.87" font-family="Helvetica,sans-Serif" font-size="13.00" fill="#2171b5">or headstages which have not passed FastRheoEstimate</text>
</g>
<!-- Store active headstages in labnotebook&#45;&gt;Turn off active non&#45;IC headstages\nor headstages which have not passed FastRheoEstimate -->
<g id="edge27" class="edge">
<title>Store active headstages in labnotebook&#45;&gt;Turn off active non&#45;IC headstages\nor headstages which have not passed FastRheoEstimate</title>
<path fill="none" stroke="#9ecae1" d="M1103.45,-371.59C1106.52,-361.14 1110.57,-347.39 1114.29,-334.75"/>
<polygon fill="#9ecae1" stroke="#9ecae1" points="1117.71,-335.52 1117.17,-324.94 1110.99,-333.54 1117.71,-335.52"/>
</g>
<!-- Look for an existing and passing FastRheoEstimate sweep\n within a passing set and\n a pulse duration of more than 500ms&#45;&gt;Abort -->
<g id="edge28" class="edge">
<title>Look for an existing and passing FastRheoEstimate sweep\n within a passing set and\n a pulse duration of more than 500ms&#45;&gt;Abort</title>
<path fill="none" stroke="#9ecae1" d="M397.09,-269.22C369.49,-257.32 343.69,-240.55 325.43,-216.91 286.81,-166.9 293.71,-87.21 300.78,-45.86"/>
<polygon fill="#9ecae1" stroke="#9ecae1" points="304.23,-46.45 302.6,-35.98 297.34,-45.18 304.23,-46.45"/>
<text text-anchor="middle" x="322.93" y="-140" font-family="Helvetica,sans-Serif" font-size="10.00" fill="#3182bd">Not found</text>
</g>
<!-- Use the DAScale value of that sweep\n as offset to the DAScale values from the analysis parameters -->
<g id="node28" class="node">
<title>Use the DAScale value of that sweep\n as offset to the DAScale values from the analysis parameters</title>
<ellipse fill="#eff3ff" stroke="#bdd7e7" cx="637.43" cy="-191.46" rx="303.2" ry="25.41"/>
<text text-anchor="middle" x="637.43" y="-195.06" font-family="Helvetica,sans-Serif" font-size="13.00" fill="#2171b5">Use the DAScale value of that sweep</text>
<text text-anchor="middle" x="637.43" y="-181.06" font-family="Helvetica,sans-Serif" font-size="13.00" fill="#2171b5"> as offset to the DAScale values from the analysis parameters</text>
</g>
<!-- Look for an existing and passing FastRheoEstimate sweep\n within a passing set and\n a pulse duration of more than 500ms&#45;&gt;Use the DAScale value of that sweep\n as offset to the DAScale values from the analysis parameters -->
<g id="edge29" class="edge">
<title>Look for an existing and passing FastRheoEstimate sweep\n within a passing set and\n a pulse duration of more than 500ms&#45;&gt;Use the DAScale value of that sweep\n as offset to the DAScale values from the analysis parameters</title>
<path fill="none" stroke="#9ecae1" d="M576.66,-263.91C587.35,-251.34 599.41,-237.17 609.94,-224.78"/>
<polygon fill="#9ecae1" stroke="#9ecae1" points="612.81,-226.81 616.62,-216.93 607.47,-222.28 612.81,-226.81"/>
<text text-anchor="middle" x="616.43" y="-237.91" font-family="Helvetica,sans-Serif" font-size="10.00" fill="#3182bd">Found</text>
</g>
<!-- Check if there is at least\none active IC headstage -->
<g id="node29" class="node">
<title>Check if there is at least\none active IC headstage</title>
<ellipse fill="#eff3ff" stroke="#bdd7e7" cx="1104.43" cy="-191.46" rx="126.64" ry="25.41"/>
<text text-anchor="middle" x="1104.43" y="-195.06" font-family="Helvetica,sans-Serif" font-size="13.00" fill="#2171b5">Check if there is at least</text>
<text text-anchor="middle" x="1104.43" y="-181.06" font-family="Helvetica,sans-Serif" font-size="13.00" fill="#2171b5">one active IC headstage</text>
</g>
<!-- Turn off active non&#45;IC headstages\nor headstages which have not passed FastRheoEstimate&#45;&gt;Check if there is at least\none active IC headstage -->
<g id="edge30" class="edge">
<title>Turn off active non&#45;IC headstages\nor headstages which have not passed FastRheoEstimate&#45;&gt;Check if there is at least\none active IC headstage</title>
<path fill="none" stroke="#9ecae1" d="M1119.8,-273.73C1117.19,-259.94 1113.89,-242.5 1111.02,-227.31"/>
<polygon fill="#9ecae1" stroke="#9ecae1" points="1114.41,-226.41 1109.12,-217.23 1107.54,-227.71 1114.41,-226.41"/>
</g>
<!-- All checks passed -->
<g id="node30" class="node">
<title>All checks passed</title>
<ellipse fill="#eff3ff" stroke="#bdd7e7" cx="761.43" cy="-101" rx="84.79" ry="18"/>
<text text-anchor="middle" x="761.43" y="-97.6" font-family="Helvetica,sans-Serif" font-size="13.00" fill="#2171b5">All checks passed</text>
</g>
<!-- Check if there is at least\none active IC headstage&#45;&gt;All checks passed -->
<g id="edge31" class="edge">
<title>Check if there is at least\none active IC headstage&#45;&gt;All checks passed</title>
<path fill="none" stroke="#9ecae1" d="M1028.74,-170.93C966.82,-154.97 880.37,-132.67 822.74,-117.81"/>
<polygon fill="#9ecae1" stroke="#9ecae1" points="823.59,-114.41 813.03,-115.31 821.84,-121.19 823.59,-114.41"/>
</g>
<!-- All checks passed&#45;&gt;Abort -->
<g id="edge32" class="edge">
<title>All checks passed&#45;&gt;Abort</title>
<path fill="none" stroke="#9ecae1" d="M698.65,-88.82C604.16,-72 427.96,-40.63 347.91,-26.38"/>
<polygon fill="#9ecae1" stroke="#9ecae1" points="348.19,-22.88 337.73,-24.57 346.96,-29.77 348.19,-22.88"/>
<text text-anchor="middle" x="568.43" y="-57" font-family="Helvetica,sans-Serif" font-size="10.00" fill="#3182bd">No</text>
</g>
</g>
</svg>
