<?xml version="1.0" encoding="UTF-8" standalone="no"?>
<!DOCTYPE svg PUBLIC "-//W3C//DTD SVG 1.1//EN"
 "http://www.w3.org/Graphics/SVG/1.1/DTD/svg11.dtd">
<!-- Generated by graphviz version 2.43.0 (0)
 -->
<!-- Title: G Pages: 1 -->
<svg width="2818pt" height="799pt"
 viewBox="0.00 0.00 2818.05 798.98" xmlns="http://www.w3.org/2000/svg" xmlns:xlink="http://www.w3.org/1999/xlink">
<g id="graph0" class="graph" transform="scale(1 1) rotate(0) translate(4 794.98)">
<title>G</title>
<polygon fill="white" stroke="transparent" points="-4,4 -4,-794.98 2814.05,-794.98 2814.05,4 -4,4"/>
<!-- Start DAQ/RA -->
<g id="node1" class="node">
<title>Start DAQ/RA</title>
<ellipse fill="#eff3ff" stroke="#bdd7e7" cx="1969.72" cy="-772.98" rx="65.89" ry="18"/>
<text text-anchor="middle" x="1969.72" y="-769.58" font-family="Helvetica,sans-Serif" font-size="13.00" fill="#2171b5">Start DAQ/RA</text>
</g>
<!-- Prepare DAQ/Pre Set Event -->
<g id="node2" class="node">
<title>Prepare DAQ/Pre Set Event</title>
<ellipse fill="#eff3ff" stroke="#bdd7e7" cx="643.72" cy="-699.98" rx="123.35" ry="18"/>
<text text-anchor="middle" x="643.72" y="-696.58" font-family="Helvetica,sans-Serif" font-size="13.00" fill="#2171b5">Prepare DAQ/Pre Set Event</text>
</g>
<!-- Start DAQ/RA&#45;&gt;Prepare DAQ/Pre Set Event -->
<g id="edge1" class="edge">
<title>Start DAQ/RA&#45;&gt;Prepare DAQ/Pre Set Event</title>
<path fill="none" stroke="#9ecae1" d="M1905.76,-768.56C1698.42,-757.45 1042.33,-722.32 767.12,-707.59"/>
<polygon fill="#9ecae1" stroke="#9ecae1" points="767.26,-704.09 757.09,-707.05 766.89,-711.08 767.26,-704.09"/>
</g>
<!-- Post Sweep Event -->
<g id="node3" class="node">
<title>Post Sweep Event</title>
<ellipse fill="#eff3ff" stroke="#bdd7e7" cx="1697.72" cy="-699.98" rx="84.79" ry="18"/>
<text text-anchor="middle" x="1697.72" y="-696.58" font-family="Helvetica,sans-Serif" font-size="13.00" fill="#2171b5">Post Sweep Event</text>
</g>
<!-- Start DAQ/RA&#45;&gt;Post Sweep Event -->
<g id="edge2" class="edge">
<title>Start DAQ/RA&#45;&gt;Post Sweep Event</title>
<path fill="none" stroke="#9ecae1" d="M1923.88,-760.02C1878.6,-748.2 1809.06,-730.04 1759.04,-716.99"/>
<polygon fill="#9ecae1" stroke="#9ecae1" points="1759.87,-713.59 1749.31,-714.45 1758.1,-720.36 1759.87,-713.59"/>
</g>
<!-- Post DAQ Event -->
<g id="node4" class="node">
<title>Post DAQ Event</title>
<ellipse fill="#eff3ff" stroke="#bdd7e7" cx="1969.72" cy="-699.98" rx="75.6" ry="18"/>
<text text-anchor="middle" x="1969.72" y="-696.58" font-family="Helvetica,sans-Serif" font-size="13.00" fill="#2171b5">Post DAQ Event</text>
</g>
<!-- Start DAQ/RA&#45;&gt;Post DAQ Event -->
<g id="edge3" class="edge">
<title>Start DAQ/RA&#45;&gt;Post DAQ Event</title>
<path fill="none" stroke="#9ecae1" d="M1969.72,-754.79C1969.72,-746.77 1969.72,-737.03 1969.72,-728.05"/>
<polygon fill="#9ecae1" stroke="#9ecae1" points="1973.22,-728.01 1969.72,-718.01 1966.22,-728.01 1973.22,-728.01"/>
</g>
<!-- Pre Sweep Config Event -->
<g id="node5" class="node">
<title>Pre Sweep Config Event</title>
<ellipse fill="#eff3ff" stroke="#bdd7e7" cx="2207.72" cy="-699.98" rx="109.82" ry="18"/>
<text text-anchor="middle" x="2207.72" y="-696.58" font-family="Helvetica,sans-Serif" font-size="13.00" fill="#2171b5">Pre Sweep Config Event</text>
</g>
<!-- Start DAQ/RA&#45;&gt;Pre Sweep Config Event -->
<g id="edge4" class="edge">
<title>Start DAQ/RA&#45;&gt;Pre Sweep Config Event</title>
<path fill="none" stroke="#9ecae1" d="M2012.54,-759.2C2050.29,-747.94 2105.67,-731.42 2147.81,-718.85"/>
<polygon fill="#9ecae1" stroke="#9ecae1" points="2148.82,-722.2 2157.4,-715.99 2146.81,-715.5 2148.82,-722.2"/>
</g>
<!-- Post Set Event -->
<g id="node6" class="node">
<title>Post Set Event</title>
<ellipse fill="#eff3ff" stroke="#bdd7e7" cx="2511.72" cy="-699.98" rx="71.26" ry="18"/>
<text text-anchor="middle" x="2511.72" y="-696.58" font-family="Helvetica,sans-Serif" font-size="13.00" fill="#2171b5">Post Set Event</text>
</g>
<!-- Start DAQ/RA&#45;&gt;Post Set Event -->
<g id="edge5" class="edge">
<title>Start DAQ/RA&#45;&gt;Post Set Event</title>
<path fill="none" stroke="#9ecae1" d="M2027.72,-764.38C2127.46,-751.32 2331.17,-724.63 2439.78,-710.4"/>
<polygon fill="#9ecae1" stroke="#9ecae1" points="2440.53,-713.84 2449.99,-709.07 2439.62,-706.89 2440.53,-713.84"/>
</g>
<!-- Enable &quot;Multidevice DAQ&quot; -->
<g id="node7" class="node">
<title>Enable &quot;Multidevice DAQ&quot;</title>
<ellipse fill="#eff3ff" stroke="#bdd7e7" cx="643.72" cy="-599.72" rx="118.51" ry="18"/>
<text text-anchor="middle" x="643.72" y="-596.32" font-family="Helvetica,sans-Serif" font-size="13.00" fill="#2171b5">Enable &quot;Multidevice DAQ&quot;</text>
</g>
<!-- Prepare DAQ/Pre Set Event&#45;&gt;Enable &quot;Multidevice DAQ&quot; -->
<g id="edge6" class="edge">
<title>Prepare DAQ/Pre Set Event&#45;&gt;Enable &quot;Multidevice DAQ&quot;</title>
<path fill="none" stroke="#9ecae1" d="M643.72,-681.87C643.72,-667.02 643.72,-645.27 643.72,-628.03"/>
<polygon fill="#9ecae1" stroke="#9ecae1" points="647.22,-627.97 643.72,-617.97 640.22,-627.97 647.22,-627.97"/>
</g>
<!-- Check if mode is IC -->
<g id="node8" class="node">
<title>Check if mode is IC</title>
<ellipse fill="#eff3ff" stroke="#bdd7e7" cx="396.72" cy="-599.72" rx="90.92" ry="18"/>
<text text-anchor="middle" x="396.72" y="-596.32" font-family="Helvetica,sans-Serif" font-size="13.00" fill="#2171b5">Check if mode is IC</text>
</g>
<!-- Prepare DAQ/Pre Set Event&#45;&gt;Check if mode is IC -->
<g id="edge7" class="edge">
<title>Prepare DAQ/Pre Set Event&#45;&gt;Check if mode is IC</title>
<path fill="none" stroke="#9ecae1" d="M603.21,-682.87C559.76,-665.58 490.82,-638.16 444.69,-619.81"/>
<polygon fill="#9ecae1" stroke="#9ecae1" points="445.8,-616.48 435.21,-616.04 443.21,-622.99 445.8,-616.48"/>
</g>
<!-- n91 -->
<g id="node9" class="node">
<title>n91</title>
<g id="a_node9"><a xlink:href="../_static/images/async-qc-channels.svg" xlink:title="Standard AsyncQCChannels handling" target="_graphviz">
<ellipse fill="#eff3ff" stroke="#bdd7e7" cx="1697.72" cy="-599.72" rx="165.5" ry="18"/>
<text text-anchor="middle" x="1697.72" y="-596.32" font-family="Helvetica,sans-Serif" font-size="13.00" fill="#2171b5">Standard AsyncQCChannels handling</text>
</a>
</g>
</g>
<!-- Post Sweep Event&#45;&gt;n91 -->
<g id="edge8" class="edge">
<title>Post Sweep Event&#45;&gt;n91</title>
<path fill="none" stroke="#9ecae1" d="M1697.72,-681.87C1697.72,-667.02 1697.72,-645.27 1697.72,-628.03"/>
<polygon fill="#9ecae1" stroke="#9ecae1" points="1701.22,-627.97 1697.72,-617.97 1694.22,-627.97 1701.22,-627.97"/>
</g>
<!-- Spike detected?\n(x range: pulse onset to end of sweep\ny condition: max above 0.01mV)\nStore result in labnotebook -->
<g id="node10" class="node">
<title>Spike detected?\n(x range: pulse onset to end of sweep\ny condition: max above 0.01mV)\nStore result in labnotebook</title>
<ellipse fill="#eff3ff" stroke="#bdd7e7" cx="1282.72" cy="-599.72" rx="190.42" ry="45.01"/>
<text text-anchor="middle" x="1282.72" y="-617.32" font-family="Helvetica,sans-Serif" font-size="13.00" fill="#2171b5">Spike detected?</text>
<text text-anchor="middle" x="1282.72" y="-603.32" font-family="Helvetica,sans-Serif" font-size="13.00" fill="#2171b5">(x range: pulse onset to end of sweep</text>
<text text-anchor="middle" x="1282.72" y="-589.32" font-family="Helvetica,sans-Serif" font-size="13.00" fill="#2171b5">y condition: max above 0.01mV)</text>
<text text-anchor="middle" x="1282.72" y="-575.32" font-family="Helvetica,sans-Serif" font-size="13.00" fill="#2171b5">Store result in labnotebook</text>
</g>
<!-- Post Sweep Event&#45;&gt;Spike detected?\n(x range: pulse onset to end of sweep\ny condition: max above 0.01mV)\nStore result in labnotebook -->
<g id="edge9" class="edge">
<title>Post Sweep Event&#45;&gt;Spike detected?\n(x range: pulse onset to end of sweep\ny condition: max above 0.01mV)\nStore result in labnotebook</title>
<path fill="none" stroke="#9ecae1" d="M1643.46,-686.13C1588.37,-673.09 1500.72,-652.34 1425.61,-634.56"/>
<polygon fill="#9ecae1" stroke="#9ecae1" points="1426.11,-631.08 1415.58,-632.18 1424.5,-637.89 1426.11,-631.08"/>
</g>
<!-- Update Dashboard -->
<g id="node11" class="node">
<title>Update Dashboard</title>
<ellipse fill="#eff3ff" stroke="#bdd7e7" cx="1969.72" cy="-599.72" rx="88.37" ry="18"/>
<text text-anchor="middle" x="1969.72" y="-596.32" font-family="Helvetica,sans-Serif" font-size="13.00" fill="#2171b5">Update Dashboard</text>
</g>
<!-- Post DAQ Event&#45;&gt;Update Dashboard -->
<g id="edge10" class="edge">
<title>Post DAQ Event&#45;&gt;Update Dashboard</title>
<path fill="none" stroke="#9ecae1" d="M1969.72,-681.87C1969.72,-667.02 1969.72,-645.27 1969.72,-628.03"/>
<polygon fill="#9ecae1" stroke="#9ecae1" points="1973.22,-627.97 1969.72,-617.97 1966.22,-627.97 1973.22,-627.97"/>
</g>
<!-- n92 -->
<g id="node12" class="node">
<title>n92</title>
<g id="a_node12"><a xlink:href="../_static/images/async-qc-channels.svg" xlink:title="Standard AsyncQCChannels handling" target="_graphviz">
<ellipse fill="#eff3ff" stroke="#bdd7e7" cx="2241.72" cy="-599.72" rx="165.5" ry="18"/>
<text text-anchor="middle" x="2241.72" y="-596.32" font-family="Helvetica,sans-Serif" font-size="13.00" fill="#2171b5">Standard AsyncQCChannels handling</text>
</a>
</g>
</g>
<!-- Pre Sweep Config Event&#45;&gt;n92 -->
<g id="edge11" class="edge">
<title>Pre Sweep Config Event&#45;&gt;n92</title>
<path fill="none" stroke="#9ecae1" d="M2213.64,-681.87C2218.82,-666.88 2226.44,-644.86 2232.44,-627.54"/>
<polygon fill="#9ecae1" stroke="#9ecae1" points="2235.79,-628.57 2235.75,-617.97 2229.17,-626.28 2235.79,-628.57"/>
</g>
<!-- Mark set as passed if 1 sweep passed,\nas failure otherwise -->
<g id="node13" class="node">
<title>Mark set as passed if 1 sweep passed,\nas failure otherwise</title>
<ellipse fill="#eff3ff" stroke="#bdd7e7" cx="2617.72" cy="-599.72" rx="192.17" ry="25.41"/>
<text text-anchor="middle" x="2617.72" y="-603.32" font-family="Helvetica,sans-Serif" font-size="13.00" fill="#2171b5">Mark set as passed if 1 sweep passed,</text>
<text text-anchor="middle" x="2617.72" y="-589.32" font-family="Helvetica,sans-Serif" font-size="13.00" fill="#2171b5">as failure otherwise</text>
</g>
<!-- Post Set Event&#45;&gt;Mark set as passed if 1 sweep passed,\nas failure otherwise -->
<g id="edge12" class="edge">
<title>Post Set Event&#45;&gt;Mark set as passed if 1 sweep passed,\nas failure otherwise</title>
<path fill="none" stroke="#9ecae1" d="M2529.7,-682.31C2544.48,-668.61 2565.84,-648.81 2583.81,-632.15"/>
<polygon fill="#9ecae1" stroke="#9ecae1" points="2586.33,-634.59 2591.28,-625.23 2581.57,-629.46 2586.33,-634.59"/>
</g>
<!-- Disable &quot;dDAQ&quot;/&quot;oodDAQ&quot; -->
<g id="node14" class="node">
<title>Disable &quot;dDAQ&quot;/&quot;oodDAQ&quot;</title>
<ellipse fill="#eff3ff" stroke="#bdd7e7" cx="643.72" cy="-482.01" rx="120.04" ry="18"/>
<text text-anchor="middle" x="643.72" y="-478.61" font-family="Helvetica,sans-Serif" font-size="13.00" fill="#2171b5">Disable &quot;dDAQ&quot;/&quot;oodDAQ&quot;</text>
</g>
<!-- Enable &quot;Multidevice DAQ&quot;&#45;&gt;Disable &quot;dDAQ&quot;/&quot;oodDAQ&quot; -->
<g id="edge13" class="edge">
<title>Enable &quot;Multidevice DAQ&quot;&#45;&gt;Disable &quot;dDAQ&quot;/&quot;oodDAQ&quot;</title>
<path fill="none" stroke="#9ecae1" d="M643.72,-581.65C643.72,-562.85 643.72,-532.36 643.72,-510.25"/>
<polygon fill="#9ecae1" stroke="#9ecae1" points="647.22,-510.16 643.72,-500.16 640.22,-510.16 647.22,-510.16"/>
</g>
<!-- Check if no TTL channels are active -->
<g id="node15" class="node">
<title>Check if no TTL channels are active</title>
<ellipse fill="#eff3ff" stroke="#bdd7e7" cx="339.72" cy="-482.01" rx="160.39" ry="18"/>
<text text-anchor="middle" x="339.72" y="-478.61" font-family="Helvetica,sans-Serif" font-size="13.00" fill="#2171b5">Check if no TTL channels are active</text>
</g>
<!-- Check if mode is IC&#45;&gt;Check if no TTL channels are active -->
<g id="edge14" class="edge">
<title>Check if mode is IC&#45;&gt;Check if no TTL channels are active</title>
<path fill="none" stroke="#9ecae1" d="M388.31,-581.65C378.92,-562.59 363.61,-531.53 352.69,-509.35"/>
<polygon fill="#9ecae1" stroke="#9ecae1" points="355.72,-507.58 348.16,-500.16 349.44,-510.68 355.72,-507.58"/>
</g>
<!-- n37 -->
<g id="node16" class="node">
<title>n37</title>
<ellipse fill="#eff3ff" stroke="#bdd7e7" cx="1703.72" cy="-482.01" rx="231.86" ry="25.41"/>
<text text-anchor="middle" x="1703.72" y="-485.61" font-family="Helvetica,sans-Serif" font-size="13.00" fill="#2171b5">Read &quot;SamplingFrequency&quot; analysis parameter</text>
<text text-anchor="middle" x="1703.72" y="-471.61" font-family="Helvetica,sans-Serif" font-size="13.00" fill="#2171b5"> (defaulting to 50kHz) if not present</text>
</g>
<!-- n91&#45;&gt;n37 -->
<g id="edge15" class="edge">
<title>n91&#45;&gt;n37</title>
<path fill="none" stroke="#9ecae1" d="M1698.6,-581.65C1699.47,-564.98 1700.81,-539.12 1701.9,-518.06"/>
<polygon fill="#9ecae1" stroke="#9ecae1" points="1705.41,-518.03 1702.43,-507.86 1698.41,-517.66 1705.41,-518.03"/>
</g>
<!-- n43 -->
<g id="node17" class="node">
<title>n43</title>
<ellipse fill="#eff3ff" stroke="#bdd7e7" cx="1974.72" cy="-413.1" rx="141.34" ry="25.41"/>
<text text-anchor="middle" x="1974.72" y="-416.7" font-family="Helvetica,sans-Serif" font-size="13.00" fill="#2171b5">Has Async Channels QC</text>
<text text-anchor="middle" x="1974.72" y="-402.7" font-family="Helvetica,sans-Serif" font-size="13.00" fill="#2171b5"> labnotebook entry passed?</text>
</g>
<!-- n91&#45;&gt;n43 -->
<g id="edge16" class="edge">
<title>n91&#45;&gt;n43</title>
<path fill="none" stroke="#9ecae1" d="M1758.39,-582.9C1822.69,-565.02 1918.51,-534.83 1944.72,-507.47 1959.89,-491.63 1967.39,-468.08 1971.1,-448.6"/>
<polygon fill="#9ecae1" stroke="#9ecae1" points="1974.58,-448.99 1972.75,-438.56 1967.67,-447.86 1974.58,-448.99"/>
</g>
<!-- DAScale is zero -->
<g id="node18" class="node">
<title>DAScale is zero</title>
<ellipse fill="#eff3ff" stroke="#bdd7e7" cx="1282.72" cy="-482.01" rx="75.34" ry="18"/>
<text text-anchor="middle" x="1282.72" y="-478.61" font-family="Helvetica,sans-Serif" font-size="13.00" fill="#2171b5">DAScale is zero</text>
</g>
<!-- Spike detected?\n(x range: pulse onset to end of sweep\ny condition: max above 0.01mV)\nStore result in labnotebook&#45;&gt;DAScale is zero -->
<g id="edge17" class="edge">
<title>Spike detected?\n(x range: pulse onset to end of sweep\ny condition: max above 0.01mV)\nStore result in labnotebook&#45;&gt;DAScale is zero</title>
<path fill="none" stroke="#9ecae1" d="M1282.72,-554.32C1282.72,-539.48 1282.72,-523.39 1282.72,-510.26"/>
<polygon fill="#9ecae1" stroke="#9ecae1" points="1286.22,-510.02 1282.72,-500.02 1279.22,-510.02 1286.22,-510.02"/>
<text text-anchor="middle" x="1290.72" y="-528.47" font-family="Helvetica,sans-Serif" font-size="10.00" fill="#3182bd">Yes</text>
</g>
<!-- Step Size from labnotebook? -->
<g id="node19" class="node">
<title>Step Size from labnotebook?</title>
<ellipse fill="#eff3ff" stroke="#bdd7e7" cx="952.72" cy="-344.19" rx="130.51" ry="18"/>
<text text-anchor="middle" x="952.72" y="-340.79" font-family="Helvetica,sans-Serif" font-size="13.00" fill="#2171b5">Step Size from labnotebook?</text>
</g>
<!-- Spike detected?\n(x range: pulse onset to end of sweep\ny condition: max above 0.01mV)\nStore result in labnotebook&#45;&gt;Step Size from labnotebook? -->
<g id="edge18" class="edge">
<title>Spike detected?\n(x range: pulse onset to end of sweep\ny condition: max above 0.01mV)\nStore result in labnotebook&#45;&gt;Step Size from labnotebook?</title>
<path fill="none" stroke="#9ecae1" d="M1227.48,-556.29C1157.15,-502.25 1038.12,-410.8 982.73,-368.25"/>
<polygon fill="#9ecae1" stroke="#9ecae1" points="984.78,-365.41 974.72,-362.1 980.52,-370.96 984.78,-365.41"/>
<text text-anchor="middle" x="1168.72" y="-479.51" font-family="Helvetica,sans-Serif" font-size="10.00" fill="#3182bd">No</text>
</g>
<!-- Skip to end -->
<g id="node21" class="node">
<title>Skip to end</title>
<ellipse fill="#eff3ff" stroke="#bdd7e7" cx="2617.72" cy="-482.01" rx="58.23" ry="18"/>
<text text-anchor="middle" x="2617.72" y="-478.61" font-family="Helvetica,sans-Serif" font-size="13.00" fill="#2171b5">Skip to end</text>
</g>
<!-- Mark set as passed if 1 sweep passed,\nas failure otherwise&#45;&gt;Skip to end -->
<g id="edge20" class="edge">
<title>Mark set as passed if 1 sweep passed,\nas failure otherwise&#45;&gt;Skip to end</title>
<path fill="none" stroke="#9ecae1" d="M2617.72,-574.19C2617.72,-555.38 2617.72,-529.45 2617.72,-510.05"/>
<polygon fill="#9ecae1" stroke="#9ecae1" points="2621.22,-510.03 2617.72,-500.03 2614.22,-510.03 2621.22,-510.03"/>
<text text-anchor="middle" x="2634.22" y="-528.47" font-family="Helvetica,sans-Serif" font-size="10.00" fill="#3182bd">Failure</text>
</g>
<!-- Set &quot;TP inserting&quot; to disabled -->
<g id="node22" class="node">
<title>Set &quot;TP inserting&quot; to disabled</title>
<ellipse fill="#eff3ff" stroke="#bdd7e7" cx="643.72" cy="-344.19" rx="133.07" ry="18"/>
<text text-anchor="middle" x="643.72" y="-340.79" font-family="Helvetica,sans-Serif" font-size="13.00" fill="#2171b5">Set &quot;TP inserting&quot; to disabled</text>
</g>
<!-- Disable &quot;dDAQ&quot;/&quot;oodDAQ&quot;&#45;&gt;Set &quot;TP inserting&quot; to disabled -->
<g id="edge21" class="edge">
<title>Disable &quot;dDAQ&quot;/&quot;oodDAQ&quot;&#45;&gt;Set &quot;TP inserting&quot; to disabled</title>
<path fill="none" stroke="#9ecae1" d="M643.72,-463.81C643.72,-440.75 643.72,-399.55 643.72,-372.3"/>
<polygon fill="#9ecae1" stroke="#9ecae1" points="647.22,-372.25 643.72,-362.25 640.22,-372.25 647.22,-372.25"/>
</g>
<!-- Check if only one headstage is active -->
<g id="node23" class="node">
<title>Check if only one headstage is active</title>
<ellipse fill="#eff3ff" stroke="#bdd7e7" cx="324.72" cy="-344.19" rx="168.05" ry="18"/>
<text text-anchor="middle" x="324.72" y="-340.79" font-family="Helvetica,sans-Serif" font-size="13.00" fill="#2171b5">Check if only one headstage is active</text>
</g>
<!-- Check if no TTL channels are active&#45;&gt;Check if only one headstage is active -->
<g id="edge22" class="edge">
<title>Check if no TTL channels are active&#45;&gt;Check if only one headstage is active</title>
<path fill="none" stroke="#9ecae1" d="M337.82,-463.81C335.27,-440.75 330.72,-399.55 327.71,-372.3"/>
<polygon fill="#9ecae1" stroke="#9ecae1" points="331.18,-371.81 326.6,-362.25 324.22,-372.58 331.18,-371.81"/>
</g>
<!-- n38 -->
<g id="node20" class="node">
<title>n38</title>
<ellipse fill="#eff3ff" stroke="#bdd7e7" cx="1820.72" cy="-344.19" rx="137.77" ry="25.41"/>
<text text-anchor="middle" x="1820.72" y="-347.79" font-family="Helvetica,sans-Serif" font-size="13.00" fill="#2171b5">Check if the acquired data</text>
<text text-anchor="middle" x="1820.72" y="-333.79" font-family="Helvetica,sans-Serif" font-size="13.00" fill="#2171b5"> has that sampling interval</text>
</g>
<!-- n37&#45;&gt;n38 -->
<g id="edge19" class="edge">
<title>n37&#45;&gt;n38</title>
<path fill="none" stroke="#9ecae1" d="M1724.9,-456.42C1743.96,-434.3 1772.07,-401.67 1792.92,-377.46"/>
<polygon fill="#9ecae1" stroke="#9ecae1" points="1795.81,-379.47 1799.69,-369.6 1790.51,-374.9 1795.81,-379.47"/>
</g>
<!-- n39 -->
<g id="node29" class="node">
<title>n39</title>
<ellipse fill="#eff3ff" stroke="#bdd7e7" cx="1979.72" cy="-246.28" rx="102.93" ry="18"/>
<text text-anchor="middle" x="1979.72" y="-242.88" font-family="Helvetica,sans-Serif" font-size="13.00" fill="#2171b5">Mark Sweep as failure</text>
</g>
<!-- n43&#45;&gt;n39 -->
<g id="edge50" class="edge">
<title>n43&#45;&gt;n39</title>
<path fill="none" stroke="#9ecae1" d="M1975.47,-387.43C1976.38,-357.22 1977.93,-306.22 1978.88,-274.78"/>
<polygon fill="#9ecae1" stroke="#9ecae1" points="1982.39,-274.65 1979.19,-264.54 1975.39,-274.43 1982.39,-274.65"/>
<text text-anchor="middle" x="1984.72" y="-341.69" font-family="Helvetica,sans-Serif" font-size="10.00" fill="#3182bd">No</text>
</g>
<!-- Step size from labnotebook? -->
<g id="node24" class="node">
<title>Step size from labnotebook?</title>
<ellipse fill="#eff3ff" stroke="#bdd7e7" cx="1278.72" cy="-344.19" rx="130.25" ry="18"/>
<text text-anchor="middle" x="1278.72" y="-340.79" font-family="Helvetica,sans-Serif" font-size="13.00" fill="#2171b5">Step size from labnotebook?</text>
</g>
<!-- DAScale is zero&#45;&gt;Step size from labnotebook? -->
<g id="edge23" class="edge">
<title>DAScale is zero&#45;&gt;Step size from labnotebook?</title>
<path fill="none" stroke="#9ecae1" d="M1282.21,-463.81C1281.53,-440.75 1280.32,-399.55 1279.51,-372.3"/>
<polygon fill="#9ecae1" stroke="#9ecae1" points="1283.01,-372.15 1279.22,-362.25 1276.01,-372.35 1283.01,-372.15"/>
<text text-anchor="middle" x="1288.72" y="-410.6" font-family="Helvetica,sans-Serif" font-size="10.00" fill="#3182bd">No</text>
</g>
<!-- Add labnotebook entry\ndocumenting this case -->
<g id="node25" class="node">
<title>Add labnotebook entry\ndocumenting this case</title>
<ellipse fill="#eff3ff" stroke="#bdd7e7" cx="1545.72" cy="-344.19" rx="118.59" ry="25.41"/>
<text text-anchor="middle" x="1545.72" y="-347.79" font-family="Helvetica,sans-Serif" font-size="13.00" fill="#2171b5">Add labnotebook entry</text>
<text text-anchor="middle" x="1545.72" y="-333.79" font-family="Helvetica,sans-Serif" font-size="13.00" fill="#2171b5">documenting this case</text>
</g>
<!-- DAScale is zero&#45;&gt;Add labnotebook entry\ndocumenting this case -->
<g id="edge24" class="edge">
<title>DAScale is zero&#45;&gt;Add labnotebook entry\ndocumenting this case</title>
<path fill="none" stroke="#9ecae1" d="M1312.89,-465.43C1356.63,-442.84 1438.35,-400.64 1492.4,-372.73"/>
<polygon fill="#9ecae1" stroke="#9ecae1" points="1494.21,-375.73 1501.49,-368.03 1491,-369.51 1494.21,-375.73"/>
<text text-anchor="middle" x="1468.72" y="-410.6" font-family="Helvetica,sans-Serif" font-size="10.00" fill="#3182bd">Yes</text>
</g>
<!-- Write step size of\n+10pA to labnotebook -->
<g id="node26" class="node">
<title>Write step size of\n+10pA to labnotebook</title>
<ellipse fill="#eff3ff" stroke="#bdd7e7" cx="997.72" cy="-246.28" rx="118.17" ry="25.41"/>
<text text-anchor="middle" x="997.72" y="-249.88" font-family="Helvetica,sans-Serif" font-size="13.00" fill="#2171b5">Write step size of</text>
<text text-anchor="middle" x="997.72" y="-235.88" font-family="Helvetica,sans-Serif" font-size="13.00" fill="#2171b5">+10pA to labnotebook</text>
</g>
<!-- Step Size from labnotebook?&#45;&gt;Write step size of\n+10pA to labnotebook -->
<g id="edge25" class="edge">
<title>Step Size from labnotebook?&#45;&gt;Write step size of\n+10pA to labnotebook</title>
<path fill="none" stroke="#9ecae1" d="M960.76,-326.04C966.62,-313.55 974.76,-296.22 981.9,-280.99"/>
<polygon fill="#9ecae1" stroke="#9ecae1" points="985.11,-282.39 986.19,-271.85 978.77,-279.41 985.11,-282.39"/>
<text text-anchor="middle" x="991.22" y="-292.74" font-family="Helvetica,sans-Serif" font-size="10.00" fill="#3182bd">&#45;50pA</text>
</g>
<!-- Offset DAScale\nby +10pA -->
<g id="node27" class="node">
<title>Offset DAScale\nby +10pA</title>
<ellipse fill="#eff3ff" stroke="#bdd7e7" cx="937.72" cy="-108.46" rx="82.05" ry="25.41"/>
<text text-anchor="middle" x="937.72" y="-112.06" font-family="Helvetica,sans-Serif" font-size="13.00" fill="#2171b5">Offset DAScale</text>
<text text-anchor="middle" x="937.72" y="-98.06" font-family="Helvetica,sans-Serif" font-size="13.00" fill="#2171b5">by +10pA</text>
</g>
<!-- Step Size from labnotebook?&#45;&gt;Offset DAScale\nby +10pA -->
<g id="edge26" class="edge">
<title>Step Size from labnotebook?&#45;&gt;Offset DAScale\nby +10pA</title>
<path fill="none" stroke="#9ecae1" d="M905.79,-327.29C880.48,-316.03 851.48,-298.17 836.72,-271.74 810.13,-224.13 859.28,-170.78 897.9,-138.67"/>
<polygon fill="#9ecae1" stroke="#9ecae1" points="900.38,-141.17 905.95,-132.16 895.97,-135.73 900.38,-141.17"/>
<text text-anchor="middle" x="853.72" y="-243.78" font-family="Helvetica,sans-Serif" font-size="10.00" fill="#3182bd">+10pA</text>
</g>
<!-- Offset DAScale\nby +100pA -->
<g id="node28" class="node">
<title>Offset DAScale\nby +100pA</title>
<ellipse fill="#eff3ff" stroke="#bdd7e7" cx="730.72" cy="-177.37" rx="82.05" ry="25.41"/>
<text text-anchor="middle" x="730.72" y="-180.97" font-family="Helvetica,sans-Serif" font-size="13.00" fill="#2171b5">Offset DAScale</text>
<text text-anchor="middle" x="730.72" y="-166.97" font-family="Helvetica,sans-Serif" font-size="13.00" fill="#2171b5">by +100pA</text>
</g>
<!-- Step Size from labnotebook?&#45;&gt;Offset DAScale\nby +100pA -->
<g id="edge27" class="edge">
<title>Step Size from labnotebook?&#45;&gt;Offset DAScale\nby +100pA</title>
<path fill="none" stroke="#9ecae1" d="M863.95,-330.94C825.87,-323.95 787.07,-313.92 773.72,-300.74 747.67,-275.01 766.99,-254.95 753.72,-220.82 752.53,-217.78 751.17,-214.67 749.72,-211.6"/>
<polygon fill="#9ecae1" stroke="#9ecae1" points="752.8,-209.92 745.18,-202.56 746.54,-213.07 752.8,-209.92"/>
<text text-anchor="middle" x="793.72" y="-292.74" font-family="Helvetica,sans-Serif" font-size="10.00" fill="#3182bd">+100pA</text>
</g>
<!-- n38&#45;&gt;n39 -->
<g id="edge28" class="edge">
<title>n38&#45;&gt;n39</title>
<path fill="none" stroke="#9ecae1" d="M1859.61,-319.73C1885.16,-304.32 1918.35,-284.29 1943.37,-269.21"/>
<polygon fill="#9ecae1" stroke="#9ecae1" points="1945.43,-272.05 1952.19,-263.89 1941.81,-266.05 1945.43,-272.05"/>
<text text-anchor="middle" x="1912.72" y="-292.74" font-family="Helvetica,sans-Serif" font-size="10.00" fill="#3182bd">No</text>
</g>
<!-- Set &quot;TP during ITI&quot; to disabled -->
<g id="node30" class="node">
<title>Set &quot;TP during ITI&quot; to disabled</title>
<ellipse fill="#eff3ff" stroke="#bdd7e7" cx="608.72" cy="-246.28" rx="135.62" ry="18"/>
<text text-anchor="middle" x="608.72" y="-242.88" font-family="Helvetica,sans-Serif" font-size="13.00" fill="#2171b5">Set &quot;TP during ITI&quot; to disabled</text>
</g>
<!-- Set &quot;TP inserting&quot; to disabled&#45;&gt;Set &quot;TP during ITI&quot; to disabled -->
<g id="edge29" class="edge">
<title>Set &quot;TP inserting&quot; to disabled&#45;&gt;Set &quot;TP during ITI&quot; to disabled</title>
<path fill="none" stroke="#9ecae1" d="M637.46,-326.04C632.18,-311.59 624.54,-290.65 618.47,-274"/>
<polygon fill="#9ecae1" stroke="#9ecae1" points="621.64,-272.47 614.92,-264.28 615.06,-274.87 621.64,-272.47"/>
</g>
<!-- All checks passed -->
<g id="node31" class="node">
<title>All checks passed</title>
<ellipse fill="#eff3ff" stroke="#bdd7e7" cx="324.72" cy="-246.28" rx="84.79" ry="18"/>
<text text-anchor="middle" x="324.72" y="-242.88" font-family="Helvetica,sans-Serif" font-size="13.00" fill="#2171b5">All checks passed</text>
</g>
<!-- Check if only one headstage is active&#45;&gt;All checks passed -->
<g id="edge30" class="edge">
<title>Check if only one headstage is active&#45;&gt;All checks passed</title>
<path fill="none" stroke="#9ecae1" d="M324.72,-326.04C324.72,-311.81 324.72,-291.3 324.72,-274.78"/>
<polygon fill="#9ecae1" stroke="#9ecae1" points="328.22,-274.6 324.72,-264.6 321.22,-274.6 328.22,-274.6"/>
</g>
<!-- Store DAScale\nin labnotebook -->
<g id="node32" class="node">
<title>Store DAScale\nin labnotebook</title>
<ellipse fill="#eff3ff" stroke="#bdd7e7" cx="1524.72" cy="-246.28" rx="82.05" ry="25.41"/>
<text text-anchor="middle" x="1524.72" y="-249.88" font-family="Helvetica,sans-Serif" font-size="13.00" fill="#2171b5">Store DAScale</text>
<text text-anchor="middle" x="1524.72" y="-235.88" font-family="Helvetica,sans-Serif" font-size="13.00" fill="#2171b5">in labnotebook</text>
</g>
<!-- Step size from labnotebook?&#45;&gt;Store DAScale\nin labnotebook -->
<g id="edge31" class="edge">
<title>Step size from labnotebook?&#45;&gt;Store DAScale\nin labnotebook</title>
<path fill="none" stroke="#9ecae1" d="M1331.5,-327.69C1355.6,-320.21 1384.35,-310.7 1409.72,-300.74 1431.03,-292.36 1454.02,-281.97 1473.79,-272.58"/>
<polygon fill="#9ecae1" stroke="#9ecae1" points="1475.42,-275.68 1482.92,-268.2 1472.39,-269.36 1475.42,-275.68"/>
<text text-anchor="middle" x="1452.72" y="-292.74" font-family="Helvetica,sans-Serif" font-size="10.00" fill="#3182bd">+10pA</text>
</g>
<!-- Offset DAScale\nby &#45;50pA -->
<g id="node33" class="node">
<title>Offset DAScale\nby &#45;50pA</title>
<ellipse fill="#eff3ff" stroke="#bdd7e7" cx="1246.72" cy="-108.46" rx="82.05" ry="25.41"/>
<text text-anchor="middle" x="1246.72" y="-112.06" font-family="Helvetica,sans-Serif" font-size="13.00" fill="#2171b5">Offset DAScale</text>
<text text-anchor="middle" x="1246.72" y="-98.06" font-family="Helvetica,sans-Serif" font-size="13.00" fill="#2171b5">by &#45;50pA</text>
</g>
<!-- Step size from labnotebook?&#45;&gt;Offset DAScale\nby &#45;50pA -->
<g id="edge32" class="edge">
<title>Step size from labnotebook?&#45;&gt;Offset DAScale\nby &#45;50pA</title>
<path fill="none" stroke="#9ecae1" d="M1312.18,-326.65C1332.62,-314.53 1357,-295.99 1368.72,-271.74 1378.56,-251.36 1377.85,-241.53 1368.72,-220.82 1353.14,-185.51 1320.22,-156.55 1292.51,-137.02"/>
<polygon fill="#9ecae1" stroke="#9ecae1" points="1294.32,-134.02 1284.09,-131.26 1290.37,-139.8 1294.32,-134.02"/>
<text text-anchor="middle" x="1391.22" y="-243.78" font-family="Helvetica,sans-Serif" font-size="10.00" fill="#3182bd">&#45;50pA</text>
</g>
<!-- Write step size of\n&#45;50pA to labnotebook -->
<g id="node34" class="node">
<title>Write step size of\n&#45;50pA to labnotebook</title>
<ellipse fill="#eff3ff" stroke="#bdd7e7" cx="1246.72" cy="-246.28" rx="113.27" ry="25.41"/>
<text text-anchor="middle" x="1246.72" y="-249.88" font-family="Helvetica,sans-Serif" font-size="13.00" fill="#2171b5">Write step size of</text>
<text text-anchor="middle" x="1246.72" y="-235.88" font-family="Helvetica,sans-Serif" font-size="13.00" fill="#2171b5">&#45;50pA to labnotebook</text>
</g>
<!-- Step size from labnotebook?&#45;&gt;Write step size of\n&#45;50pA to labnotebook -->
<g id="edge33" class="edge">
<title>Step size from labnotebook?&#45;&gt;Write step size of\n&#45;50pA to labnotebook</title>
<path fill="none" stroke="#9ecae1" d="M1273,-326.04C1268.87,-313.67 1263.15,-296.54 1258.11,-281.42"/>
<polygon fill="#9ecae1" stroke="#9ecae1" points="1261.4,-280.22 1254.91,-271.85 1254.76,-282.44 1261.4,-280.22"/>
<text text-anchor="middle" x="1283.72" y="-292.74" font-family="Helvetica,sans-Serif" font-size="10.00" fill="#3182bd">+100pA</text>
</g>
<!-- Mark sweep as failure [2] -->
<g id="node35" class="node">
<title>Mark sweep as failure [2]</title>
<ellipse fill="#eff3ff" stroke="#bdd7e7" cx="1741.72" cy="-246.28" rx="116.72" ry="18"/>
<text text-anchor="middle" x="1741.72" y="-242.88" font-family="Helvetica,sans-Serif" font-size="13.00" fill="#2171b5">Mark sweep as failure [2]</text>
</g>
<!-- Add labnotebook entry\ndocumenting this case&#45;&gt;Mark sweep as failure [2] -->
<g id="edge34" class="edge">
<title>Add labnotebook entry\ndocumenting this case&#45;&gt;Mark sweep as failure [2]</title>
<path fill="none" stroke="#9ecae1" d="M1591.67,-320.7C1624.21,-304.78 1667.54,-283.58 1699.27,-268.05"/>
<polygon fill="#9ecae1" stroke="#9ecae1" points="1700.86,-271.17 1708.3,-263.63 1697.78,-264.88 1700.86,-271.17"/>
</g>
<!-- Write step size of\n+10pA to labnotebook&#45;&gt;Offset DAScale\nby +10pA -->
<g id="edge35" class="edge">
<title>Write step size of\n+10pA to labnotebook&#45;&gt;Offset DAScale\nby +10pA</title>
<path fill="none" stroke="#9ecae1" d="M986.85,-220.68C977.29,-199.05 963.29,-167.35 952.68,-143.32"/>
<polygon fill="#9ecae1" stroke="#9ecae1" points="955.74,-141.6 948.5,-133.87 949.34,-144.43 955.74,-141.6"/>
</g>
<!-- Mark sweep as failed [1] -->
<g id="node36" class="node">
<title>Mark sweep as failed [1]</title>
<ellipse fill="#eff3ff" stroke="#bdd7e7" cx="937.72" cy="-18" rx="113.14" ry="18"/>
<text text-anchor="middle" x="937.72" y="-14.6" font-family="Helvetica,sans-Serif" font-size="13.00" fill="#2171b5">Mark sweep as failed [1]</text>
</g>
<!-- Offset DAScale\nby +10pA&#45;&gt;Mark sweep as failed [1] -->
<g id="edge36" class="edge">
<title>Offset DAScale\nby +10pA&#45;&gt;Mark sweep as failed [1]</title>
<path fill="none" stroke="#9ecae1" d="M937.72,-82.82C937.72,-71.47 937.72,-57.96 937.72,-46.3"/>
<polygon fill="#9ecae1" stroke="#9ecae1" points="941.22,-46.23 937.72,-36.23 934.22,-46.23 941.22,-46.23"/>
</g>
<!-- Offset DAScale\nby +100pA&#45;&gt;Mark sweep as failed [1] -->
<g id="edge37" class="edge">
<title>Offset DAScale\nby +100pA&#45;&gt;Mark sweep as failed [1]</title>
<path fill="none" stroke="#9ecae1" d="M758.44,-153.21C781.7,-134 815.94,-106.17 846.72,-83 865.51,-68.85 887.01,-53.68 904.4,-41.67"/>
<polygon fill="#9ecae1" stroke="#9ecae1" points="906.82,-44.24 913.08,-35.69 902.85,-38.48 906.82,-44.24"/>
</g>
<!-- Skip to end of active set -->
<g id="node37" class="node">
<title>Skip to end of active set</title>
<ellipse fill="#eff3ff" stroke="#bdd7e7" cx="1771.72" cy="-18" rx="113.14" ry="18"/>
<text text-anchor="middle" x="1771.72" y="-14.6" font-family="Helvetica,sans-Serif" font-size="13.00" fill="#2171b5">Skip to end of active set</text>
</g>
<!-- n39&#45;&gt;Skip to end of active set -->
<g id="edge38" class="edge">
<title>n39&#45;&gt;Skip to end of active set</title>
<path fill="none" stroke="#9ecae1" d="M1975.84,-227.89C1967.81,-195.51 1946.52,-125.46 1904.72,-83 1884.79,-62.76 1857.19,-48.05 1832.29,-37.87"/>
<polygon fill="#9ecae1" stroke="#9ecae1" points="1833.49,-34.59 1822.9,-34.19 1830.93,-41.1 1833.49,-34.59"/>
</g>
<!-- Set &quot;ITI&quot; to 100ms -->
<g id="node38" class="node">
<title>Set &quot;ITI&quot; to 100ms</title>
<ellipse fill="#eff3ff" stroke="#bdd7e7" cx="608.72" cy="-108.46" rx="86.58" ry="18"/>
<text text-anchor="middle" x="608.72" y="-105.06" font-family="Helvetica,sans-Serif" font-size="13.00" fill="#2171b5">Set &quot;ITI&quot; to 100ms</text>
</g>
<!-- Set &quot;TP during ITI&quot; to disabled&#45;&gt;Set &quot;ITI&quot; to 100ms -->
<g id="edge39" class="edge">
<title>Set &quot;TP during ITI&quot; to disabled&#45;&gt;Set &quot;ITI&quot; to 100ms</title>
<path fill="none" stroke="#9ecae1" d="M608.72,-228.08C608.72,-205.01 608.72,-163.82 608.72,-136.56"/>
<polygon fill="#9ecae1" stroke="#9ecae1" points="612.22,-136.52 608.72,-126.52 605.22,-136.52 612.22,-136.52"/>
</g>
<!-- Set DAScale to 100pA -->
<g id="node39" class="node">
<title>Set DAScale to 100pA</title>
<ellipse fill="#eff3ff" stroke="#bdd7e7" cx="209.72" cy="-108.46" rx="102.16" ry="18"/>
<text text-anchor="middle" x="209.72" y="-105.06" font-family="Helvetica,sans-Serif" font-size="13.00" fill="#2171b5">Set DAScale to 100pA</text>
</g>
<!-- All checks passed&#45;&gt;Set DAScale to 100pA -->
<g id="edge40" class="edge">
<title>All checks passed&#45;&gt;Set DAScale to 100pA</title>
<path fill="none" stroke="#9ecae1" d="M310.38,-228.35C290.41,-204.76 254.07,-161.84 230.95,-134.53"/>
<polygon fill="#9ecae1" stroke="#9ecae1" points="233.36,-131.97 224.23,-126.6 228.02,-136.49 233.36,-131.97"/>
<text text-anchor="middle" x="295.72" y="-174.87" font-family="Helvetica,sans-Serif" font-size="10.00" fill="#3182bd">Yes</text>
</g>
<!-- Abort -->
<g id="node40" class="node">
<title>Abort</title>
<ellipse fill="#eff3ff" stroke="#bdd7e7" cx="363.72" cy="-108.46" rx="33.46" ry="18"/>
<text text-anchor="middle" x="363.72" y="-105.06" font-family="Helvetica,sans-Serif" font-size="13.00" fill="#2171b5">Abort</text>
</g>
<!-- All checks passed&#45;&gt;Abort -->
<g id="edge41" class="edge">
<title>All checks passed&#45;&gt;Abort</title>
<path fill="none" stroke="#9ecae1" d="M329.66,-228.08C336.31,-204.91 348.21,-163.45 356.04,-136.2"/>
<polygon fill="#9ecae1" stroke="#9ecae1" points="359.42,-137.1 358.82,-126.52 352.69,-135.16 359.42,-137.1"/>
<text text-anchor="middle" x="358.72" y="-174.87" font-family="Helvetica,sans-Serif" font-size="10.00" fill="#3182bd">No</text>
</g>
<!-- Mark sweep as passed -->
<g id="node41" class="node">
<title>Mark sweep as passed</title>
<ellipse fill="#eff3ff" stroke="#bdd7e7" cx="1524.72" cy="-108.46" rx="104.72" ry="18"/>
<text text-anchor="middle" x="1524.72" y="-105.06" font-family="Helvetica,sans-Serif" font-size="13.00" fill="#2171b5">Mark sweep as passed</text>
</g>
<!-- Store DAScale\nin labnotebook&#45;&gt;Mark sweep as passed -->
<g id="edge42" class="edge">
<title>Store DAScale\nin labnotebook&#45;&gt;Mark sweep as passed</title>
<path fill="none" stroke="#9ecae1" d="M1524.72,-220.68C1524.72,-196.98 1524.72,-161.18 1524.72,-136.64"/>
<polygon fill="#9ecae1" stroke="#9ecae1" points="1528.22,-136.56 1524.72,-126.56 1521.22,-136.56 1528.22,-136.56"/>
</g>
<!-- Offset DAScale\nby &#45;50pA&#45;&gt;Mark sweep as failed [1] -->
<g id="edge43" class="edge">
<title>Offset DAScale\nby &#45;50pA&#45;&gt;Mark sweep as failed [1]</title>
<path fill="none" stroke="#9ecae1" d="M1187.87,-90.61C1134.13,-75.23 1054.94,-52.56 1000.11,-36.86"/>
<polygon fill="#9ecae1" stroke="#9ecae1" points="1000.75,-33.4 990.17,-34.02 998.82,-40.13 1000.75,-33.4"/>
</g>
<!-- Write step size of\n&#45;50pA to labnotebook&#45;&gt;Offset DAScale\nby &#45;50pA -->
<g id="edge44" class="edge">
<title>Write step size of\n&#45;50pA to labnotebook&#45;&gt;Offset DAScale\nby &#45;50pA</title>
<path fill="none" stroke="#9ecae1" d="M1246.72,-220.68C1246.72,-199.37 1246.72,-168.3 1246.72,-144.41"/>
<polygon fill="#9ecae1" stroke="#9ecae1" points="1250.22,-144.33 1246.72,-134.33 1243.22,-144.33 1250.22,-144.33"/>
</g>
<!-- Three sweeps exist with\nthis labnotebook entry? -->
<g id="node42" class="node">
<title>Three sweeps exist with\nthis labnotebook entry?</title>
<ellipse fill="#eff3ff" stroke="#bdd7e7" cx="1771.72" cy="-108.46" rx="124.4" ry="25.41"/>
<text text-anchor="middle" x="1771.72" y="-112.06" font-family="Helvetica,sans-Serif" font-size="13.00" fill="#2171b5">Three sweeps exist with</text>
<text text-anchor="middle" x="1771.72" y="-98.06" font-family="Helvetica,sans-Serif" font-size="13.00" fill="#2171b5">this labnotebook entry?</text>
</g>
<!-- Mark sweep as failure [2]&#45;&gt;Three sweeps exist with\nthis labnotebook entry? -->
<g id="edge45" class="edge">
<title>Mark sweep as failure [2]&#45;&gt;Three sweeps exist with\nthis labnotebook entry?</title>
<path fill="none" stroke="#9ecae1" d="M1745.52,-228.08C1750.16,-207.06 1758.12,-171 1764.06,-144.14"/>
<polygon fill="#9ecae1" stroke="#9ecae1" points="1767.48,-144.86 1766.22,-134.34 1760.65,-143.35 1767.48,-144.86"/>
</g>
<!-- Enable &quot;Repeated Acquisition&quot; -->
<g id="node43" class="node">
<title>Enable &quot;Repeated Acquisition&quot;</title>
<ellipse fill="#eff3ff" stroke="#bdd7e7" cx="608.72" cy="-18" rx="137.91" ry="18"/>
<text text-anchor="middle" x="608.72" y="-14.6" font-family="Helvetica,sans-Serif" font-size="13.00" fill="#2171b5">Enable &quot;Repeated Acquisition&quot;</text>
</g>
<!-- Set &quot;ITI&quot; to 100ms&#45;&gt;Enable &quot;Repeated Acquisition&quot; -->
<g id="edge46" class="edge">
<title>Set &quot;ITI&quot; to 100ms&#45;&gt;Enable &quot;Repeated Acquisition&quot;</title>
<path fill="none" stroke="#9ecae1" d="M608.72,-90.4C608.72,-77.92 608.72,-60.72 608.72,-46.33"/>
<polygon fill="#9ecae1" stroke="#9ecae1" points="612.22,-46 608.72,-36 605.22,-46 612.22,-46"/>
</g>
<!-- Write initial stepsize of 100pA into labnotebook -->
<g id="node44" class="node">
<title>Write initial stepsize of 100pA into labnotebook</title>
<ellipse fill="#eff3ff" stroke="#bdd7e7" cx="209.72" cy="-18" rx="209.93" ry="18"/>
<text text-anchor="middle" x="209.72" y="-14.6" font-family="Helvetica,sans-Serif" font-size="13.00" fill="#2171b5">Write initial stepsize of 100pA into labnotebook</text>
</g>
<!-- Set DAScale to 100pA&#45;&gt;Write initial stepsize of 100pA into labnotebook -->
<g id="edge47" class="edge">
<title>Set DAScale to 100pA&#45;&gt;Write initial stepsize of 100pA into labnotebook</title>
<path fill="none" stroke="#9ecae1" d="M209.72,-90.4C209.72,-77.92 209.72,-60.72 209.72,-46.33"/>
<polygon fill="#9ecae1" stroke="#9ecae1" points="213.22,-46 209.72,-36 206.22,-46 213.22,-46"/>
</g>
<!-- Mark sweep as passed&#45;&gt;Skip to end of active set -->
<g id="edge48" class="edge">
<title>Mark sweep as passed&#45;&gt;Skip to end of active set</title>
<path fill="none" stroke="#9ecae1" d="M1568.02,-91.95C1609.92,-76.94 1673.5,-54.17 1718.46,-38.07"/>
<polygon fill="#9ecae1" stroke="#9ecae1" points="1719.81,-41.31 1728.04,-34.64 1717.45,-34.72 1719.81,-41.31"/>
</g>
<!-- Three sweeps exist with\nthis labnotebook entry?&#45;&gt;Skip to end of active set -->
<g id="edge49" class="edge">
<title>Three sweeps exist with\nthis labnotebook entry?&#45;&gt;Skip to end of active set</title>
<path fill="none" stroke="#9ecae1" d="M1771.72,-82.82C1771.72,-71.47 1771.72,-57.96 1771.72,-46.3"/>
<polygon fill="#9ecae1" stroke="#9ecae1" points="1775.22,-46.23 1771.72,-36.23 1768.22,-46.23 1775.22,-46.23"/>
<text text-anchor="middle" x="1779.72" y="-57" font-family="Helvetica,sans-Serif" font-size="10.00" fill="#3182bd">Yes</text>
</g>
</g>
</svg>
