<?xml version="1.0" encoding="UTF-8" standalone="no"?>
<!DOCTYPE svg PUBLIC "-//W3C//DTD SVG 1.1//EN"
 "http://www.w3.org/Graphics/SVG/1.1/DTD/svg11.dtd">
<!-- Generated by graphviz version 2.43.0 (0)
 -->
<!-- Title: G Pages: 1 -->
<svg width="3150pt" height="955pt"
 viewBox="0.00 0.00 3150.04 954.98" xmlns="http://www.w3.org/2000/svg" xmlns:xlink="http://www.w3.org/1999/xlink">
<g id="graph0" class="graph" transform="scale(1 1) rotate(0) translate(4 950.98)">
<title>G</title>
<polygon fill="white" stroke="transparent" points="-4,4 -4,-950.98 3146.04,-950.98 3146.04,4 -4,4"/>
<!-- Start DAQ/RA -->
<g id="node1" class="node">
<title>Start DAQ/RA</title>
<ellipse fill="#eff3ff" stroke="#bdd7e7" cx="1918.71" cy="-928.98" rx="65.89" ry="18"/>
<text text-anchor="middle" x="1918.71" y="-925.58" font-family="Helvetica,sans-Serif" font-size="13.00" fill="#2171b5">Start DAQ/RA</text>
</g>
<!-- Prepare DAQ/Pre Set Event -->
<g id="node2" class="node">
<title>Prepare DAQ/Pre Set Event</title>
<ellipse fill="#eff3ff" stroke="#bdd7e7" cx="501.71" cy="-855.98" rx="123.35" ry="18"/>
<text text-anchor="middle" x="501.71" y="-852.58" font-family="Helvetica,sans-Serif" font-size="13.00" fill="#2171b5">Prepare DAQ/Pre Set Event</text>
</g>
<!-- Start DAQ/RA&#45;&gt;Prepare DAQ/Pre Set Event -->
<g id="edge1" class="edge">
<title>Start DAQ/RA&#45;&gt;Prepare DAQ/Pre Set Event</title>
<path fill="none" stroke="#9ecae1" d="M1854.6,-924.77C1636.08,-913.82 917.74,-877.83 626.26,-863.22"/>
<polygon fill="#9ecae1" stroke="#9ecae1" points="626.24,-859.72 616.07,-862.71 625.89,-866.71 626.24,-859.72"/>
</g>
<!-- Post Sweep Event -->
<g id="node3" class="node">
<title>Post Sweep Event</title>
<ellipse fill="#eff3ff" stroke="#bdd7e7" cx="1646.71" cy="-855.98" rx="84.79" ry="18"/>
<text text-anchor="middle" x="1646.71" y="-852.58" font-family="Helvetica,sans-Serif" font-size="13.00" fill="#2171b5">Post Sweep Event</text>
</g>
<!-- Start DAQ/RA&#45;&gt;Post Sweep Event -->
<g id="edge2" class="edge">
<title>Start DAQ/RA&#45;&gt;Post Sweep Event</title>
<path fill="none" stroke="#9ecae1" d="M1872.87,-916.02C1827.59,-904.2 1758.05,-886.04 1708.03,-872.99"/>
<polygon fill="#9ecae1" stroke="#9ecae1" points="1708.86,-869.59 1698.3,-870.45 1707.09,-876.36 1708.86,-869.59"/>
</g>
<!-- Post DAQ Event -->
<g id="node4" class="node">
<title>Post DAQ Event</title>
<ellipse fill="#eff3ff" stroke="#bdd7e7" cx="1918.71" cy="-855.98" rx="75.6" ry="18"/>
<text text-anchor="middle" x="1918.71" y="-852.58" font-family="Helvetica,sans-Serif" font-size="13.00" fill="#2171b5">Post DAQ Event</text>
</g>
<!-- Start DAQ/RA&#45;&gt;Post DAQ Event -->
<g id="edge3" class="edge">
<title>Start DAQ/RA&#45;&gt;Post DAQ Event</title>
<path fill="none" stroke="#9ecae1" d="M1918.71,-910.79C1918.71,-902.77 1918.71,-893.03 1918.71,-884.05"/>
<polygon fill="#9ecae1" stroke="#9ecae1" points="1922.21,-884.01 1918.71,-874.01 1915.21,-884.01 1922.21,-884.01"/>
</g>
<!-- Pre Sweep Config Event -->
<g id="node5" class="node">
<title>Pre Sweep Config Event</title>
<ellipse fill="#eff3ff" stroke="#bdd7e7" cx="2156.71" cy="-855.98" rx="109.82" ry="18"/>
<text text-anchor="middle" x="2156.71" y="-852.58" font-family="Helvetica,sans-Serif" font-size="13.00" fill="#2171b5">Pre Sweep Config Event</text>
</g>
<!-- Start DAQ/RA&#45;&gt;Pre Sweep Config Event -->
<g id="edge4" class="edge">
<title>Start DAQ/RA&#45;&gt;Pre Sweep Config Event</title>
<path fill="none" stroke="#9ecae1" d="M1961.53,-915.2C1999.27,-903.94 2054.66,-887.42 2096.8,-874.85"/>
<polygon fill="#9ecae1" stroke="#9ecae1" points="2097.8,-878.2 2106.39,-871.99 2095.8,-871.5 2097.8,-878.2"/>
</g>
<!-- Post Set Event -->
<g id="node6" class="node">
<title>Post Set Event</title>
<ellipse fill="#eff3ff" stroke="#bdd7e7" cx="2650.71" cy="-855.98" rx="71.26" ry="18"/>
<text text-anchor="middle" x="2650.71" y="-852.58" font-family="Helvetica,sans-Serif" font-size="13.00" fill="#2171b5">Post Set Event</text>
</g>
<!-- Start DAQ/RA&#45;&gt;Post Set Event -->
<g id="edge5" class="edge">
<title>Start DAQ/RA&#45;&gt;Post Set Event</title>
<path fill="none" stroke="#9ecae1" d="M1979.54,-922.08C2112.72,-909.16 2429.75,-878.41 2575.3,-864.29"/>
<polygon fill="#9ecae1" stroke="#9ecae1" points="2575.87,-867.76 2585.48,-863.31 2575.19,-860.79 2575.87,-867.76"/>
</g>
<!-- Enable &quot;Multidevice DAQ&quot; -->
<g id="node7" class="node">
<title>Enable &quot;Multidevice DAQ&quot;</title>
<ellipse fill="#eff3ff" stroke="#bdd7e7" cx="254.71" cy="-755.72" rx="118.51" ry="18"/>
<text text-anchor="middle" x="254.71" y="-752.32" font-family="Helvetica,sans-Serif" font-size="13.00" fill="#2171b5">Enable &quot;Multidevice DAQ&quot;</text>
</g>
<!-- Prepare DAQ/Pre Set Event&#45;&gt;Enable &quot;Multidevice DAQ&quot; -->
<g id="edge6" class="edge">
<title>Prepare DAQ/Pre Set Event&#45;&gt;Enable &quot;Multidevice DAQ&quot;</title>
<path fill="none" stroke="#9ecae1" d="M461.19,-838.87C418.26,-821.79 350.43,-794.8 304.32,-776.46"/>
<polygon fill="#9ecae1" stroke="#9ecae1" points="305.41,-773.13 294.83,-772.69 302.83,-779.63 305.41,-773.13"/>
</g>
<!-- Check if mode is IC -->
<g id="node8" class="node">
<title>Check if mode is IC</title>
<ellipse fill="#eff3ff" stroke="#bdd7e7" cx="501.71" cy="-755.72" rx="90.92" ry="18"/>
<text text-anchor="middle" x="501.71" y="-752.32" font-family="Helvetica,sans-Serif" font-size="13.00" fill="#2171b5">Check if mode is IC</text>
</g>
<!-- Prepare DAQ/Pre Set Event&#45;&gt;Check if mode is IC -->
<g id="edge7" class="edge">
<title>Prepare DAQ/Pre Set Event&#45;&gt;Check if mode is IC</title>
<path fill="none" stroke="#9ecae1" d="M501.71,-837.87C501.71,-823.02 501.71,-801.27 501.71,-784.03"/>
<polygon fill="#9ecae1" stroke="#9ecae1" points="505.21,-783.97 501.71,-773.97 498.21,-783.97 505.21,-783.97"/>
</g>
<!-- n91 -->
<g id="node9" class="node">
<title>n91</title>
<g id="a_node9"><a xlink:href="../_static/images/async-qc-channels.svg" xlink:title="Standard AsyncQCChannels handling" target="_graphviz">
<ellipse fill="#eff3ff" stroke="#bdd7e7" cx="1646.71" cy="-755.72" rx="165.5" ry="18"/>
<text text-anchor="middle" x="1646.71" y="-752.32" font-family="Helvetica,sans-Serif" font-size="13.00" fill="#2171b5">Standard AsyncQCChannels handling</text>
</a>
</g>
</g>
<!-- Post Sweep Event&#45;&gt;n91 -->
<g id="edge8" class="edge">
<title>Post Sweep Event&#45;&gt;n91</title>
<path fill="none" stroke="#9ecae1" d="M1646.71,-837.87C1646.71,-823.02 1646.71,-801.27 1646.71,-784.03"/>
<polygon fill="#9ecae1" stroke="#9ecae1" points="1650.21,-783.97 1646.71,-773.97 1643.21,-783.97 1650.21,-783.97"/>
</g>
<!-- Spike detected?\n(x range: pulse onset to end of sweep\ny condition: max above 0.01mV)\nStore result in labnotebook -->
<g id="node10" class="node">
<title>Spike detected?\n(x range: pulse onset to end of sweep\ny condition: max above 0.01mV)\nStore result in labnotebook</title>
<ellipse fill="#eff3ff" stroke="#bdd7e7" cx="1231.71" cy="-755.72" rx="190.42" ry="45.01"/>
<text text-anchor="middle" x="1231.71" y="-773.32" font-family="Helvetica,sans-Serif" font-size="13.00" fill="#2171b5">Spike detected?</text>
<text text-anchor="middle" x="1231.71" y="-759.32" font-family="Helvetica,sans-Serif" font-size="13.00" fill="#2171b5">(x range: pulse onset to end of sweep</text>
<text text-anchor="middle" x="1231.71" y="-745.32" font-family="Helvetica,sans-Serif" font-size="13.00" fill="#2171b5">y condition: max above 0.01mV)</text>
<text text-anchor="middle" x="1231.71" y="-731.32" font-family="Helvetica,sans-Serif" font-size="13.00" fill="#2171b5">Store result in labnotebook</text>
</g>
<!-- Post Sweep Event&#45;&gt;Spike detected?\n(x range: pulse onset to end of sweep\ny condition: max above 0.01mV)\nStore result in labnotebook -->
<g id="edge9" class="edge">
<title>Post Sweep Event&#45;&gt;Spike detected?\n(x range: pulse onset to end of sweep\ny condition: max above 0.01mV)\nStore result in labnotebook</title>
<path fill="none" stroke="#9ecae1" d="M1592.45,-842.13C1537.36,-829.09 1449.71,-808.34 1374.6,-790.56"/>
<polygon fill="#9ecae1" stroke="#9ecae1" points="1375.1,-787.08 1364.57,-788.18 1373.49,-793.89 1375.1,-787.08"/>
</g>
<!-- Update Dashboard -->
<g id="node11" class="node">
<title>Update Dashboard</title>
<ellipse fill="#eff3ff" stroke="#bdd7e7" cx="1918.71" cy="-755.72" rx="88.37" ry="18"/>
<text text-anchor="middle" x="1918.71" y="-752.32" font-family="Helvetica,sans-Serif" font-size="13.00" fill="#2171b5">Update Dashboard</text>
</g>
<!-- Post DAQ Event&#45;&gt;Update Dashboard -->
<g id="edge10" class="edge">
<title>Post DAQ Event&#45;&gt;Update Dashboard</title>
<path fill="none" stroke="#9ecae1" d="M1918.71,-837.87C1918.71,-823.02 1918.71,-801.27 1918.71,-784.03"/>
<polygon fill="#9ecae1" stroke="#9ecae1" points="1922.21,-783.97 1918.71,-773.97 1915.21,-783.97 1922.21,-783.97"/>
</g>
<!-- n92 -->
<g id="node12" class="node">
<title>n92</title>
<g id="a_node12"><a xlink:href="../_static/images/async-qc-channels.svg" xlink:title="Standard AsyncQCChannels handling" target="_graphviz">
<ellipse fill="#eff3ff" stroke="#bdd7e7" cx="2190.71" cy="-755.72" rx="165.5" ry="18"/>
<text text-anchor="middle" x="2190.71" y="-752.32" font-family="Helvetica,sans-Serif" font-size="13.00" fill="#2171b5">Standard AsyncQCChannels handling</text>
</a>
</g>
</g>
<!-- Pre Sweep Config Event&#45;&gt;n92 -->
<g id="edge11" class="edge">
<title>Pre Sweep Config Event&#45;&gt;n92</title>
<path fill="none" stroke="#9ecae1" d="M2162.63,-837.87C2167.81,-822.88 2175.43,-800.86 2181.43,-783.54"/>
<polygon fill="#9ecae1" stroke="#9ecae1" points="2184.77,-784.57 2184.74,-773.97 2178.16,-782.28 2184.77,-784.57"/>
</g>
<!-- Mark set as passed if 1 sweep passed,\nas failure otherwise -->
<g id="node13" class="node">
<title>Mark set as passed if 1 sweep passed,\nas failure otherwise</title>
<ellipse fill="#eff3ff" stroke="#bdd7e7" cx="2949.71" cy="-638.01" rx="192.17" ry="25.41"/>
<text text-anchor="middle" x="2949.71" y="-641.61" font-family="Helvetica,sans-Serif" font-size="13.00" fill="#2171b5">Mark set as passed if 1 sweep passed,</text>
<text text-anchor="middle" x="2949.71" y="-627.61" font-family="Helvetica,sans-Serif" font-size="13.00" fill="#2171b5">as failure otherwise</text>
</g>
<!-- Post Set Event&#45;&gt;Mark set as passed if 1 sweep passed,\nas failure otherwise -->
<g id="edge12" class="edge">
<title>Post Set Event&#45;&gt;Mark set as passed if 1 sweep passed,\nas failure otherwise</title>
<path fill="none" stroke="#9ecae1" d="M2719.87,-851.25C2794.82,-845.65 2907.51,-832.18 2935.71,-800.98 2966.62,-766.77 2963.78,-710.26 2957.68,-673.85"/>
<polygon fill="#9ecae1" stroke="#9ecae1" points="2961.06,-672.89 2955.8,-663.69 2954.17,-674.16 2961.06,-672.89"/>
</g>
<!-- n48 -->
<g id="node14" class="node">
<title>n48</title>
<ellipse fill="#eff3ff" stroke="#bdd7e7" cx="2650.71" cy="-755.72" rx="276.46" ry="25.41"/>
<text text-anchor="middle" x="2650.71" y="-759.32" font-family="Helvetica,sans-Serif" font-size="13.00" fill="#2171b5">Do we have a &quot;DAScale out of range&quot; labnotebook entry</text>
<text text-anchor="middle" x="2650.71" y="-745.32" font-family="Helvetica,sans-Serif" font-size="13.00" fill="#2171b5"> in the SCI</text>
</g>
<!-- Post Set Event&#45;&gt;n48 -->
<g id="edge13" class="edge">
<title>Post Set Event&#45;&gt;n48</title>
<path fill="none" stroke="#9ecae1" d="M2650.71,-837.87C2650.71,-825.18 2650.71,-807.45 2650.71,-791.79"/>
<polygon fill="#9ecae1" stroke="#9ecae1" points="2654.21,-791.38 2650.71,-781.38 2647.21,-791.38 2654.21,-791.38"/>
</g>
<!-- Disable &quot;dDAQ&quot;/&quot;oodDAQ&quot; -->
<g id="node15" class="node">
<title>Disable &quot;dDAQ&quot;/&quot;oodDAQ&quot;</title>
<ellipse fill="#eff3ff" stroke="#bdd7e7" cx="198.71" cy="-638.01" rx="120.04" ry="18"/>
<text text-anchor="middle" x="198.71" y="-634.61" font-family="Helvetica,sans-Serif" font-size="13.00" fill="#2171b5">Disable &quot;dDAQ&quot;/&quot;oodDAQ&quot;</text>
</g>
<!-- Enable &quot;Multidevice DAQ&quot;&#45;&gt;Disable &quot;dDAQ&quot;/&quot;oodDAQ&quot; -->
<g id="edge14" class="edge">
<title>Enable &quot;Multidevice DAQ&quot;&#45;&gt;Disable &quot;dDAQ&quot;/&quot;oodDAQ&quot;</title>
<path fill="none" stroke="#9ecae1" d="M246.44,-737.65C237.22,-718.59 222.18,-687.53 211.45,-665.35"/>
<polygon fill="#9ecae1" stroke="#9ecae1" points="214.51,-663.63 207,-656.16 208.21,-666.68 214.51,-663.63"/>
</g>
<!-- Check if no TTL channels are active -->
<g id="node16" class="node">
<title>Check if no TTL channels are active</title>
<ellipse fill="#eff3ff" stroke="#bdd7e7" cx="501.71" cy="-638.01" rx="160.39" ry="18"/>
<text text-anchor="middle" x="501.71" y="-634.61" font-family="Helvetica,sans-Serif" font-size="13.00" fill="#2171b5">Check if no TTL channels are active</text>
</g>
<!-- Check if mode is IC&#45;&gt;Check if no TTL channels are active -->
<g id="edge15" class="edge">
<title>Check if mode is IC&#45;&gt;Check if no TTL channels are active</title>
<path fill="none" stroke="#9ecae1" d="M501.71,-737.65C501.71,-718.85 501.71,-688.36 501.71,-666.25"/>
<polygon fill="#9ecae1" stroke="#9ecae1" points="505.21,-666.16 501.71,-656.16 498.21,-666.16 505.21,-666.16"/>
</g>
<!-- n37 -->
<g id="node17" class="node">
<title>n37</title>
<ellipse fill="#eff3ff" stroke="#bdd7e7" cx="1653.71" cy="-638.01" rx="231.86" ry="25.41"/>
<text text-anchor="middle" x="1653.71" y="-641.61" font-family="Helvetica,sans-Serif" font-size="13.00" fill="#2171b5">Read &quot;SamplingFrequency&quot; analysis parameter</text>
<text text-anchor="middle" x="1653.71" y="-627.61" font-family="Helvetica,sans-Serif" font-size="13.00" fill="#2171b5"> (defaulting to 50kHz) if not present</text>
</g>
<!-- n91&#45;&gt;n37 -->
<g id="edge16" class="edge">
<title>n91&#45;&gt;n37</title>
<path fill="none" stroke="#9ecae1" d="M1647.74,-737.65C1648.75,-720.98 1650.31,-695.12 1651.59,-674.06"/>
<polygon fill="#9ecae1" stroke="#9ecae1" points="1655.09,-674.05 1652.2,-663.86 1648.1,-673.63 1655.09,-674.05"/>
</g>
<!-- n43 -->
<g id="node18" class="node">
<title>n43</title>
<ellipse fill="#eff3ff" stroke="#bdd7e7" cx="1934.71" cy="-569.1" rx="141.34" ry="25.41"/>
<text text-anchor="middle" x="1934.71" y="-572.7" font-family="Helvetica,sans-Serif" font-size="13.00" fill="#2171b5">Has Async Channels QC</text>
<text text-anchor="middle" x="1934.71" y="-558.7" font-family="Helvetica,sans-Serif" font-size="13.00" fill="#2171b5"> labnotebook entry passed?</text>
</g>
<!-- n91&#45;&gt;n43 -->
<g id="edge17" class="edge">
<title>n91&#45;&gt;n43</title>
<path fill="none" stroke="#9ecae1" d="M1705.71,-738.87C1769.85,-720.64 1866.92,-689.84 1894.71,-663.47 1911.26,-647.76 1921.3,-624.06 1927.18,-604.48"/>
<polygon fill="#9ecae1" stroke="#9ecae1" points="1930.6,-605.25 1929.89,-594.67 1923.85,-603.38 1930.6,-605.25"/>
</g>
<!-- DAScale is zero -->
<g id="node19" class="node">
<title>DAScale is zero</title>
<ellipse fill="#eff3ff" stroke="#bdd7e7" cx="1231.71" cy="-638.01" rx="75.34" ry="18"/>
<text text-anchor="middle" x="1231.71" y="-634.61" font-family="Helvetica,sans-Serif" font-size="13.00" fill="#2171b5">DAScale is zero</text>
</g>
<!-- Spike detected?\n(x range: pulse onset to end of sweep\ny condition: max above 0.01mV)\nStore result in labnotebook&#45;&gt;DAScale is zero -->
<g id="edge18" class="edge">
<title>Spike detected?\n(x range: pulse onset to end of sweep\ny condition: max above 0.01mV)\nStore result in labnotebook&#45;&gt;DAScale is zero</title>
<path fill="none" stroke="#9ecae1" d="M1231.71,-710.32C1231.71,-695.48 1231.71,-679.39 1231.71,-666.26"/>
<polygon fill="#9ecae1" stroke="#9ecae1" points="1235.21,-666.02 1231.71,-656.02 1228.21,-666.02 1235.21,-666.02"/>
<text text-anchor="middle" x="1239.71" y="-684.47" font-family="Helvetica,sans-Serif" font-size="10.00" fill="#3182bd">Yes</text>
</g>
<!-- Step Size from labnotebook? -->
<g id="node20" class="node">
<title>Step Size from labnotebook?</title>
<ellipse fill="#eff3ff" stroke="#bdd7e7" cx="837.71" cy="-500.19" rx="130.51" ry="18"/>
<text text-anchor="middle" x="837.71" y="-496.79" font-family="Helvetica,sans-Serif" font-size="13.00" fill="#2171b5">Step Size from labnotebook?</text>
</g>
<!-- Spike detected?\n(x range: pulse onset to end of sweep\ny condition: max above 0.01mV)\nStore result in labnotebook&#45;&gt;Step Size from labnotebook? -->
<g id="edge19" class="edge">
<title>Spike detected?\n(x range: pulse onset to end of sweep\ny condition: max above 0.01mV)\nStore result in labnotebook&#45;&gt;Step Size from labnotebook?</title>
<path fill="none" stroke="#9ecae1" d="M1167.09,-713.14C1082.85,-658.94 938.51,-566.06 872.5,-523.58"/>
<polygon fill="#9ecae1" stroke="#9ecae1" points="874.02,-520.4 863.72,-517.93 870.23,-526.28 874.02,-520.4"/>
<text text-anchor="middle" x="1093.71" y="-635.51" font-family="Helvetica,sans-Serif" font-size="10.00" fill="#3182bd">No</text>
</g>
<!-- Skip to end -->
<g id="node21" class="node">
<title>Skip to end</title>
<ellipse fill="#eff3ff" stroke="#bdd7e7" cx="2799.71" cy="-500.19" rx="58.23" ry="18"/>
<text text-anchor="middle" x="2799.71" y="-496.79" font-family="Helvetica,sans-Serif" font-size="13.00" fill="#2171b5">Skip to end</text>
</g>
<!-- Mark set as passed if 1 sweep passed,\nas failure otherwise&#45;&gt;Skip to end -->
<g id="edge20" class="edge">
<title>Mark set as passed if 1 sweep passed,\nas failure otherwise&#45;&gt;Skip to end</title>
<path fill="none" stroke="#9ecae1" d="M2922.89,-612.73C2895.28,-587.73 2852.56,-549.05 2825.37,-524.43"/>
<polygon fill="#9ecae1" stroke="#9ecae1" points="2827.57,-521.7 2817.81,-517.58 2822.87,-526.89 2827.57,-521.7"/>
<text text-anchor="middle" x="2917.21" y="-566.6" font-family="Helvetica,sans-Serif" font-size="10.00" fill="#3182bd">Failure</text>
</g>
<!-- n48&#45;&gt;Mark set as passed if 1 sweep passed,\nas failure otherwise -->
<g id="edge57" class="edge">
<title>n48&#45;&gt;Mark set as passed if 1 sweep passed,\nas failure otherwise</title>
<path fill="none" stroke="#9ecae1" d="M2712.3,-730.89C2761.12,-712 2829.34,-685.59 2880.13,-665.94"/>
<polygon fill="#9ecae1" stroke="#9ecae1" points="2881.66,-669.1 2889.73,-662.23 2879.14,-662.57 2881.66,-669.1"/>
<text text-anchor="middle" x="2842.71" y="-684.47" font-family="Helvetica,sans-Serif" font-size="10.00" fill="#3182bd">No</text>
</g>
<!-- n47 -->
<g id="node49" class="node">
<title>n47</title>
<ellipse fill="#eff3ff" stroke="#bdd7e7" cx="2650.71" cy="-638.01" rx="88.37" ry="18"/>
<text text-anchor="middle" x="2650.71" y="-634.61" font-family="Helvetica,sans-Serif" font-size="13.00" fill="#2171b5">Mark set as failure</text>
</g>
<!-- n48&#45;&gt;n47 -->
<g id="edge58" class="edge">
<title>n48&#45;&gt;n47</title>
<path fill="none" stroke="#9ecae1" d="M2650.71,-730.19C2650.71,-711.38 2650.71,-685.45 2650.71,-666.05"/>
<polygon fill="#9ecae1" stroke="#9ecae1" points="2654.21,-666.03 2650.71,-656.03 2647.21,-666.03 2654.21,-666.03"/>
<text text-anchor="middle" x="2658.71" y="-684.47" font-family="Helvetica,sans-Serif" font-size="10.00" fill="#3182bd">Yes</text>
</g>
<!-- Set &quot;TP inserting&quot; to disabled -->
<g id="node22" class="node">
<title>Set &quot;TP inserting&quot; to disabled</title>
<ellipse fill="#eff3ff" stroke="#bdd7e7" cx="181.71" cy="-500.19" rx="133.07" ry="18"/>
<text text-anchor="middle" x="181.71" y="-496.79" font-family="Helvetica,sans-Serif" font-size="13.00" fill="#2171b5">Set &quot;TP inserting&quot; to disabled</text>
</g>
<!-- Disable &quot;dDAQ&quot;/&quot;oodDAQ&quot;&#45;&gt;Set &quot;TP inserting&quot; to disabled -->
<g id="edge21" class="edge">
<title>Disable &quot;dDAQ&quot;/&quot;oodDAQ&quot;&#45;&gt;Set &quot;TP inserting&quot; to disabled</title>
<path fill="none" stroke="#9ecae1" d="M196.55,-619.81C193.67,-596.75 188.51,-555.55 185.1,-528.3"/>
<polygon fill="#9ecae1" stroke="#9ecae1" points="188.56,-527.74 183.84,-518.25 181.61,-528.61 188.56,-527.74"/>
</g>
<!-- Check if only one headstage is active -->
<g id="node23" class="node">
<title>Check if only one headstage is active</title>
<ellipse fill="#eff3ff" stroke="#bdd7e7" cx="501.71" cy="-500.19" rx="168.05" ry="18"/>
<text text-anchor="middle" x="501.71" y="-496.79" font-family="Helvetica,sans-Serif" font-size="13.00" fill="#2171b5">Check if only one headstage is active</text>
</g>
<!-- Check if no TTL channels are active&#45;&gt;Check if only one headstage is active -->
<g id="edge22" class="edge">
<title>Check if no TTL channels are active&#45;&gt;Check if only one headstage is active</title>
<path fill="none" stroke="#9ecae1" d="M501.71,-619.81C501.71,-596.75 501.71,-555.55 501.71,-528.3"/>
<polygon fill="#9ecae1" stroke="#9ecae1" points="505.21,-528.25 501.71,-518.25 498.21,-528.25 505.21,-528.25"/>
</g>
<!-- n38 -->
<g id="node24" class="node">
<title>n38</title>
<ellipse fill="#eff3ff" stroke="#bdd7e7" cx="1769.71" cy="-500.19" rx="137.77" ry="25.41"/>
<text text-anchor="middle" x="1769.71" y="-503.79" font-family="Helvetica,sans-Serif" font-size="13.00" fill="#2171b5">Check if the acquired data</text>
<text text-anchor="middle" x="1769.71" y="-489.79" font-family="Helvetica,sans-Serif" font-size="13.00" fill="#2171b5"> has that sampling interval</text>
</g>
<!-- n37&#45;&gt;n38 -->
<g id="edge23" class="edge">
<title>n37&#45;&gt;n38</title>
<path fill="none" stroke="#9ecae1" d="M1674.71,-612.42C1693.6,-590.3 1721.47,-557.67 1742.14,-533.46"/>
<polygon fill="#9ecae1" stroke="#9ecae1" points="1745.02,-535.48 1748.85,-525.6 1739.7,-530.94 1745.02,-535.48"/>
</g>
<!-- n39 -->
<g id="node25" class="node">
<title>n39</title>
<ellipse fill="#eff3ff" stroke="#bdd7e7" cx="1858.71" cy="-402.28" rx="102.93" ry="18"/>
<text text-anchor="middle" x="1858.71" y="-398.88" font-family="Helvetica,sans-Serif" font-size="13.00" fill="#2171b5">Mark Sweep as failure</text>
</g>
<!-- n43&#45;&gt;n39 -->
<g id="edge24" class="edge">
<title>n43&#45;&gt;n39</title>
<path fill="none" stroke="#9ecae1" d="M1933.23,-543.3C1931.31,-523.88 1926.89,-496.58 1916.71,-474.74 1908.6,-457.35 1895.34,-440.55 1883.54,-427.61"/>
<polygon fill="#9ecae1" stroke="#9ecae1" points="1885.85,-424.96 1876.44,-420.09 1880.76,-429.76 1885.85,-424.96"/>
<text text-anchor="middle" x="1938.71" y="-497.69" font-family="Helvetica,sans-Serif" font-size="10.00" fill="#3182bd">No</text>
</g>
<!-- Step size from labnotebook? -->
<g id="node26" class="node">
<title>Step size from labnotebook?</title>
<ellipse fill="#eff3ff" stroke="#bdd7e7" cx="1227.71" cy="-500.19" rx="130.25" ry="18"/>
<text text-anchor="middle" x="1227.71" y="-496.79" font-family="Helvetica,sans-Serif" font-size="13.00" fill="#2171b5">Step size from labnotebook?</text>
</g>
<!-- DAScale is zero&#45;&gt;Step size from labnotebook? -->
<g id="edge25" class="edge">
<title>DAScale is zero&#45;&gt;Step size from labnotebook?</title>
<path fill="none" stroke="#9ecae1" d="M1231.2,-619.81C1230.52,-596.75 1229.31,-555.55 1228.5,-528.3"/>
<polygon fill="#9ecae1" stroke="#9ecae1" points="1232,-528.15 1228.21,-518.25 1225,-528.35 1232,-528.15"/>
<text text-anchor="middle" x="1237.71" y="-566.6" font-family="Helvetica,sans-Serif" font-size="10.00" fill="#3182bd">No</text>
</g>
<!-- Add labnotebook entry\ndocumenting this case -->
<g id="node27" class="node">
<title>Add labnotebook entry\ndocumenting this case</title>
<ellipse fill="#eff3ff" stroke="#bdd7e7" cx="1494.71" cy="-500.19" rx="118.59" ry="25.41"/>
<text text-anchor="middle" x="1494.71" y="-503.79" font-family="Helvetica,sans-Serif" font-size="13.00" fill="#2171b5">Add labnotebook entry</text>
<text text-anchor="middle" x="1494.71" y="-489.79" font-family="Helvetica,sans-Serif" font-size="13.00" fill="#2171b5">documenting this case</text>
</g>
<!-- DAScale is zero&#45;&gt;Add labnotebook entry\ndocumenting this case -->
<g id="edge26" class="edge">
<title>DAScale is zero&#45;&gt;Add labnotebook entry\ndocumenting this case</title>
<path fill="none" stroke="#9ecae1" d="M1261.87,-621.43C1305.62,-598.84 1387.34,-556.64 1441.39,-528.73"/>
<polygon fill="#9ecae1" stroke="#9ecae1" points="1443.2,-531.73 1450.48,-524.03 1439.99,-525.51 1443.2,-531.73"/>
<text text-anchor="middle" x="1417.71" y="-566.6" font-family="Helvetica,sans-Serif" font-size="10.00" fill="#3182bd">Yes</text>
</g>
<!-- Write step size of\n+10pA to labnotebook -->
<g id="node28" class="node">
<title>Write step size of\n+10pA to labnotebook</title>
<ellipse fill="#eff3ff" stroke="#bdd7e7" cx="876.71" cy="-402.28" rx="118.17" ry="25.41"/>
<text text-anchor="middle" x="876.71" y="-405.88" font-family="Helvetica,sans-Serif" font-size="13.00" fill="#2171b5">Write step size of</text>
<text text-anchor="middle" x="876.71" y="-391.88" font-family="Helvetica,sans-Serif" font-size="13.00" fill="#2171b5">+10pA to labnotebook</text>
</g>
<!-- Step Size from labnotebook?&#45;&gt;Write step size of\n+10pA to labnotebook -->
<g id="edge27" class="edge">
<title>Step Size from labnotebook?&#45;&gt;Write step size of\n+10pA to labnotebook</title>
<path fill="none" stroke="#9ecae1" d="M844.68,-482.04C849.71,-469.67 856.67,-452.54 862.82,-437.42"/>
<polygon fill="#9ecae1" stroke="#9ecae1" points="866.19,-438.43 866.72,-427.85 859.71,-435.79 866.19,-438.43"/>
<text text-anchor="middle" x="873.21" y="-448.74" font-family="Helvetica,sans-Serif" font-size="10.00" fill="#3182bd">&#45;50pA</text>
</g>
<!-- Offset DAScale\nby +10pA -->
<g id="node29" class="node">
<title>Offset DAScale\nby +10pA</title>
<ellipse fill="#eff3ff" stroke="#bdd7e7" cx="876.71" cy="-264.46" rx="82.05" ry="25.41"/>
<text text-anchor="middle" x="876.71" y="-268.06" font-family="Helvetica,sans-Serif" font-size="13.00" fill="#2171b5">Offset DAScale</text>
<text text-anchor="middle" x="876.71" y="-254.06" font-family="Helvetica,sans-Serif" font-size="13.00" fill="#2171b5">by +10pA</text>
</g>
<!-- Step Size from labnotebook?&#45;&gt;Offset DAScale\nby +10pA -->
<g id="edge28" class="edge">
<title>Step Size from labnotebook?&#45;&gt;Offset DAScale\nby +10pA</title>
<path fill="none" stroke="#9ecae1" d="M787.49,-483.52C761.12,-472.44 731.15,-454.67 715.71,-427.74 704.45,-408.1 705.2,-396.86 715.71,-376.82 737.09,-336.03 780.95,-307.22 817.5,-289.13"/>
<polygon fill="#9ecae1" stroke="#9ecae1" points="819.11,-292.24 826.61,-284.77 816.08,-285.93 819.11,-292.24"/>
<text text-anchor="middle" x="732.71" y="-399.78" font-family="Helvetica,sans-Serif" font-size="10.00" fill="#3182bd">+10pA</text>
</g>
<!-- Offset DAScale\nby +100pA -->
<g id="node30" class="node">
<title>Offset DAScale\nby +100pA</title>
<ellipse fill="#eff3ff" stroke="#bdd7e7" cx="609.71" cy="-333.37" rx="82.05" ry="25.41"/>
<text text-anchor="middle" x="609.71" y="-336.97" font-family="Helvetica,sans-Serif" font-size="13.00" fill="#2171b5">Offset DAScale</text>
<text text-anchor="middle" x="609.71" y="-322.97" font-family="Helvetica,sans-Serif" font-size="13.00" fill="#2171b5">by +100pA</text>
</g>
<!-- Step Size from labnotebook?&#45;&gt;Offset DAScale\nby +100pA -->
<g id="edge29" class="edge">
<title>Step Size from labnotebook?&#45;&gt;Offset DAScale\nby +100pA</title>
<path fill="none" stroke="#9ecae1" d="M748.28,-487C708.5,-479.93 667.36,-469.83 652.71,-456.74 627.69,-434.38 617.23,-396.61 612.85,-368.93"/>
<polygon fill="#9ecae1" stroke="#9ecae1" points="616.3,-368.29 611.46,-358.87 609.36,-369.26 616.3,-368.29"/>
<text text-anchor="middle" x="672.71" y="-448.74" font-family="Helvetica,sans-Serif" font-size="10.00" fill="#3182bd">+100pA</text>
</g>
<!-- Set &quot;TP during ITI&quot; to disabled -->
<g id="node31" class="node">
<title>Set &quot;TP during ITI&quot; to disabled</title>
<ellipse fill="#eff3ff" stroke="#bdd7e7" cx="177.71" cy="-402.28" rx="135.62" ry="18"/>
<text text-anchor="middle" x="177.71" y="-398.88" font-family="Helvetica,sans-Serif" font-size="13.00" fill="#2171b5">Set &quot;TP during ITI&quot; to disabled</text>
</g>
<!-- Set &quot;TP inserting&quot; to disabled&#45;&gt;Set &quot;TP during ITI&quot; to disabled -->
<g id="edge31" class="edge">
<title>Set &quot;TP inserting&quot; to disabled&#45;&gt;Set &quot;TP during ITI&quot; to disabled</title>
<path fill="none" stroke="#9ecae1" d="M180.99,-482.04C180.4,-467.81 179.54,-447.3 178.85,-430.78"/>
<polygon fill="#9ecae1" stroke="#9ecae1" points="182.34,-430.45 178.43,-420.6 175.35,-430.74 182.34,-430.45"/>
</g>
<!-- All checks passed -->
<g id="node32" class="node">
<title>All checks passed</title>
<ellipse fill="#eff3ff" stroke="#bdd7e7" cx="501.71" cy="-402.28" rx="84.79" ry="18"/>
<text text-anchor="middle" x="501.71" y="-398.88" font-family="Helvetica,sans-Serif" font-size="13.00" fill="#2171b5">All checks passed</text>
</g>
<!-- Check if only one headstage is active&#45;&gt;All checks passed -->
<g id="edge32" class="edge">
<title>Check if only one headstage is active&#45;&gt;All checks passed</title>
<path fill="none" stroke="#9ecae1" d="M501.71,-482.04C501.71,-467.81 501.71,-447.3 501.71,-430.78"/>
<polygon fill="#9ecae1" stroke="#9ecae1" points="505.21,-430.6 501.71,-420.6 498.21,-430.6 505.21,-430.6"/>
</g>
<!-- n38&#45;&gt;n39 -->
<g id="edge30" class="edge">
<title>n38&#45;&gt;n39</title>
<path fill="none" stroke="#9ecae1" d="M1792.16,-474.99C1805.55,-460.57 1822.49,-442.31 1835.93,-427.83"/>
<polygon fill="#9ecae1" stroke="#9ecae1" points="1838.75,-429.93 1842.99,-420.22 1833.62,-425.17 1838.75,-429.93"/>
<text text-anchor="middle" x="1824.71" y="-448.74" font-family="Helvetica,sans-Serif" font-size="10.00" fill="#3182bd">No</text>
</g>
<!-- Skip to end of active set -->
<g id="node38" class="node">
<title>Skip to end of active set</title>
<ellipse fill="#eff3ff" stroke="#bdd7e7" cx="1650.71" cy="-174" rx="113.14" ry="18"/>
<text text-anchor="middle" x="1650.71" y="-170.6" font-family="Helvetica,sans-Serif" font-size="13.00" fill="#2171b5">Skip to end of active set</text>
</g>
<!-- n39&#45;&gt;Skip to end of active set -->
<g id="edge40" class="edge">
<title>n39&#45;&gt;Skip to end of active set</title>
<path fill="none" stroke="#9ecae1" d="M1854.83,-383.89C1846.8,-351.51 1825.51,-281.46 1783.71,-239 1763.78,-218.76 1736.18,-204.05 1711.28,-193.87"/>
<polygon fill="#9ecae1" stroke="#9ecae1" points="1712.48,-190.59 1701.89,-190.19 1709.92,-197.1 1712.48,-190.59"/>
</g>
<!-- Store DAScale\nin labnotebook -->
<g id="node33" class="node">
<title>Store DAScale\nin labnotebook</title>
<ellipse fill="#eff3ff" stroke="#bdd7e7" cx="1403.71" cy="-402.28" rx="82.05" ry="25.41"/>
<text text-anchor="middle" x="1403.71" y="-405.88" font-family="Helvetica,sans-Serif" font-size="13.00" fill="#2171b5">Store DAScale</text>
<text text-anchor="middle" x="1403.71" y="-391.88" font-family="Helvetica,sans-Serif" font-size="13.00" fill="#2171b5">in labnotebook</text>
</g>
<!-- Step size from labnotebook?&#45;&gt;Store DAScale\nin labnotebook -->
<g id="edge33" class="edge">
<title>Step size from labnotebook?&#45;&gt;Store DAScale\nin labnotebook</title>
<path fill="none" stroke="#9ecae1" d="M1258.36,-482.48C1285.16,-467.88 1324.54,-446.42 1355.54,-429.53"/>
<polygon fill="#9ecae1" stroke="#9ecae1" points="1357.35,-432.52 1364.46,-424.67 1354.01,-426.38 1357.35,-432.52"/>
<text text-anchor="middle" x="1338.71" y="-448.74" font-family="Helvetica,sans-Serif" font-size="10.00" fill="#3182bd">+10pA</text>
</g>
<!-- Offset DAScale\nby &#45;50pA -->
<g id="node34" class="node">
<title>Offset DAScale\nby &#45;50pA</title>
<ellipse fill="#eff3ff" stroke="#bdd7e7" cx="1125.71" cy="-264.46" rx="82.05" ry="25.41"/>
<text text-anchor="middle" x="1125.71" y="-268.06" font-family="Helvetica,sans-Serif" font-size="13.00" fill="#2171b5">Offset DAScale</text>
<text text-anchor="middle" x="1125.71" y="-254.06" font-family="Helvetica,sans-Serif" font-size="13.00" fill="#2171b5">by &#45;50pA</text>
</g>
<!-- Step size from labnotebook?&#45;&gt;Offset DAScale\nby &#45;50pA -->
<g id="edge34" class="edge">
<title>Step size from labnotebook?&#45;&gt;Offset DAScale\nby &#45;50pA</title>
<path fill="none" stroke="#9ecae1" d="M1236.27,-482.21C1247.28,-457.86 1263.26,-412.08 1247.71,-376.82 1232.13,-341.51 1199.21,-312.55 1171.49,-293.02"/>
<polygon fill="#9ecae1" stroke="#9ecae1" points="1173.31,-290.02 1163.08,-287.26 1169.36,-295.8 1173.31,-290.02"/>
<text text-anchor="middle" x="1269.21" y="-399.78" font-family="Helvetica,sans-Serif" font-size="10.00" fill="#3182bd">&#45;50pA</text>
</g>
<!-- Write step size of\n&#45;50pA to labnotebook -->
<g id="node35" class="node">
<title>Write step size of\n&#45;50pA to labnotebook</title>
<ellipse fill="#eff3ff" stroke="#bdd7e7" cx="1125.71" cy="-402.28" rx="113.27" ry="25.41"/>
<text text-anchor="middle" x="1125.71" y="-405.88" font-family="Helvetica,sans-Serif" font-size="13.00" fill="#2171b5">Write step size of</text>
<text text-anchor="middle" x="1125.71" y="-391.88" font-family="Helvetica,sans-Serif" font-size="13.00" fill="#2171b5">&#45;50pA to labnotebook</text>
</g>
<!-- Step size from labnotebook?&#45;&gt;Write step size of\n&#45;50pA to labnotebook -->
<g id="edge35" class="edge">
<title>Step size from labnotebook?&#45;&gt;Write step size of\n&#45;50pA to labnotebook</title>
<path fill="none" stroke="#9ecae1" d="M1209.47,-482.04C1195.36,-468.77 1175.44,-450.05 1158.57,-434.18"/>
<polygon fill="#9ecae1" stroke="#9ecae1" points="1160.75,-431.42 1151.06,-427.12 1155.95,-436.52 1160.75,-431.42"/>
<text text-anchor="middle" x="1200.71" y="-448.74" font-family="Helvetica,sans-Serif" font-size="10.00" fill="#3182bd">+100pA</text>
</g>
<!-- Mark sweep as failure [2] -->
<g id="node36" class="node">
<title>Mark sweep as failure [2]</title>
<ellipse fill="#eff3ff" stroke="#bdd7e7" cx="1620.71" cy="-402.28" rx="116.72" ry="18"/>
<text text-anchor="middle" x="1620.71" y="-398.88" font-family="Helvetica,sans-Serif" font-size="13.00" fill="#2171b5">Mark sweep as failure [2]</text>
</g>
<!-- Add labnotebook entry\ndocumenting this case&#45;&gt;Mark sweep as failure [2] -->
<g id="edge36" class="edge">
<title>Add labnotebook entry\ndocumenting this case&#45;&gt;Mark sweep as failure [2]</title>
<path fill="none" stroke="#9ecae1" d="M1525.85,-475.48C1545.62,-460.44 1571.06,-441.07 1590.62,-426.18"/>
<polygon fill="#9ecae1" stroke="#9ecae1" points="1592.77,-428.94 1598.61,-420.1 1588.53,-423.37 1592.77,-428.94"/>
</g>
<!-- Write step size of\n+10pA to labnotebook&#45;&gt;Offset DAScale\nby +10pA -->
<g id="edge37" class="edge">
<title>Write step size of\n+10pA to labnotebook&#45;&gt;Offset DAScale\nby +10pA</title>
<path fill="none" stroke="#9ecae1" d="M876.71,-376.68C876.71,-355.37 876.71,-324.3 876.71,-300.41"/>
<polygon fill="#9ecae1" stroke="#9ecae1" points="880.21,-300.33 876.71,-290.33 873.21,-300.33 880.21,-300.33"/>
</g>
<!-- Mark sweep as failed [1] -->
<g id="node37" class="node">
<title>Mark sweep as failed [1]</title>
<ellipse fill="#eff3ff" stroke="#bdd7e7" cx="994.71" cy="-174" rx="264.84" ry="18"/>
<text text-anchor="middle" x="994.71" y="-170.6" font-family="Helvetica,sans-Serif" font-size="13.00" fill="#2171b5">Would the new DA scale for the next sweep be out of range?</text>
</g>
<!-- Offset DAScale\nby +10pA&#45;&gt;Mark sweep as failed [1] -->
<g id="edge38" class="edge">
<title>Offset DAScale\nby +10pA&#45;&gt;Mark sweep as failed [1]</title>
<path fill="none" stroke="#9ecae1" d="M907.09,-240.68C924.46,-227.66 946.2,-211.36 963.68,-198.26"/>
<polygon fill="#9ecae1" stroke="#9ecae1" points="965.97,-200.91 971.88,-192.11 961.77,-195.31 965.97,-200.91"/>
</g>
<!-- Offset DAScale\nby +100pA&#45;&gt;Mark sweep as failed [1] -->
<g id="edge39" class="edge">
<title>Offset DAScale\nby +100pA&#45;&gt;Mark sweep as failed [1]</title>
<path fill="none" stroke="#9ecae1" d="M646.13,-310.4C681.05,-289.99 735.69,-259.7 785.71,-239 829.11,-221.03 879.41,-205.48 919.78,-194.2"/>
<polygon fill="#9ecae1" stroke="#9ecae1" points="920.85,-197.54 929.56,-191.5 918.99,-190.79 920.85,-197.54"/>
</g>
<!-- Set &quot;ITI&quot; to 100ms -->
<g id="node39" class="node">
<title>Set &quot;ITI&quot; to 100ms</title>
<ellipse fill="#eff3ff" stroke="#bdd7e7" cx="160.71" cy="-264.46" rx="86.58" ry="18"/>
<text text-anchor="middle" x="160.71" y="-261.06" font-family="Helvetica,sans-Serif" font-size="13.00" fill="#2171b5">Set &quot;ITI&quot; to 100ms</text>
</g>
<!-- Set &quot;TP during ITI&quot; to disabled&#45;&gt;Set &quot;ITI&quot; to 100ms -->
<g id="edge41" class="edge">
<title>Set &quot;TP during ITI&quot; to disabled&#45;&gt;Set &quot;ITI&quot; to 100ms</title>
<path fill="none" stroke="#9ecae1" d="M175.55,-384.08C172.67,-361.01 167.51,-319.82 164.1,-292.56"/>
<polygon fill="#9ecae1" stroke="#9ecae1" points="167.56,-292.01 162.84,-282.52 160.61,-292.88 167.56,-292.01"/>
</g>
<!-- Set DAScale to 100pA -->
<g id="node40" class="node">
<title>Set DAScale to 100pA</title>
<ellipse fill="#eff3ff" stroke="#bdd7e7" cx="502.71" cy="-264.46" rx="102.16" ry="18"/>
<text text-anchor="middle" x="502.71" y="-261.06" font-family="Helvetica,sans-Serif" font-size="13.00" fill="#2171b5">Set DAScale to 100pA</text>
</g>
<!-- All checks passed&#45;&gt;Set DAScale to 100pA -->
<g id="edge42" class="edge">
<title>All checks passed&#45;&gt;Set DAScale to 100pA</title>
<path fill="none" stroke="#9ecae1" d="M501.83,-384.08C502,-361.01 502.31,-319.82 502.51,-292.56"/>
<polygon fill="#9ecae1" stroke="#9ecae1" points="506.01,-292.54 502.58,-282.52 499.01,-292.49 506.01,-292.54"/>
<text text-anchor="middle" x="510.71" y="-330.87" font-family="Helvetica,sans-Serif" font-size="10.00" fill="#3182bd">Yes</text>
</g>
<!-- Abort -->
<g id="node41" class="node">
<title>Abort</title>
<ellipse fill="#eff3ff" stroke="#bdd7e7" cx="348.71" cy="-264.46" rx="33.46" ry="18"/>
<text text-anchor="middle" x="348.71" y="-261.06" font-family="Helvetica,sans-Serif" font-size="13.00" fill="#2171b5">Abort</text>
</g>
<!-- All checks passed&#45;&gt;Abort -->
<g id="edge43" class="edge">
<title>All checks passed&#45;&gt;Abort</title>
<path fill="none" stroke="#9ecae1" d="M482.94,-384.62C455.26,-360.04 403.44,-314.05 372.92,-286.95"/>
<polygon fill="#9ecae1" stroke="#9ecae1" points="375.08,-284.19 365.28,-280.17 370.43,-289.43 375.08,-284.19"/>
<text text-anchor="middle" x="459.71" y="-330.87" font-family="Helvetica,sans-Serif" font-size="10.00" fill="#3182bd">No</text>
</g>
<!-- Mark sweep as passed -->
<g id="node42" class="node">
<title>Mark sweep as passed</title>
<ellipse fill="#eff3ff" stroke="#bdd7e7" cx="1403.71" cy="-264.46" rx="104.72" ry="18"/>
<text text-anchor="middle" x="1403.71" y="-261.06" font-family="Helvetica,sans-Serif" font-size="13.00" fill="#2171b5">Mark sweep as passed</text>
</g>
<!-- Store DAScale\nin labnotebook&#45;&gt;Mark sweep as passed -->
<g id="edge44" class="edge">
<title>Store DAScale\nin labnotebook&#45;&gt;Mark sweep as passed</title>
<path fill="none" stroke="#9ecae1" d="M1403.71,-376.68C1403.71,-352.98 1403.71,-317.18 1403.71,-292.64"/>
<polygon fill="#9ecae1" stroke="#9ecae1" points="1407.21,-292.56 1403.71,-282.56 1400.21,-292.56 1407.21,-292.56"/>
</g>
<!-- Offset DAScale\nby &#45;50pA&#45;&gt;Mark sweep as failed [1] -->
<g id="edge45" class="edge">
<title>Offset DAScale\nby &#45;50pA&#45;&gt;Mark sweep as failed [1]</title>
<path fill="none" stroke="#9ecae1" d="M1092.65,-241.13C1072.97,-227.85 1048.07,-211.04 1028.3,-197.69"/>
<polygon fill="#9ecae1" stroke="#9ecae1" points="1030.14,-194.7 1019.9,-192.01 1026.22,-200.51 1030.14,-194.7"/>
</g>
<!-- Write step size of\n&#45;50pA to labnotebook&#45;&gt;Offset DAScale\nby &#45;50pA -->
<g id="edge46" class="edge">
<title>Write step size of\n&#45;50pA to labnotebook&#45;&gt;Offset DAScale\nby &#45;50pA</title>
<path fill="none" stroke="#9ecae1" d="M1125.71,-376.68C1125.71,-355.37 1125.71,-324.3 1125.71,-300.41"/>
<polygon fill="#9ecae1" stroke="#9ecae1" points="1129.21,-300.33 1125.71,-290.33 1122.21,-300.33 1129.21,-300.33"/>
</g>
<!-- Three sweeps exist with\nthis labnotebook entry? -->
<g id="node43" class="node">
<title>Three sweeps exist with\nthis labnotebook entry?</title>
<ellipse fill="#eff3ff" stroke="#bdd7e7" cx="1650.71" cy="-264.46" rx="124.4" ry="25.41"/>
<text text-anchor="middle" x="1650.71" y="-268.06" font-family="Helvetica,sans-Serif" font-size="13.00" fill="#2171b5">Three sweeps exist with</text>
<text text-anchor="middle" x="1650.71" y="-254.06" font-family="Helvetica,sans-Serif" font-size="13.00" fill="#2171b5">this labnotebook entry?</text>
</g>
<!-- Mark sweep as failure [2]&#45;&gt;Three sweeps exist with\nthis labnotebook entry? -->
<g id="edge47" class="edge">
<title>Mark sweep as failure [2]&#45;&gt;Three sweeps exist with\nthis labnotebook entry?</title>
<path fill="none" stroke="#9ecae1" d="M1624.5,-384.08C1629.15,-363.06 1637.11,-327 1643.05,-300.14"/>
<polygon fill="#9ecae1" stroke="#9ecae1" points="1646.47,-300.86 1645.21,-290.34 1639.63,-299.35 1646.47,-300.86"/>
</g>
<!-- n44 -->
<g id="node44" class="node">
<title>n44</title>
<ellipse fill="#eff3ff" stroke="#bdd7e7" cx="820.71" cy="-91" rx="205.85" ry="18"/>
<text text-anchor="middle" x="820.71" y="-87.6" font-family="Helvetica,sans-Serif" font-size="13.00" fill="#2171b5">Add &quot;DAScale out of range&quot; labnotebook entry</text>
</g>
<!-- Mark sweep as failed [1]&#45;&gt;n44 -->
<g id="edge48" class="edge">
<title>Mark sweep as failed [1]&#45;&gt;n44</title>
<path fill="none" stroke="#9ecae1" d="M958.23,-156.02C931.46,-143.56 894.92,-126.55 866.24,-113.2"/>
<polygon fill="#9ecae1" stroke="#9ecae1" points="867.38,-109.87 856.84,-108.82 864.42,-116.21 867.38,-109.87"/>
<text text-anchor="middle" x="926.71" y="-130" font-family="Helvetica,sans-Serif" font-size="10.00" fill="#3182bd">Yes</text>
</g>
<!-- n46 -->
<g id="node45" class="node">
<title>n46</title>
<ellipse fill="#eff3ff" stroke="#bdd7e7" cx="1106.71" cy="-91" rx="61.81" ry="18"/>
<text text-anchor="middle" x="1106.71" y="-87.6" font-family="Helvetica,sans-Serif" font-size="13.00" fill="#2171b5">Set DAScale</text>
</g>
<!-- Mark sweep as failed [1]&#45;&gt;n46 -->
<g id="edge49" class="edge">
<title>Mark sweep as failed [1]&#45;&gt;n46</title>
<path fill="none" stroke="#9ecae1" d="M1018.18,-156.02C1035.05,-143.82 1057.94,-127.26 1076.22,-114.05"/>
<polygon fill="#9ecae1" stroke="#9ecae1" points="1078.73,-116.55 1084.78,-107.86 1074.63,-110.88 1078.73,-116.55"/>
<text text-anchor="middle" x="1064.71" y="-130" font-family="Helvetica,sans-Serif" font-size="10.00" fill="#3182bd">No</text>
</g>
<!-- Enable &quot;Repeated Acquisition&quot; -->
<g id="node46" class="node">
<title>Enable &quot;Repeated Acquisition&quot;</title>
<ellipse fill="#eff3ff" stroke="#bdd7e7" cx="137.71" cy="-174" rx="137.91" ry="18"/>
<text text-anchor="middle" x="137.71" y="-170.6" font-family="Helvetica,sans-Serif" font-size="13.00" fill="#2171b5">Enable &quot;Repeated Acquisition&quot;</text>
</g>
<!-- Set &quot;ITI&quot; to 100ms&#45;&gt;Enable &quot;Repeated Acquisition&quot; -->
<g id="edge50" class="edge">
<title>Set &quot;ITI&quot; to 100ms&#45;&gt;Enable &quot;Repeated Acquisition&quot;</title>
<path fill="none" stroke="#9ecae1" d="M156.27,-246.4C152.99,-233.8 148.47,-216.39 144.7,-201.91"/>
<polygon fill="#9ecae1" stroke="#9ecae1" points="148.03,-200.8 142.13,-192 141.26,-202.56 148.03,-200.8"/>
</g>
<!-- Write initial stepsize of 100pA into labnotebook -->
<g id="node47" class="node">
<title>Write initial stepsize of 100pA into labnotebook</title>
<ellipse fill="#eff3ff" stroke="#bdd7e7" cx="502.71" cy="-174" rx="209.93" ry="18"/>
<text text-anchor="middle" x="502.71" y="-170.6" font-family="Helvetica,sans-Serif" font-size="13.00" fill="#2171b5">Write initial stepsize of 100pA into labnotebook</text>
</g>
<!-- Set DAScale to 100pA&#45;&gt;Write initial stepsize of 100pA into labnotebook -->
<g id="edge51" class="edge">
<title>Set DAScale to 100pA&#45;&gt;Write initial stepsize of 100pA into labnotebook</title>
<path fill="none" stroke="#9ecae1" d="M502.71,-246.4C502.71,-233.92 502.71,-216.72 502.71,-202.33"/>
<polygon fill="#9ecae1" stroke="#9ecae1" points="506.21,-202 502.71,-192 499.21,-202 506.21,-202"/>
</g>
<!-- Mark sweep as passed&#45;&gt;Skip to end of active set -->
<g id="edge52" class="edge">
<title>Mark sweep as passed&#45;&gt;Skip to end of active set</title>
<path fill="none" stroke="#9ecae1" d="M1447.01,-247.95C1488.9,-232.94 1552.48,-210.17 1597.45,-194.07"/>
<polygon fill="#9ecae1" stroke="#9ecae1" points="1598.8,-197.31 1607.03,-190.64 1596.44,-190.72 1598.8,-197.31"/>
</g>
<!-- Three sweeps exist with\nthis labnotebook entry?&#45;&gt;Skip to end of active set -->
<g id="edge53" class="edge">
<title>Three sweeps exist with\nthis labnotebook entry?&#45;&gt;Skip to end of active set</title>
<path fill="none" stroke="#9ecae1" d="M1650.71,-238.82C1650.71,-227.47 1650.71,-213.96 1650.71,-202.3"/>
<polygon fill="#9ecae1" stroke="#9ecae1" points="1654.21,-202.23 1650.71,-192.23 1647.21,-202.23 1654.21,-202.23"/>
<text text-anchor="middle" x="1658.71" y="-213" font-family="Helvetica,sans-Serif" font-size="10.00" fill="#3182bd">Yes</text>
</g>
<!-- n45 -->
<g id="node48" class="node">
<title>n45</title>
<ellipse fill="#eff3ff" stroke="#bdd7e7" cx="962.71" cy="-18" rx="98.58" ry="18"/>
<text text-anchor="middle" x="962.71" y="-14.6" font-family="Helvetica,sans-Serif" font-size="13.00" fill="#2171b5">Mark sweep as failed</text>
</g>
<!-- n44&#45;&gt;n45 -->
<g id="edge54" class="edge">
<title>n44&#45;&gt;n45</title>
<path fill="none" stroke="#9ecae1" d="M854.36,-73.17C874.36,-63.17 899.89,-50.41 921.15,-39.78"/>
<polygon fill="#9ecae1" stroke="#9ecae1" points="922.89,-42.82 930.27,-35.22 919.76,-36.56 922.89,-42.82"/>
</g>
<!-- n46&#45;&gt;n45 -->
<g id="edge55" class="edge">
<title>n46&#45;&gt;n45</title>
<path fill="none" stroke="#9ecae1" d="M1076.52,-75.12C1055.64,-64.82 1027.59,-50.99 1004.56,-39.64"/>
<polygon fill="#9ecae1" stroke="#9ecae1" points="1005.88,-36.38 995.36,-35.1 1002.78,-42.66 1005.88,-36.38"/>
</g>
<!-- n47&#45;&gt;Skip to end -->
<g id="edge56" class="edge">
<title>n47&#45;&gt;Skip to end</title>
<path fill="none" stroke="#9ecae1" d="M2668.98,-620.36C2695.37,-596.3 2744.28,-551.72 2774.21,-524.43"/>
<polygon fill="#9ecae1" stroke="#9ecae1" points="2776.72,-526.88 2781.75,-517.56 2772,-521.71 2776.72,-526.88"/>
</g>
</g>
</svg>
