<?xml version="1.0" encoding="UTF-8" standalone="no"?>
<!DOCTYPE svg PUBLIC "-//W3C//DTD SVG 1.1//EN"
 "http://www.w3.org/Graphics/SVG/1.1/DTD/svg11.dtd">
<!-- Generated by graphviz version 2.40.1 (20161225.0304)
 -->
<!-- Title: G Pages: 1 -->
<svg width="1920pt" height="1179pt"
 viewBox="0.00 0.00 1920.00 1179.16" xmlns="http://www.w3.org/2000/svg" xmlns:xlink="http://www.w3.org/1999/xlink">
<g id="graph0" class="graph" transform="scale(1 1) rotate(0) translate(4 1175.1564)">
<title>G</title>
<polygon fill="#ffffff" stroke="transparent" points="-4,4 -4,-1175.1564 1916,-1175.1564 1916,4 -4,4"/>
<g id="clust1" class="cluster">
<title>cluster_preDAQ</title>
<polygon fill="none" stroke="transparent" stroke-width=".1" points="8,-8 8,-1106.1564 716,-1106.1564 716,-8 8,-8"/>
</g>
<!-- Start DAQ/RA -->
<g id="node1" class="node">
<title>Start DAQ/RA</title>
<ellipse fill="#eff3ff" stroke="#bdd7e7" cx="1060" cy="-1153.1564" rx="67.6788" ry="18"/>
<text text-anchor="middle" x="1060" y="-1149.7564" font-family="serif" font-size="13.00" fill="#2171b5">Start DAQ/RA</text>
</g>
<!-- Prepare DAQ/Pre Set Event -->
<g id="node2" class="node">
<title>Prepare DAQ/Pre Set Event</title>
<ellipse fill="#eff3ff" stroke="#bdd7e7" cx="506" cy="-1080.1564" rx="122.5904" ry="18"/>
<text text-anchor="middle" x="506" y="-1076.7564" font-family="serif" font-size="13.00" fill="#2171b5">Prepare DAQ/Pre Set Event</text>
</g>
<!-- Start DAQ/RA&#45;&gt;Prepare DAQ/Pre Set Event -->
<!-- Wildcard edge -->
<g id="edge1" class="edge">
<title>Start DAQ/RA&#45;&gt;Prepare DAQ/Pre Set Event</title>
<path fill="none" stroke="#9ecae1" d="M999.3929,-1145.1703C905.0955,-1132.7448 722.1994,-1108.6448 607.5205,-1093.5337"/>
<polygon fill="#9ecae1" stroke="#9ecae1" points="607.6994,-1090.0271 597.3278,-1092.1906 606.7848,-1096.9671 607.6994,-1090.0271"/>
</g>
<!-- Post Sweep Event -->
<g id="node3" class="node">
<title>Post Sweep Event</title>
<ellipse fill="#eff3ff" stroke="#bdd7e7" cx="996" cy="-1080.1564" rx="83.2627" ry="18"/>
<text text-anchor="middle" x="996" y="-1076.7564" font-family="serif" font-size="13.00" fill="#2171b5">Post Sweep Event</text>
</g>
<!-- Start DAQ/RA&#45;&gt;Post Sweep Event -->
<!-- Wildcard edge -->
<g id="edge2" class="edge">
<title>Start DAQ/RA&#45;&gt;Post Sweep Event</title>
<path fill="none" stroke="#9ecae1" d="M1044.5074,-1135.4852C1036.6259,-1126.4953 1026.9047,-1115.4071 1018.2394,-1105.5233"/>
<polygon fill="#9ecae1" stroke="#9ecae1" points="1020.7959,-1103.13 1011.5718,-1097.918 1015.5323,-1107.7447 1020.7959,-1103.13"/>
</g>
<!-- Post DAQ Event -->
<g id="node4" class="node">
<title>Post DAQ Event</title>
<ellipse fill="#eff3ff" stroke="#bdd7e7" cx="1228" cy="-1080.1564" rx="75.3393" ry="18"/>
<text text-anchor="middle" x="1228" y="-1076.7564" font-family="serif" font-size="13.00" fill="#2171b5">Post DAQ Event</text>
</g>
<!-- Start DAQ/RA&#45;&gt;Post DAQ Event -->
<!-- Wildcard edge -->
<g id="edge3" class="edge">
<title>Start DAQ/RA&#45;&gt;Post DAQ Event</title>
<path fill="none" stroke="#9ecae1" d="M1095.6285,-1137.675C1120.8732,-1126.7056 1154.9601,-1111.894 1182.2209,-1100.0485"/>
<polygon fill="#9ecae1" stroke="#9ecae1" points="1183.7763,-1103.1889 1191.553,-1095.9935 1180.9865,-1096.7688 1183.7763,-1103.1889"/>
</g>
<!-- Post Set Event -->
<g id="node36" class="node">
<title>Post Set Event</title>
<ellipse fill="#eff3ff" stroke="#bdd7e7" cx="1482" cy="-1080.1564" rx="69.4688" ry="18"/>
<text text-anchor="middle" x="1482" y="-1076.7564" font-family="serif" font-size="13.00" fill="#2171b5">Post Set Event</text>
</g>
<!-- Start DAQ/RA&#45;&gt;Post Set Event -->
<!-- Wildcard edge -->
<g id="edge40" class="edge">
<title>Start DAQ/RA&#45;&gt;Post Set Event</title>
<path fill="none" stroke="#9ecae1" d="M1116.9128,-1143.3113C1194.0136,-1129.974 1331.4686,-1106.1962 1413.9387,-1091.9301"/>
<polygon fill="#9ecae1" stroke="#9ecae1" points="1414.7056,-1095.3495 1423.9627,-1090.1961 1413.5124,-1088.4519 1414.7056,-1095.3495"/>
</g>
<!-- Enable &quot;Multidevice DAQ&quot; -->
<!-- Wildcard node added automatic in EG. -->
<g id="node6" class="node">
<title>Enable &quot;Multidevice DAQ&quot;</title>
<ellipse fill="#eff3ff" stroke="#bdd7e7" cx="248" cy="-869.6468" rx="117.4835" ry="18"/>
<text text-anchor="middle" x="248" y="-866.2468" font-family="serif" font-size="13.00" fill="#2171b5">Enable &quot;Multidevice DAQ&quot;</text>
</g>
<!-- Prepare DAQ/Pre Set Event&#45;&gt;Enable &quot;Multidevice DAQ&quot; -->
<!-- Wildcard node added automatic in EG. -->
<g id="edge5" class="edge">
<title>Prepare DAQ/Pre Set Event&#45;&gt;Enable &quot;Multidevice DAQ&quot;</title>
<path fill="none" stroke="#9ecae1" d="M484.0031,-1062.2085C437.7349,-1024.4569 330.3028,-936.8 277.8669,-894.016"/>
<polygon fill="#9ecae1" stroke="#9ecae1" points="279.9021,-891.1594 269.9413,-887.5493 275.4767,-896.5831 279.9021,-891.1594"/>
</g>
<!-- Check if mode is IC -->
<!-- Wildcard node added automatic in EG. -->
<g id="node16" class="node">
<title>Check if mode is IC</title>
<ellipse fill="#eff3ff" stroke="#bdd7e7" cx="506" cy="-869.6468" rx="89.1327" ry="18"/>
<text text-anchor="middle" x="506" y="-866.2468" font-family="serif" font-size="13.00" fill="#2171b5">Check if mode is IC</text>
</g>
<!-- Prepare DAQ/Pre Set Event&#45;&gt;Check if mode is IC -->
<!-- Wildcard node added automatic in EG. -->
<g id="edge11" class="edge">
<title>Prepare DAQ/Pre Set Event&#45;&gt;Check if mode is IC</title>
<path fill="none" stroke="#9ecae1" d="M506,-1061.8433C506,-1025.0492 506,-941.9256 506,-898.0302"/>
<polygon fill="#9ecae1" stroke="#9ecae1" points="509.5001,-897.7676 506,-887.7676 502.5001,-897.7676 509.5001,-897.7676"/>
</g>
<!-- Spike detected?\n(x range: pulse onset to end of sweep\ny condition: max above 0.01mV)\nStore result in labnotebook -->
<g id="node20" class="node">
<title>Spike detected?\n(x range: pulse onset to end of sweep\ny condition: max above 0.01mV)\nStore result in labnotebook</title>
<ellipse fill="#eff3ff" stroke="#bdd7e7" cx="955" cy="-979.9016" rx="181.9532" ry="45.011"/>
<text text-anchor="middle" x="955" y="-997.5016" font-family="serif" font-size="13.00" fill="#2171b5">Spike detected?</text>
<text text-anchor="middle" x="955" y="-983.5016" font-family="serif" font-size="13.00" fill="#2171b5">(x range: pulse onset to end of sweep</text>
<text text-anchor="middle" x="955" y="-969.5016" font-family="serif" font-size="13.00" fill="#2171b5">y condition: max above 0.01mV)</text>
<text text-anchor="middle" x="955" y="-955.5016" font-family="serif" font-size="13.00" fill="#2171b5">Store result in labnotebook</text>
</g>
<!-- Post Sweep Event&#45;&gt;Spike detected?\n(x range: pulse onset to end of sweep\ny condition: max above 0.01mV)\nStore result in labnotebook -->
<!-- Wildcard edge -->
<g id="edge19" class="edge">
<title>Post Sweep Event&#45;&gt;Spike detected?\n(x range: pulse onset to end of sweep\ny condition: max above 0.01mV)\nStore result in labnotebook</title>
<path fill="none" stroke="#9ecae1" d="M988.48,-1061.7681C985.2915,-1053.9716 981.3914,-1044.4349 977.3944,-1034.6612"/>
<polygon fill="#9ecae1" stroke="#9ecae1" points="980.5775,-1033.1982 973.5526,-1025.2671 974.0984,-1035.8479 980.5775,-1033.1982"/>
</g>
<!-- Update Dashboard -->
<g id="node5" class="node">
<title>Update Dashboard</title>
<ellipse fill="#eff3ff" stroke="#bdd7e7" cx="1242" cy="-979.9016" rx="87.343" ry="18"/>
<text text-anchor="middle" x="1242" y="-976.5016" font-family="serif" font-size="13.00" fill="#2171b5">Update Dashboard</text>
</g>
<!-- Post DAQ Event&#45;&gt;Update Dashboard -->
<!-- Wildcard edge -->
<g id="edge4" class="edge">
<title>Post DAQ Event&#45;&gt;Update Dashboard</title>
<path fill="none" stroke="#9ecae1" d="M1230.5678,-1061.7681C1232.6597,-1046.788 1235.6487,-1025.3837 1238.0458,-1008.2182"/>
<polygon fill="#9ecae1" stroke="#9ecae1" points="1241.5317,-1008.5613 1239.4485,-998.1733 1234.599,-1007.5931 1241.5317,-1008.5613"/>
</g>
<!-- Disable &quot;dDAQ&quot;/&quot;oodDAQ&quot; -->
<!-- Wildcard node added automatic in EG. -->
<g id="node7" class="node">
<title>Disable &quot;dDAQ&quot;/&quot;oodDAQ&quot;</title>
<ellipse fill="#eff3ff" stroke="#bdd7e7" cx="206" cy="-681.2792" rx="118.5107" ry="18"/>
<text text-anchor="middle" x="206" y="-677.8792" font-family="serif" font-size="13.00" fill="#2171b5">Disable &quot;dDAQ&quot;/&quot;oodDAQ&quot;</text>
</g>
<!-- Enable &quot;Multidevice DAQ&quot;&#45;&gt;Disable &quot;dDAQ&quot;/&quot;oodDAQ&quot; -->
<!-- Wildcard node added automatic in EG. -->
<g id="edge6" class="edge">
<title>Enable &quot;Multidevice DAQ&quot;&#45;&gt;Disable &quot;dDAQ&quot;/&quot;oodDAQ&quot;</title>
<path fill="none" stroke="#9ecae1" d="M243.9729,-851.5853C236.6192,-818.6044 220.9718,-748.4269 212.2327,-709.2326"/>
<polygon fill="#9ecae1" stroke="#9ecae1" points="215.6074,-708.2846 210.0149,-699.286 208.7751,-709.808 215.6074,-708.2846"/>
</g>
<!-- Set &quot;TP inserting&quot; to disabled -->
<!-- Wildcard node added automatic in EG. -->
<g id="node14" class="node">
<title>Set &quot;TP inserting&quot; to disabled</title>
<ellipse fill="#eff3ff" stroke="#bdd7e7" cx="174" cy="-502.9117" rx="130.2507" ry="18"/>
<text text-anchor="middle" x="174" y="-499.5117" font-family="serif" font-size="13.00" fill="#2171b5">Set &quot;TP inserting&quot; to disabled</text>
</g>
<!-- Disable &quot;dDAQ&quot;/&quot;oodDAQ&quot;&#45;&gt;Set &quot;TP inserting&quot; to disabled -->
<!-- Wildcard node added automatic in EG. -->
<g id="edge7" class="edge">
<title>Disable &quot;dDAQ&quot;/&quot;oodDAQ&quot;&#45;&gt;Set &quot;TP inserting&quot; to disabled</title>
<path fill="none" stroke="#9ecae1" d="M202.7556,-663.1948C197.1733,-632.0795 185.7128,-568.1986 179.0693,-531.1679"/>
<polygon fill="#9ecae1" stroke="#9ecae1" points="182.464,-530.2687 177.253,-521.044 175.574,-531.5049 182.464,-530.2687"/>
</g>
<!-- Enable &quot;Repeated Acquisition&quot; -->
<!-- Wildcard node added automatic in EG. -->
<g id="node8" class="node">
<title>Enable &quot;Repeated Acquisition&quot;</title>
<ellipse fill="#eff3ff" stroke="#bdd7e7" cx="151" cy="-145" rx="135.3576" ry="18"/>
<text text-anchor="middle" x="151" y="-141.6" font-family="serif" font-size="13.00" fill="#2171b5">Enable &quot;Repeated Acquisition&quot;</text>
</g>
<!-- Check if no TTL channels are active -->
<!-- Wildcard node added automatic in EG. -->
<g id="node9" class="node">
<title>Check if no TTL channels are active</title>
<ellipse fill="#eff3ff" stroke="#bdd7e7" cx="506" cy="-681.2792" rx="155.2847" ry="18"/>
<text text-anchor="middle" x="506" y="-677.8792" font-family="serif" font-size="13.00" fill="#2171b5">Check if no TTL channels are active</text>
</g>
<!-- Check if only one headstage is active -->
<!-- Wildcard node added automatic in EG. -->
<g id="node11" class="node">
<title>Check if only one headstage is active</title>
<ellipse fill="#eff3ff" stroke="#bdd7e7" cx="506" cy="-502.9117" rx="160.3915" ry="18"/>
<text text-anchor="middle" x="506" y="-499.5117" font-family="serif" font-size="13.00" fill="#2171b5">Check if only one headstage is active</text>
</g>
<!-- Check if no TTL channels are active&#45;&gt;Check if only one headstage is active -->
<!-- Wildcard node added automatic in EG. -->
<g id="edge13" class="edge">
<title>Check if no TTL channels are active&#45;&gt;Check if only one headstage is active</title>
<path fill="none" stroke="#9ecae1" d="M506,-663.1948C506,-632.0795 506,-568.1986 506,-531.1679"/>
<polygon fill="#9ecae1" stroke="#9ecae1" points="509.5001,-531.0439 506,-521.044 502.5001,-531.044 509.5001,-531.0439"/>
</g>
<!-- Set &quot;TP during ITI&quot; to disabled -->
<!-- Wildcard node added automatic in EG. -->
<g id="node10" class="node">
<title>Set &quot;TP during ITI&quot; to disabled</title>
<ellipse fill="#eff3ff" stroke="#bdd7e7" cx="151" cy="-384.4558" rx="135.3576" ry="18"/>
<text text-anchor="middle" x="151" y="-381.0558" font-family="serif" font-size="13.00" fill="#2171b5">Set &quot;TP during ITI&quot; to disabled</text>
</g>
<!-- Set &quot;ITI&quot; to 100ms -->
<!-- Wildcard node added automatic in EG. -->
<g id="node15" class="node">
<title>Set &quot;ITI&quot; to 100ms</title>
<ellipse fill="#eff3ff" stroke="#bdd7e7" cx="151" cy="-266" rx="86.5793" ry="18"/>
<text text-anchor="middle" x="151" y="-262.6" font-family="serif" font-size="13.00" fill="#2171b5">Set &quot;ITI&quot; to 100ms</text>
</g>
<!-- Set &quot;TP during ITI&quot; to disabled&#45;&gt;Set &quot;ITI&quot; to 100ms -->
<!-- Wildcard node added automatic in EG. -->
<g id="edge9" class="edge">
<title>Set &quot;TP during ITI&quot; to disabled&#45;&gt;Set &quot;ITI&quot; to 100ms</title>
<path fill="none" stroke="#9ecae1" d="M151,-366.2067C151,-347.0212 151,-316.5837 151,-294.284"/>
<polygon fill="#9ecae1" stroke="#9ecae1" points="154.5001,-294.0754 151,-284.0755 147.5001,-294.0755 154.5001,-294.0754"/>
</g>
<!-- All required analysis parameters present?\nSamplingMultiplier: variable -->
<!-- Wildcard node added automatic in EG. -->
<g id="node13" class="node">
<title>All required analysis parameters present?\nSamplingMultiplier: variable</title>
<ellipse fill="#eff3ff" stroke="#bdd7e7" cx="506" cy="-384.4558" rx="202.4653" ry="25.4118"/>
<text text-anchor="middle" x="506" y="-388.0558" font-family="serif" font-size="13.00" fill="#2171b5">All required analysis parameters present?</text>
<text text-anchor="middle" x="506" y="-374.0558" font-family="serif" font-size="13.00" fill="#2171b5">SamplingMultiplier: variable</text>
</g>
<!-- Check if only one headstage is active&#45;&gt;All required analysis parameters present?\nSamplingMultiplier: variable -->
<!-- Wildcard node added automatic in EG. -->
<g id="edge14" class="edge">
<title>Check if only one headstage is active&#45;&gt;All required analysis parameters present?\nSamplingMultiplier: variable</title>
<path fill="none" stroke="#9ecae1" d="M506,-484.6626C506,-467.4849 506,-441.287 506,-419.986"/>
<polygon fill="#9ecae1" stroke="#9ecae1" points="509.5001,-419.9835 506,-409.9836 502.5001,-419.9836 509.5001,-419.9835"/>
</g>
<!-- All checks passed -->
<!-- Wildcard node added automatic in EG. -->
<g id="node12" class="node">
<title>All checks passed</title>
<ellipse fill="#eff3ff" stroke="#bdd7e7" cx="506" cy="-266" rx="82.9999" ry="18"/>
<text text-anchor="middle" x="506" y="-262.6" font-family="serif" font-size="13.00" fill="#2171b5">All checks passed</text>
</g>
<!-- Set DAScale to 100pA -->
<!-- Wildcard node added automatic in EG. -->
<g id="node17" class="node">
<title>Set DAScale to 100pA</title>
<ellipse fill="#eff3ff" stroke="#bdd7e7" cx="430" cy="-145" rx="100.3731" ry="18"/>
<text text-anchor="middle" x="430" y="-141.6" font-family="serif" font-size="13.00" fill="#2171b5">Set DAScale to 100pA</text>
</g>
<!-- All checks passed&#45;&gt;Set DAScale to 100pA -->
<!-- Wildcard node added automatic in EG. -->
<g id="edge16" class="edge">
<title>All checks passed&#45;&gt;Set DAScale to 100pA</title>
<path fill="none" stroke="#9ecae1" d="M494.7859,-248.146C482.1008,-227.9499 461.3129,-194.8535 446.7135,-171.6096"/>
<polygon fill="#9ecae1" stroke="#9ecae1" points="449.5428,-169.5338 441.2601,-162.9272 443.6151,-173.257 449.5428,-169.5338"/>
<text text-anchor="middle" x="479" y="-203" font-family="sans-serif" font-size="10.00" fill="#3182bd">Yes</text>
</g>
<!-- Abort -->
<!-- Wildcard node added automatic in EG. -->
<g id="node19" class="node">
<title>Abort</title>
<ellipse fill="#eff3ff" stroke="#bdd7e7" cx="582" cy="-145" rx="33.4577" ry="18"/>
<text text-anchor="middle" x="582" y="-141.6" font-family="serif" font-size="13.00" fill="#2171b5">Abort</text>
</g>
<!-- All checks passed&#45;&gt;Abort -->
<!-- Wildcard node added automatic in EG. -->
<g id="edge18" class="edge">
<title>All checks passed&#45;&gt;Abort</title>
<path fill="none" stroke="#9ecae1" d="M517.2141,-248.146C530.045,-227.7178 551.166,-194.091 565.7875,-170.812"/>
<polygon fill="#9ecae1" stroke="#9ecae1" points="568.877,-172.4735 571.232,-162.1437 562.9493,-168.7503 568.877,-172.4735"/>
<text text-anchor="middle" x="554" y="-203" font-family="sans-serif" font-size="10.00" fill="#3182bd">No</text>
</g>
<!-- All required analysis parameters present?\nSamplingMultiplier: variable&#45;&gt;All checks passed -->
<!-- Wildcard node added automatic in EG. -->
<g id="edge15" class="edge">
<title>All required analysis parameters present?\nSamplingMultiplier: variable&#45;&gt;All checks passed</title>
<path fill="none" stroke="#9ecae1" d="M506,-358.7527C506,-339.8065 506,-314.0361 506,-294.4669"/>
<polygon fill="#9ecae1" stroke="#9ecae1" points="509.5001,-294.3159 506,-284.3159 502.5001,-294.316 509.5001,-294.3159"/>
</g>
<!-- Set &quot;TP inserting&quot; to disabled&#45;&gt;Set &quot;TP during ITI&quot; to disabled -->
<!-- Wildcard node added automatic in EG. -->
<g id="edge8" class="edge">
<title>Set &quot;TP inserting&quot; to disabled&#45;&gt;Set &quot;TP during ITI&quot; to disabled</title>
<path fill="none" stroke="#9ecae1" d="M170.4567,-484.6626C166.7146,-465.3899 160.7678,-434.7626 156.4328,-412.4362"/>
<polygon fill="#9ecae1" stroke="#9ecae1" points="159.8516,-411.6808 154.5096,-402.5313 152.9799,-413.0151 159.8516,-411.6808"/>
</g>
<!-- Set &quot;ITI&quot; to 100ms&#45;&gt;Enable &quot;Repeated Acquisition&quot; -->
<!-- Wildcard node added automatic in EG. -->
<g id="edge10" class="edge">
<title>Set &quot;ITI&quot; to 100ms&#45;&gt;Enable &quot;Repeated Acquisition&quot;</title>
<path fill="none" stroke="#9ecae1" d="M151,-247.8851C151,-228.1928 151,-196.4608 151,-173.439"/>
<polygon fill="#9ecae1" stroke="#9ecae1" points="154.5001,-173.2387 151,-163.2388 147.5001,-173.2388 154.5001,-173.2387"/>
</g>
<!-- Check if mode is IC&#45;&gt;Check if no TTL channels are active -->
<!-- Wildcard node added automatic in EG. -->
<g id="edge12" class="edge">
<title>Check if mode is IC&#45;&gt;Check if no TTL channels are active</title>
<path fill="none" stroke="#9ecae1" d="M506,-851.5853C506,-818.6747 506,-748.726 506,-709.4838"/>
<polygon fill="#9ecae1" stroke="#9ecae1" points="509.5001,-709.286 506,-699.286 502.5001,-709.286 509.5001,-709.286"/>
</g>
<!-- Write initial stepsize of 100pA into labnotebook -->
<!-- Wildcard node added automatic in EG. -->
<g id="node18" class="node">
<title>Write initial stepsize of 100pA into labnotebook</title>
<ellipse fill="#eff3ff" stroke="#bdd7e7" cx="430" cy="-34" rx="202.2728" ry="18"/>
<text text-anchor="middle" x="430" y="-30.6" font-family="serif" font-size="13.00" fill="#2171b5">Write initial stepsize of 100pA into labnotebook</text>
</g>
<!-- Set DAScale to 100pA&#45;&gt;Write initial stepsize of 100pA into labnotebook -->
<!-- Wildcard node added automatic in EG. -->
<g id="edge17" class="edge">
<title>Set DAScale to 100pA&#45;&gt;Write initial stepsize of 100pA into labnotebook</title>
<path fill="none" stroke="#9ecae1" d="M430,-126.6706C430,-109.2373 430,-82.7482 430,-62.5489"/>
<polygon fill="#9ecae1" stroke="#9ecae1" points="433.5001,-62.3566 430,-52.3566 426.5001,-62.3567 433.5001,-62.3566"/>
</g>
<!-- DAScale is zero -->
<g id="node21" class="node">
<title>DAScale is zero</title>
<ellipse fill="#eff3ff" stroke="#bdd7e7" cx="955" cy="-869.6468" rx="73.8123" ry="18"/>
<text text-anchor="middle" x="955" y="-866.2468" font-family="serif" font-size="13.00" fill="#2171b5">DAScale is zero</text>
</g>
<!-- Spike detected?\n(x range: pulse onset to end of sweep\ny condition: max above 0.01mV)\nStore result in labnotebook&#45;&gt;DAScale is zero -->
<!-- Wildcard edge -->
<g id="edge20" class="edge">
<title>Spike detected?\n(x range: pulse onset to end of sweep\ny condition: max above 0.01mV)\nStore result in labnotebook&#45;&gt;DAScale is zero</title>
<path fill="none" stroke="#9ecae1" d="M955,-934.4202C955,-922.1413 955,-909.2034 955,-898.1465"/>
<polygon fill="#9ecae1" stroke="#9ecae1" points="958.5001,-897.8106 955,-887.8106 951.5001,-897.8107 958.5001,-897.8106"/>
<text text-anchor="middle" x="963" y="-908.6468" font-family="sans-serif" font-size="10.00" fill="#3182bd">Yes</text>
</g>
<!-- Step Size from labnotebook? -->
<g id="node30" class="node">
<title>Step Size from labnotebook?</title>
<ellipse fill="#eff3ff" stroke="#bdd7e7" cx="1638" cy="-779.1909" rx="126.1707" ry="18"/>
<text text-anchor="middle" x="1638" y="-775.7909" font-family="serif" font-size="13.00" fill="#2171b5">Step Size from labnotebook?</text>
</g>
<!-- Spike detected?\n(x range: pulse onset to end of sweep\ny condition: max above 0.01mV)\nStore result in labnotebook&#45;&gt;Step Size from labnotebook? -->
<!-- Wildcard edge -->
<g id="edge30" class="edge">
<title>Spike detected?\n(x range: pulse onset to end of sweep\ny condition: max above 0.01mV)\nStore result in labnotebook&#45;&gt;Step Size from labnotebook?</title>
<path fill="none" stroke="#9ecae1" d="M1072.8006,-945.284C1217.5974,-902.7331 1458.1979,-832.0287 1573.0771,-798.2696"/>
<polygon fill="#9ecae1" stroke="#9ecae1" points="1574.1885,-801.591 1582.796,-795.4135 1572.2148,-794.875 1574.1885,-801.591"/>
<text text-anchor="middle" x="1393" y="-867.1468" font-family="sans-serif" font-size="10.00" fill="#3182bd">No</text>
</g>
<!-- Step size from labnotebook? -->
<g id="node22" class="node">
<title>Step size from labnotebook?</title>
<ellipse fill="#eff3ff" stroke="#bdd7e7" cx="1226" cy="-779.1909" rx="125.1438" ry="18"/>
<text text-anchor="middle" x="1226" y="-775.7909" font-family="serif" font-size="13.00" fill="#2171b5">Step size from labnotebook?</text>
</g>
<!-- DAScale is zero&#45;&gt;Step size from labnotebook? -->
<!-- Wildcard edge -->
<g id="edge21" class="edge">
<title>DAScale is zero&#45;&gt;Step size from labnotebook?</title>
<path fill="none" stroke="#9ecae1" d="M998.842,-855.0129C1044.4393,-839.7932 1116.1055,-815.8721 1166.7295,-798.9745"/>
<polygon fill="#9ecae1" stroke="#9ecae1" points="1167.8653,-802.2853 1176.2427,-795.7992 1165.6489,-795.6454 1167.8653,-802.2853"/>
<text text-anchor="middle" x="1097" y="-825.6468" font-family="sans-serif" font-size="10.00" fill="#3182bd">No</text>
</g>
<!-- Add labnotebook entry\ndocumenting this case -->
<g id="node23" class="node">
<title>Add labnotebook entry\ndocumenting this case</title>
<ellipse fill="#eff3ff" stroke="#bdd7e7" cx="887" cy="-779.1909" rx="115.0173" ry="25.4118"/>
<text text-anchor="middle" x="887" y="-782.7909" font-family="serif" font-size="13.00" fill="#2171b5">Add labnotebook entry</text>
<text text-anchor="middle" x="887" y="-768.7909" font-family="serif" font-size="13.00" fill="#2171b5">documenting this case</text>
</g>
<!-- DAScale is zero&#45;&gt;Add labnotebook entry\ndocumenting this case -->
<!-- Wildcard edge -->
<g id="edge22" class="edge">
<title>DAScale is zero&#45;&gt;Add labnotebook entry\ndocumenting this case</title>
<path fill="none" stroke="#9ecae1" d="M941.5654,-851.7756C933.1675,-840.6044 922.0883,-825.8665 912.1084,-812.591"/>
<polygon fill="#9ecae1" stroke="#9ecae1" points="914.877,-810.4491 906.0704,-804.559 909.2817,-814.6554 914.877,-810.4491"/>
<text text-anchor="middle" x="935" y="-825.6468" font-family="sans-serif" font-size="10.00" fill="#3182bd">Yes</text>
</g>
<!-- Store DAScale\nin labnotebook -->
<g id="node27" class="node">
<title>Store DAScale\nin labnotebook</title>
<ellipse fill="#eff3ff" stroke="#bdd7e7" cx="1057" cy="-681.2792" rx="78.4777" ry="25.4118"/>
<text text-anchor="middle" x="1057" y="-684.8792" font-family="serif" font-size="13.00" fill="#2171b5">Store DAScale</text>
<text text-anchor="middle" x="1057" y="-670.8792" font-family="serif" font-size="13.00" fill="#2171b5">in labnotebook</text>
</g>
<!-- Step size from labnotebook?&#45;&gt;Store DAScale\nin labnotebook -->
<!-- Wildcard edge -->
<g id="edge26" class="edge">
<title>Step size from labnotebook?&#45;&gt;Store DAScale\nin labnotebook</title>
<path fill="none" stroke="#9ecae1" d="M1195.7862,-761.6863C1170.404,-746.9809 1133.6891,-725.7098 1104.3968,-708.739"/>
<polygon fill="#9ecae1" stroke="#9ecae1" points="1105.9725,-705.6069 1095.5651,-703.6223 1102.4633,-711.6638 1105.9725,-705.6069"/>
<text text-anchor="middle" x="1163" y="-727.7351" font-family="sans-serif" font-size="10.00" fill="#3182bd">+10pA</text>
</g>
<!-- Offset DAScale\nby &#45;50pA -->
<g id="node28" class="node">
<title>Offset DAScale\nby &#45;50pA</title>
<ellipse fill="#eff3ff" stroke="#bdd7e7" cx="1407" cy="-593.3675" rx="80.7205" ry="25.4118"/>
<text text-anchor="middle" x="1407" y="-596.9675" font-family="serif" font-size="13.00" fill="#2171b5">Offset DAScale</text>
<text text-anchor="middle" x="1407" y="-582.9675" font-family="serif" font-size="13.00" fill="#2171b5">by &#45;50pA</text>
</g>
<!-- Step size from labnotebook?&#45;&gt;Offset DAScale\nby &#45;50pA -->
<!-- Wildcard edge -->
<g id="edge27" class="edge">
<title>Step size from labnotebook?&#45;&gt;Offset DAScale\nby &#45;50pA</title>
<path fill="none" stroke="#9ecae1" d="M1289.3362,-763.546C1320.929,-752.6224 1357.1724,-734.8247 1380,-706.7351 1397.6731,-684.9882 1404.1261,-653.5884 1406.3267,-629.3465"/>
<polygon fill="#9ecae1" stroke="#9ecae1" points="1409.8364,-629.33 1407.0468,-619.1091 1402.8536,-628.8388 1409.8364,-629.33"/>
<text text-anchor="middle" x="1416.5" y="-678.7792" font-family="sans-serif" font-size="10.00" fill="#3182bd">&#45;50pA</text>
</g>
<!-- Write step size of\n&#45;50pA to labnotebook -->
<g id="node29" class="node">
<title>Write step size of\n&#45;50pA to labnotebook</title>
<ellipse fill="#eff3ff" stroke="#bdd7e7" cx="1262" cy="-681.2792" rx="108.789" ry="25.4118"/>
<text text-anchor="middle" x="1262" y="-684.8792" font-family="serif" font-size="13.00" fill="#2171b5">Write step size of</text>
<text text-anchor="middle" x="1262" y="-670.8792" font-family="serif" font-size="13.00" fill="#2171b5">&#45;50pA to labnotebook</text>
</g>
<!-- Step size from labnotebook?&#45;&gt;Write step size of\n&#45;50pA to labnotebook -->
<!-- Wildcard edge -->
<g id="edge28" class="edge">
<title>Step size from labnotebook?&#45;&gt;Write step size of\n&#45;50pA to labnotebook</title>
<path fill="none" stroke="#9ecae1" d="M1232.7713,-760.7745C1237.3493,-748.3234 1243.5407,-731.4842 1249.0467,-716.5091"/>
<polygon fill="#9ecae1" stroke="#9ecae1" points="1252.3762,-717.5959 1252.5422,-707.0024 1245.8062,-715.1802 1252.3762,-717.5959"/>
<text text-anchor="middle" x="1265" y="-727.7351" font-family="sans-serif" font-size="10.00" fill="#3182bd">+100pA</text>
</g>
<!-- Mark sweep as failure [2] -->
<g id="node24" class="node">
<title>Mark sweep as failure [2]</title>
<ellipse fill="#eff3ff" stroke="#bdd7e7" cx="846" cy="-681.2792" rx="114.167" ry="18"/>
<text text-anchor="middle" x="846" y="-677.8792" font-family="serif" font-size="13.00" fill="#2171b5">Mark sweep as failure [2]</text>
</g>
<!-- Add labnotebook entry\ndocumenting this case&#45;&gt;Mark sweep as failure [2] -->
<!-- Wildcard edge -->
<g id="edge23" class="edge">
<title>Add labnotebook entry\ndocumenting this case&#45;&gt;Mark sweep as failure [2]</title>
<path fill="none" stroke="#9ecae1" d="M876.3348,-753.7214C870.607,-740.0429 863.5368,-723.1586 857.6634,-709.1324"/>
<polygon fill="#9ecae1" stroke="#9ecae1" points="860.7254,-707.383 853.6344,-699.5109 854.2686,-710.0868 860.7254,-707.383"/>
</g>
<!-- Three sweeps exist with\nthis labnotebook entry? -->
<g id="node25" class="node">
<title>Three sweeps exist with\nthis labnotebook entry?</title>
<ellipse fill="#eff3ff" stroke="#bdd7e7" cx="846" cy="-593.3675" rx="122.1592" ry="25.4118"/>
<text text-anchor="middle" x="846" y="-596.9675" font-family="serif" font-size="13.00" fill="#2171b5">Three sweeps exist with</text>
<text text-anchor="middle" x="846" y="-582.9675" font-family="serif" font-size="13.00" fill="#2171b5">this labnotebook entry?</text>
</g>
<!-- Mark sweep as failure [2]&#45;&gt;Three sweeps exist with\nthis labnotebook entry? -->
<!-- Wildcard edge -->
<g id="edge24" class="edge">
<title>Mark sweep as failure [2]&#45;&gt;Three sweeps exist with\nthis labnotebook entry?</title>
<path fill="none" stroke="#9ecae1" d="M846,-663.0639C846,-653.1837 846,-640.6246 846,-628.8969"/>
<polygon fill="#9ecae1" stroke="#9ecae1" points="849.5001,-628.893 846,-618.893 842.5001,-628.8931 849.5001,-628.893"/>
</g>
<!-- Skip to end of active set -->
<g id="node26" class="node">
<title>Skip to end of active set</title>
<ellipse fill="#eff3ff" stroke="#bdd7e7" cx="948" cy="-502.9117" rx="108.0333" ry="18"/>
<text text-anchor="middle" x="948" y="-499.5117" font-family="serif" font-size="13.00" fill="#2171b5">Skip to end of active set</text>
</g>
<!-- Three sweeps exist with\nthis labnotebook entry?&#45;&gt;Skip to end of active set -->
<!-- Wildcard edge -->
<g id="edge25" class="edge">
<title>Three sweeps exist with\nthis labnotebook entry?&#45;&gt;Skip to end of active set</title>
<path fill="none" stroke="#9ecae1" d="M874.142,-568.4106C888.5706,-555.615 906.0769,-540.09 920.4238,-527.3669"/>
<polygon fill="#9ecae1" stroke="#9ecae1" points="922.8701,-529.8755 928.0296,-520.6219 918.2255,-524.6383 922.8701,-529.8755"/>
<text text-anchor="middle" x="914" y="-541.9117" font-family="sans-serif" font-size="10.00" fill="#3182bd">Yes</text>
</g>
<!-- Mark sweep as passed -->
<g id="node34" class="node">
<title>Mark sweep as passed</title>
<ellipse fill="#eff3ff" stroke="#bdd7e7" cx="1089" cy="-593.3675" rx="102.1634" ry="18"/>
<text text-anchor="middle" x="1089" y="-589.9675" font-family="serif" font-size="13.00" fill="#2171b5">Mark sweep as passed</text>
</g>
<!-- Store DAScale\nin labnotebook&#45;&gt;Mark sweep as passed -->
<!-- Wildcard edge -->
<g id="edge36" class="edge">
<title>Store DAScale\nin labnotebook&#45;&gt;Mark sweep as passed</title>
<path fill="none" stroke="#9ecae1" d="M1066.2557,-655.8515C1070.2128,-644.9805 1074.8435,-632.2588 1078.8901,-621.142"/>
<polygon fill="#9ecae1" stroke="#9ecae1" points="1082.2743,-622.077 1082.406,-611.483 1075.6965,-619.6826 1082.2743,-622.077"/>
</g>
<!-- Mark sweep as failed [1] -->
<g id="node35" class="node">
<title>Mark sweep as failed [1]</title>
<ellipse fill="#eff3ff" stroke="#bdd7e7" cx="1535" cy="-502.9117" rx="110.5867" ry="18"/>
<text text-anchor="middle" x="1535" y="-499.5117" font-family="serif" font-size="13.00" fill="#2171b5">Mark sweep as failed [1]</text>
</g>
<!-- Offset DAScale\nby &#45;50pA&#45;&gt;Mark sweep as failed [1] -->
<!-- Wildcard edge -->
<g id="edge37" class="edge">
<title>Offset DAScale\nby &#45;50pA&#45;&gt;Mark sweep as failed [1]</title>
<path fill="none" stroke="#9ecae1" d="M1439.9632,-570.0729C1458.8484,-556.727 1482.4909,-540.0192 1501.4701,-526.6068"/>
<polygon fill="#9ecae1" stroke="#9ecae1" points="1503.6816,-529.3298 1509.8283,-520.7002 1499.6417,-523.6131 1503.6816,-529.3298"/>
</g>
<!-- Write step size of\n&#45;50pA to labnotebook&#45;&gt;Offset DAScale\nby &#45;50pA -->
<!-- Wildcard edge -->
<g id="edge29" class="edge">
<title>Write step size of\n&#45;50pA to labnotebook&#45;&gt;Offset DAScale\nby &#45;50pA</title>
<path fill="none" stroke="#9ecae1" d="M1301.2391,-657.4891C1319.7132,-646.2885 1341.8659,-632.8575 1361.1129,-621.1883"/>
<polygon fill="#9ecae1" stroke="#9ecae1" points="1362.9915,-624.1424 1369.7281,-615.965 1359.3624,-618.1566 1362.9915,-624.1424"/>
</g>
<!-- Write step size of\n+10pA to labnotebook -->
<g id="node31" class="node">
<title>Write step size of\n+10pA to labnotebook</title>
<ellipse fill="#eff3ff" stroke="#bdd7e7" cx="1747" cy="-681.2792" rx="113.2743" ry="25.4118"/>
<text text-anchor="middle" x="1747" y="-684.8792" font-family="serif" font-size="13.00" fill="#2171b5">Write step size of</text>
<text text-anchor="middle" x="1747" y="-670.8792" font-family="serif" font-size="13.00" fill="#2171b5">+10pA to labnotebook</text>
</g>
<!-- Step Size from labnotebook?&#45;&gt;Write step size of\n+10pA to labnotebook -->
<!-- Wildcard edge -->
<g id="edge32" class="edge">
<title>Step Size from labnotebook?&#45;&gt;Write step size of\n+10pA to labnotebook</title>
<path fill="none" stroke="#9ecae1" d="M1657.9923,-761.2324C1672.9155,-747.8273 1693.7026,-729.1548 1711.4356,-713.2258"/>
<polygon fill="#9ecae1" stroke="#9ecae1" points="1714.2357,-715.4152 1719.3362,-706.1289 1709.5579,-710.2077 1714.2357,-715.4152"/>
<text text-anchor="middle" x="1709.5" y="-727.7351" font-family="sans-serif" font-size="10.00" fill="#3182bd">&#45;50pA</text>
</g>
<!-- Offset DAScale\nby +10pA -->
<g id="node32" class="node">
<title>Offset DAScale\nby +10pA</title>
<ellipse fill="#eff3ff" stroke="#bdd7e7" cx="1747" cy="-593.3675" rx="80.7205" ry="25.4118"/>
<text text-anchor="middle" x="1747" y="-596.9675" font-family="serif" font-size="13.00" fill="#2171b5">Offset DAScale</text>
<text text-anchor="middle" x="1747" y="-582.9675" font-family="serif" font-size="13.00" fill="#2171b5">by +10pA</text>
</g>
<!-- Step Size from labnotebook?&#45;&gt;Offset DAScale\nby +10pA -->
<!-- Wildcard edge -->
<g id="edge31" class="edge">
<title>Step Size from labnotebook?&#45;&gt;Offset DAScale\nby +10pA</title>
<path fill="none" stroke="#9ecae1" d="M1715.9177,-764.962C1775.505,-752.3094 1850.4967,-731.931 1869,-706.7351 1882.3934,-688.4973 1880.8044,-675.1277 1869,-655.8234 1857.3742,-636.811 1837.9261,-623.3505 1817.9352,-613.9244"/>
<polygon fill="#9ecae1" stroke="#9ecae1" points="1819.3005,-610.7013 1808.7381,-609.8719 1816.4779,-617.107 1819.3005,-610.7013"/>
<text text-anchor="middle" x="1895" y="-678.7792" font-family="sans-serif" font-size="10.00" fill="#3182bd">+10pA</text>
</g>
<!-- Offset DAScale\nby +100pA -->
<g id="node33" class="node">
<title>Offset DAScale\nby +100pA</title>
<ellipse fill="#eff3ff" stroke="#bdd7e7" cx="1535" cy="-681.2792" rx="80.7205" ry="25.4118"/>
<text text-anchor="middle" x="1535" y="-684.8792" font-family="serif" font-size="13.00" fill="#2171b5">Offset DAScale</text>
<text text-anchor="middle" x="1535" y="-670.8792" font-family="serif" font-size="13.00" fill="#2171b5">by +100pA</text>
</g>
<!-- Step Size from labnotebook?&#45;&gt;Offset DAScale\nby +100pA -->
<!-- Wildcard edge -->
<g id="edge33" class="edge">
<title>Step Size from labnotebook?&#45;&gt;Offset DAScale\nby +100pA</title>
<path fill="none" stroke="#9ecae1" d="M1619.1082,-761.2324C1604.9058,-747.7316 1585.0827,-728.8877 1568.2481,-712.8849"/>
<polygon fill="#9ecae1" stroke="#9ecae1" points="1570.4139,-710.1145 1560.7546,-705.7615 1565.591,-715.188 1570.4139,-710.1145"/>
<text text-anchor="middle" x="1609" y="-727.7351" font-family="sans-serif" font-size="10.00" fill="#3182bd">+100pA</text>
</g>
<!-- Write step size of\n+10pA to labnotebook&#45;&gt;Offset DAScale\nby +10pA -->
<!-- Wildcard edge -->
<g id="edge34" class="edge">
<title>Write step size of\n+10pA to labnotebook&#45;&gt;Offset DAScale\nby +10pA</title>
<path fill="none" stroke="#9ecae1" d="M1747,-655.3783C1747,-647.1512 1747,-637.9027 1747,-629.109"/>
<polygon fill="#9ecae1" stroke="#9ecae1" points="1750.5001,-629.0833 1747,-619.0833 1743.5001,-629.0834 1750.5001,-629.0833"/>
</g>
<!-- Offset DAScale\nby +10pA&#45;&gt;Mark sweep as failed [1] -->
<!-- Wildcard edge -->
<g id="edge38" class="edge">
<title>Offset DAScale\nby +10pA&#45;&gt;Mark sweep as failed [1]</title>
<path fill="none" stroke="#9ecae1" d="M1698.8939,-572.8417C1664.6121,-558.2144 1618.6762,-538.6145 1584.159,-523.8868"/>
<polygon fill="#9ecae1" stroke="#9ecae1" points="1585.3167,-520.5755 1574.7453,-519.8702 1582.5695,-527.0139 1585.3167,-520.5755"/>
</g>
<!-- Offset DAScale\nby +100pA&#45;&gt;Mark sweep as failed [1] -->
<!-- Wildcard edge -->
<g id="edge39" class="edge">
<title>Offset DAScale\nby +100pA&#45;&gt;Mark sweep as failed [1]</title>
<path fill="none" stroke="#9ecae1" d="M1535,-655.7235C1535,-622.7803 1535,-565.6684 1535,-531.3722"/>
<polygon fill="#9ecae1" stroke="#9ecae1" points="1538.5001,-531.0983 1535,-521.0984 1531.5001,-531.0984 1538.5001,-531.0983"/>
</g>
<!-- Mark sweep as passed&#45;&gt;Skip to end of active set -->
<!-- Wildcard edge -->
<g id="edge35" class="edge">
<title>Mark sweep as passed&#45;&gt;Skip to end of active set</title>
<path fill="none" stroke="#9ecae1" d="M1061.8138,-575.9267C1039.7193,-561.7524 1008.3581,-541.6333 984.149,-526.1024"/>
<polygon fill="#9ecae1" stroke="#9ecae1" points="985.8906,-523.0614 975.5839,-520.6076 982.1108,-528.9532 985.8906,-523.0614"/>
</g>
<!-- Mark set as passed if 1 sweep passed,\nas failure otherwise -->
<g id="node37" class="node">
<title>Mark set as passed if 1 sweep passed,\nas failure otherwise</title>
<ellipse fill="#eff3ff" stroke="#bdd7e7" cx="1532" cy="-979.9016" rx="185.0243" ry="25.4118"/>
<text text-anchor="middle" x="1532" y="-983.5016" font-family="serif" font-size="13.00" fill="#2171b5">Mark set as passed if 1 sweep passed,</text>
<text text-anchor="middle" x="1532" y="-969.5016" font-family="serif" font-size="13.00" fill="#2171b5">as failure otherwise</text>
</g>
<!-- Post Set Event&#45;&gt;Mark set as passed if 1 sweep passed,\nas failure otherwise -->
<!-- Wildcard edge -->
<g id="edge41" class="edge">
<title>Post Set Event&#45;&gt;Mark set as passed if 1 sweep passed,\nas failure otherwise</title>
<path fill="none" stroke="#9ecae1" d="M1490.939,-1062.2329C1497.5137,-1049.05 1506.6584,-1030.714 1514.6493,-1014.6914"/>
<polygon fill="#9ecae1" stroke="#9ecae1" points="1517.8617,-1016.0923 1519.1927,-1005.5814 1511.5976,-1012.9681 1517.8617,-1016.0923"/>
</g>
<!-- Skip to end -->
<g id="node38" class="node">
<title>Skip to end</title>
<ellipse fill="#eff3ff" stroke="#bdd7e7" cx="1532" cy="-869.6468" rx="56.4392" ry="18"/>
<text text-anchor="middle" x="1532" y="-866.2468" font-family="serif" font-size="13.00" fill="#2171b5">Skip to end</text>
</g>
<!-- Mark set as passed if 1 sweep passed,\nas failure otherwise&#45;&gt;Skip to end -->
<!-- Wildcard edge -->
<g id="edge42" class="edge">
<title>Mark set as passed if 1 sweep passed,\nas failure otherwise&#45;&gt;Skip to end</title>
<path fill="none" stroke="#9ecae1" d="M1532,-954.3298C1532,-937.4721 1532,-915.3792 1532,-897.9864"/>
<polygon fill="#9ecae1" stroke="#9ecae1" points="1535.5001,-897.8531 1532,-887.8531 1528.5001,-897.8531 1535.5001,-897.8531"/>
<text text-anchor="middle" x="1548.5" y="-908.6468" font-family="sans-serif" font-size="10.00" fill="#3182bd">Failure</text>
</g>
</g>
</svg>
