<?xml version="1.0" encoding="UTF-8" standalone="no"?>
<!DOCTYPE svg PUBLIC "-//W3C//DTD SVG 1.1//EN"
 "http://www.w3.org/Graphics/SVG/1.1/DTD/svg11.dtd">
<!-- Generated by graphviz version 2.43.0 (0)
 -->
<!-- Title: G Pages: 1 -->
<svg width="4325pt" height="1043pt"
 viewBox="0.00 0.00 4324.56 1042.89" xmlns="http://www.w3.org/2000/svg" xmlns:xlink="http://www.w3.org/1999/xlink">
<g id="graph0" class="graph" transform="scale(1 1) rotate(0) translate(4 1038.89)">
<title>G</title>
<polygon fill="white" stroke="transparent" points="-4,4 -4,-1038.89 4320.56,-1038.89 4320.56,4 -4,4"/>
<!-- n3 -->
<g id="node1" class="node">
<title>n3</title>
<ellipse fill="#eff3ff" stroke="#bdd7e7" cx="2410.87" cy="-1016.89" rx="65.89" ry="18"/>
<text text-anchor="middle" x="2410.87" y="-1013.49" font-family="Helvetica,sans-Serif" font-size="13.00" fill="#2171b5">Start DAQ/RA</text>
</g>
<!-- n5 -->
<g id="node2" class="node">
<title>n5</title>
<ellipse fill="#eff3ff" stroke="#bdd7e7" cx="777.87" cy="-863.44" rx="109.82" ry="18"/>
<text text-anchor="middle" x="777.87" y="-860.04" font-family="Helvetica,sans-Serif" font-size="13.00" fill="#2171b5">Pre Sweep Config Event</text>
</g>
<!-- n3&#45;&gt;n5 -->
<g id="edge1" class="edge">
<title>n3&#45;&gt;n5</title>
<path fill="none" stroke="#9ecae1" d="M2345.44,-1014.55C2185.94,-1010.81 1764.54,-998.03 1414.87,-961.89 1213.27,-941.06 978.01,-900.91 857.68,-879.21"/>
<polygon fill="#9ecae1" stroke="#9ecae1" points="858.27,-875.76 847.8,-877.43 857.02,-882.65 858.27,-875.76"/>
</g>
<!-- n6 -->
<g id="node3" class="node">
<title>n6</title>
<ellipse fill="#eff3ff" stroke="#bdd7e7" cx="1494.87" cy="-943.89" rx="71.26" ry="18"/>
<text text-anchor="middle" x="1494.87" y="-940.49" font-family="Helvetica,sans-Serif" font-size="13.00" fill="#2171b5">Pre DAQ Event</text>
</g>
<!-- n3&#45;&gt;n6 -->
<g id="edge2" class="edge">
<title>n3&#45;&gt;n6</title>
<path fill="none" stroke="#9ecae1" d="M2348.63,-1011.07C2186.28,-998.48 1750.22,-964.68 1572.18,-950.88"/>
<polygon fill="#9ecae1" stroke="#9ecae1" points="1572.35,-947.39 1562.11,-950.1 1571.81,-954.37 1572.35,-947.39"/>
</g>
<!-- n7 -->
<g id="node4" class="node">
<title>n7</title>
<ellipse fill="#eff3ff" stroke="#bdd7e7" cx="2205.87" cy="-943.89" rx="71.26" ry="18"/>
<text text-anchor="middle" x="2205.87" y="-940.49" font-family="Helvetica,sans-Serif" font-size="13.00" fill="#2171b5">Post Set Event</text>
</g>
<!-- n3&#45;&gt;n7 -->
<g id="edge3" class="edge">
<title>n3&#45;&gt;n7</title>
<path fill="none" stroke="#9ecae1" d="M2371.83,-1002.37C2338.91,-990.97 2291.6,-974.58 2255.9,-962.22"/>
<polygon fill="#9ecae1" stroke="#9ecae1" points="2256.76,-958.81 2246.17,-958.85 2254.47,-965.43 2256.76,-958.81"/>
</g>
<!-- n8 -->
<g id="node5" class="node">
<title>n8</title>
<ellipse fill="#eff3ff" stroke="#bdd7e7" cx="2653.87" cy="-943.89" rx="66.92" ry="18"/>
<text text-anchor="middle" x="2653.87" y="-940.49" font-family="Helvetica,sans-Serif" font-size="13.00" fill="#2171b5">Pre Set Event</text>
</g>
<!-- n3&#45;&gt;n8 -->
<g id="edge4" class="edge">
<title>n3&#45;&gt;n8</title>
<path fill="none" stroke="#9ecae1" d="M2454.03,-1003.28C2494.99,-991.31 2556.64,-973.3 2600.63,-960.45"/>
<polygon fill="#9ecae1" stroke="#9ecae1" points="2601.67,-963.79 2610.29,-957.62 2599.71,-957.07 2601.67,-963.79"/>
</g>
<!-- n9 -->
<g id="node6" class="node">
<title>n9</title>
<ellipse fill="#eff3ff" stroke="#bdd7e7" cx="3378.87" cy="-943.89" rx="84.79" ry="18"/>
<text text-anchor="middle" x="3378.87" y="-940.49" font-family="Helvetica,sans-Serif" font-size="13.00" fill="#2171b5">Post Sweep Event</text>
</g>
<!-- n3&#45;&gt;n9 -->
<g id="edge5" class="edge">
<title>n3&#45;&gt;n9</title>
<path fill="none" stroke="#9ecae1" d="M2473.64,-1011.29C2640.74,-999.03 3096.86,-965.58 3290.28,-951.39"/>
<polygon fill="#9ecae1" stroke="#9ecae1" points="3290.69,-954.87 3300.41,-950.65 3290.18,-947.89 3290.69,-954.87"/>
</g>
<!-- n10 -->
<g id="node7" class="node">
<title>n10</title>
<ellipse fill="#eff3ff" stroke="#bdd7e7" cx="2410.87" cy="-943.89" rx="75.6" ry="18"/>
<text text-anchor="middle" x="2410.87" y="-940.49" font-family="Helvetica,sans-Serif" font-size="13.00" fill="#2171b5">Post DAQ Event</text>
</g>
<!-- n3&#45;&gt;n10 -->
<g id="edge6" class="edge">
<title>n3&#45;&gt;n10</title>
<path fill="none" stroke="#9ecae1" d="M2410.87,-998.7C2410.87,-990.68 2410.87,-980.94 2410.87,-971.96"/>
<polygon fill="#9ecae1" stroke="#9ecae1" points="2414.37,-971.92 2410.87,-961.92 2407.37,-971.92 2414.37,-971.92"/>
</g>
<!-- n51 -->
<g id="node8" class="node">
<title>n51</title>
<ellipse fill="#eff3ff" stroke="#bdd7e7" cx="3637.87" cy="-943.89" rx="82.24" ry="18"/>
<text text-anchor="middle" x="3637.87" y="-940.49" font-family="Helvetica,sans-Serif" font-size="13.00" fill="#2171b5">Mid Sweep Event</text>
</g>
<!-- n3&#45;&gt;n51 -->
<g id="edge7" class="edge">
<title>n3&#45;&gt;n51</title>
<path fill="none" stroke="#9ecae1" d="M2475.59,-1013.77C2641.51,-1008.08 3095.53,-990.9 3472.87,-961.89 3500.24,-959.79 3530.1,-956.89 3556.81,-954.09"/>
<polygon fill="#9ecae1" stroke="#9ecae1" points="3557.3,-957.56 3566.88,-953.02 3556.56,-950.6 3557.3,-957.56"/>
</g>
<!-- n91 -->
<g id="node9" class="node">
<title>n91</title>
<g id="a_node9"><a xlink:href="../_static/images/async-qc-channels.svg" xlink:title="Standard AsyncQCChannels handling" target="_graphviz">
<ellipse fill="#eff3ff" stroke="#bdd7e7" cx="777.87" cy="-715.71" rx="165.5" ry="18"/>
<text text-anchor="middle" x="777.87" y="-712.31" font-family="Helvetica,sans-Serif" font-size="13.00" fill="#2171b5">Standard AsyncQCChannels handling</text>
</a>
</g>
</g>
<!-- n5&#45;&gt;n91 -->
<g id="edge8" class="edge">
<title>n5&#45;&gt;n91</title>
<path fill="none" stroke="#9ecae1" d="M777.87,-845.43C777.87,-820.56 777.87,-773.98 777.87,-744.2"/>
<polygon fill="#9ecae1" stroke="#9ecae1" points="781.37,-744.06 777.87,-734.06 774.37,-744.06 781.37,-744.06"/>
</g>
<!-- n73 -->
<g id="node10" class="node">
<title>n73</title>
<ellipse fill="#eff3ff" stroke="#bdd7e7" cx="426.87" cy="-715.71" rx="167.67" ry="35.21"/>
<text text-anchor="middle" x="426.87" y="-726.31" font-family="Helvetica,sans-Serif" font-size="13.00" fill="#2171b5">Check that the length of epoch 0</text>
<text text-anchor="middle" x="426.87" y="-712.31" font-family="Helvetica,sans-Serif" font-size="13.00" fill="#2171b5"> matches &quot;BaselineChunkLength&quot;</text>
<text text-anchor="middle" x="426.87" y="-698.31" font-family="Helvetica,sans-Serif" font-size="13.00" fill="#2171b5"> analysis parameter</text>
</g>
<!-- n5&#45;&gt;n73 -->
<g id="edge9" class="edge">
<title>n5&#45;&gt;n73</title>
<path fill="none" stroke="#9ecae1" d="M739.3,-846.42C684.59,-823.71 583.05,-781.56 510.58,-751.47"/>
<polygon fill="#9ecae1" stroke="#9ecae1" points="511.58,-748.09 501,-747.49 508.89,-754.56 511.58,-748.09"/>
</g>
<!-- n29 -->
<g id="node11" class="node">
<title>n29</title>
<ellipse fill="#eff3ff" stroke="#bdd7e7" cx="1166.87" cy="-863.44" rx="179.29" ry="18"/>
<text text-anchor="middle" x="1166.87" y="-860.04" font-family="Helvetica,sans-Serif" font-size="13.00" fill="#2171b5">Check that only one headstage is active</text>
</g>
<!-- n6&#45;&gt;n29 -->
<g id="edge10" class="edge">
<title>n6&#45;&gt;n29</title>
<path fill="none" stroke="#9ecae1" d="M1445.05,-930.98C1391.21,-918.1 1304.78,-897.42 1242.53,-882.53"/>
<polygon fill="#9ecae1" stroke="#9ecae1" points="1243.3,-879.12 1232.76,-880.2 1241.67,-885.93 1243.3,-879.12"/>
</g>
<!-- n22 -->
<g id="node12" class="node">
<title>n22</title>
<ellipse fill="#eff3ff" stroke="#bdd7e7" cx="1494.87" cy="-863.44" rx="130.25" ry="18"/>
<text text-anchor="middle" x="1494.87" y="-860.04" font-family="Helvetica,sans-Serif" font-size="13.00" fill="#2171b5">Turn multi device support on</text>
</g>
<!-- n6&#45;&gt;n22 -->
<g id="edge11" class="edge">
<title>n6&#45;&gt;n22</title>
<path fill="none" stroke="#9ecae1" d="M1494.87,-925.87C1494.87,-915.96 1494.87,-903.24 1494.87,-891.95"/>
<polygon fill="#9ecae1" stroke="#9ecae1" points="1498.37,-891.7 1494.87,-881.7 1491.37,-891.7 1498.37,-891.7"/>
</g>
<!-- n11 -->
<g id="node13" class="node">
<title>n11</title>
<ellipse fill="#eff3ff" stroke="#bdd7e7" cx="2205.87" cy="-863.44" rx="87.61" ry="18"/>
<text text-anchor="middle" x="2205.87" y="-860.04" font-family="Helvetica,sans-Serif" font-size="13.00" fill="#2171b5">Update dashboard</text>
</g>
<!-- n7&#45;&gt;n11 -->
<g id="edge12" class="edge">
<title>n7&#45;&gt;n11</title>
<path fill="none" stroke="#9ecae1" d="M2205.87,-925.87C2205.87,-915.96 2205.87,-903.24 2205.87,-891.95"/>
<polygon fill="#9ecae1" stroke="#9ecae1" points="2209.37,-891.7 2205.87,-881.7 2202.37,-891.7 2209.37,-891.7"/>
</g>
<!-- n15 -->
<g id="node14" class="node">
<title>n15</title>
<ellipse fill="#eff3ff" stroke="#bdd7e7" cx="1896.87" cy="-863.44" rx="202.88" ry="25.41"/>
<text text-anchor="middle" x="1896.87" y="-867.04" font-family="Helvetica,sans-Serif" font-size="13.00" fill="#2171b5">Do we have PSQ_AR_NUM_SWEEPS_PASS</text>
<text text-anchor="middle" x="1896.87" y="-853.04" font-family="Helvetica,sans-Serif" font-size="13.00" fill="#2171b5"> passing &#160;sweeps?</text>
</g>
<!-- n7&#45;&gt;n15 -->
<g id="edge13" class="edge">
<title>n7&#45;&gt;n15</title>
<path fill="none" stroke="#9ecae1" d="M2157.59,-930.63C2113.79,-919.51 2047.93,-902.79 1993.36,-888.94"/>
<polygon fill="#9ecae1" stroke="#9ecae1" points="1994.22,-885.54 1983.66,-886.47 1992.49,-892.33 1994.22,-885.54"/>
</g>
<!-- n19 -->
<g id="node15" class="node">
<title>n19</title>
<ellipse fill="#eff3ff" stroke="#bdd7e7" cx="2765.87" cy="-863.44" rx="130.51" ry="18"/>
<text text-anchor="middle" x="2765.87" y="-860.04" font-family="Helvetica,sans-Serif" font-size="13.00" fill="#2171b5">Set analysis function version</text>
</g>
<!-- n8&#45;&gt;n19 -->
<g id="edge14" class="edge">
<title>n8&#45;&gt;n19</title>
<path fill="none" stroke="#9ecae1" d="M2676.8,-926.83C2693.08,-915.42 2715.17,-899.95 2733.28,-887.27"/>
<polygon fill="#9ecae1" stroke="#9ecae1" points="2735.62,-889.9 2741.8,-881.29 2731.6,-884.16 2735.62,-889.9"/>
</g>
<!-- n92 -->
<g id="node16" class="node">
<title>n92</title>
<g id="a_node16"><a xlink:href="../_static/images/async-qc-channels.svg" xlink:title="Standard AsyncQCChannels handling" target="_graphviz">
<ellipse fill="#eff3ff" stroke="#bdd7e7" cx="3092.87" cy="-863.44" rx="165.5" ry="18"/>
<text text-anchor="middle" x="3092.87" y="-860.04" font-family="Helvetica,sans-Serif" font-size="13.00" fill="#2171b5">Standard AsyncQCChannels handling</text>
</a>
</g>
</g>
<!-- n9&#45;&gt;n92 -->
<g id="edge15" class="edge">
<title>n9&#45;&gt;n92</title>
<path fill="none" stroke="#9ecae1" d="M3329.05,-929.23C3282.37,-916.42 3212.22,-897.17 3160.49,-882.99"/>
<polygon fill="#9ecae1" stroke="#9ecae1" points="3161.3,-879.58 3150.73,-880.31 3159.45,-886.33 3161.3,-879.58"/>
</g>
<!-- n55 -->
<g id="node17" class="node">
<title>n55</title>
<ellipse fill="#eff3ff" stroke="#bdd7e7" cx="3515.87" cy="-794.52" rx="162.77" ry="25.41"/>
<text text-anchor="middle" x="3515.87" y="-798.12" font-family="Helvetica,sans-Serif" font-size="13.00" fill="#2171b5">Check used sampling frequency</text>
<text text-anchor="middle" x="3515.87" y="-784.12" font-family="Helvetica,sans-Serif" font-size="13.00" fill="#2171b5"> and store result in labnotebook</text>
</g>
<!-- n9&#45;&gt;n55 -->
<g id="edge16" class="edge">
<title>n9&#45;&gt;n55</title>
<path fill="none" stroke="#9ecae1" d="M3428.68,-929.3C3450.62,-920.96 3474.97,-908.1 3490.87,-888.89 3504.41,-872.53 3510.68,-849.53 3513.55,-830.45"/>
<polygon fill="#9ecae1" stroke="#9ecae1" points="3517.04,-830.68 3514.82,-820.32 3510.1,-829.81 3517.04,-830.68"/>
</g>
<!-- n49 -->
<g id="node18" class="node">
<title>n49</title>
<ellipse fill="#eff3ff" stroke="#bdd7e7" cx="3713.87" cy="-644.36" rx="137.15" ry="18"/>
<text text-anchor="middle" x="3713.87" y="-640.96" font-family="Helvetica,sans-Serif" font-size="13.00" fill="#2171b5">Read BL QC from labnotebook</text>
</g>
<!-- n9&#45;&gt;n49 -->
<g id="edge17" class="edge">
<title>n9&#45;&gt;n49</title>
<path fill="none" stroke="#9ecae1" d="M3450.4,-934.24C3520.76,-921.74 3625.56,-891.61 3681.87,-819.98 3699.56,-797.47 3708.42,-715.69 3711.96,-672.5"/>
<polygon fill="#9ecae1" stroke="#9ecae1" points="3715.46,-672.65 3712.74,-662.41 3708.48,-672.11 3715.46,-672.65"/>
</g>
<!-- n57 -->
<g id="node19" class="node">
<title>n57</title>
<ellipse fill="#eff3ff" stroke="#bdd7e7" cx="3378.87" cy="-863.44" rx="102.93" ry="18"/>
<text text-anchor="middle" x="3378.87" y="-860.04" font-family="Helvetica,sans-Serif" font-size="13.00" fill="#2171b5">Enable SweepFormula</text>
</g>
<!-- n9&#45;&gt;n57 -->
<g id="edge18" class="edge">
<title>n9&#45;&gt;n57</title>
<path fill="none" stroke="#9ecae1" d="M3378.87,-925.87C3378.87,-915.96 3378.87,-903.24 3378.87,-891.95"/>
<polygon fill="#9ecae1" stroke="#9ecae1" points="3382.37,-891.7 3378.87,-881.7 3375.37,-891.7 3382.37,-891.7"/>
</g>
<!-- n10&#45;&gt;n11 -->
<g id="edge19" class="edge">
<title>n10&#45;&gt;n11</title>
<path fill="none" stroke="#9ecae1" d="M2372.79,-928.32C2339.52,-915.59 2291.02,-897.03 2254.87,-883.19"/>
<polygon fill="#9ecae1" stroke="#9ecae1" points="2256.08,-879.9 2245.49,-879.6 2253.58,-886.44 2256.08,-879.9"/>
</g>
<!-- n48 -->
<g id="node20" class="node">
<title>n48</title>
<ellipse fill="#eff3ff" stroke="#bdd7e7" cx="2451.87" cy="-863.44" rx="140.46" ry="18"/>
<text text-anchor="middle" x="2451.87" y="-860.04" font-family="Helvetica,sans-Serif" font-size="13.00" fill="#2171b5">Read Set QC from labnotebook</text>
</g>
<!-- n10&#45;&gt;n48 -->
<g id="edge20" class="edge">
<title>n10&#45;&gt;n48</title>
<path fill="none" stroke="#9ecae1" d="M2419.76,-925.87C2425.19,-915.48 2432.24,-902.01 2438.34,-890.32"/>
<polygon fill="#9ecae1" stroke="#9ecae1" points="2441.46,-891.91 2442.99,-881.43 2435.26,-888.67 2441.46,-891.91"/>
</g>
<!-- n54 -->
<g id="node21" class="node">
<title>n54</title>
<ellipse fill="#eff3ff" stroke="#bdd7e7" cx="3830.87" cy="-863.44" rx="72.79" ry="18"/>
<text text-anchor="middle" x="3830.87" y="-860.04" font-family="Helvetica,sans-Serif" font-size="13.00" fill="#2171b5">BL QC passed?</text>
</g>
<!-- n51&#45;&gt;n54 -->
<g id="edge21" class="edge">
<title>n51&#45;&gt;n54</title>
<path fill="none" stroke="#9ecae1" d="M3675.08,-927.76C3706.49,-915 3751.57,-896.67 3785.16,-883.02"/>
<polygon fill="#9ecae1" stroke="#9ecae1" points="3786.8,-886.13 3794.75,-879.12 3784.17,-879.64 3786.8,-886.13"/>
</g>
<!-- n61 -->
<g id="node22" class="node">
<title>n61</title>
<ellipse fill="#eff3ff" stroke="#bdd7e7" cx="1070.87" cy="-484.99" rx="33.46" ry="18"/>
<text text-anchor="middle" x="1070.87" y="-481.59" font-family="Helvetica,sans-Serif" font-size="13.00" fill="#2171b5">Abort</text>
</g>
<!-- n73&#45;&gt;n61 -->
<g id="edge22" class="edge">
<title>n73&#45;&gt;n61</title>
<path fill="none" stroke="#9ecae1" d="M417.69,-680.31C410.47,-644.67 406.11,-589.74 436.87,-557.45 477.63,-514.65 891.14,-493.54 1027.5,-487.71"/>
<polygon fill="#9ecae1" stroke="#9ecae1" points="1027.74,-491.2 1037.59,-487.28 1027.45,-484.21 1027.74,-491.2"/>
<text text-anchor="middle" x="453.37" y="-580.4" font-family="Helvetica,sans-Serif" font-size="10.00" fill="#3182bd">Failure</text>
</g>
<!-- n74 -->
<g id="node23" class="node">
<title>n74</title>
<ellipse fill="#eff3ff" stroke="#bdd7e7" cx="195.87" cy="-582.9" rx="195.74" ry="25.41"/>
<text text-anchor="middle" x="195.87" y="-586.5" font-family="Helvetica,sans-Serif" font-size="13.00" fill="#2171b5">Check that we have enough epochs for</text>
<text text-anchor="middle" x="195.87" y="-572.5" font-family="Helvetica,sans-Serif" font-size="13.00" fill="#2171b5"> &quot;NumberOfTestpulses&quot; &#160;TPs</text>
</g>
<!-- n73&#45;&gt;n74 -->
<g id="edge23" class="edge">
<title>n73&#45;&gt;n74</title>
<path fill="none" stroke="#9ecae1" d="M369.77,-682.38C332.2,-661.1 283.45,-633.5 247.13,-612.93"/>
<polygon fill="#9ecae1" stroke="#9ecae1" points="248.6,-609.74 238.18,-607.86 245.15,-615.83 248.6,-609.74"/>
</g>
<!-- n76 -->
<g id="node24" class="node">
<title>n76</title>
<ellipse fill="#eff3ff" stroke="#bdd7e7" cx="682.87" cy="-582.9" rx="204.21" ry="25.41"/>
<text text-anchor="middle" x="682.87" y="-586.5" font-family="Helvetica,sans-Serif" font-size="13.00" fill="#2171b5">Add baseline chunk selection user epoch</text>
<text text-anchor="middle" x="682.87" y="-572.5" font-family="Helvetica,sans-Serif" font-size="13.00" fill="#2171b5"> for epoch 0</text>
</g>
<!-- n73&#45;&gt;n76 -->
<g id="edge24" class="edge">
<title>n73&#45;&gt;n76</title>
<path fill="none" stroke="#9ecae1" d="M489.17,-682.88C531.27,-661.37 586.39,-633.2 627.06,-612.42"/>
<polygon fill="#9ecae1" stroke="#9ecae1" points="628.71,-615.5 636.02,-607.84 625.53,-609.27 628.71,-615.5"/>
</g>
<!-- n29&#45;&gt;n61 -->
<g id="edge25" class="edge">
<title>n29&#45;&gt;n61</title>
<path fill="none" stroke="#9ecae1" d="M1205.44,-845.72C1240.96,-827.97 1291.43,-796.23 1313.87,-751.07 1352.44,-673.46 1341.75,-627.59 1290.87,-557.45 1250.72,-502.1 1166.65,-488.76 1114.85,-486.04"/>
<polygon fill="#9ecae1" stroke="#9ecae1" points="1114.77,-482.54 1104.63,-485.62 1114.48,-489.53 1114.77,-482.54"/>
<text text-anchor="middle" x="1354.37" y="-641.86" font-family="Helvetica,sans-Serif" font-size="10.00" fill="#3182bd">Failure</text>
</g>
<!-- n30 -->
<g id="node25" class="node">
<title>n30</title>
<ellipse fill="#eff3ff" stroke="#bdd7e7" cx="1132.87" cy="-715.71" rx="171.63" ry="18"/>
<text text-anchor="middle" x="1132.87" y="-712.31" font-family="Helvetica,sans-Serif" font-size="13.00" fill="#2171b5">Check that no TTL channels are active</text>
</g>
<!-- n29&#45;&gt;n30 -->
<g id="edge26" class="edge">
<title>n29&#45;&gt;n30</title>
<path fill="none" stroke="#9ecae1" d="M1162.9,-845.43C1157.07,-820.45 1146.13,-773.57 1139.19,-743.81"/>
<polygon fill="#9ecae1" stroke="#9ecae1" points="1142.6,-743 1136.92,-734.06 1135.78,-744.59 1142.6,-743"/>
</g>
<!-- n23 -->
<g id="node26" class="node">
<title>n23</title>
<ellipse fill="#eff3ff" stroke="#bdd7e7" cx="1490.87" cy="-715.71" rx="130.25" ry="18"/>
<text text-anchor="middle" x="1490.87" y="-712.31" font-family="Helvetica,sans-Serif" font-size="13.00" fill="#2171b5">Turn repeated acquisition on</text>
</g>
<!-- n22&#45;&gt;n23 -->
<g id="edge27" class="edge">
<title>n22&#45;&gt;n23</title>
<path fill="none" stroke="#9ecae1" d="M1494.4,-845.43C1493.72,-820.56 1492.44,-773.98 1491.62,-744.2"/>
<polygon fill="#9ecae1" stroke="#9ecae1" points="1495.12,-743.96 1491.34,-734.06 1488.12,-744.15 1495.12,-743.96"/>
</g>
<!-- n16 -->
<g id="node27" class="node">
<title>n16</title>
<ellipse fill="#eff3ff" stroke="#bdd7e7" cx="1972.87" cy="-715.71" rx="101.14" ry="18"/>
<text text-anchor="middle" x="1972.87" y="-712.31" font-family="Helvetica,sans-Serif" font-size="13.00" fill="#2171b5">Mark Set QC as failed</text>
</g>
<!-- n15&#45;&gt;n16 -->
<g id="edge28" class="edge">
<title>n15&#45;&gt;n16</title>
<path fill="none" stroke="#9ecae1" d="M1909.76,-837.72C1923.49,-811.39 1945.13,-769.89 1959.17,-742.99"/>
<polygon fill="#9ecae1" stroke="#9ecae1" points="1962.44,-744.28 1963.96,-733.79 1956.23,-741.04 1962.44,-744.28"/>
<text text-anchor="middle" x="1951.87" y="-792.02" font-family="Helvetica,sans-Serif" font-size="10.00" fill="#3182bd">No</text>
</g>
<!-- n17 -->
<g id="node28" class="node">
<title>n17</title>
<ellipse fill="#eff3ff" stroke="#bdd7e7" cx="1746.87" cy="-715.71" rx="107.27" ry="18"/>
<text text-anchor="middle" x="1746.87" y="-712.31" font-family="Helvetica,sans-Serif" font-size="13.00" fill="#2171b5">Mark Set QC as passed</text>
</g>
<!-- n15&#45;&gt;n17 -->
<g id="edge29" class="edge">
<title>n15&#45;&gt;n17</title>
<path fill="none" stroke="#9ecae1" d="M1871.76,-838.04C1844.01,-811.09 1799.59,-767.93 1771.88,-741.01"/>
<polygon fill="#9ecae1" stroke="#9ecae1" points="1774.14,-738.33 1764.53,-733.87 1769.27,-743.35 1774.14,-738.33"/>
<text text-anchor="middle" x="1860.87" y="-792.02" font-family="Helvetica,sans-Serif" font-size="10.00" fill="#3182bd">Yes</text>
</g>
<!-- n20 -->
<g id="node29" class="node">
<title>n20</title>
<ellipse fill="#eff3ff" stroke="#bdd7e7" cx="2807.87" cy="-715.71" rx="166.34" ry="25.41"/>
<text text-anchor="middle" x="2807.87" y="-719.31" font-family="Helvetica,sans-Serif" font-size="13.00" fill="#2171b5">Set sampling rate multiplier</text>
<text text-anchor="middle" x="2807.87" y="-705.31" font-family="Helvetica,sans-Serif" font-size="13.00" fill="#2171b5"> analysis parameter and check it</text>
</g>
<!-- n19&#45;&gt;n20 -->
<g id="edge30" class="edge">
<title>n19&#45;&gt;n20</title>
<path fill="none" stroke="#9ecae1" d="M2770.77,-845.43C2777.39,-822.47 2789.34,-780.99 2797.89,-751.32"/>
<polygon fill="#9ecae1" stroke="#9ecae1" points="2801.36,-751.95 2800.76,-741.37 2794.63,-750.01 2801.36,-751.95"/>
</g>
<!-- n56 -->
<g id="node30" class="node">
<title>n56</title>
<ellipse fill="#eff3ff" stroke="#bdd7e7" cx="3441.87" cy="-181.46" rx="140.93" ry="25.41"/>
<text text-anchor="middle" x="3441.87" y="-185.06" font-family="Helvetica,sans-Serif" font-size="13.00" fill="#2171b5">Are all five QC labnotebook</text>
<text text-anchor="middle" x="3441.87" y="-171.06" font-family="Helvetica,sans-Serif" font-size="13.00" fill="#2171b5"> entries passing?</text>
</g>
<!-- n55&#45;&gt;n56 -->
<g id="edge31" class="edge">
<title>n55&#45;&gt;n56</title>
<path fill="none" stroke="#9ecae1" d="M3533.84,-768.79C3537.27,-763.18 3540.52,-757.09 3542.87,-751.07 3560.23,-706.6 3561.87,-693.09 3561.87,-645.36 3561.87,-645.36 3561.87,-645.36 3561.87,-268.37 3561.87,-241.33 3541.47,-221.98 3517.5,-208.58"/>
<polygon fill="#9ecae1" stroke="#9ecae1" points="3519.02,-205.43 3508.54,-203.91 3515.79,-211.63 3519.02,-205.43"/>
</g>
<!-- n49&#45;&gt;n56 -->
<g id="edge32" class="edge">
<title>n49&#45;&gt;n56</title>
<path fill="none" stroke="#9ecae1" d="M3698.29,-626.4C3681.42,-606.2 3656.87,-570.67 3656.87,-534.95 3656.87,-534.95 3656.87,-534.95 3656.87,-268.37 3656.87,-241.25 3597.13,-218.85 3540.63,-203.73"/>
<polygon fill="#9ecae1" stroke="#9ecae1" points="3541.43,-200.32 3530.87,-201.18 3539.66,-207.09 3541.43,-200.32"/>
</g>
<!-- n58 -->
<g id="node31" class="node">
<title>n58</title>
<ellipse fill="#eff3ff" stroke="#bdd7e7" cx="3262.87" cy="-715.71" rx="270.64" ry="25.41"/>
<text text-anchor="middle" x="3262.87" y="-719.31" font-family="Helvetica,sans-Serif" font-size="13.00" fill="#2171b5">Set formula for getting the peak and access resistance</text>
<text text-anchor="middle" x="3262.87" y="-705.31" font-family="Helvetica,sans-Serif" font-size="13.00" fill="#2171b5"> of all TPs in the stimset</text>
</g>
<!-- n57&#45;&gt;n58 -->
<g id="edge33" class="edge">
<title>n57&#45;&gt;n58</title>
<path fill="none" stroke="#9ecae1" d="M3364.81,-845.57C3358.38,-837.81 3350.69,-828.47 3343.87,-819.98 3325.04,-796.57 3304.13,-769.89 3288.26,-749.51"/>
<polygon fill="#9ecae1" stroke="#9ecae1" points="3290.91,-747.21 3282.01,-741.47 3285.39,-751.51 3290.91,-747.21"/>
</g>
<!-- n85 -->
<g id="node32" class="node">
<title>n85</title>
<ellipse fill="#eff3ff" stroke="#bdd7e7" cx="2357.87" cy="-715.71" rx="265.74" ry="25.41"/>
<text text-anchor="middle" x="2357.87" y="-719.31" font-family="Helvetica,sans-Serif" font-size="13.00" fill="#2171b5">Read optional &quot;NextStimsetName&quot; analysis parameter</text>
<text text-anchor="middle" x="2357.87" y="-705.31" font-family="Helvetica,sans-Serif" font-size="13.00" fill="#2171b5"> and set that as next stimulus set</text>
</g>
<!-- n48&#45;&gt;n85 -->
<g id="edge34" class="edge">
<title>n48&#45;&gt;n85</title>
<path fill="none" stroke="#9ecae1" d="M2440.9,-845.43C2425.83,-822.06 2398.39,-779.53 2379.2,-749.78"/>
<polygon fill="#9ecae1" stroke="#9ecae1" points="2382.14,-747.88 2373.77,-741.37 2376.25,-751.67 2382.14,-747.88"/>
<text text-anchor="middle" x="2441.87" y="-792.02" font-family="Helvetica,sans-Serif" font-size="10.00" fill="#3182bd">Passed</text>
</g>
<!-- n47 -->
<g id="node33" class="node">
<title>n47</title>
<ellipse fill="#eff3ff" stroke="#bdd7e7" cx="3865.87" cy="-715.71" rx="140.93" ry="25.41"/>
<text text-anchor="middle" x="3865.87" y="-719.31" font-family="Helvetica,sans-Serif" font-size="13.00" fill="#2171b5">Iterate over all baseline QC</text>
<text text-anchor="middle" x="3865.87" y="-705.31" font-family="Helvetica,sans-Serif" font-size="13.00" fill="#2171b5"> selection user epochs</text>
</g>
<!-- n54&#45;&gt;n47 -->
<g id="edge35" class="edge">
<title>n54&#45;&gt;n47</title>
<path fill="none" stroke="#9ecae1" d="M3834.95,-845.43C3840.47,-822.47 3850.43,-780.99 3857.56,-751.32"/>
<polygon fill="#9ecae1" stroke="#9ecae1" points="3861.01,-751.91 3859.95,-741.37 3854.21,-750.28 3861.01,-751.91"/>
<text text-anchor="middle" x="3859.87" y="-792.02" font-family="Helvetica,sans-Serif" font-size="10.00" fill="#3182bd">No</text>
</g>
<!-- n74&#45;&gt;n61 -->
<g id="edge36" class="edge">
<title>n74&#45;&gt;n61</title>
<path fill="none" stroke="#9ecae1" d="M262.26,-558.88C297.14,-547.77 340.84,-535.37 380.87,-528.45 622.31,-486.66 917.51,-484.52 1027.15,-485.37"/>
<polygon fill="#9ecae1" stroke="#9ecae1" points="1027.15,-488.87 1037.18,-485.46 1027.21,-481.87 1027.15,-488.87"/>
<text text-anchor="middle" x="397.37" y="-531.45" font-family="Helvetica,sans-Serif" font-size="10.00" fill="#3182bd">Failure</text>
</g>
<!-- n75 -->
<g id="node34" class="node">
<title>n75</title>
<ellipse fill="#eff3ff" stroke="#bdd7e7" cx="195.87" cy="-484.99" rx="174.81" ry="25.41"/>
<text text-anchor="middle" x="195.87" y="-488.59" font-family="Helvetica,sans-Serif" font-size="13.00" fill="#2171b5">Check amplitude of epochs for TPs</text>
<text text-anchor="middle" x="195.87" y="-474.59" font-family="Helvetica,sans-Serif" font-size="13.00" fill="#2171b5"> baseline zero, pulse non&#45;zero</text>
</g>
<!-- n74&#45;&gt;n75 -->
<g id="edge37" class="edge">
<title>n74&#45;&gt;n75</title>
<path fill="none" stroke="#9ecae1" d="M195.87,-557.2C195.87,-546.13 195.87,-532.87 195.87,-520.81"/>
<polygon fill="#9ecae1" stroke="#9ecae1" points="199.37,-520.61 195.87,-510.61 192.37,-520.61 199.37,-520.61"/>
</g>
<!-- n30&#45;&gt;n61 -->
<g id="edge38" class="edge">
<title>n30&#45;&gt;n61</title>
<path fill="none" stroke="#9ecae1" d="M1160.5,-697.94C1203.92,-669.43 1279.77,-609.51 1244.87,-557.45 1215.78,-514.06 1155.12,-496.99 1113.69,-490.3"/>
<polygon fill="#9ecae1" stroke="#9ecae1" points="1114.01,-486.81 1103.6,-488.81 1112.99,-493.73 1114.01,-486.81"/>
<text text-anchor="middle" x="1270.37" y="-580.4" font-family="Helvetica,sans-Serif" font-size="10.00" fill="#3182bd">Failure</text>
</g>
<!-- n31 -->
<g id="node35" class="node">
<title>n31</title>
<ellipse fill="#eff3ff" stroke="#bdd7e7" cx="1070.87" cy="-582.9" rx="165.43" ry="25.41"/>
<text text-anchor="middle" x="1070.87" y="-586.5" font-family="Helvetica,sans-Serif" font-size="13.00" fill="#2171b5">Check that the active headstage</text>
<text text-anchor="middle" x="1070.87" y="-572.5" font-family="Helvetica,sans-Serif" font-size="13.00" fill="#2171b5"> is in voltage clamp</text>
</g>
<!-- n30&#45;&gt;n31 -->
<g id="edge39" class="edge">
<title>n30&#45;&gt;n31</title>
<path fill="none" stroke="#9ecae1" d="M1124.76,-697.61C1115.22,-677.47 1099.12,-643.52 1087,-617.95"/>
<polygon fill="#9ecae1" stroke="#9ecae1" points="1090.02,-616.14 1082.58,-608.6 1083.7,-619.14 1090.02,-616.14"/>
</g>
<!-- n24 -->
<g id="node36" class="node">
<title>n24</title>
<ellipse fill="#eff3ff" stroke="#bdd7e7" cx="1490.87" cy="-582.9" rx="78.92" ry="18"/>
<text text-anchor="middle" x="1490.87" y="-579.5" font-family="Helvetica,sans-Serif" font-size="13.00" fill="#2171b5">Turn off oodDAQ</text>
</g>
<!-- n23&#45;&gt;n24 -->
<g id="edge40" class="edge">
<title>n23&#45;&gt;n24</title>
<path fill="none" stroke="#9ecae1" d="M1490.87,-697.61C1490.87,-675.68 1490.87,-637.36 1490.87,-611.33"/>
<polygon fill="#9ecae1" stroke="#9ecae1" points="1494.37,-611.01 1490.87,-601.01 1487.37,-611.01 1494.37,-611.01"/>
</g>
<!-- n18 -->
<g id="node37" class="node">
<title>n18</title>
<ellipse fill="#eff3ff" stroke="#bdd7e7" cx="1840.87" cy="-582.9" rx="121.83" ry="18"/>
<text text-anchor="middle" x="1840.87" y="-579.5" font-family="Helvetica,sans-Serif" font-size="13.00" fill="#2171b5">Publish results via ZeroMQ</text>
</g>
<!-- n16&#45;&gt;n18 -->
<g id="edge41" class="edge">
<title>n16&#45;&gt;n18</title>
<path fill="none" stroke="#9ecae1" d="M1955.88,-697.88C1932.94,-675.14 1891.9,-634.47 1865.55,-608.36"/>
<polygon fill="#9ecae1" stroke="#9ecae1" points="1867.78,-605.64 1858.21,-601.09 1862.85,-610.61 1867.78,-605.64"/>
</g>
<!-- n17&#45;&gt;n18 -->
<g id="edge42" class="edge">
<title>n17&#45;&gt;n18</title>
<path fill="none" stroke="#9ecae1" d="M1759.16,-697.61C1775.34,-675.09 1803.94,-635.3 1822.64,-609.26"/>
<polygon fill="#9ecae1" stroke="#9ecae1" points="1825.58,-611.17 1828.58,-601.01 1819.9,-607.09 1825.58,-611.17"/>
</g>
<!-- n59 -->
<g id="node38" class="node">
<title>n59</title>
<ellipse fill="#eff3ff" stroke="#bdd7e7" cx="3375.87" cy="-91" rx="114.93" ry="18"/>
<text text-anchor="middle" x="3375.87" y="-87.6" font-family="Helvetica,sans-Serif" font-size="13.00" fill="#2171b5">Mark Sweep QC as failed</text>
</g>
<!-- n56&#45;&gt;n59 -->
<g id="edge43" class="edge">
<title>n56&#45;&gt;n59</title>
<path fill="none" stroke="#9ecae1" d="M3423.48,-155.82C3414.52,-143.8 3403.76,-129.38 3394.73,-117.28"/>
<polygon fill="#9ecae1" stroke="#9ecae1" points="3397.3,-114.88 3388.52,-108.95 3391.69,-119.06 3397.3,-114.88"/>
<text text-anchor="middle" x="3415.87" y="-130" font-family="Helvetica,sans-Serif" font-size="10.00" fill="#3182bd">No</text>
</g>
<!-- n60 -->
<g id="node39" class="node">
<title>n60</title>
<ellipse fill="#eff3ff" stroke="#bdd7e7" cx="3640.87" cy="-91" rx="120.8" ry="18"/>
<text text-anchor="middle" x="3640.87" y="-87.6" font-family="Helvetica,sans-Serif" font-size="13.00" fill="#2171b5">Mark Sweep QC as passed</text>
</g>
<!-- n56&#45;&gt;n60 -->
<g id="edge44" class="edge">
<title>n56&#45;&gt;n60</title>
<path fill="none" stroke="#9ecae1" d="M3493.12,-157.68C3524.5,-143.73 3564.33,-126.02 3594.73,-112.51"/>
<polygon fill="#9ecae1" stroke="#9ecae1" points="3596.53,-115.54 3604.24,-108.28 3593.68,-109.14 3596.53,-115.54"/>
<text text-anchor="middle" x="3567.87" y="-130" font-family="Helvetica,sans-Serif" font-size="10.00" fill="#3182bd">Yes</text>
</g>
<!-- n62 -->
<g id="node40" class="node">
<title>n62</title>
<ellipse fill="#eff3ff" stroke="#bdd7e7" cx="3262.87" cy="-582.9" rx="34.99" ry="18"/>
<text text-anchor="middle" x="3262.87" y="-579.5" font-family="Helvetica,sans-Serif" font-size="13.00" fill="#2171b5">Run it</text>
</g>
<!-- n58&#45;&gt;n62 -->
<g id="edge45" class="edge">
<title>n58&#45;&gt;n62</title>
<path fill="none" stroke="#9ecae1" d="M3262.87,-690.11C3262.87,-667.62 3262.87,-634.41 3262.87,-611.13"/>
<polygon fill="#9ecae1" stroke="#9ecae1" points="3266.37,-610.9 3262.87,-600.9 3259.37,-610.9 3266.37,-610.9"/>
</g>
<!-- n86 -->
<g id="node41" class="node">
<title>n86</title>
<ellipse fill="#eff3ff" stroke="#bdd7e7" cx="2357.87" cy="-582.9" rx="322.38" ry="25.41"/>
<text text-anchor="middle" x="2357.87" y="-586.5" font-family="Helvetica,sans-Serif" font-size="13.00" fill="#2171b5">Read optional &quot;NextIndexingEndStimsetName&quot; analysis parameter</text>
<text text-anchor="middle" x="2357.87" y="-572.5" font-family="Helvetica,sans-Serif" font-size="13.00" fill="#2171b5"> and set that as indexing end stimulus set</text>
</g>
<!-- n85&#45;&gt;n86 -->
<g id="edge46" class="edge">
<title>n85&#45;&gt;n86</title>
<path fill="none" stroke="#9ecae1" d="M2357.87,-690.11C2357.87,-669.92 2357.87,-641.09 2357.87,-618.57"/>
<polygon fill="#9ecae1" stroke="#9ecae1" points="2361.37,-618.4 2357.87,-608.4 2354.37,-618.4 2361.37,-618.4"/>
</g>
<!-- n72 -->
<g id="node42" class="node">
<title>n72</title>
<ellipse fill="#eff3ff" stroke="#bdd7e7" cx="3865.87" cy="-582.9" rx="80.71" ry="18"/>
<text text-anchor="middle" x="3865.87" y="-579.5" font-family="Helvetica,sans-Serif" font-size="13.00" fill="#2171b5">Check RMS short</text>
</g>
<!-- n47&#45;&gt;n72 -->
<g id="edge47" class="edge">
<title>n47&#45;&gt;n72</title>
<path fill="none" stroke="#9ecae1" d="M3865.87,-690.11C3865.87,-667.62 3865.87,-634.41 3865.87,-611.13"/>
<polygon fill="#9ecae1" stroke="#9ecae1" points="3869.37,-610.9 3865.87,-600.9 3862.37,-610.9 3869.37,-610.9"/>
</g>
<!-- n77 -->
<g id="node43" class="node">
<title>n77</title>
<ellipse fill="#eff3ff" stroke="#bdd7e7" cx="195.87" cy="-377.18" rx="101.14" ry="18"/>
<text text-anchor="middle" x="195.87" y="-373.78" font-family="Helvetica,sans-Serif" font-size="13.00" fill="#2171b5">Create TP&#45;like epochs</text>
</g>
<!-- n75&#45;&gt;n77 -->
<g id="edge48" class="edge">
<title>n75&#45;&gt;n77</title>
<path fill="none" stroke="#9ecae1" d="M195.87,-459.45C195.87,-443.32 195.87,-422.21 195.87,-405.54"/>
<polygon fill="#9ecae1" stroke="#9ecae1" points="199.37,-405.33 195.87,-395.33 192.37,-405.33 199.37,-405.33"/>
</g>
<!-- n31&#45;&gt;n61 -->
<g id="edge49" class="edge">
<title>n31&#45;&gt;n61</title>
<path fill="none" stroke="#9ecae1" d="M1070.87,-557.2C1070.87,-543.8 1070.87,-527.2 1070.87,-513.4"/>
<polygon fill="#9ecae1" stroke="#9ecae1" points="1074.37,-513.05 1070.87,-503.05 1067.37,-513.05 1074.37,-513.05"/>
<text text-anchor="middle" x="1087.37" y="-531.45" font-family="Helvetica,sans-Serif" font-size="10.00" fill="#3182bd">Failure</text>
</g>
<!-- n25 -->
<g id="node44" class="node">
<title>n25</title>
<ellipse fill="#eff3ff" stroke="#bdd7e7" cx="1490.87" cy="-484.99" rx="68.44" ry="18"/>
<text text-anchor="middle" x="1490.87" y="-481.59" font-family="Helvetica,sans-Serif" font-size="13.00" fill="#2171b5">Turn off dDAQ</text>
</g>
<!-- n24&#45;&gt;n25 -->
<g id="edge50" class="edge">
<title>n24&#45;&gt;n25</title>
<path fill="none" stroke="#9ecae1" d="M1490.87,-564.75C1490.87,-550.52 1490.87,-530.01 1490.87,-513.49"/>
<polygon fill="#9ecae1" stroke="#9ecae1" points="1494.37,-513.31 1490.87,-503.31 1487.37,-513.31 1494.37,-513.31"/>
</g>
<!-- n52 -->
<g id="node45" class="node">
<title>n52</title>
<ellipse fill="#eff3ff" stroke="#bdd7e7" cx="3364.87" cy="-18" rx="180.06" ry="18"/>
<text text-anchor="middle" x="3364.87" y="-14.6" font-family="Helvetica,sans-Serif" font-size="13.00" fill="#2171b5">Usual checks for early abort possibilities</text>
</g>
<!-- n59&#45;&gt;n52 -->
<g id="edge51" class="edge">
<title>n59&#45;&gt;n52</title>
<path fill="none" stroke="#9ecae1" d="M3373.21,-72.81C3371.96,-64.79 3370.45,-55.05 3369.06,-46.07"/>
<polygon fill="#9ecae1" stroke="#9ecae1" points="3372.5,-45.38 3367.51,-36.03 3365.58,-46.45 3372.5,-45.38"/>
</g>
<!-- n53 -->
<g id="node46" class="node">
<title>n53</title>
<ellipse fill="#eff3ff" stroke="#bdd7e7" cx="3650.87" cy="-18" rx="87.61" ry="18"/>
<text text-anchor="middle" x="3650.87" y="-14.6" font-family="Helvetica,sans-Serif" font-size="13.00" fill="#2171b5">Jump to end of set</text>
</g>
<!-- n60&#45;&gt;n53 -->
<g id="edge52" class="edge">
<title>n60&#45;&gt;n53</title>
<path fill="none" stroke="#9ecae1" d="M3643.29,-72.81C3644.42,-64.79 3645.79,-55.05 3647.06,-46.07"/>
<polygon fill="#9ecae1" stroke="#9ecae1" points="3650.54,-46.42 3648.47,-36.03 3643.61,-45.44 3650.54,-46.42"/>
</g>
<!-- n63 -->
<g id="node47" class="node">
<title>n63</title>
<ellipse fill="#eff3ff" stroke="#bdd7e7" cx="3262.87" cy="-484.99" rx="117.26" ry="25.41"/>
<text text-anchor="middle" x="3262.87" y="-488.59" font-family="Helvetica,sans-Serif" font-size="13.00" fill="#2171b5">Store both resistances</text>
<text text-anchor="middle" x="3262.87" y="-474.59" font-family="Helvetica,sans-Serif" font-size="13.00" fill="#2171b5"> in the labnotebook</text>
</g>
<!-- n62&#45;&gt;n63 -->
<g id="edge53" class="edge">
<title>n62&#45;&gt;n63</title>
<path fill="none" stroke="#9ecae1" d="M3262.87,-564.75C3262.87,-552.5 3262.87,-535.58 3262.87,-520.57"/>
<polygon fill="#9ecae1" stroke="#9ecae1" points="3266.37,-520.56 3262.87,-510.56 3259.37,-520.56 3266.37,-520.56"/>
</g>
<!-- n78 -->
<g id="node48" class="node">
<title>n78</title>
<ellipse fill="#eff3ff" stroke="#bdd7e7" cx="3996.87" cy="-484.99" rx="77.89" ry="18"/>
<text text-anchor="middle" x="3996.87" y="-481.59" font-family="Helvetica,sans-Serif" font-size="13.00" fill="#2171b5">Check RMS long</text>
</g>
<!-- n72&#45;&gt;n78 -->
<g id="edge54" class="edge">
<title>n72&#45;&gt;n78</title>
<path fill="none" stroke="#9ecae1" d="M3888.39,-565.41C3909.89,-549.67 3942.45,-525.83 3966.29,-508.38"/>
<polygon fill="#9ecae1" stroke="#9ecae1" points="3968.64,-510.99 3974.64,-502.26 3964.51,-505.35 3968.64,-510.99"/>
<text text-anchor="middle" x="3952.87" y="-531.45" font-family="Helvetica,sans-Serif" font-size="10.00" fill="#3182bd">Passed</text>
</g>
<!-- n80 -->
<g id="node49" class="node">
<title>n80</title>
<ellipse fill="#eff3ff" stroke="#bdd7e7" cx="3918.87" cy="-269.37" rx="122.16" ry="25.41"/>
<text text-anchor="middle" x="3918.87" y="-272.97" font-family="Helvetica,sans-Serif" font-size="13.00" fill="#2171b5">Add BL chunk QC failed</text>
<text text-anchor="middle" x="3918.87" y="-258.97" font-family="Helvetica,sans-Serif" font-size="13.00" fill="#2171b5"> labnotebook entry</text>
</g>
<!-- n72&#45;&gt;n80 -->
<g id="edge55" class="edge">
<title>n72&#45;&gt;n80</title>
<path fill="none" stroke="#9ecae1" d="M3860.43,-564.86C3848.51,-524.47 3823.46,-420.45 3853.87,-341.82 3859.72,-326.68 3870.45,-312.78 3881.51,-301.34"/>
<polygon fill="#9ecae1" stroke="#9ecae1" points="3884.11,-303.69 3888.79,-294.18 3879.21,-298.7 3884.11,-303.69"/>
<text text-anchor="middle" x="3854.37" y="-433.53" font-family="Helvetica,sans-Serif" font-size="10.00" fill="#3182bd">Failed</text>
</g>
<!-- n26 -->
<g id="node54" class="node">
<title>n26</title>
<ellipse fill="#eff3ff" stroke="#bdd7e7" cx="1490.87" cy="-377.18" rx="120.04" ry="18"/>
<text text-anchor="middle" x="1490.87" y="-373.78" font-family="Helvetica,sans-Serif" font-size="13.00" fill="#2171b5">Turn on inserted Testpulse</text>
</g>
<!-- n25&#45;&gt;n26 -->
<g id="edge62" class="edge">
<title>n25&#45;&gt;n26</title>
<path fill="none" stroke="#9ecae1" d="M1490.87,-466.99C1490.87,-450.43 1490.87,-424.98 1490.87,-405.56"/>
<polygon fill="#9ecae1" stroke="#9ecae1" points="1494.37,-405.49 1490.87,-395.49 1487.37,-405.49 1494.37,-405.49"/>
</g>
<!-- n64 -->
<g id="node56" class="node">
<title>n64</title>
<ellipse fill="#eff3ff" stroke="#bdd7e7" cx="2684.87" cy="-377.18" rx="297.88" ry="35.21"/>
<text text-anchor="middle" x="2684.87" y="-387.78" font-family="Helvetica,sans-Serif" font-size="13.00" fill="#2171b5">Is Access Resistance / Steady State Resistance</text>
<text text-anchor="middle" x="2684.87" y="-373.78" font-family="Helvetica,sans-Serif" font-size="13.00" fill="#2171b5"> smaller than the &quot;MaxAccessToSteadyStateResistanceRatio&quot;</text>
<text text-anchor="middle" x="2684.87" y="-359.78" font-family="Helvetica,sans-Serif" font-size="13.00" fill="#2171b5"> analysis parameter?</text>
</g>
<!-- n63&#45;&gt;n64 -->
<g id="edge64" class="edge">
<title>n63&#45;&gt;n64</title>
<path fill="none" stroke="#9ecae1" d="M3175.4,-467.98C3090.25,-452.39 2958.63,-428.3 2853.16,-408.99"/>
<polygon fill="#9ecae1" stroke="#9ecae1" points="2853.51,-405.49 2843.04,-407.13 2852.25,-412.38 2853.51,-405.49"/>
</g>
<!-- n65 -->
<g id="node57" class="node">
<title>n65</title>
<ellipse fill="#eff3ff" stroke="#bdd7e7" cx="3266.87" cy="-377.18" rx="266.66" ry="25.41"/>
<text text-anchor="middle" x="3266.87" y="-380.78" font-family="Helvetica,sans-Serif" font-size="13.00" fill="#2171b5">Is the access resistance smaller</text>
<text text-anchor="middle" x="3266.87" y="-366.78" font-family="Helvetica,sans-Serif" font-size="13.00" fill="#2171b5"> than the &quot;MaxAccessResistance&quot; analysis parameter?</text>
</g>
<!-- n63&#45;&gt;n65 -->
<g id="edge65" class="edge">
<title>n63&#45;&gt;n65</title>
<path fill="none" stroke="#9ecae1" d="M3263.8,-459.45C3264.32,-445.66 3264.98,-428.22 3265.55,-413.03"/>
<polygon fill="#9ecae1" stroke="#9ecae1" points="3269.05,-413.08 3265.93,-402.95 3262.06,-412.81 3269.05,-413.08"/>
</g>
<!-- n78&#45;&gt;n80 -->
<g id="edge56" class="edge">
<title>n78&#45;&gt;n80</title>
<path fill="none" stroke="#9ecae1" d="M4049.42,-471.59C4081,-461.26 4118.99,-443.14 4139.87,-412.53 4164.92,-375.81 4176.32,-346.98 4147.87,-312.82 4133.7,-295.81 4071.64,-298.86 4049.87,-294.82 4039.42,-292.89 4028.5,-290.86 4017.62,-288.83"/>
<polygon fill="#9ecae1" stroke="#9ecae1" points="4018.12,-285.37 4007.65,-286.98 4016.84,-292.25 4018.12,-285.37"/>
<text text-anchor="middle" x="4179.37" y="-374.68" font-family="Helvetica,sans-Serif" font-size="10.00" fill="#3182bd">Failed</text>
</g>
<!-- n79 -->
<g id="node50" class="node">
<title>n79</title>
<ellipse fill="#eff3ff" stroke="#bdd7e7" cx="3996.87" cy="-377.18" rx="133.83" ry="18"/>
<text text-anchor="middle" x="3996.87" y="-373.78" font-family="Helvetica,sans-Serif" font-size="13.00" fill="#2171b5">Check maximum leak current</text>
</g>
<!-- n78&#45;&gt;n79 -->
<g id="edge57" class="edge">
<title>n78&#45;&gt;n79</title>
<path fill="none" stroke="#9ecae1" d="M3996.87,-466.99C3996.87,-450.43 3996.87,-424.98 3996.87,-405.56"/>
<polygon fill="#9ecae1" stroke="#9ecae1" points="4000.37,-405.49 3996.87,-395.49 3993.37,-405.49 4000.37,-405.49"/>
<text text-anchor="middle" x="4013.87" y="-433.53" font-family="Helvetica,sans-Serif" font-size="10.00" fill="#3182bd">Passed</text>
</g>
<!-- n82 -->
<g id="node51" class="node">
<title>n82</title>
<ellipse fill="#eff3ff" stroke="#bdd7e7" cx="3918.87" cy="-181.46" rx="101.23" ry="25.41"/>
<text text-anchor="middle" x="3918.87" y="-185.06" font-family="Helvetica,sans-Serif" font-size="13.00" fill="#2171b5">Add BL QC failed</text>
<text text-anchor="middle" x="3918.87" y="-171.06" font-family="Helvetica,sans-Serif" font-size="13.00" fill="#2171b5"> labnotebook entry</text>
</g>
<!-- n80&#45;&gt;n82 -->
<g id="edge58" class="edge">
<title>n80&#45;&gt;n82</title>
<path fill="none" stroke="#9ecae1" d="M3918.87,-243.52C3918.87,-235.25 3918.87,-225.9 3918.87,-217.03"/>
<polygon fill="#9ecae1" stroke="#9ecae1" points="3922.37,-216.95 3918.87,-206.95 3915.37,-216.95 3922.37,-216.95"/>
</g>
<!-- n79&#45;&gt;n80 -->
<g id="edge59" class="edge">
<title>n79&#45;&gt;n80</title>
<path fill="none" stroke="#9ecae1" d="M3984.34,-359.18C3973.21,-344.08 3956.63,-321.6 3942.95,-303.03"/>
<polygon fill="#9ecae1" stroke="#9ecae1" points="3945.64,-300.79 3936.89,-294.82 3940.01,-304.95 3945.64,-300.79"/>
<text text-anchor="middle" x="3972.37" y="-315.82" font-family="Helvetica,sans-Serif" font-size="10.00" fill="#3182bd">Failed</text>
</g>
<!-- n81 -->
<g id="node52" class="node">
<title>n81</title>
<ellipse fill="#eff3ff" stroke="#bdd7e7" cx="4187.87" cy="-269.37" rx="128.89" ry="25.41"/>
<text text-anchor="middle" x="4187.87" y="-272.97" font-family="Helvetica,sans-Serif" font-size="13.00" fill="#2171b5">Add BL chunk QC passed</text>
<text text-anchor="middle" x="4187.87" y="-258.97" font-family="Helvetica,sans-Serif" font-size="13.00" fill="#2171b5"> labnotebook entry</text>
</g>
<!-- n79&#45;&gt;n81 -->
<g id="edge60" class="edge">
<title>n79&#45;&gt;n81</title>
<path fill="none" stroke="#9ecae1" d="M4027.13,-359.41C4056.58,-343.1 4101.89,-318 4136.9,-298.6"/>
<polygon fill="#9ecae1" stroke="#9ecae1" points="4138.97,-301.46 4146.03,-293.55 4135.58,-295.33 4138.97,-301.46"/>
<text text-anchor="middle" x="4126.87" y="-315.82" font-family="Helvetica,sans-Serif" font-size="10.00" fill="#3182bd">Passed</text>
</g>
<!-- n84 -->
<g id="node53" class="node">
<title>n84</title>
<ellipse fill="#eff3ff" stroke="#bdd7e7" cx="3918.87" cy="-91" rx="81.47" ry="18"/>
<text text-anchor="middle" x="3918.87" y="-87.6" font-family="Helvetica,sans-Serif" font-size="13.00" fill="#2171b5">Early sweep stop</text>
</g>
<!-- n82&#45;&gt;n84 -->
<g id="edge61" class="edge">
<title>n82&#45;&gt;n84</title>
<path fill="none" stroke="#9ecae1" d="M3918.87,-155.82C3918.87,-144.47 3918.87,-130.96 3918.87,-119.3"/>
<polygon fill="#9ecae1" stroke="#9ecae1" points="3922.37,-119.23 3918.87,-109.23 3915.37,-119.23 3922.37,-119.23"/>
</g>
<!-- n83 -->
<g id="node55" class="node">
<title>n83</title>
<ellipse fill="#eff3ff" stroke="#bdd7e7" cx="4187.87" cy="-181.46" rx="101.23" ry="25.41"/>
<text text-anchor="middle" x="4187.87" y="-185.06" font-family="Helvetica,sans-Serif" font-size="13.00" fill="#2171b5">Add BL QC passed</text>
<text text-anchor="middle" x="4187.87" y="-171.06" font-family="Helvetica,sans-Serif" font-size="13.00" fill="#2171b5"> labnotebook entry</text>
</g>
<!-- n81&#45;&gt;n83 -->
<g id="edge63" class="edge">
<title>n81&#45;&gt;n83</title>
<path fill="none" stroke="#9ecae1" d="M4187.87,-243.52C4187.87,-235.25 4187.87,-225.9 4187.87,-217.03"/>
<polygon fill="#9ecae1" stroke="#9ecae1" points="4191.37,-216.95 4187.87,-206.95 4184.37,-216.95 4191.37,-216.95"/>
</g>
<!-- n67 -->
<g id="node58" class="node">
<title>n67</title>
<ellipse fill="#eff3ff" stroke="#bdd7e7" cx="2993.87" cy="-269.37" rx="124.38" ry="18"/>
<text text-anchor="middle" x="2993.87" y="-265.97" font-family="Helvetica,sans-Serif" font-size="13.00" fill="#2171b5">Store result in labnotebook</text>
</g>
<!-- n64&#45;&gt;n67 -->
<g id="edge66" class="edge">
<title>n64&#45;&gt;n67</title>
<path fill="none" stroke="#9ecae1" d="M2780.1,-343.57C2831.87,-325.84 2894.09,-304.53 2938.03,-289.49"/>
<polygon fill="#9ecae1" stroke="#9ecae1" points="2939.34,-292.74 2947.67,-286.19 2937.07,-286.12 2939.34,-292.74"/>
</g>
<!-- n66 -->
<g id="node59" class="node">
<title>n66</title>
<ellipse fill="#eff3ff" stroke="#bdd7e7" cx="3374.87" cy="-269.37" rx="124.38" ry="18"/>
<text text-anchor="middle" x="3374.87" y="-265.97" font-family="Helvetica,sans-Serif" font-size="13.00" fill="#2171b5">Store result in labnotebook</text>
</g>
<!-- n65&#45;&gt;n66 -->
<g id="edge67" class="edge">
<title>n65&#45;&gt;n66</title>
<path fill="none" stroke="#9ecae1" d="M3291.92,-351.64C3309.32,-334.59 3332.41,-311.96 3349.81,-294.92"/>
<polygon fill="#9ecae1" stroke="#9ecae1" points="3352.67,-297.01 3357.37,-287.51 3347.77,-292.01 3352.67,-297.01"/>
</g>
<!-- n67&#45;&gt;n56 -->
<g id="edge68" class="edge">
<title>n67&#45;&gt;n56</title>
<path fill="none" stroke="#9ecae1" d="M3065.85,-254.56C3139.41,-240.46 3254.39,-218.41 3337.84,-202.4"/>
<polygon fill="#9ecae1" stroke="#9ecae1" points="3338.7,-205.8 3347.86,-200.48 3337.38,-198.93 3338.7,-205.8"/>
</g>
<!-- n66&#45;&gt;n56 -->
<g id="edge69" class="edge">
<title>n66&#45;&gt;n56</title>
<path fill="none" stroke="#9ecae1" d="M3388.11,-251.39C3396.24,-240.96 3406.93,-227.26 3416.63,-214.82"/>
<polygon fill="#9ecae1" stroke="#9ecae1" points="3419.43,-216.92 3422.82,-206.88 3413.91,-212.61 3419.43,-216.92"/>
</g>
</g>
</svg>
