<?xml version="1.0" encoding="UTF-8" standalone="no"?>
<!DOCTYPE svg PUBLIC "-//W3C//DTD SVG 1.1//EN"
 "http://www.w3.org/Graphics/SVG/1.1/DTD/svg11.dtd">
<!-- Generated by graphviz version 2.43.0 (0)
 -->
<!-- Title: G Pages: 1 -->
<svg width="816pt" height="396pt"
 viewBox="0.00 0.00 816.15 395.62" xmlns="http://www.w3.org/2000/svg" xmlns:xlink="http://www.w3.org/1999/xlink">
<g id="graph0" class="graph" transform="scale(1 1) rotate(0) translate(4 391.62)">
<title>G</title>
<polygon fill="white" stroke="transparent" points="-4,4 -4,-391.62 812.15,-391.62 812.15,4 -4,4"/>
<!-- Start DAQ/RA -->
<g id="node1" class="node">
<title>Start DAQ/RA</title>
<ellipse fill="#eff3ff" stroke="#bdd7e7" cx="445.45" cy="-369.62" rx="65.89" ry="18"/>
<text text-anchor="middle" x="445.45" y="-366.22" font-family="Helvetica,sans-Serif" font-size="13.00" fill="#2171b5">Start DAQ/RA</text>
</g>
<!-- Post Sweep Event -->
<g id="node2" class="node">
<title>Post Sweep Event</title>
<ellipse fill="#eff3ff" stroke="#bdd7e7" cx="339.45" cy="-296.62" rx="84.79" ry="18"/>
<text text-anchor="middle" x="339.45" y="-293.22" font-family="Helvetica,sans-Serif" font-size="13.00" fill="#2171b5">Post Sweep Event</text>
</g>
<!-- Start DAQ/RA&#45;&gt;Post Sweep Event -->
<g id="edge1" class="edge">
<title>Start DAQ/RA&#45;&gt;Post Sweep Event</title>
<path fill="none" stroke="#9ecae1" d="M421.67,-352.69C407.14,-342.96 388.36,-330.38 372.42,-319.7"/>
<polygon fill="#9ecae1" stroke="#9ecae1" points="374.15,-316.65 363.9,-314 370.26,-322.47 374.15,-316.65"/>
</g>
<!-- Pre Sweep Config Event -->
<g id="node3" class="node">
<title>Pre Sweep Config Event</title>
<ellipse fill="#eff3ff" stroke="#bdd7e7" cx="576.45" cy="-296.62" rx="109.82" ry="18"/>
<text text-anchor="middle" x="576.45" y="-293.22" font-family="Helvetica,sans-Serif" font-size="13.00" fill="#2171b5">Pre Sweep Config Event</text>
</g>
<!-- Start DAQ/RA&#45;&gt;Pre Sweep Config Event -->
<g id="edge2" class="edge">
<title>Start DAQ/RA&#45;&gt;Pre Sweep Config Event</title>
<path fill="none" stroke="#9ecae1" d="M473.88,-353.22C492.41,-343.17 516.85,-329.93 537.22,-318.89"/>
<polygon fill="#9ecae1" stroke="#9ecae1" points="539.14,-321.83 546.26,-313.99 535.8,-315.67 539.14,-321.83"/>
</g>
<!-- n9 -->
<g id="node4" class="node">
<title>n9</title>
<ellipse fill="#eff3ff" stroke="#bdd7e7" cx="194.45" cy="-216.17" rx="194.41" ry="25.41"/>
<text text-anchor="middle" x="194.45" y="-219.77" font-family="Helvetica,sans-Serif" font-size="13.00" fill="#2171b5">Iterate over all asynchronous channels</text>
<text text-anchor="middle" x="194.45" y="-205.77" font-family="Helvetica,sans-Serif" font-size="13.00" fill="#2171b5"> given in &quot;AsyncQCChannels&quot;</text>
</g>
<!-- Post Sweep Event&#45;&gt;n9 -->
<g id="edge3" class="edge">
<title>Post Sweep Event&#45;&gt;n9</title>
<path fill="none" stroke="#9ecae1" d="M309.76,-279.56C291.85,-269.87 268.52,-257.24 247.53,-245.88"/>
<polygon fill="#9ecae1" stroke="#9ecae1" points="249.16,-242.79 238.7,-241.11 245.83,-248.94 249.16,-242.79"/>
</g>
<!-- n5 -->
<g id="node5" class="node">
<title>n5</title>
<ellipse fill="#eff3ff" stroke="#bdd7e7" cx="601.45" cy="-216.17" rx="194.41" ry="25.41"/>
<text text-anchor="middle" x="601.45" y="-219.77" font-family="Helvetica,sans-Serif" font-size="13.00" fill="#2171b5">Iterate over all asynchronous channels</text>
<text text-anchor="middle" x="601.45" y="-205.77" font-family="Helvetica,sans-Serif" font-size="13.00" fill="#2171b5"> given in &quot;AsyncQCChannels&quot;</text>
</g>
<!-- Pre Sweep Config Event&#45;&gt;n5 -->
<g id="edge4" class="edge">
<title>Pre Sweep Config Event&#45;&gt;n5</title>
<path fill="none" stroke="#9ecae1" d="M581.88,-278.6C584.42,-270.64 587.53,-260.86 590.53,-251.46"/>
<polygon fill="#9ecae1" stroke="#9ecae1" points="593.87,-252.49 593.57,-241.9 587.2,-250.37 593.87,-252.49"/>
</g>
<!-- n10 -->
<g id="node6" class="node">
<title>n10</title>
<ellipse fill="#eff3ff" stroke="#bdd7e7" cx="194.45" cy="-118.36" rx="186.85" ry="35.21"/>
<text text-anchor="middle" x="194.45" y="-128.96" font-family="Helvetica,sans-Serif" font-size="13.00" fill="#2171b5">Collect alarm state of all</text>
<text text-anchor="middle" x="194.45" y="-114.96" font-family="Helvetica,sans-Serif" font-size="13.00" fill="#2171b5"> asynchronous channels and store</text>
<text text-anchor="middle" x="194.45" y="-100.96" font-family="Helvetica,sans-Serif" font-size="13.00" fill="#2171b5"> the and&#39;ed result in the labnotebook</text>
</g>
<!-- n9&#45;&gt;n10 -->
<g id="edge5" class="edge">
<title>n9&#45;&gt;n10</title>
<path fill="none" stroke="#9ecae1" d="M194.45,-190.49C194.45,-182.44 194.45,-173.22 194.45,-164.16"/>
<polygon fill="#9ecae1" stroke="#9ecae1" points="197.95,-164.06 194.45,-154.06 190.95,-164.06 197.95,-164.06"/>
</g>
<!-- n6 -->
<g id="node7" class="node">
<title>n6</title>
<ellipse fill="#eff3ff" stroke="#bdd7e7" cx="520.45" cy="-118.36" rx="66.15" ry="18"/>
<text text-anchor="middle" x="520.45" y="-114.96" font-family="Helvetica,sans-Serif" font-size="13.00" fill="#2171b5">Is it enabled?</text>
</g>
<!-- n5&#45;&gt;n6 -->
<g id="edge6" class="edge">
<title>n5&#45;&gt;n6</title>
<path fill="none" stroke="#9ecae1" d="M580.59,-190.49C568.53,-176.22 553.39,-158.31 541.32,-144.03"/>
<polygon fill="#9ecae1" stroke="#9ecae1" points="543.74,-141.48 534.61,-136.1 538.4,-146 543.74,-141.48"/>
</g>
<!-- n7 -->
<g id="node8" class="node">
<title>n7</title>
<ellipse fill="#eff3ff" stroke="#bdd7e7" cx="706.45" cy="-118.36" rx="101.9" ry="18"/>
<text text-anchor="middle" x="706.45" y="-114.96" font-family="Helvetica,sans-Serif" font-size="13.00" fill="#2171b5">Is the alarm enabled?</text>
</g>
<!-- n5&#45;&gt;n7 -->
<g id="edge7" class="edge">
<title>n5&#45;&gt;n7</title>
<path fill="none" stroke="#9ecae1" d="M628.22,-190.74C644.3,-176.07 664.67,-157.49 680.59,-142.96"/>
<polygon fill="#9ecae1" stroke="#9ecae1" points="682.98,-145.52 688.01,-136.19 678.26,-140.35 682.98,-145.52"/>
</g>
<!-- n4 -->
<g id="node9" class="node">
<title>n4</title>
<ellipse fill="#eff3ff" stroke="#bdd7e7" cx="612.45" cy="-18" rx="33.46" ry="18"/>
<text text-anchor="middle" x="612.45" y="-14.6" font-family="Helvetica,sans-Serif" font-size="13.00" fill="#2171b5">Abort</text>
</g>
<!-- n6&#45;&gt;n4 -->
<g id="edge8" class="edge">
<title>n6&#45;&gt;n4</title>
<path fill="none" stroke="#9ecae1" d="M536.06,-100.67C551.09,-84.61 573.95,-60.17 590.74,-42.21"/>
<polygon fill="#9ecae1" stroke="#9ecae1" points="593.71,-44.16 597.99,-34.47 588.6,-39.38 593.71,-44.16"/>
<text text-anchor="middle" x="584.45" y="-57" font-family="Helvetica,sans-Serif" font-size="10.00" fill="#3182bd">No</text>
</g>
<!-- n7&#45;&gt;n4 -->
<g id="edge9" class="edge">
<title>n7&#45;&gt;n4</title>
<path fill="none" stroke="#9ecae1" d="M690.08,-100.22C674.66,-84.09 651.46,-59.81 634.43,-42"/>
<polygon fill="#9ecae1" stroke="#9ecae1" points="636.54,-39.13 627.1,-34.32 631.48,-43.97 636.54,-39.13"/>
<text text-anchor="middle" x="661.45" y="-57" font-family="Helvetica,sans-Serif" font-size="10.00" fill="#3182bd">No</text>
</g>
</g>
</svg>
